<svg width="285" height="87" viewBox="0 0 285 87" fill="none" xmlns="http://www.w3.org/2000/svg">
<rect width="285" height="87" rx="10" fill="black"/>
<path d="M0 10C0 4.47715 4.47715 0 10 0H181V87H10C4.47715 87 0 82.5229 0 77V10Z" fill="#7BE849"/>
<path d="M248.042 79V70.838C248.042 70.7727 248.014 70.7167 247.958 70.67C247.912 70.614 247.856 70.586 247.79 70.586H241.322V68.906H247.846C248.182 68.906 248.49 68.99 248.77 69.158C249.06 69.326 249.288 69.5547 249.456 69.844C249.624 70.124 249.708 70.4367 249.708 70.782V79H248.042ZM253.196 79C252.851 79 252.534 78.916 252.244 78.748C251.964 78.5707 251.74 78.342 251.572 78.062C251.404 77.782 251.32 77.4693 251.32 77.124V74.884C251.32 74.7067 251.348 74.534 251.404 74.366C251.47 74.1887 251.549 74.016 251.642 73.848C251.549 73.6893 251.47 73.5213 251.404 73.344C251.348 73.1573 251.32 72.9753 251.32 72.798V70.796C251.32 70.4413 251.404 70.124 251.572 69.844C251.74 69.564 251.964 69.34 252.244 69.172C252.534 69.004 252.851 68.92 253.196 68.92H259.468C259.767 68.92 260.047 68.99 260.308 69.13C260.57 69.27 260.794 69.4567 260.98 69.69C261.167 69.9233 261.288 70.18 261.344 70.46V72.798C261.344 73.1527 261.237 73.5027 261.022 73.848C261.237 74.1653 261.344 74.5107 261.344 74.884V77.124C261.344 77.4693 261.26 77.782 261.092 78.062C260.924 78.342 260.696 78.5707 260.406 78.748C260.126 78.916 259.814 79 259.468 79H253.196ZM253.252 77.334H259.426C259.492 77.334 259.548 77.3107 259.594 77.264C259.65 77.208 259.678 77.1427 259.678 77.068V74.954C259.678 74.8793 259.65 74.8187 259.594 74.772C259.548 74.716 259.492 74.688 259.426 74.688H253.252C253.178 74.688 253.112 74.716 253.056 74.772C253.01 74.8187 252.986 74.8793 252.986 74.954V77.068C252.986 77.1427 253.01 77.208 253.056 77.264C253.112 77.3107 253.178 77.334 253.252 77.334ZM253.252 73.162H259.426C259.492 73.162 259.548 73.1387 259.594 73.092C259.65 73.036 259.678 72.9707 259.678 72.896V70.866C259.678 70.7913 259.65 70.7307 259.594 70.684C259.548 70.628 259.492 70.6 259.426 70.6H253.252C253.178 70.6 253.112 70.628 253.056 70.684C253.01 70.7307 252.986 70.7913 252.986 70.866V72.896C252.986 72.9707 253.01 73.036 253.056 73.092C253.112 73.1387 253.178 73.162 253.252 73.162ZM264.088 79V77.124L273.678 68.99L274.126 68.92V70.782L264.578 78.902L264.088 79ZM264.676 73.68C264.331 73.68 264.023 73.6007 263.752 73.442C263.482 73.2833 263.267 73.0687 263.108 72.798C262.95 72.518 262.87 72.21 262.87 71.874V70.782C262.87 70.4367 262.95 70.1287 263.108 69.858C263.267 69.5873 263.482 69.3727 263.752 69.214C264.023 69.0553 264.331 68.976 264.676 68.976H265.908C266.254 68.976 266.562 69.0553 266.832 69.214C267.103 69.3727 267.318 69.5873 267.476 69.858C267.635 70.1287 267.714 70.4367 267.714 70.782V71.874C267.714 72.21 267.635 72.518 267.476 72.798C267.318 73.0687 267.103 73.2833 266.832 73.442C266.562 73.6007 266.254 73.68 265.908 73.68H264.676ZM264.438 72.336H266.132C266.207 72.336 266.268 72.3127 266.314 72.266C266.361 72.2193 266.384 72.1633 266.384 72.098V70.558C266.384 70.4833 266.361 70.4227 266.314 70.376C266.268 70.3293 266.207 70.306 266.132 70.306H264.438C264.373 70.306 264.317 70.3293 264.27 70.376C264.224 70.4227 264.2 70.4833 264.2 70.558V72.098C264.2 72.1633 264.224 72.2193 264.27 72.266C264.317 72.3127 264.373 72.336 264.438 72.336ZM272.04 78.944C271.704 78.944 271.401 78.8647 271.13 78.706C270.86 78.5473 270.645 78.3327 270.486 78.062C270.328 77.7913 270.248 77.4833 270.248 77.138V76.046C270.248 75.7007 270.328 75.3927 270.486 75.122C270.645 74.8513 270.86 74.6367 271.13 74.478C271.401 74.3193 271.704 74.24 272.04 74.24H273.272C273.618 74.24 273.926 74.3193 274.196 74.478C274.467 74.6367 274.682 74.8513 274.84 75.122C274.999 75.3927 275.078 75.7007 275.078 76.046V77.138C275.078 77.4833 274.999 77.7913 274.84 78.062C274.682 78.3327 274.467 78.5473 274.196 78.706C273.926 78.8647 273.618 78.944 273.272 78.944H272.04ZM271.816 77.614H273.51C273.576 77.614 273.632 77.5907 273.678 77.544C273.725 77.4973 273.748 77.4413 273.748 77.376V75.808C273.748 75.7427 273.725 75.6867 273.678 75.64C273.632 75.5933 273.576 75.57 273.51 75.57H271.816C271.751 75.57 271.695 75.5933 271.648 75.64C271.602 75.6867 271.578 75.7427 271.578 75.808V77.376C271.578 77.4413 271.602 77.4973 271.648 77.544C271.695 77.5907 271.751 77.614 271.816 77.614Z" fill="#7BE849"/>
<path d="M16.3213 57C15.4333 57 14.6173 56.784 13.8733 56.352C13.1533 55.896 12.5773 55.308 12.1453 54.588C11.7133 53.868 11.4973 53.064 11.4973 52.176V46.416C11.4973 45.96 11.5693 45.516 11.7133 45.084C11.8813 44.628 12.0853 44.184 12.3253 43.752C12.0853 43.344 11.8813 42.912 11.7133 42.456C11.5693 41.976 11.4973 41.508 11.4973 41.052V35.904C11.4973 34.992 11.7133 34.176 12.1453 33.456C12.5773 32.736 13.1533 32.16 13.8733 31.728C14.6173 31.296 15.4333 31.08 16.3213 31.08H32.4493C33.2173 31.08 33.9373 31.26 34.6093 31.62C35.2813 31.98 35.8573 32.46 36.3373 33.06C36.8173 33.66 37.1293 34.32 37.2733 35.04V41.052C37.2733 41.964 36.9973 42.864 36.4453 43.752C36.9973 44.568 37.2733 45.456 37.2733 46.416V52.176C37.2733 53.064 37.0573 53.868 36.6253 54.588C36.1933 55.308 35.6053 55.896 34.8613 56.352C34.1413 56.784 33.3373 57 32.4493 57H16.3213ZM16.4653 52.716H32.3413C32.5093 52.716 32.6533 52.656 32.7733 52.536C32.9173 52.392 32.9893 52.224 32.9893 52.032V46.596C32.9893 46.404 32.9173 46.248 32.7733 46.128C32.6533 45.984 32.5093 45.912 32.3413 45.912H16.4653C16.2733 45.912 16.1053 45.984 15.9613 46.128C15.8413 46.248 15.7813 46.404 15.7813 46.596V52.032C15.7813 52.224 15.8413 52.392 15.9613 52.536C16.1053 52.656 16.2733 52.716 16.4653 52.716ZM16.4653 41.988H32.3413C32.5093 41.988 32.6533 41.928 32.7733 41.808C32.9173 41.664 32.9893 41.496 32.9893 41.304V36.084C32.9893 35.892 32.9173 35.736 32.7733 35.616C32.6533 35.472 32.5093 35.4 32.3413 35.4H16.4653C16.2733 35.4 16.1053 35.472 15.9613 35.616C15.8413 35.736 15.7813 35.892 15.7813 36.084V41.304C15.7813 41.496 15.8413 41.664 15.9613 41.808C16.1053 41.928 16.2733 41.988 16.4653 41.988ZM46.3448 57C45.4568 57 44.6408 56.784 43.8968 56.352C43.1768 55.896 42.6008 55.308 42.1688 54.588C41.7368 53.868 41.5208 53.064 41.5208 52.176V50.628H45.8048V52.032C45.8048 52.224 45.8648 52.392 45.9848 52.536C46.1288 52.656 46.2968 52.716 46.4888 52.716H62.3648C62.5328 52.716 62.6768 52.656 62.7968 52.536C62.9408 52.392 63.0128 52.224 63.0128 52.032V46.596C63.0128 46.404 62.9408 46.248 62.7968 46.128C62.6768 45.984 62.5328 45.912 62.3648 45.912H41.5208V31.08H67.2968V35.364H46.4888C46.2968 35.364 46.1288 35.436 45.9848 35.58C45.8648 35.7 45.8048 35.856 45.8048 36.048V40.908C45.8048 41.1 45.8648 41.268 45.9848 41.412C46.1288 41.532 46.2968 41.592 46.4888 41.592H62.4728C63.3608 41.592 64.1648 41.808 64.8848 42.24C65.6288 42.672 66.2168 43.26 66.6488 44.004C67.0808 44.724 67.2968 45.528 67.2968 46.416V52.176C67.2968 53.064 67.0808 53.868 66.6488 54.588C66.2168 55.308 65.6288 55.896 64.8848 56.352C64.1648 56.784 63.3608 57 62.4728 57H46.3448ZM81.1542 57V41.6H83.5342V50H85.8742L90.1142 45.4H92.7542V45.96L87.9942 51.2L92.7542 56.44V57H90.1142L85.8742 52.4H83.5342V57H81.1542ZM94.0839 57V45.4H108.684C109.191 45.4 109.644 45.5267 110.044 45.78C110.444 46.02 110.764 46.34 111.004 46.74C111.244 47.14 111.364 47.5867 111.364 48.08V57H108.984V48.16C108.984 48.0533 108.944 47.9667 108.864 47.9C108.797 47.82 108.711 47.78 108.604 47.78H104.304C104.211 47.78 104.124 47.82 104.044 47.9C103.977 47.9667 103.944 48.0533 103.944 48.16V57H101.524V48.16C101.524 48.0533 101.491 47.9667 101.424 47.9C101.357 47.82 101.271 47.78 101.164 47.78H96.8439C96.7506 47.78 96.6639 47.82 96.5839 47.9C96.5172 47.9667 96.4839 48.0533 96.4839 48.16V57H94.0839Z" fill="black"/>
</svg>
