<svg width="286" height="285" viewBox="0 0 286 285" fill="none" xmlns="http://www.w3.org/2000/svg">
<rect width="285" height="285" rx="10" fill="black"/>
<mask id="path-2-outside-1_306_4" maskUnits="userSpaceOnUse" x="0" y="46" width="285" height="112" fill="black">
<rect fill="white" y="46" width="285" height="112"/>
<path d="M0 46H285V145H0V46Z"/>
</mask>
<path d="M0 46H285V145H0V46Z" fill="#131313"/>
<path d="M285 132H0V158H285V132Z" fill="#6BCB40" mask="url(#path-2-outside-1_306_4)"/>
<path d="M12.52 34C12.16 34 11.8467 33.88 11.58 33.64C11.3133 33.4 11.18 33.1133 11.18 32.78V21.22C11.18 20.8867 11.3067 20.6 11.56 20.36C11.8267 20.12 12.1467 20 12.52 20H17.9C19.18 20 20.2 20.36 20.96 21.08C21.7333 21.7867 22.12 22.74 22.12 23.94C22.12 24.5133 21.9667 25.06 21.66 25.58C21.3533 26.0867 20.9467 26.48 20.44 26.76V26.82C21.1333 27.06 21.68 27.4533 22.08 28C22.4933 28.5467 22.7 29.1733 22.7 29.88C22.7 30.68 22.5133 31.3933 22.14 32.02C21.7667 32.6467 21.2467 33.1333 20.58 33.48C19.9133 33.8267 19.1533 34 18.3 34H12.52ZM17.86 25.88C18.3 25.88 18.6733 25.7 18.98 25.34C19.3 24.98 19.46 24.5467 19.46 24.04C19.46 23.4933 19.3133 23.06 19.02 22.74C18.74 22.42 18.3533 22.26 17.86 22.26H13.78V25.88H17.86ZM18.26 31.74C18.8067 31.74 19.24 31.58 19.56 31.26C19.88 30.9267 20.04 30.4733 20.04 29.9C20.04 29.34 19.88 28.9067 19.56 28.6C19.2533 28.28 18.82 28.12 18.26 28.12H13.78V31.74H18.26ZM27.8398 34.18C27.1598 34.18 26.5332 34.0467 25.9598 33.78C25.3998 33.5133 24.9465 33.1333 24.5998 32.64C24.2665 32.1333 24.0998 31.5333 24.0998 30.84C24.0998 30.1467 24.2798 29.5467 24.6398 29.04C24.9998 28.52 25.4865 28.1267 26.0998 27.86C26.7265 27.58 27.4132 27.44 28.1598 27.44C28.7732 27.44 29.3198 27.54 29.7998 27.74C30.2932 27.9267 30.7465 28.2133 31.1598 28.6L31.2598 28.5C31.1398 28.38 30.9332 28.2 30.6398 27.96V27.56C30.6398 27.0133 30.4465 26.58 30.0598 26.26C29.6732 25.94 29.1332 25.78 28.4398 25.78C27.1998 25.78 26.2865 26.2333 25.6998 27.14C25.4065 27.0467 25.1598 26.9 24.9598 26.7C24.7598 26.4867 24.6598 26.26 24.6598 26.02C24.6598 25.62 24.8398 25.2533 25.1998 24.92C25.5598 24.5867 26.0465 24.32 26.6598 24.12C27.2732 23.92 27.9398 23.82 28.6598 23.82C30.0732 23.82 31.1665 24.1533 31.9398 24.82C32.7132 25.4733 33.0998 26.3667 33.0998 27.5V32.5C33.0998 33.0867 32.9132 33.5133 32.5398 33.78C32.1665 34.0467 31.5798 34.18 30.7798 34.18V33.36C31.0065 33.1333 31.1598 32.9667 31.2398 32.86L31.1598 32.76C30.7198 33.2267 30.2465 33.58 29.7398 33.82C29.2465 34.06 28.6132 34.18 27.8398 34.18ZM28.4798 32.36C29.1732 32.36 29.7132 32.2267 30.0998 31.96C30.4865 31.6933 30.6798 31.3133 30.6798 30.82C30.6798 30.34 30.4798 29.96 30.0798 29.68C29.6932 29.4 29.1665 29.26 28.4998 29.26C27.8865 29.26 27.3998 29.4 27.0398 29.68C26.6932 29.9467 26.5198 30.3267 26.5198 30.82C26.5198 31.3267 26.6932 31.7133 27.0398 31.98C27.3865 32.2333 27.8665 32.36 28.4798 32.36ZM39.2017 34.18C38.1217 34.18 37.3217 33.8667 36.8017 33.24C36.2817 32.6133 36.0217 31.8067 36.0217 30.82V25.86H33.9617C33.9617 25.2333 34.0817 24.7667 34.3217 24.46C34.5617 24.1533 34.8817 24 35.2817 24H36.0617V22.34C36.0617 21.7933 36.2617 21.4067 36.6617 21.18C37.0617 20.94 37.6684 20.82 38.4817 20.82V24H41.1417C41.1417 24.6667 41.0151 25.1467 40.7617 25.44C40.5084 25.72 40.1017 25.86 39.5417 25.86H38.5217V30.72C38.5217 31.1867 38.6084 31.52 38.7817 31.72C38.9684 31.92 39.2817 32.02 39.7217 32.02C40.1884 32.02 40.6551 31.8933 41.1217 31.64C41.2551 31.76 41.3617 31.9133 41.4417 32.1C41.5217 32.2733 41.5617 32.4533 41.5617 32.64C41.5617 33.04 41.3551 33.4 40.9417 33.72C40.5284 34.0267 39.9484 34.18 39.2017 34.18ZM47.1119 34.18C46.0319 34.18 45.2319 33.8667 44.7119 33.24C44.1919 32.6133 43.9319 31.8067 43.9319 30.82V25.86H41.8719C41.8719 25.2333 41.9919 24.7667 42.2319 24.46C42.4719 24.1533 42.7919 24 43.1919 24H43.9719V22.34C43.9719 21.7933 44.1719 21.4067 44.5719 21.18C44.9719 20.94 45.5785 20.82 46.3919 20.82V24H49.0519C49.0519 24.6667 48.9252 25.1467 48.6719 25.44C48.4185 25.72 48.0119 25.86 47.4519 25.86H46.4319V30.72C46.4319 31.1867 46.5185 31.52 46.6919 31.72C46.8785 31.92 47.1919 32.02 47.6319 32.02C48.0985 32.02 48.5652 31.8933 49.0319 31.64C49.1652 31.76 49.2719 31.9133 49.3519 32.1C49.4319 32.2733 49.4719 32.4533 49.4719 32.64C49.4719 33.04 49.2652 33.4 48.8519 33.72C48.4385 34.0267 47.8585 34.18 47.1119 34.18ZM55.1884 34.18C54.3618 34.18 53.6084 34.02 52.9284 33.7C52.2484 33.3667 51.7084 32.92 51.3084 32.36C50.9084 31.7867 50.7084 31.1467 50.7084 30.44V27.78C50.7084 27.0333 50.9151 26.36 51.3284 25.76C51.7418 25.16 52.2884 24.6867 52.9684 24.34C53.6618 23.9933 54.4084 23.82 55.2084 23.82C55.9951 23.82 56.7151 23.9867 57.3684 24.32C58.0351 24.64 58.5618 25.0933 58.9484 25.68C59.3351 26.2533 59.5284 26.9133 59.5284 27.66V28.78C59.5284 29.0733 59.4151 29.32 59.1884 29.52C58.9751 29.72 58.7018 29.82 58.3684 29.82H53.1284V30.26C53.1284 30.8333 53.3018 31.3 53.6484 31.66C53.9951 32.02 54.5151 32.2 55.2084 32.2C55.8751 32.2 56.3684 32.0533 56.6884 31.76C57.0218 31.4667 57.1884 31.0867 57.1884 30.62C57.4284 30.5933 57.5951 30.58 57.6884 30.58C58.1818 30.58 58.5684 30.6933 58.8484 30.92C59.1284 31.1333 59.2684 31.44 59.2684 31.84C59.2684 32.2267 59.0884 32.6 58.7284 32.96C58.3684 33.32 57.8751 33.6133 57.2484 33.84C56.6218 34.0667 55.9351 34.18 55.1884 34.18ZM57.2684 28.04V27.66C57.2684 27.1 57.0751 26.6467 56.6884 26.3C56.3018 25.9533 55.8018 25.78 55.1884 25.78C54.5751 25.78 54.0751 25.9533 53.6884 26.3C53.3151 26.6333 53.1284 27.0867 53.1284 27.66V28.04H57.2684ZM66.5934 25.98C65.8068 25.98 65.1668 26.1933 64.6734 26.62C64.1801 27.0333 63.9334 27.5533 63.9334 28.18V32.66C63.9334 33.1933 63.7334 33.58 63.3334 33.82C62.9334 34.06 62.3068 34.18 61.4534 34.18V25.74C61.4534 25.1267 61.6468 24.6533 62.0334 24.32C62.4334 23.9867 63.0334 23.82 63.8334 23.82V25C63.6334 25.2267 63.4734 25.4467 63.3534 25.66L63.4734 25.74C64.3134 24.46 65.3668 23.82 66.6334 23.82C67.2068 23.82 67.6401 23.9733 67.9334 24.28C68.2268 24.5733 68.3734 24.9467 68.3734 25.4C68.3734 25.7467 68.2801 26.04 68.0934 26.28C67.7334 26.08 67.2334 25.98 66.5934 25.98ZM70.7878 38.18C70.2678 38.18 69.8545 38 69.5478 37.64C69.2545 37.28 69.1078 36.76 69.1078 36.08C69.5078 36.1467 69.8411 36.18 70.1078 36.18C70.6145 36.18 71.0145 36.0467 71.3078 35.78C71.6145 35.5133 71.9478 34.98 72.3078 34.18L72.6278 33.44L68.7678 24.02C68.8611 23.9667 69.0211 23.92 69.2478 23.88C69.4878 23.84 69.6811 23.82 69.8278 23.82C70.2145 23.82 70.5678 23.9067 70.8878 24.08C71.2078 24.24 71.4278 24.4667 71.5478 24.76L73.6878 30.38L73.3478 31.32L73.5278 31.38L76.1078 24.76C76.2278 24.4533 76.4411 24.22 76.7478 24.06C77.0678 23.9 77.4211 23.82 77.8078 23.82C77.9545 23.82 78.1411 23.84 78.3678 23.88C78.6078 23.92 78.7811 23.9667 78.8878 24.02L74.4078 34.9C73.9411 36.02 73.4278 36.8467 72.8678 37.38C72.3211 37.9133 71.6278 38.18 70.7878 38.18ZM91.4652 34.18C90.2652 34.18 89.2185 34.0333 88.3252 33.74C87.4318 33.4467 86.7452 33.0333 86.2652 32.5C85.7985 31.9533 85.5652 31.32 85.5652 30.6C85.5652 29.5067 86.3052 28.96 87.7852 28.96C87.8385 29.9733 88.1785 30.74 88.8052 31.26C89.4452 31.78 90.3385 32.04 91.4852 32.04C92.4318 32.04 93.1652 31.88 93.6852 31.56C94.2052 31.2267 94.4652 30.7667 94.4652 30.18C94.4652 29.7933 94.3652 29.48 94.1652 29.24C93.9652 28.9867 93.6252 28.7667 93.1452 28.58C92.6652 28.38 91.9652 28.18 91.0452 27.98C89.7385 27.6733 88.7052 27.3333 87.9452 26.96C87.1985 26.5867 86.6585 26.14 86.3252 25.62C85.9918 25.0867 85.8252 24.4267 85.8252 23.64C85.8252 22.88 86.0452 22.2133 86.4852 21.64C86.9385 21.0667 87.5718 20.62 88.3852 20.3C89.2118 19.98 90.1585 19.82 91.2252 19.82C92.2518 19.82 93.1652 19.96 93.9652 20.24C94.7785 20.5067 95.4118 20.8867 95.8652 21.38C96.3318 21.8733 96.5652 22.44 96.5652 23.08C96.5652 24.0667 95.8518 24.58 94.4252 24.62C94.3452 23.7 94.0518 23.0267 93.5452 22.6C93.0385 22.1733 92.2652 21.96 91.2252 21.96C90.3318 21.96 89.6452 22.1067 89.1652 22.4C88.6852 22.6933 88.4452 23.1067 88.4452 23.64C88.4452 24.0133 88.5385 24.3267 88.7252 24.58C88.9118 24.82 89.2252 25.0333 89.6652 25.22C90.1052 25.3933 90.7318 25.5733 91.5452 25.76C92.9185 26.0667 94.0052 26.4133 94.8052 26.8C95.6052 27.1733 96.1852 27.6333 96.5452 28.18C96.9052 28.7133 97.0852 29.3733 97.0852 30.16C97.0852 30.9733 96.8518 31.6867 96.3852 32.3C95.9318 32.9 95.2785 33.3667 94.4252 33.7C93.5852 34.02 92.5985 34.18 91.4652 34.18ZM103.088 34.18C102.008 34.18 101.208 33.8667 100.688 33.24C100.168 32.6133 99.9084 31.8067 99.9084 30.82V25.86H97.8484C97.8484 25.2333 97.9684 24.7667 98.2084 24.46C98.4484 24.1533 98.7684 24 99.1684 24H99.9484V22.34C99.9484 21.7933 100.148 21.4067 100.548 21.18C100.948 20.94 101.555 20.82 102.368 20.82V24H105.028C105.028 24.6667 104.902 25.1467 104.648 25.44C104.395 25.72 103.988 25.86 103.428 25.86H102.408V30.72C102.408 31.1867 102.495 31.52 102.668 31.72C102.855 31.92 103.168 32.02 103.608 32.02C104.075 32.02 104.542 31.8933 105.008 31.64C105.142 31.76 105.248 31.9133 105.328 32.1C105.408 32.2733 105.448 32.4533 105.448 32.64C105.448 33.04 105.242 33.4 104.828 33.72C104.415 34.0267 103.835 34.18 103.088 34.18ZM110.047 34.18C109.367 34.18 108.74 34.0467 108.167 33.78C107.607 33.5133 107.154 33.1333 106.807 32.64C106.474 32.1333 106.307 31.5333 106.307 30.84C106.307 30.1467 106.487 29.5467 106.847 29.04C107.207 28.52 107.694 28.1267 108.307 27.86C108.934 27.58 109.62 27.44 110.367 27.44C110.98 27.44 111.527 27.54 112.007 27.74C112.5 27.9267 112.954 28.2133 113.367 28.6L113.467 28.5C113.347 28.38 113.14 28.2 112.847 27.96V27.56C112.847 27.0133 112.654 26.58 112.267 26.26C111.88 25.94 111.34 25.78 110.647 25.78C109.407 25.78 108.494 26.2333 107.907 27.14C107.614 27.0467 107.367 26.9 107.167 26.7C106.967 26.4867 106.867 26.26 106.867 26.02C106.867 25.62 107.047 25.2533 107.407 24.92C107.767 24.5867 108.254 24.32 108.867 24.12C109.48 23.92 110.147 23.82 110.867 23.82C112.28 23.82 113.374 24.1533 114.147 24.82C114.92 25.4733 115.307 26.3667 115.307 27.5V32.5C115.307 33.0867 115.12 33.5133 114.747 33.78C114.374 34.0467 113.787 34.18 112.987 34.18V33.36C113.214 33.1333 113.367 32.9667 113.447 32.86L113.367 32.76C112.927 33.2267 112.454 33.58 111.947 33.82C111.454 34.06 110.82 34.18 110.047 34.18ZM110.687 32.36C111.38 32.36 111.92 32.2267 112.307 31.96C112.694 31.6933 112.887 31.3133 112.887 30.82C112.887 30.34 112.687 29.96 112.287 29.68C111.9 29.4 111.374 29.26 110.707 29.26C110.094 29.26 109.607 29.4 109.247 29.68C108.9 29.9467 108.727 30.3267 108.727 30.82C108.727 31.3267 108.9 31.7133 109.247 31.98C109.594 32.2333 110.074 32.36 110.687 32.36ZM121.409 34.18C120.329 34.18 119.529 33.8667 119.009 33.24C118.489 32.6133 118.229 31.8067 118.229 30.82V25.86H116.169C116.169 25.2333 116.289 24.7667 116.529 24.46C116.769 24.1533 117.089 24 117.489 24H118.269V22.34C118.269 21.7933 118.469 21.4067 118.869 21.18C119.269 20.94 119.875 20.82 120.689 20.82V24H123.349C123.349 24.6667 123.222 25.1467 122.969 25.44C122.715 25.72 122.309 25.86 121.749 25.86H120.729V30.72C120.729 31.1867 120.815 31.52 120.989 31.72C121.175 31.92 121.489 32.02 121.929 32.02C122.395 32.02 122.862 31.8933 123.329 31.64C123.462 31.76 123.569 31.9133 123.649 32.1C123.729 32.2733 123.769 32.4533 123.769 32.64C123.769 33.04 123.562 33.4 123.149 33.72C122.735 34.0267 122.155 34.18 121.409 34.18ZM129.713 34.18C128.433 34.18 127.399 33.9533 126.613 33.5C125.839 33.0333 125.446 32.4133 125.433 31.64C125.433 31.3067 125.566 31.0267 125.833 30.8C126.113 30.5733 126.553 30.4533 127.153 30.44C127.273 31.0267 127.553 31.48 127.993 31.8C128.433 32.1067 128.966 32.26 129.593 32.26C130.273 32.26 130.806 32.1733 131.193 32C131.579 31.8267 131.773 31.5667 131.773 31.22C131.773 30.9 131.613 30.6333 131.293 30.42C130.986 30.2067 130.373 29.9933 129.453 29.78C128.453 29.54 127.673 29.3 127.113 29.06C126.566 28.82 126.159 28.5133 125.893 28.14C125.626 27.7667 125.493 27.2733 125.493 26.66C125.493 25.8067 125.853 25.12 126.573 24.6C127.293 24.08 128.279 23.82 129.533 23.82C130.746 23.82 131.753 24.04 132.553 24.48C133.353 24.9067 133.753 25.48 133.753 26.2C133.753 26.56 133.619 26.8267 133.353 27C133.086 27.1733 132.646 27.2667 132.033 27.28C131.899 26.7467 131.646 26.3467 131.273 26.08C130.899 25.8133 130.373 25.68 129.693 25.68C129.186 25.68 128.746 25.7667 128.373 25.94C128.013 26.1133 127.833 26.34 127.833 26.62C127.833 26.9133 127.986 27.14 128.293 27.3C128.599 27.46 129.133 27.62 129.893 27.78C131.386 28.1 132.466 28.5267 133.133 29.06C133.813 29.5933 134.153 30.32 134.153 31.24C134.153 32.1333 133.753 32.8467 132.953 33.38C132.166 33.9133 131.086 34.18 129.713 34.18Z" fill="white"/>
<path d="M49.936 70.84H21.52C18.64 70.84 16.432 69.912 14.896 68.056C13.424 66.136 12.688 63.384 12.688 59.8H59.632C61.488 59.8 62.96 60.312 64.048 61.336C65.2 62.296 65.776 63.544 65.776 65.08C65.776 66.04 65.552 66.968 65.104 67.864L37.264 123.832C35.92 126.52 33.68 127.864 30.544 127.864C28.88 127.864 27.408 127.672 26.128 127.288C24.912 126.904 23.76 126.296 22.672 125.464L49.936 70.84ZM99.7 127.96C94.132 127.96 89.268 127.128 85.108 125.464C80.948 123.736 77.748 121.336 75.508 118.264C73.268 115.128 72.148 111.48 72.148 107.32C72.148 103.8 73.108 100.696 75.028 98.008C76.948 95.32 79.764 93.176 83.476 91.576C77.46 88.248 74.452 83.672 74.452 77.848C74.452 74.2 75.508 70.936 77.62 68.056C79.796 65.176 82.804 62.936 86.644 61.336C90.484 59.736 94.836 58.936 99.7 58.936C104.692 58.936 109.108 59.736 112.948 61.336C116.788 62.936 119.764 65.176 121.876 68.056C123.988 70.872 125.044 74.136 125.044 77.848C125.044 83.672 122.004 88.248 115.924 91.576C119.636 93.176 122.452 95.32 124.372 98.008C126.356 100.696 127.348 103.8 127.348 107.32C127.348 111.48 126.228 115.128 123.988 118.264C121.748 121.4 118.548 123.8 114.388 125.464C110.228 127.128 105.332 127.96 99.7 127.96ZM99.7 87.16C103.668 87.16 106.772 86.392 109.012 84.856C111.316 83.32 112.468 81.176 112.468 78.424C112.468 75.608 111.38 73.464 109.204 71.992C107.092 70.456 103.924 69.688 99.7 69.688C95.604 69.688 92.436 70.456 90.196 71.992C88.02 73.464 86.932 75.608 86.932 78.424C86.932 81.112 88.084 83.256 90.388 84.856C92.756 86.392 95.86 87.16 99.7 87.16ZM99.7 117.112C109.748 117.112 114.772 113.688 114.772 106.84C114.772 103.448 113.46 100.856 110.836 99.064C108.212 97.208 104.5 96.28 99.7 96.28C95.028 96.28 91.348 97.24 88.66 99.16C85.972 101.016 84.628 103.576 84.628 106.84C84.628 110.168 85.908 112.728 88.468 114.52C91.092 116.248 94.836 117.112 99.7 117.112ZM149.306 104.824C149.519 104.376 149.839 104.035 150.266 103.8C150.714 103.544 151.204 103.416 151.738 103.416C152.612 103.416 153.402 103.693 154.106 104.248L142.906 126.744C142.671 127.192 142.34 127.533 141.914 127.768C141.487 128.024 141.007 128.152 140.474 128.152C139.642 128.152 138.852 127.864 138.106 127.288L149.306 104.824ZM137.882 117.688C136.836 117.688 135.876 117.485 135.002 117.08C134.127 116.653 133.434 116.077 132.922 115.352C132.41 114.627 132.154 113.837 132.154 112.984V109.016C132.154 108.163 132.399 107.373 132.89 106.648C133.402 105.923 134.095 105.357 134.97 104.952C135.844 104.525 136.815 104.312 137.882 104.312C138.948 104.312 139.908 104.525 140.762 104.952C141.636 105.357 142.319 105.923 142.81 106.648C143.322 107.352 143.578 108.141 143.578 109.016V112.984C143.578 113.837 143.322 114.627 142.81 115.352C142.319 116.077 141.636 116.653 140.762 117.08C139.887 117.485 138.927 117.688 137.882 117.688ZM137.882 114.36C138.436 114.36 138.863 114.221 139.161 113.944C139.46 113.645 139.61 113.283 139.61 112.856V109.144C139.61 108.717 139.45 108.365 139.13 108.088C138.831 107.789 138.415 107.64 137.882 107.64C137.327 107.64 136.89 107.789 136.57 108.088C136.25 108.365 136.09 108.717 136.09 109.144V112.856C136.09 113.283 136.239 113.645 136.538 113.944C136.858 114.221 137.306 114.36 137.882 114.36ZM154.266 127.288C153.199 127.288 152.228 127.075 151.354 126.648C150.479 126.221 149.786 125.656 149.274 124.952C148.783 124.227 148.538 123.437 148.538 122.584V118.616C148.538 117.763 148.783 116.973 149.274 116.248C149.786 115.523 150.479 114.957 151.354 114.552C152.228 114.125 153.199 113.912 154.266 113.912C155.332 113.912 156.292 114.125 157.146 114.552C158.02 114.957 158.703 115.523 159.194 116.248C159.684 116.952 159.93 117.741 159.93 118.616V122.584C159.93 123.437 159.674 124.227 159.162 124.952C158.671 125.656 157.988 126.221 157.114 126.648C156.26 127.075 155.311 127.288 154.266 127.288ZM154.458 123.864C155.012 123.864 155.46 123.725 155.802 123.448C156.143 123.149 156.314 122.787 156.314 122.36V118.84C156.314 118.413 156.132 118.061 155.77 117.784C155.428 117.485 154.991 117.336 154.458 117.336C153.882 117.336 153.412 117.485 153.05 117.784C152.708 118.061 152.538 118.413 152.538 118.84V122.36C152.538 122.765 152.708 123.117 153.05 123.416C153.412 123.715 153.882 123.864 154.458 123.864Z" fill="#7BE849"/>
<line x1="137" y1="28.5" x2="285.003" y2="28.5" stroke="#7BE849" stroke-width="3"/>
<path d="M203.4 85.18C202.307 85.18 201.333 85.02 200.48 84.7C199.627 84.3667 198.96 83.9067 198.48 83.32C198 82.72 197.76 82.04 197.76 81.28C197.76 80.6533 197.96 80.2 198.36 79.92C198.773 79.64 199.44 79.5 200.36 79.5C200.32 79.7533 200.3 80.0533 200.3 80.4C200.3 81.2 200.56 81.8133 201.08 82.24C201.613 82.6533 202.387 82.86 203.4 82.86C204.4 82.86 205.153 82.7 205.66 82.38C206.18 82.06 206.44 81.5867 206.44 80.96C206.44 79.6533 205.553 79 203.78 79H203.12C202.787 79 202.513 78.8933 202.3 78.68C202.087 78.4667 201.98 78.1933 201.98 77.86C201.98 77.5133 202.08 77.24 202.28 77.04C202.493 76.8267 202.773 76.72 203.12 76.72H203.8C205.293 76.72 206.04 76.1133 206.04 74.9C206.04 74.3267 205.82 73.8933 205.38 73.6C204.94 73.2933 204.307 73.14 203.48 73.14C202.573 73.14 201.873 73.3 201.38 73.62C200.887 73.9267 200.64 74.3733 200.64 74.96C200.64 75.2133 200.667 75.5 200.72 75.82C199.947 75.8467 199.313 75.7133 198.82 75.42C198.34 75.1267 198.1 74.7333 198.1 74.24C198.1 73.5733 198.327 72.98 198.78 72.46C199.233 71.94 199.867 71.54 200.68 71.26C201.507 70.9667 202.44 70.82 203.48 70.82C204.533 70.82 205.46 70.9867 206.26 71.32C207.06 71.6533 207.673 72.1333 208.1 72.76C208.54 73.3733 208.76 74.0867 208.76 74.9C208.76 76.1533 208.113 77.14 206.82 77.86C207.66 78.22 208.253 78.64 208.6 79.12C208.96 79.6 209.14 80.2133 209.14 80.96C209.14 81.8 208.9 82.54 208.42 83.18C207.94 83.82 207.267 84.3133 206.4 84.66C205.533 85.0067 204.533 85.18 203.4 85.18ZM217.411 81.54H211.571C211.224 81.54 210.951 81.4467 210.751 81.26C210.551 81.0733 210.451 80.8267 210.451 80.52C210.451 80.1733 210.544 79.9 210.731 79.7L217.751 71.24C217.857 71.1067 218.017 71.0067 218.231 70.94C218.444 70.86 218.671 70.82 218.911 70.82C219.257 70.82 219.544 70.9333 219.771 71.16C219.997 71.3733 220.111 71.6467 220.111 71.98V79.26H222.411C222.411 80.06 222.271 80.64 221.991 81C221.724 81.36 221.297 81.54 220.711 81.54H220.111V83.48C220.111 84.0667 219.891 84.5 219.451 84.78C219.024 85.0467 218.344 85.18 217.411 85.18V81.54ZM217.571 79.26V75.24L218.311 74.26L218.151 74.16L213.951 79.26H217.571ZM227.437 79.06C226.69 79.06 226.037 78.92 225.477 78.64C224.917 78.36 224.483 77.9867 224.177 77.52C223.883 77.0533 223.737 76.5467 223.737 76V73.88C223.737 73.3333 223.883 72.8267 224.177 72.36C224.483 71.8933 224.917 71.52 225.477 71.24C226.037 70.96 226.69 70.82 227.437 70.82C228.197 70.82 228.857 70.96 229.417 71.24C229.977 71.52 230.403 71.8933 230.697 72.36C231.003 72.8267 231.157 73.3333 231.157 73.88V76C231.157 76.5467 231.003 77.0533 230.697 77.52C230.403 77.9867 229.977 78.36 229.417 78.64C228.857 78.92 228.197 79.06 227.437 79.06ZM227.437 77.32C227.943 77.32 228.357 77.2 228.677 76.96C228.997 76.7067 229.157 76.3733 229.157 75.96V73.92C229.157 73.4933 228.997 73.16 228.677 72.92C228.357 72.6667 227.943 72.54 227.437 72.54C226.93 72.54 226.517 72.6667 226.197 72.92C225.877 73.16 225.717 73.4933 225.717 73.92V75.96C225.717 76.3733 225.877 76.7067 226.197 76.96C226.517 77.2 226.93 77.32 227.437 77.32ZM238.842 85.18C237.656 85.18 236.596 84.9533 235.662 84.5C234.742 84.0467 234.022 83.4133 233.502 82.6C232.982 81.7867 232.722 80.86 232.722 79.82V76.14C232.722 75.1 232.976 74.18 233.482 73.38C234.002 72.5667 234.716 71.94 235.622 71.5C236.529 71.0467 237.569 70.82 238.742 70.82C239.916 70.82 240.956 71 241.862 71.36C242.782 71.7067 243.496 72.2 244.002 72.84C244.509 73.4667 244.762 74.1867 244.762 75C244.762 75.4933 244.596 75.8867 244.262 76.18C243.942 76.46 243.509 76.6 242.962 76.6C242.696 76.6 242.402 76.56 242.082 76.48C242.109 76.16 242.122 75.8467 242.122 75.54C242.122 74.8333 241.809 74.26 241.182 73.82C240.556 73.38 239.742 73.16 238.742 73.16C237.756 73.16 236.949 73.44 236.322 74C235.709 74.5467 235.402 75.26 235.402 76.14V79.82C235.402 80.7133 235.722 81.44 236.362 82C237.002 82.56 237.829 82.84 238.842 82.84C239.842 82.84 240.656 82.62 241.282 82.18C241.909 81.74 242.222 81.1733 242.222 80.48C242.222 80.16 242.209 79.8533 242.182 79.56C242.516 79.4933 242.796 79.46 243.022 79.46C243.582 79.46 244.029 79.6067 244.362 79.9C244.696 80.1933 244.862 80.5933 244.862 81.1C244.862 81.8867 244.609 82.5933 244.102 83.22C243.596 83.8333 242.882 84.3133 241.962 84.66C241.056 85.0067 240.016 85.18 238.842 85.18Z" fill="#FFB636"/>
<path d="M203.68 111.18C202.48 111.18 201.433 111.033 200.54 110.74C199.647 110.447 198.96 110.033 198.48 109.5C198.013 108.953 197.78 108.32 197.78 107.6C197.78 106.507 198.52 105.96 200 105.96C200.053 106.973 200.393 107.74 201.02 108.26C201.66 108.78 202.553 109.04 203.7 109.04C204.647 109.04 205.38 108.88 205.9 108.56C206.42 108.227 206.68 107.767 206.68 107.18C206.68 106.793 206.58 106.48 206.38 106.24C206.18 105.987 205.84 105.767 205.36 105.58C204.88 105.38 204.18 105.18 203.26 104.98C201.953 104.673 200.92 104.333 200.16 103.96C199.413 103.587 198.873 103.14 198.54 102.62C198.207 102.087 198.04 101.427 198.04 100.64C198.04 99.88 198.26 99.2133 198.7 98.64C199.153 98.0667 199.787 97.62 200.6 97.3C201.427 96.98 202.373 96.82 203.44 96.82C204.467 96.82 205.38 96.96 206.18 97.24C206.993 97.5067 207.627 97.8867 208.08 98.38C208.547 98.8733 208.78 99.44 208.78 100.08C208.78 101.067 208.067 101.58 206.64 101.62C206.56 100.7 206.267 100.027 205.76 99.6C205.253 99.1733 204.48 98.96 203.44 98.96C202.547 98.96 201.86 99.1067 201.38 99.4C200.9 99.6933 200.66 100.107 200.66 100.64C200.66 101.013 200.753 101.327 200.94 101.58C201.127 101.82 201.44 102.033 201.88 102.22C202.32 102.393 202.947 102.573 203.76 102.76C205.133 103.067 206.22 103.413 207.02 103.8C207.82 104.173 208.4 104.633 208.76 105.18C209.12 105.713 209.3 106.373 209.3 107.16C209.3 107.973 209.067 108.687 208.6 109.3C208.147 109.9 207.493 110.367 206.64 110.7C205.8 111.02 204.813 111.18 203.68 111.18ZM212.139 111.18C211.566 111.113 211.112 110.913 210.779 110.58C210.459 110.247 210.299 109.827 210.299 109.32C210.299 108.933 210.392 108.533 210.579 108.12L215.159 97.7C215.412 97.1133 215.852 96.82 216.479 96.82C217.092 96.82 217.526 97.1133 217.779 97.7L222.359 108.12C222.546 108.56 222.639 108.96 222.639 109.32C222.639 109.827 222.472 110.247 222.139 110.58C221.819 110.913 221.366 111.113 220.779 111.18L219.099 107.38H213.839L212.139 111.18ZM218.279 105.1L216.079 99.62L215.839 99.72L216.319 100.96L214.639 105.1H218.279ZM224.586 98.22C224.586 97.8867 224.713 97.6 224.966 97.36C225.233 97.12 225.553 97 225.926 97H234.986C234.986 97.8 234.846 98.3867 234.566 98.76C234.3 99.12 233.86 99.3 233.246 99.3H227.266V102.68H232.586C232.586 103.48 232.446 104.067 232.166 104.44C231.9 104.8 231.46 104.98 230.846 104.98H227.266V109.28C227.266 109.947 227.053 110.433 226.626 110.74C226.2 111.033 225.52 111.18 224.586 111.18V98.22ZM235.973 98.22C235.973 97.8867 236.1 97.6 236.353 97.36C236.62 97.12 236.94 97 237.313 97H246.233C246.233 97.8 246.093 98.3867 245.813 98.76C245.546 99.12 245.106 99.3 244.493 99.3H238.653V102.78H243.973C243.973 103.58 243.833 104.167 243.553 104.54C243.286 104.9 242.846 105.08 242.233 105.08H238.653V108.7H244.913C245.513 108.7 245.946 108.887 246.213 109.26C246.493 109.62 246.633 110.2 246.633 111H237.313C236.94 111 236.62 110.887 236.353 110.66C236.1 110.42 235.973 110.127 235.973 109.78V98.22Z" fill="#05ED00"/>
<path d="M0 149H285V275C285 280.523 280.523 285 275 285H10C4.47715 285 0 280.523 0 275L0 149Z" fill="#333333"/>
<path d="M159.412 190.316H158.596C158.148 190.316 157.79 190.151 157.524 189.82C157.257 189.479 157.124 189.031 157.124 188.476H160.564C160.841 188.476 161.076 188.567 161.268 188.748C161.46 188.93 161.556 189.143 161.556 189.388V198.236C161.556 198.748 161.369 199.143 160.996 199.42C160.633 199.687 160.105 199.82 159.412 199.82V190.316ZM167.895 199.82C167.063 199.82 166.3 199.66 165.607 199.34C164.924 199.02 164.385 198.583 163.991 198.028C163.596 197.463 163.399 196.844 163.399 196.172V191.98C163.399 191.308 163.596 190.695 163.991 190.14C164.385 189.575 164.924 189.132 165.607 188.812C166.3 188.492 167.063 188.332 167.895 188.332C168.727 188.332 169.484 188.498 170.167 188.828C170.86 189.148 171.404 189.586 171.799 190.14C172.204 190.695 172.407 191.308 172.407 191.98V196.172C172.407 196.844 172.204 197.458 171.799 198.012C171.404 198.567 170.86 199.01 170.167 199.34C169.484 199.66 168.727 199.82 167.895 199.82ZM167.895 197.948C168.62 197.948 169.196 197.783 169.623 197.452C170.049 197.111 170.263 196.663 170.263 196.108V192.044C170.263 191.49 170.049 191.047 169.623 190.716C169.196 190.375 168.62 190.204 167.895 190.204C167.169 190.204 166.593 190.375 166.167 190.716C165.74 191.047 165.527 191.49 165.527 192.044V196.108C165.527 196.663 165.74 197.111 166.167 197.452C166.593 197.783 167.169 197.948 167.895 197.948ZM174.822 199.676C174.524 199.676 174.284 199.591 174.102 199.42C173.932 199.25 173.846 199.026 173.846 198.748C173.846 197.916 174.172 197.159 174.822 196.476C175.484 195.783 176.518 195.116 177.926 194.476C178.598 194.178 179.11 193.906 179.462 193.66C179.814 193.404 180.06 193.143 180.198 192.876C180.348 192.599 180.422 192.268 180.422 191.884C180.422 191.351 180.241 190.94 179.878 190.652C179.516 190.354 179.004 190.204 178.342 190.204C176.828 190.204 176.07 190.828 176.07 192.076C176.07 192.364 176.092 192.615 176.134 192.828C176.038 192.85 175.9 192.86 175.718 192.86C175.228 192.86 174.806 192.722 174.454 192.444C174.113 192.156 173.942 191.804 173.942 191.388C173.942 190.823 174.134 190.306 174.518 189.836C174.902 189.367 175.43 188.999 176.102 188.732C176.774 188.466 177.521 188.332 178.342 188.332C179.185 188.332 179.926 188.482 180.566 188.78C181.217 189.068 181.718 189.484 182.07 190.028C182.422 190.562 182.598 191.18 182.598 191.884C182.598 192.674 182.305 193.394 181.718 194.044C181.132 194.684 180.241 195.276 179.046 195.82C178.118 196.247 177.43 196.626 176.982 196.956C176.545 197.276 176.31 197.575 176.278 197.852H181.142C181.676 197.852 182.081 198.007 182.358 198.316C182.636 198.626 182.774 199.079 182.774 199.676H174.822ZM191.523 199.244C191.427 199.426 191.289 199.57 191.107 199.676C190.926 199.772 190.718 199.82 190.483 199.82C190.281 199.82 190.099 199.772 189.939 199.676C189.779 199.591 189.625 199.447 189.475 199.244L187.363 196.124L186.275 197.132V198.604C186.275 199.031 186.11 199.34 185.779 199.532C185.459 199.724 184.969 199.82 184.307 199.82V189.868C184.307 188.844 184.974 188.332 186.307 188.332V194.94L189.971 191.532C190.505 191.948 190.771 192.29 190.771 192.556C190.771 192.727 190.723 192.876 190.627 193.004C190.542 193.132 190.403 193.282 190.211 193.452L188.531 195.02L191.523 199.244ZM193.026 193.068C193.026 192.578 193.181 192.199 193.49 191.932C193.799 191.666 194.269 191.532 194.898 191.532V192.492C194.706 192.727 194.578 192.898 194.514 193.004L194.626 193.068C194.957 192.567 195.309 192.188 195.682 191.932C196.055 191.666 196.498 191.532 197.01 191.532C197.938 191.532 198.578 191.986 198.93 192.892C199.197 192.466 199.538 192.135 199.954 191.9C200.37 191.655 200.839 191.532 201.362 191.532C202.087 191.532 202.663 191.799 203.09 192.332C203.527 192.855 203.746 193.527 203.746 194.348V198.604C203.746 199.031 203.581 199.34 203.25 199.532C202.93 199.724 202.439 199.82 201.778 199.82V194.508C201.778 194.114 201.687 193.799 201.506 193.564C201.335 193.33 201.069 193.212 200.706 193.212C200.322 193.212 199.997 193.346 199.73 193.612C199.474 193.868 199.346 194.274 199.346 194.828V198.604C199.346 199.031 199.186 199.34 198.866 199.532C198.557 199.724 198.071 199.82 197.41 199.82V194.508C197.41 194.103 197.325 193.788 197.154 193.564C196.983 193.33 196.717 193.212 196.354 193.212C195.906 193.212 195.565 193.367 195.33 193.676C195.106 193.975 194.994 194.386 194.994 194.908V198.604C194.994 199.031 194.829 199.34 194.498 199.532C194.178 199.724 193.687 199.82 193.026 199.82V193.068Z" fill="white"/>
<path d="M161.876 229.627C160.948 229.627 160.137 229.488 159.444 229.211C158.75 228.923 158.217 228.523 157.844 228.011C157.47 227.488 157.284 226.88 157.284 226.187C157.284 225.6 157.444 225.083 157.764 224.635C158.084 224.187 158.553 223.829 159.172 223.563C158.169 223.008 157.668 222.245 157.668 221.275C157.668 220.667 157.844 220.123 158.196 219.643C158.558 219.163 159.06 218.789 159.7 218.523C160.34 218.256 161.065 218.123 161.876 218.123C162.708 218.123 163.444 218.256 164.084 218.523C164.724 218.789 165.22 219.163 165.572 219.643C165.924 220.112 166.1 220.656 166.1 221.275C166.1 222.245 165.593 223.008 164.58 223.563C165.198 223.829 165.668 224.187 165.988 224.635C166.318 225.083 166.484 225.6 166.484 226.187C166.484 226.88 166.297 227.488 165.924 228.011C165.55 228.533 165.017 228.933 164.324 229.211C163.63 229.488 162.814 229.627 161.876 229.627ZM161.876 222.827C162.537 222.827 163.054 222.699 163.428 222.443C163.812 222.187 164.004 221.829 164.004 221.371C164.004 220.901 163.822 220.544 163.46 220.299C163.108 220.043 162.58 219.915 161.876 219.915C161.193 219.915 160.665 220.043 160.292 220.299C159.929 220.544 159.748 220.901 159.748 221.371C159.748 221.819 159.94 222.176 160.324 222.443C160.718 222.699 161.236 222.827 161.876 222.827ZM161.876 227.819C163.55 227.819 164.388 227.248 164.388 226.107C164.388 225.541 164.169 225.109 163.732 224.811C163.294 224.501 162.676 224.347 161.876 224.347C161.097 224.347 160.484 224.507 160.036 224.827C159.588 225.136 159.364 225.563 159.364 226.107C159.364 226.661 159.577 227.088 160.004 227.387C160.441 227.675 161.065 227.819 161.876 227.819ZM172.09 229.611C171.279 229.611 170.538 229.483 169.866 229.227C169.194 228.96 168.661 228.597 168.266 228.139C167.882 227.68 167.69 227.173 167.69 226.619C167.69 226.149 167.823 225.808 168.09 225.595C168.357 225.381 168.778 225.275 169.354 225.275L169.69 225.291C169.658 225.461 169.642 225.675 169.642 225.931C169.642 226.496 169.861 226.939 170.298 227.259C170.735 227.579 171.333 227.739 172.09 227.739C172.879 227.739 173.482 227.536 173.898 227.131C174.325 226.715 174.538 226.128 174.538 225.371C174.538 224.656 174.319 224.101 173.882 223.707C173.445 223.312 172.837 223.115 172.058 223.115C171.205 223.115 170.479 223.339 169.882 223.787C169.615 223.979 169.338 224.075 169.05 224.075C168.762 224.075 168.517 223.989 168.314 223.819C168.111 223.637 168.01 223.408 168.01 223.131C168.01 223.056 168.015 222.997 168.026 222.955L168.666 219.035C168.709 218.779 168.815 218.587 168.986 218.459C169.167 218.331 169.402 218.267 169.69 218.267H176.122C176.122 219.483 175.626 220.091 174.634 220.091H170.314L170.026 221.803C169.759 221.984 169.541 222.165 169.37 222.347L169.45 222.443C169.855 222.101 170.341 221.829 170.906 221.627C171.482 221.424 172.047 221.323 172.602 221.323C173.413 221.323 174.117 221.488 174.714 221.819C175.322 222.149 175.786 222.619 176.106 223.227C176.437 223.835 176.602 224.549 176.602 225.371C176.602 226.235 176.421 226.987 176.058 227.627C175.695 228.267 175.173 228.757 174.49 229.099C173.818 229.44 173.018 229.611 172.09 229.611ZM185.367 229.035C185.271 229.216 185.132 229.36 184.951 229.467C184.77 229.563 184.562 229.611 184.327 229.611C184.124 229.611 183.943 229.563 183.783 229.467C183.623 229.381 183.468 229.237 183.319 229.035L181.207 225.915L180.119 226.923V228.395C180.119 228.821 179.954 229.131 179.623 229.323C179.303 229.515 178.812 229.611 178.151 229.611V219.659C178.151 218.635 178.818 218.123 180.151 218.123V224.731L183.815 221.323C184.348 221.739 184.615 222.08 184.615 222.347C184.615 222.517 184.567 222.667 184.471 222.795C184.386 222.923 184.247 223.072 184.055 223.243L182.375 224.811L185.367 229.035ZM186.87 222.859C186.87 222.368 187.024 221.989 187.334 221.723C187.643 221.456 188.112 221.323 188.742 221.323V222.283C188.55 222.517 188.422 222.688 188.358 222.795L188.47 222.859C188.8 222.357 189.152 221.979 189.526 221.723C189.899 221.456 190.342 221.323 190.854 221.323C191.782 221.323 192.422 221.776 192.774 222.683C193.04 222.256 193.382 221.925 193.798 221.691C194.214 221.445 194.683 221.323 195.206 221.323C195.931 221.323 196.507 221.589 196.934 222.123C197.371 222.645 197.59 223.317 197.59 224.139V228.395C197.59 228.821 197.424 229.131 197.094 229.323C196.774 229.515 196.283 229.611 195.622 229.611V224.299C195.622 223.904 195.531 223.589 195.35 223.355C195.179 223.12 194.912 223.003 194.55 223.003C194.166 223.003 193.84 223.136 193.574 223.403C193.318 223.659 193.19 224.064 193.19 224.619V228.395C193.19 228.821 193.03 229.131 192.71 229.323C192.4 229.515 191.915 229.611 191.254 229.611V224.299C191.254 223.893 191.168 223.579 190.998 223.355C190.827 223.12 190.56 223.003 190.198 223.003C189.75 223.003 189.408 223.157 189.174 223.467C188.95 223.765 188.838 224.176 188.838 224.699V228.395C188.838 228.821 188.672 229.131 188.342 229.323C188.022 229.515 187.531 229.611 186.87 229.611V222.859Z" fill="white"/>
<path d="M161.94 259.401C161.022 259.401 160.212 259.22 159.508 258.857C158.804 258.495 158.254 257.983 157.86 257.321C157.476 256.66 157.284 255.903 157.284 255.049C157.284 254.495 157.401 253.929 157.636 253.353C157.881 252.767 158.212 252.239 158.628 251.769L161.684 248.393C161.844 248.212 161.998 248.089 162.148 248.025C162.308 247.951 162.494 247.913 162.708 247.913C163.273 247.913 163.742 248.137 164.116 248.585L162.036 250.937C161.908 250.959 161.748 251.001 161.556 251.065C161.364 251.129 161.209 251.193 161.092 251.257L161.188 251.449C161.38 251.353 161.62 251.279 161.908 251.225C162.196 251.161 162.452 251.129 162.676 251.129C163.422 251.129 164.094 251.3 164.692 251.641C165.289 251.983 165.758 252.452 166.1 253.049C166.441 253.647 166.612 254.313 166.612 255.049C166.612 255.903 166.414 256.66 166.02 257.321C165.625 257.972 165.076 258.484 164.372 258.857C163.668 259.22 162.857 259.401 161.94 259.401ZM161.94 257.561C162.708 257.561 163.332 257.332 163.812 256.873C164.292 256.404 164.532 255.796 164.532 255.049C164.532 254.303 164.292 253.695 163.812 253.225C163.332 252.756 162.708 252.521 161.94 252.521C161.182 252.521 160.564 252.756 160.084 253.225C159.614 253.695 159.38 254.303 159.38 255.049C159.38 255.796 159.614 256.404 160.084 256.873C160.564 257.332 161.182 257.561 161.94 257.561ZM172.231 259.401C171.42 259.401 170.679 259.273 170.007 259.017C169.335 258.751 168.801 258.388 168.407 257.929C168.023 257.471 167.831 256.964 167.831 256.409C167.831 255.94 167.964 255.599 168.231 255.385C168.497 255.172 168.919 255.065 169.495 255.065L169.831 255.081C169.799 255.252 169.783 255.465 169.783 255.721C169.783 256.287 170.001 256.729 170.439 257.049C170.876 257.369 171.473 257.529 172.231 257.529C173.02 257.529 173.623 257.327 174.039 256.921C174.465 256.505 174.679 255.919 174.679 255.161C174.679 254.447 174.46 253.892 174.023 253.497C173.585 253.103 172.977 252.905 172.199 252.905C171.345 252.905 170.62 253.129 170.023 253.577C169.756 253.769 169.479 253.865 169.191 253.865C168.903 253.865 168.657 253.78 168.455 253.609C168.252 253.428 168.151 253.199 168.151 252.921C168.151 252.847 168.156 252.788 168.167 252.745L168.807 248.825C168.849 248.569 168.956 248.377 169.127 248.249C169.308 248.121 169.543 248.057 169.831 248.057H176.263C176.263 249.273 175.767 249.881 174.775 249.881H170.455L170.167 251.593C169.9 251.775 169.681 251.956 169.511 252.137L169.591 252.233C169.996 251.892 170.481 251.62 171.047 251.417C171.623 251.215 172.188 251.113 172.743 251.113C173.553 251.113 174.257 251.279 174.855 251.609C175.463 251.94 175.927 252.409 176.247 253.017C176.577 253.625 176.743 254.34 176.743 255.161C176.743 256.025 176.561 256.777 176.199 257.417C175.836 258.057 175.313 258.548 174.631 258.889C173.959 259.231 173.159 259.401 172.231 259.401ZM185.508 258.825C185.412 259.007 185.273 259.151 185.092 259.257C184.91 259.353 184.702 259.401 184.468 259.401C184.265 259.401 184.084 259.353 183.924 259.257C183.764 259.172 183.609 259.028 183.46 258.825L181.348 255.705L180.26 256.713V258.185C180.26 258.612 180.094 258.921 179.764 259.113C179.444 259.305 178.953 259.401 178.292 259.401V249.449C178.292 248.425 178.958 247.913 180.292 247.913V254.521L183.956 251.113C184.489 251.529 184.756 251.871 184.756 252.137C184.756 252.308 184.708 252.457 184.612 252.585C184.526 252.713 184.388 252.863 184.196 253.033L182.516 254.601L185.508 258.825ZM187.01 252.649C187.01 252.159 187.165 251.78 187.474 251.513C187.784 251.247 188.253 251.113 188.882 251.113V252.073C188.69 252.308 188.562 252.479 188.498 252.585L188.61 252.649C188.941 252.148 189.293 251.769 189.666 251.513C190.04 251.247 190.482 251.113 190.994 251.113C191.922 251.113 192.562 251.567 192.914 252.473C193.181 252.047 193.522 251.716 193.938 251.481C194.354 251.236 194.824 251.113 195.346 251.113C196.072 251.113 196.648 251.38 197.074 251.913C197.512 252.436 197.73 253.108 197.73 253.929V258.185C197.73 258.612 197.565 258.921 197.234 259.113C196.914 259.305 196.424 259.401 195.762 259.401V254.089C195.762 253.695 195.672 253.38 195.49 253.145C195.32 252.911 195.053 252.793 194.69 252.793C194.306 252.793 193.981 252.927 193.714 253.193C193.458 253.449 193.33 253.855 193.33 254.409V258.185C193.33 258.612 193.17 258.921 192.85 259.113C192.541 259.305 192.056 259.401 191.394 259.401V254.089C191.394 253.684 191.309 253.369 191.138 253.145C190.968 252.911 190.701 252.793 190.338 252.793C189.89 252.793 189.549 252.948 189.314 253.257C189.09 253.556 188.978 253.967 188.978 254.489V258.185C188.978 258.612 188.813 258.921 188.482 259.113C188.162 259.305 187.672 259.401 187.01 259.401V252.649Z" fill="white"/>
<path d="M56.265 189.276C56.265 189.052 56.3503 188.866 56.521 188.716C56.6917 188.556 56.8997 188.476 57.145 188.476H64.249C64.249 188.988 64.1477 189.367 63.945 189.612C63.753 189.847 63.449 189.964 63.033 189.964H57.993V193.276H62.393C62.393 193.788 62.297 194.167 62.105 194.412C61.913 194.647 61.609 194.764 61.193 194.764H57.993V198.188H63.369C63.7743 198.188 64.073 198.311 64.265 198.556C64.4677 198.791 64.569 199.164 64.569 199.676H57.145C56.8997 199.676 56.6917 199.602 56.521 199.452C56.3503 199.292 56.265 199.1 56.265 198.876V189.276ZM70.0895 199.82C69.1722 199.82 68.3562 199.65 67.6415 199.308C66.9268 198.956 66.3722 198.471 65.9775 197.852C65.5828 197.234 65.3855 196.53 65.3855 195.74V192.38C65.3855 191.591 65.5828 190.892 65.9775 190.284C66.3722 189.666 66.9215 189.186 67.6255 188.844C68.3295 188.503 69.1348 188.332 70.0415 188.332C70.9482 188.332 71.7535 188.476 72.4575 188.764C73.1722 189.042 73.7268 189.431 74.1215 189.932C74.5162 190.434 74.7135 191.01 74.7135 191.66C74.7135 192.002 74.6015 192.274 74.3775 192.476C74.1535 192.668 73.8548 192.764 73.4815 192.764C73.3428 192.764 73.1828 192.748 73.0015 192.716C73.0228 192.546 73.0335 192.327 73.0335 192.06C73.0335 191.623 72.9055 191.239 72.6495 190.908C72.3935 190.567 72.0362 190.306 71.5775 190.124C71.1295 189.932 70.6175 189.836 70.0415 189.836C69.4762 189.836 68.9695 189.943 68.5215 190.156C68.0735 190.37 67.7215 190.674 67.4655 191.068C67.2202 191.452 67.0975 191.89 67.0975 192.38V195.74C67.0975 196.242 67.2255 196.69 67.4815 197.084C67.7375 197.468 68.0895 197.772 68.5375 197.996C68.9962 198.21 69.5135 198.316 70.0895 198.316C70.9855 198.316 71.7108 198.114 72.2655 197.708C72.8308 197.292 73.1135 196.754 73.1135 196.092C73.1135 195.89 73.1028 195.671 73.0815 195.436C73.2308 195.404 73.3748 195.388 73.5135 195.388C73.8975 195.388 74.2068 195.495 74.4415 195.708C74.6762 195.922 74.7935 196.21 74.7935 196.572C74.7935 197.202 74.5962 197.767 74.2015 198.268C73.8068 198.759 73.2522 199.143 72.5375 199.42C71.8228 199.687 71.0068 199.82 70.0895 199.82ZM80.8186 199.82C79.9333 199.82 79.1333 199.65 78.4186 199.308C77.7146 198.956 77.1599 198.476 76.7546 197.868C76.3599 197.26 76.1626 196.588 76.1626 195.852V192.268C76.1626 191.532 76.3599 190.866 76.7546 190.268C77.1599 189.671 77.7146 189.202 78.4186 188.86C79.1333 188.508 79.9333 188.332 80.8186 188.332C81.7039 188.332 82.4986 188.508 83.2026 188.86C83.9173 189.202 84.4773 189.671 84.8826 190.268C85.2879 190.866 85.4906 191.532 85.4906 192.268V195.852C85.4906 196.588 85.2879 197.26 84.8826 197.868C84.4773 198.476 83.9173 198.956 83.2026 199.308C82.4986 199.65 81.7039 199.82 80.8186 199.82ZM80.8186 198.316C81.7466 198.316 82.4719 198.092 82.9946 197.644C83.5279 197.196 83.7946 196.594 83.7946 195.836V192.3C83.7946 191.543 83.5279 190.94 82.9946 190.492C82.4719 190.044 81.7466 189.82 80.8186 189.82C79.8906 189.82 79.1599 190.044 78.6266 190.492C78.1039 190.94 77.8426 191.543 77.8426 192.3V195.836C77.8426 196.594 78.1039 197.196 78.6266 197.644C79.1599 198.092 79.8906 198.316 80.8186 198.316Z" fill="white"/>
<path d="M60.409 259.401C59.4917 259.401 58.6917 259.279 58.009 259.033C57.337 258.777 56.825 258.436 56.473 258.009C56.121 257.583 55.945 257.108 55.945 256.585C55.945 256.191 56.0623 255.881 56.297 255.657C56.5317 255.423 56.8997 255.305 57.401 255.305C57.4117 256.18 57.6837 256.847 58.217 257.305C58.7503 257.764 59.497 257.993 60.457 257.993C61.3317 257.993 62.0037 257.844 62.473 257.545C62.953 257.247 63.193 256.815 63.193 256.249C63.193 255.897 63.1023 255.609 62.921 255.385C62.7503 255.161 62.4463 254.964 62.009 254.793C61.5823 254.612 60.9743 254.436 60.185 254.265C59.1823 254.041 58.3877 253.785 57.801 253.497C57.2143 253.209 56.7877 252.863 56.521 252.457C56.2543 252.041 56.121 251.529 56.121 250.921C56.121 250.324 56.2917 249.801 56.633 249.353C56.985 248.895 57.4757 248.543 58.105 248.297C58.7343 248.041 59.465 247.913 60.297 247.913C61.0863 247.913 61.7903 248.025 62.409 248.249C63.0383 248.463 63.529 248.767 63.881 249.161C64.2437 249.556 64.425 250.009 64.425 250.521C64.425 250.841 64.313 251.097 64.089 251.289C63.865 251.481 63.513 251.583 63.033 251.593C62.937 250.804 62.6703 250.228 62.233 249.865C61.7957 249.503 61.1503 249.321 60.297 249.321C59.5077 249.321 58.8997 249.46 58.473 249.737C58.0463 250.004 57.833 250.388 57.833 250.889C57.833 251.241 57.913 251.529 58.073 251.753C58.233 251.977 58.4997 252.175 58.873 252.345C59.257 252.505 59.801 252.66 60.505 252.809C61.593 253.044 62.4517 253.311 63.081 253.609C63.7103 253.908 64.1637 254.265 64.441 254.681C64.729 255.097 64.873 255.615 64.873 256.233C64.873 257.215 64.4677 257.988 63.657 258.553C62.857 259.119 61.7743 259.401 60.409 259.401ZM66.6244 248.857C66.6244 248.623 66.7044 248.431 66.8644 248.281C67.035 248.132 67.2484 248.057 67.5044 248.057H72.0964C72.8217 248.057 73.4617 248.207 74.0164 248.505C74.5817 248.793 75.019 249.209 75.3284 249.753C75.6377 250.287 75.7924 250.905 75.7924 251.609C75.7924 252.324 75.6377 252.953 75.3284 253.497C75.0297 254.041 74.5977 254.463 74.0324 254.761C73.4777 255.049 72.8324 255.193 72.0964 255.193H68.3524V258.041C68.3524 258.479 68.203 258.815 67.9044 259.049C67.6057 259.284 67.179 259.401 66.6244 259.401V248.857ZM72.0964 253.689C72.715 253.689 73.2004 253.508 73.5524 253.145C73.9044 252.772 74.0804 252.26 74.0804 251.609C74.0804 250.98 73.899 250.484 73.5364 250.121C73.1844 249.748 72.7044 249.561 72.0964 249.561H68.3524V253.689H72.0964ZM81.3967 259.401C80.5114 259.401 79.7114 259.231 78.9967 258.889C78.2927 258.537 77.7381 258.057 77.3327 257.449C76.9381 256.841 76.7407 256.169 76.7407 255.433V251.849C76.7407 251.113 76.9381 250.447 77.3327 249.849C77.7381 249.252 78.2927 248.783 78.9967 248.441C79.7114 248.089 80.5114 247.913 81.3967 247.913C82.2821 247.913 83.0767 248.089 83.7807 248.441C84.4954 248.783 85.0554 249.252 85.4607 249.849C85.8661 250.447 86.0687 251.113 86.0687 251.849V255.433C86.0687 256.169 85.8661 256.841 85.4607 257.449C85.0554 258.057 84.4954 258.537 83.7807 258.889C83.0767 259.231 82.2821 259.401 81.3967 259.401ZM81.3967 257.897C82.3247 257.897 83.0501 257.673 83.5727 257.225C84.1061 256.777 84.3727 256.175 84.3727 255.417V251.881C84.3727 251.124 84.1061 250.521 83.5727 250.073C83.0501 249.625 82.3247 249.401 81.3967 249.401C80.4687 249.401 79.7381 249.625 79.2047 250.073C78.6821 250.521 78.4207 251.124 78.4207 251.881V255.417C78.4207 256.175 78.6821 256.777 79.2047 257.225C79.7381 257.673 80.4687 257.897 81.3967 257.897ZM87.7962 248.857C87.7962 248.623 87.8762 248.431 88.0362 248.281C88.2069 248.132 88.4202 248.057 88.6762 248.057H93.0442C94.1109 248.057 94.9536 248.361 95.5722 248.969C96.2016 249.567 96.5162 250.383 96.5162 251.417C96.5162 252.676 95.9776 253.561 94.9002 254.073V254.121C95.3696 254.335 95.7269 254.644 95.9722 255.049C96.2282 255.455 96.3562 255.945 96.3562 256.521V258.041C96.3562 258.479 96.2069 258.815 95.9082 259.049C95.6202 259.284 95.1989 259.401 94.6442 259.401V256.617C94.6442 255.401 94.1162 254.793 93.0602 254.793H89.4922V258.041C89.4922 258.948 88.9269 259.401 87.7962 259.401V248.857ZM92.9642 253.321C93.5296 253.321 93.9722 253.151 94.2922 252.809C94.6229 252.468 94.7882 251.999 94.7882 251.401C94.7882 250.793 94.6336 250.335 94.3242 250.025C94.0149 249.705 93.5616 249.545 92.9642 249.545H89.4922V253.321H92.9642ZM101.266 249.561H97.3776C97.3776 248.559 97.8416 248.057 98.7696 248.057H106.85C106.85 248.548 106.732 248.921 106.498 249.177C106.263 249.433 105.916 249.561 105.458 249.561H102.978V258.041C102.978 258.479 102.828 258.815 102.53 259.049C102.242 259.284 101.82 259.401 101.266 259.401V249.561Z" fill="white"/>
<path d="M56.265 219.067C56.265 218.832 56.345 218.64 56.505 218.491C56.6757 218.341 56.889 218.267 57.145 218.267H61.513C62.5797 218.267 63.4223 218.571 64.041 219.179C64.6703 219.776 64.985 220.592 64.985 221.627C64.985 222.885 64.4463 223.771 63.369 224.283V224.331C63.8383 224.544 64.1957 224.853 64.441 225.259C64.697 225.664 64.825 226.155 64.825 226.731V228.251C64.825 228.688 64.6757 229.024 64.377 229.259C64.089 229.493 63.6677 229.611 63.113 229.611V226.827C63.113 225.611 62.585 225.003 61.529 225.003H57.961V228.251C57.961 229.157 57.3957 229.611 56.265 229.611V219.067ZM61.433 223.531C61.9983 223.531 62.441 223.36 62.761 223.019C63.0917 222.677 63.257 222.208 63.257 221.611C63.257 221.003 63.1023 220.544 62.793 220.235C62.4837 219.915 62.0303 219.755 61.433 219.755H57.961V223.531H61.433ZM67.2569 219.483C67.2569 219.045 67.4062 218.709 67.7049 218.475C68.0035 218.24 68.4302 218.123 68.9849 218.123V228.251C68.9849 228.688 68.8355 229.024 68.5369 229.259C68.2382 229.493 67.8115 229.611 67.2569 229.611V219.483ZM72.3012 229.467C72.0559 229.467 71.8479 229.392 71.6772 229.243C71.5066 229.083 71.4212 228.891 71.4212 228.667V219.067C71.4212 218.832 71.5012 218.64 71.6612 218.491C71.8319 218.341 72.0452 218.267 72.3012 218.267H75.9812C76.8986 218.267 77.7092 218.443 78.4132 218.795C79.1279 219.136 79.6772 219.621 80.0612 220.251C80.4559 220.88 80.6532 221.6 80.6532 222.411V225.291C80.6532 226.101 80.4559 226.827 80.0612 227.467C79.6666 228.096 79.1119 228.587 78.3972 228.939C77.6932 229.291 76.8879 229.467 75.9812 229.467H72.3012ZM75.8212 227.979C76.8132 227.979 77.5812 227.749 78.1252 227.291C78.6692 226.821 78.9412 226.16 78.9412 225.307V222.379C78.9412 221.547 78.6692 220.901 78.1252 220.443C77.5812 219.984 76.8132 219.755 75.8212 219.755H73.1492V227.979H75.8212ZM82.5775 219.067C82.5775 218.843 82.6628 218.656 82.8335 218.507C83.0042 218.347 83.2122 218.267 83.4575 218.267H90.5615C90.5615 218.779 90.4602 219.157 90.2575 219.403C90.0655 219.637 89.7615 219.755 89.3455 219.755H84.3055V223.067H88.7055C88.7055 223.579 88.6095 223.957 88.4175 224.203C88.2255 224.437 87.9215 224.555 87.5055 224.555H84.3055V227.979H89.6815C90.0868 227.979 90.3855 228.101 90.5775 228.347C90.7802 228.581 90.8815 228.955 90.8815 229.467H83.4575C83.2122 229.467 83.0042 229.392 82.8335 229.243C82.6628 229.083 82.5775 228.891 82.5775 228.667V219.067Z" fill="white"/>
<path d="M8.7 160.44C8.7 160.313 8.74667 160.21 8.84 160.13C8.93333 160.043 9.04667 160 9.18 160H13.61C13.61 160.28 13.5533 160.487 13.44 160.62C13.3267 160.753 13.15 160.82 12.91 160.82H9.64V163.06H12.44C12.44 163.34 12.3833 163.547 12.27 163.68C12.1567 163.813 11.9833 163.88 11.75 163.88H9.64V166.18H13.12C13.3533 166.18 13.5267 166.247 13.64 166.38C13.7533 166.513 13.81 166.72 13.81 167H9.18C9.04667 167 8.93333 166.96 8.84 166.88C8.74667 166.793 8.7 166.687 8.7 166.56V160.44ZM16.4182 167.09C16.0782 167.09 15.7582 167.04 15.4582 166.94C15.1582 166.833 14.9149 166.683 14.7282 166.49C14.5482 166.297 14.4582 166.07 14.4582 165.81C14.4582 165.49 14.6515 165.317 15.0382 165.29C15.1049 165.663 15.2615 165.94 15.5082 166.12C15.7615 166.293 16.0815 166.38 16.4682 166.38C16.8549 166.38 17.1549 166.323 17.3682 166.21C17.5815 166.097 17.6882 165.923 17.6882 165.69C17.6882 165.523 17.6449 165.39 17.5582 165.29C17.4715 165.183 17.3315 165.093 17.1382 165.02C16.9515 164.94 16.6815 164.863 16.3282 164.79C15.8882 164.69 15.5382 164.583 15.2782 164.47C15.0182 164.357 14.8182 164.207 14.6782 164.02C14.5449 163.833 14.4782 163.587 14.4782 163.28C14.4782 163.02 14.5582 162.787 14.7182 162.58C14.8782 162.367 15.0982 162.203 15.3782 162.09C15.6649 161.97 15.9882 161.91 16.3482 161.91C16.6815 161.91 16.9949 161.957 17.2882 162.05C17.5882 162.143 17.8282 162.277 18.0082 162.45C18.1949 162.623 18.2882 162.823 18.2882 163.05C18.2882 163.203 18.2282 163.327 18.1082 163.42C17.9882 163.507 17.8215 163.557 17.6082 163.57C17.5882 163.277 17.4682 163.047 17.2482 162.88C17.0349 162.707 16.7349 162.62 16.3482 162.62C16.0282 162.62 15.7749 162.68 15.5882 162.8C15.4015 162.92 15.3082 163.08 15.3082 163.28C15.3082 163.493 15.3949 163.653 15.5682 163.76C15.7482 163.86 16.0515 163.957 16.4782 164.05C17.1782 164.19 17.6915 164.383 18.0182 164.63C18.3515 164.87 18.5182 165.213 18.5182 165.66C18.5182 166.113 18.3349 166.467 17.9682 166.72C17.6015 166.967 17.0849 167.09 16.4182 167.09ZM21.2076 167.09C20.7342 167.09 20.3809 166.957 20.1476 166.69C19.9142 166.417 19.7976 166.06 19.7976 165.62V162.7H18.8676C18.8676 162.473 18.9176 162.3 19.0176 162.18C19.1176 162.06 19.2542 162 19.4276 162H19.8076V161.05C19.8076 160.83 19.8776 160.67 20.0176 160.57C20.1642 160.463 20.3809 160.41 20.6676 160.41V162H21.9976C21.9976 162.467 21.7876 162.7 21.3676 162.7H20.6776V165.59C20.6776 165.857 20.7242 166.047 20.8176 166.16C20.9176 166.267 21.0942 166.32 21.3476 166.32C21.5809 166.32 21.8009 166.26 22.0076 166.14C22.0942 166.227 22.1376 166.343 22.1376 166.49C22.1376 166.65 22.0542 166.79 21.8876 166.91C21.7209 167.03 21.4942 167.09 21.2076 167.09ZM23.8522 161.16C23.6655 161.16 23.5089 161.1 23.3822 160.98C23.2555 160.86 23.1922 160.71 23.1922 160.53C23.1922 160.35 23.2555 160.203 23.3822 160.09C23.5089 159.97 23.6655 159.91 23.8522 159.91C24.0322 159.91 24.1855 159.97 24.3122 160.09C24.4389 160.203 24.5022 160.35 24.5022 160.53C24.5022 160.71 24.4389 160.86 24.3122 160.98C24.1855 161.1 24.0322 161.16 23.8522 161.16ZM23.4122 162.55C23.4122 162.33 23.4822 162.17 23.6222 162.07C23.7689 161.963 23.9889 161.91 24.2822 161.91V166.45C24.2822 166.67 24.2089 166.833 24.0622 166.94C23.9222 167.04 23.7055 167.09 23.4122 167.09V162.55ZM25.907 162.65C25.907 162.157 26.1837 161.91 26.737 161.91V162.55C26.6504 162.643 26.5804 162.733 26.527 162.82L26.567 162.86C26.7804 162.56 27.007 162.327 27.247 162.16C27.487 161.993 27.7637 161.91 28.077 161.91C28.6837 161.91 29.1004 162.2 29.327 162.78C29.707 162.2 30.2137 161.91 30.847 161.91C31.3204 161.91 31.6837 162.07 31.937 162.39C32.197 162.703 32.327 163.117 32.327 163.63V166.45C32.327 166.67 32.2537 166.833 32.107 166.94C31.967 167.04 31.7537 167.09 31.467 167.09V163.68C31.467 163.36 31.4004 163.11 31.267 162.93C31.1337 162.75 30.9237 162.66 30.637 162.66C30.337 162.66 30.0804 162.763 29.867 162.97C29.6537 163.17 29.547 163.44 29.547 163.78V166.45C29.547 166.67 29.477 166.833 29.337 166.94C29.197 167.04 28.9837 167.09 28.697 167.09V163.68C28.697 163.36 28.6304 163.11 28.497 162.93C28.3637 162.75 28.1537 162.66 27.867 162.66C27.5604 162.66 27.3004 162.77 27.087 162.99C26.8737 163.21 26.767 163.48 26.767 163.8V166.45C26.767 166.67 26.6937 166.833 26.547 166.94C26.407 167.04 26.1937 167.09 25.907 167.09V162.65ZM35.2916 167.09C34.7183 167.09 34.255 166.937 33.9016 166.63C33.555 166.323 33.3816 165.92 33.3816 165.42C33.3816 164.913 33.565 164.507 33.9316 164.2C34.2983 163.887 34.7816 163.73 35.3816 163.73C36.0216 163.73 36.5483 163.957 36.9616 164.41L37.0016 164.37C36.9283 164.29 36.845 164.207 36.7516 164.12V163.7C36.7516 163.36 36.645 163.097 36.4316 162.91C36.2183 162.723 35.915 162.63 35.5216 162.63C34.8216 162.63 34.3216 162.907 34.0216 163.46C33.915 163.407 33.825 163.337 33.7516 163.25C33.685 163.157 33.6516 163.063 33.6516 162.97C33.6516 162.79 33.7416 162.62 33.9216 162.46C34.1016 162.293 34.3383 162.16 34.6316 162.06C34.9316 161.96 35.245 161.91 35.5716 161.91C36.205 161.91 36.7016 162.067 37.0616 162.38C37.4283 162.693 37.6116 163.127 37.6116 163.68V166.42C37.6116 166.653 37.545 166.823 37.4116 166.93C37.2783 167.037 37.0683 167.09 36.7816 167.09V166.62C36.9216 166.473 36.9983 166.387 37.0116 166.36L36.9716 166.32C36.5383 166.833 35.9783 167.09 35.2916 167.09ZM35.4416 166.4C35.855 166.4 36.1783 166.313 36.4116 166.14C36.6516 165.967 36.7716 165.727 36.7716 165.42C36.7716 165.113 36.655 164.87 36.4216 164.69C36.1883 164.51 35.8683 164.42 35.4616 164.42C35.0816 164.42 34.7816 164.51 34.5616 164.69C34.3483 164.863 34.2416 165.107 34.2416 165.42C34.2416 165.733 34.345 165.977 34.5516 166.15C34.765 166.317 35.0616 166.4 35.4416 166.4ZM40.5045 167.09C40.0311 167.09 39.6778 166.957 39.4445 166.69C39.2111 166.417 39.0945 166.06 39.0945 165.62V162.7H38.1645C38.1645 162.473 38.2145 162.3 38.3145 162.18C38.4145 162.06 38.5511 162 38.7245 162H39.1045V161.05C39.1045 160.83 39.1745 160.67 39.3145 160.57C39.4611 160.463 39.6778 160.41 39.9645 160.41V162H41.2945C41.2945 162.467 41.0845 162.7 40.6645 162.7H39.9745V165.59C39.9745 165.857 40.0211 166.047 40.1145 166.16C40.2145 166.267 40.3911 166.32 40.6445 166.32C40.8778 166.32 41.0978 166.26 41.3045 166.14C41.3911 166.227 41.4345 166.343 41.4345 166.49C41.4345 166.65 41.3511 166.79 41.1845 166.91C41.0178 167.03 40.7911 167.09 40.5045 167.09ZM44.4991 167.09C44.0924 167.09 43.7291 167.013 43.4091 166.86C43.0891 166.7 42.8391 166.483 42.6591 166.21C42.4791 165.93 42.3891 165.617 42.3891 165.27V163.79C42.3891 163.437 42.4824 163.117 42.6691 162.83C42.8624 162.543 43.1191 162.32 43.4391 162.16C43.7657 161.993 44.1191 161.91 44.4991 161.91C44.8791 161.91 45.2257 161.99 45.5391 162.15C45.8591 162.31 46.1091 162.53 46.2891 162.81C46.4757 163.09 46.5691 163.407 46.5691 163.76V164.4C46.5691 164.507 46.5291 164.597 46.4491 164.67C46.3691 164.743 46.2724 164.78 46.1591 164.78H43.2391V165.23C43.2391 165.57 43.3457 165.843 43.5591 166.05C43.7791 166.257 44.0924 166.36 44.4991 166.36C44.9057 166.36 45.2157 166.27 45.4291 166.09C45.6424 165.91 45.7491 165.667 45.7491 165.36C45.9491 165.347 46.1157 165.387 46.2491 165.48C46.3891 165.567 46.4591 165.697 46.4591 165.87C46.4591 166.083 46.3657 166.283 46.1791 166.47C45.9991 166.657 45.7591 166.807 45.4591 166.92C45.1591 167.033 44.8391 167.09 44.4991 167.09ZM45.7591 164.1V163.76C45.7591 163.427 45.6424 163.157 45.4091 162.95C45.1824 162.737 44.8791 162.63 44.4991 162.63C44.1191 162.63 43.8124 162.737 43.5791 162.95C43.3524 163.157 43.2391 163.427 43.2391 163.76V164.1H45.7591ZM49.5534 167.09C48.9801 167.09 48.5134 166.933 48.1534 166.62C47.8001 166.3 47.6234 165.877 47.6234 165.35V163.64C47.6234 163.3 47.7068 163 47.8734 162.74C48.0401 162.473 48.2701 162.27 48.5634 162.13C48.8634 161.983 49.2068 161.91 49.5934 161.91C49.9068 161.91 50.1968 161.977 50.4634 162.11C50.7301 162.237 50.9634 162.407 51.1634 162.62L51.1934 162.57C51.1468 162.503 51.0768 162.43 50.9834 162.35V160.59C50.9834 160.37 51.0568 160.203 51.2034 160.09C51.3501 159.97 51.5701 159.91 51.8634 159.91V166.38C51.8634 166.6 51.7968 166.773 51.6634 166.9C51.5368 167.027 51.3301 167.09 51.0434 167.09V166.53C51.1368 166.41 51.2001 166.323 51.2334 166.27L51.2034 166.23C50.9901 166.497 50.7534 166.707 50.4934 166.86C50.2334 167.013 49.9201 167.09 49.5534 167.09ZM49.7434 166.32C50.0968 166.32 50.3934 166.23 50.6334 166.05C50.8734 165.863 50.9934 165.633 50.9934 165.36V163.63C50.9934 163.363 50.8801 163.14 50.6534 162.96C50.4268 162.773 50.1201 162.68 49.7334 162.68C49.3401 162.68 49.0334 162.77 48.8134 162.95C48.6001 163.123 48.4934 163.367 48.4934 163.68V165.31C48.4934 165.637 48.6001 165.887 48.8134 166.06C49.0334 166.233 49.3434 166.32 49.7434 166.32ZM55.8387 160.44C55.8387 160.313 55.882 160.21 55.9687 160.13C56.062 160.043 56.1787 160 56.3187 160H59.0787C59.7253 160 60.2387 160.19 60.6187 160.57C61.0053 160.943 61.1987 161.443 61.1987 162.07C61.1987 162.857 60.8553 163.413 60.1687 163.74V163.77C60.4687 163.897 60.6987 164.09 60.8587 164.35C61.0187 164.603 61.0987 164.913 61.0987 165.28V166.31C61.0987 166.563 61.0187 166.757 60.8587 166.89C60.6987 167.023 60.4653 167.09 60.1587 167.09V165.34C60.1587 164.947 60.0687 164.65 59.8887 164.45C59.7153 164.243 59.4553 164.14 59.1087 164.14H56.7687V166.31C56.7687 166.563 56.6887 166.757 56.5287 166.89C56.3753 167.023 56.1453 167.09 55.8387 167.09V160.44ZM59.0487 163.33C59.4153 163.33 59.7053 163.217 59.9187 162.99C60.1387 162.763 60.2487 162.453 60.2487 162.06C60.2487 161.66 60.1453 161.353 59.9387 161.14C59.732 160.927 59.4353 160.82 59.0487 160.82H56.7687V163.33H59.0487ZM63.9049 167.09C63.3316 167.09 62.8683 166.937 62.5149 166.63C62.1683 166.323 61.9949 165.92 61.9949 165.42C61.9949 164.913 62.1783 164.507 62.5449 164.2C62.9116 163.887 63.3949 163.73 63.9949 163.73C64.6349 163.73 65.1616 163.957 65.5749 164.41L65.6149 164.37C65.5416 164.29 65.4583 164.207 65.3649 164.12V163.7C65.3649 163.36 65.2583 163.097 65.0449 162.91C64.8316 162.723 64.5283 162.63 64.1349 162.63C63.4349 162.63 62.9349 162.907 62.6349 163.46C62.5283 163.407 62.4383 163.337 62.3649 163.25C62.2983 163.157 62.2649 163.063 62.2649 162.97C62.2649 162.79 62.3549 162.62 62.5349 162.46C62.7149 162.293 62.9516 162.16 63.2449 162.06C63.5449 161.96 63.8583 161.91 64.1849 161.91C64.8183 161.91 65.3149 162.067 65.6749 162.38C66.0416 162.693 66.2249 163.127 66.2249 163.68V166.42C66.2249 166.653 66.1583 166.823 66.0249 166.93C65.8916 167.037 65.6816 167.09 65.3949 167.09V166.62C65.5349 166.473 65.6116 166.387 65.6249 166.36L65.5849 166.32C65.1516 166.833 64.5916 167.09 63.9049 167.09ZM64.0549 166.4C64.4683 166.4 64.7916 166.313 65.0249 166.14C65.2649 165.967 65.3849 165.727 65.3849 165.42C65.3849 165.113 65.2683 164.87 65.0349 164.69C64.8016 164.51 64.4816 164.42 64.0749 164.42C63.6949 164.42 63.3949 164.51 63.1749 164.69C62.9616 164.863 62.8549 165.107 62.8549 165.42C62.8549 165.733 62.9583 165.977 63.1649 166.15C63.3783 166.317 63.6749 166.4 64.0549 166.4ZM67.577 162.65C67.577 162.157 67.857 161.91 68.417 161.91V162.55C68.357 162.61 68.287 162.7 68.207 162.82L68.247 162.86C68.447 162.58 68.707 162.353 69.027 162.18C69.347 162 69.6936 161.91 70.067 161.91C70.607 161.91 71.0336 162.07 71.347 162.39C71.6603 162.71 71.817 163.123 71.817 163.63V166.45C71.817 166.67 71.7436 166.833 71.597 166.94C71.457 167.04 71.2403 167.09 70.947 167.09V163.72C70.947 163.4 70.857 163.147 70.677 162.96C70.497 162.773 70.2236 162.68 69.857 162.68C69.6103 162.68 69.377 162.733 69.157 162.84C68.9436 162.94 68.7703 163.08 68.637 163.26C68.5103 163.433 68.447 163.623 68.447 163.83V166.45C68.447 166.67 68.3736 166.833 68.227 166.94C68.087 167.04 67.8703 167.09 67.577 167.09V162.65ZM75.1041 169.09C74.7574 169.09 74.4341 169.033 74.1341 168.92C73.8341 168.807 73.5974 168.653 73.4241 168.46C73.2507 168.273 73.1641 168.07 73.1641 167.85C73.1641 167.677 73.2207 167.55 73.3341 167.47C73.4541 167.39 73.6141 167.35 73.8141 167.35C73.8274 167.663 73.9474 167.91 74.1741 168.09C74.4074 168.277 74.7174 168.37 75.1041 168.37C75.9574 168.37 76.3841 167.957 76.3841 167.13V166.55C76.4774 166.47 76.5474 166.397 76.5941 166.33L76.5641 166.28C76.3707 166.487 76.1274 166.657 75.8341 166.79C75.5474 166.923 75.2574 166.99 74.9641 166.99C74.3907 166.99 73.9207 166.833 73.5541 166.52C73.1941 166.2 73.0141 165.78 73.0141 165.26V163.65C73.0141 163.31 73.0974 163.01 73.2641 162.75C73.4374 162.483 73.6707 162.277 73.9641 162.13C74.2641 161.983 74.5941 161.91 74.9541 161.91C75.6074 161.91 76.1541 162.197 76.5941 162.77L76.6341 162.73L76.4341 162.48C76.4341 162.293 76.4974 162.153 76.6241 162.06C76.7574 161.96 76.9707 161.91 77.2641 161.91V167.04C77.2641 167.44 77.1707 167.793 76.9841 168.1C76.8041 168.413 76.5507 168.657 76.2241 168.83C75.8974 169.003 75.5241 169.09 75.1041 169.09ZM75.1241 166.23C75.4774 166.23 75.7774 166.137 76.0241 165.95C76.2707 165.757 76.3941 165.53 76.3941 165.27V163.64C76.3941 163.367 76.2707 163.137 76.0241 162.95C75.7841 162.763 75.4907 162.67 75.1441 162.67C74.7441 162.67 74.4341 162.76 74.2141 162.94C73.9941 163.113 73.8841 163.363 73.8841 163.69V165.22C73.8841 165.533 73.9907 165.78 74.2041 165.96C74.4241 166.14 74.7307 166.23 75.1241 166.23ZM80.6709 167.09C80.2643 167.09 79.9009 167.013 79.5809 166.86C79.2609 166.7 79.0109 166.483 78.8309 166.21C78.6509 165.93 78.5609 165.617 78.5609 165.27V163.79C78.5609 163.437 78.6543 163.117 78.8409 162.83C79.0343 162.543 79.2909 162.32 79.6109 162.16C79.9376 161.993 80.2909 161.91 80.6709 161.91C81.0509 161.91 81.3976 161.99 81.7109 162.15C82.0309 162.31 82.2809 162.53 82.4609 162.81C82.6476 163.09 82.7409 163.407 82.7409 163.76V164.4C82.7409 164.507 82.7009 164.597 82.6209 164.67C82.5409 164.743 82.4443 164.78 82.3309 164.78H79.4109V165.23C79.4109 165.57 79.5176 165.843 79.7309 166.05C79.9509 166.257 80.2643 166.36 80.6709 166.36C81.0776 166.36 81.3876 166.27 81.6009 166.09C81.8143 165.91 81.9209 165.667 81.9209 165.36C82.1209 165.347 82.2876 165.387 82.4209 165.48C82.5609 165.567 82.6309 165.697 82.6309 165.87C82.6309 166.083 82.5376 166.283 82.3509 166.47C82.1709 166.657 81.9309 166.807 81.6309 166.92C81.3309 167.033 81.0109 167.09 80.6709 167.09ZM81.9309 164.1V163.76C81.9309 163.427 81.8143 163.157 81.5809 162.95C81.3543 162.737 81.0509 162.63 80.6709 162.63C80.2909 162.63 79.9843 162.737 79.7509 162.95C79.5243 163.157 79.4109 163.427 79.4109 163.76V164.1H81.9309Z" fill="white"/>
</svg>
