<svg width="285" height="87" viewBox="0 0 285 87" fill="none" xmlns="http://www.w3.org/2000/svg">
<rect width="285" height="87" rx="10" fill="#F7F7F7"/>
<path fill-rule="evenodd" clip-rule="evenodd" d="M38 22.5C38 22.3674 37.9473 22.2402 37.8536 22.1464C37.7598 22.0527 37.6326 22 37.5 22H23.5C22.0413 22 20.6424 22.5795 19.6109 23.6109C18.5795 24.6424 18 26.0413 18 27.5V55.5C18 56.9587 18.5795 58.3576 19.6109 59.3891C20.6424 60.4205 22.0413 61 23.5 61H43.5C44.9587 61 46.3576 60.4205 47.3891 59.3891C48.4205 58.3576 49 56.9587 49 55.5V35.794C49 35.6614 48.9473 35.5342 48.8536 35.4404C48.7598 35.3467 48.6326 35.294 48.5 35.294H39.5C39.1022 35.294 38.7206 35.136 38.4393 34.8547C38.158 34.5734 38 34.1918 38 33.794V22.5ZM39.5 42C39.8978 42 40.2794 42.158 40.5607 42.4393C40.842 42.7206 41 43.1022 41 43.5C41 43.8978 40.842 44.2794 40.5607 44.5607C40.2794 44.842 39.8978 45 39.5 45H27.5C27.1022 45 26.7206 44.842 26.4393 44.5607C26.158 44.2794 26 43.8978 26 43.5C26 43.1022 26.158 42.7206 26.4393 42.4393C26.7206 42.158 27.1022 42 27.5 42H39.5ZM39.5 50C39.8978 50 40.2794 50.158 40.5607 50.4393C40.842 50.7206 41 51.1022 41 51.5C41 51.8978 40.842 52.2794 40.5607 52.5607C40.2794 52.842 39.8978 53 39.5 53H27.5C27.1022 53 26.7206 52.842 26.4393 52.5607C26.158 52.2794 26 51.8978 26 51.5C26 51.1022 26.158 50.7206 26.4393 50.4393C26.7206 50.158 27.1022 50 27.5 50H39.5Z" fill="black"/>
<path d="M71.528 54C71.0053 54 70.5573 53.8413 70.184 53.524C69.8293 53.188 69.652 52.7773 69.652 52.292V36.108C69.652 35.6227 69.8293 35.2213 70.184 34.904C70.5387 34.568 70.9867 34.4 71.528 34.4H77.744C79.4053 34.4 80.8707 34.7173 82.14 35.352C83.428 35.9867 84.4173 36.8827 85.108 38.04C85.8173 39.1787 86.172 40.4853 86.172 41.96V46.384C86.172 47.8587 85.8173 49.1747 85.108 50.332C84.3987 51.4893 83.4 52.3947 82.112 53.048C80.8427 53.6827 79.3867 54 77.744 54H71.528ZM77.464 50.78C79.088 50.78 80.32 50.416 81.16 49.688C82 48.9413 82.42 47.8493 82.42 46.412V41.904C82.42 40.504 82 39.44 81.16 38.712C80.32 37.984 79.088 37.62 77.464 37.62H73.404V50.78H77.464ZM96.712 54.252C95.1814 54.252 93.7814 53.9533 92.512 53.356C91.2427 52.74 90.2347 51.9093 89.488 50.864C88.76 49.8187 88.396 48.68 88.396 47.448V40.924C88.396 39.692 88.76 38.5627 89.488 37.536C90.2347 36.4907 91.2427 35.6693 92.512 35.072C93.7814 34.456 95.1814 34.148 96.712 34.148C98.2427 34.148 99.6427 34.456 100.912 35.072C102.2 35.6693 103.208 36.4907 103.936 37.536C104.683 38.5627 105.056 39.692 105.056 40.924V47.448C105.056 48.68 104.683 49.8187 103.936 50.864C103.208 51.9093 102.2 52.74 100.912 53.356C99.6427 53.9533 98.2427 54.252 96.712 54.252ZM96.712 50.976C98.112 50.976 99.232 50.6493 100.072 49.996C100.912 49.324 101.332 48.456 101.332 47.392V41.008C101.332 39.9253 100.912 39.0573 100.072 38.404C99.232 37.732 98.112 37.396 96.712 37.396C95.3307 37.396 94.22 37.732 93.38 38.404C92.54 39.0573 92.12 39.9253 92.12 41.008V47.392C92.12 48.456 92.54 49.324 93.38 49.996C94.22 50.6493 95.3307 50.976 96.712 50.976ZM115.833 54.252C114.172 54.252 112.688 53.9347 111.381 53.3C110.093 52.6653 109.085 51.7787 108.357 50.64C107.629 49.5013 107.265 48.204 107.265 46.748V41.596C107.265 40.14 107.62 38.852 108.329 37.732C109.057 36.5933 110.056 35.716 111.325 35.1C112.595 34.4653 114.051 34.148 115.693 34.148C117.336 34.148 118.792 34.4 120.061 34.904C121.349 35.3893 122.348 36.08 123.057 36.976C123.767 37.8533 124.121 38.8613 124.121 40C124.121 40.6907 123.888 41.2413 123.421 41.652C122.973 42.044 122.367 42.24 121.601 42.24C121.228 42.24 120.817 42.184 120.369 42.072C120.407 41.624 120.425 41.1853 120.425 40.756C120.425 39.7667 119.987 38.964 119.109 38.348C118.232 37.732 117.093 37.424 115.693 37.424C114.312 37.424 113.183 37.816 112.305 38.6C111.447 39.3653 111.017 40.364 111.017 41.596V46.748C111.017 47.9987 111.465 49.016 112.361 49.8C113.257 50.584 114.415 50.976 115.833 50.976C117.233 50.976 118.372 50.668 119.249 50.052C120.127 49.436 120.565 48.6427 120.565 47.672C120.565 47.224 120.547 46.7947 120.509 46.384C120.976 46.2907 121.368 46.244 121.685 46.244C122.469 46.244 123.095 46.4493 123.561 46.86C124.028 47.2707 124.261 47.8307 124.261 48.54C124.261 49.6413 123.907 50.6307 123.197 51.508C122.488 52.3667 121.489 53.0387 120.201 53.524C118.932 54.0093 117.476 54.252 115.833 54.252ZM135.085 54.252C133.517 54.252 132.098 53.9347 130.829 53.3C129.578 52.6653 128.598 51.788 127.889 50.668C127.179 49.548 126.825 48.2787 126.825 46.86V36.92C126.825 36.024 127.142 35.3427 127.777 34.876C128.411 34.3907 129.345 34.148 130.577 34.148V46.86C130.577 48.1107 130.987 49.1093 131.809 49.856C132.63 50.6027 133.722 50.976 135.085 50.976C136.447 50.976 137.539 50.6027 138.361 49.856C139.182 49.1093 139.593 48.1107 139.593 46.86V36.92C139.593 36.0053 139.91 35.3147 140.545 34.848C141.179 34.3813 142.113 34.148 143.345 34.148V46.86C143.345 48.2787 142.99 49.548 142.281 50.668C141.571 51.788 140.582 52.6653 139.312 53.3C138.062 53.9347 136.653 54.252 135.085 54.252ZM146.488 36.948C146.488 36.0893 146.824 35.408 147.496 34.904C148.168 34.3813 149.083 34.12 150.24 34.12L156.12 48.904L155.476 50.668L155.756 50.78L162.056 34.148C163.195 34.148 164.1 34.4093 164.772 34.932C165.463 35.436 165.808 36.1173 165.808 36.976V54.252C163.363 54.252 162.14 53.3373 162.14 51.508V42.548L163.092 39.972L162.784 39.86L157.66 53.244C157.529 53.5427 157.324 53.7853 157.044 53.972C156.783 54.1587 156.484 54.252 156.148 54.252C155.812 54.252 155.504 54.1587 155.224 53.972C154.963 53.7853 154.767 53.5333 154.636 53.216L149.512 39.832L149.204 39.944L150.128 42.52V51.508C150.128 53.3373 148.915 54.252 146.488 54.252V36.948ZM169.101 36.108C169.101 35.6413 169.279 35.24 169.633 34.904C170.007 34.568 170.455 34.4 170.977 34.4H183.465C183.465 35.52 183.269 36.3413 182.877 36.864C182.504 37.368 181.888 37.62 181.029 37.62H172.853V42.492H180.301C180.301 43.612 180.105 44.4333 179.713 44.956C179.34 45.46 178.724 45.712 177.865 45.712H172.853V50.78H181.617C182.457 50.78 183.064 51.0413 183.437 51.564C183.829 52.068 184.025 52.88 184.025 54H170.977C170.455 54 170.007 53.8413 169.633 53.524C169.279 53.188 169.101 52.7773 169.101 52.292V36.108ZM186.738 37.116C186.738 36.2013 187.046 35.4827 187.662 34.96C188.278 34.4187 189.109 34.148 190.154 34.148L199.618 48.932L199.898 48.708L198.75 46.804V34.148C199.963 34.148 200.878 34.3813 201.494 34.848C202.129 35.3147 202.446 36.0053 202.446 36.92V51.704C202.446 52.3947 202.147 52.992 201.55 53.496C200.971 54 200.299 54.252 199.534 54.252L189.566 38.656L189.286 38.908L190.434 40.812V51.48C190.434 52.3947 190.117 53.0853 189.482 53.552C188.866 54.0187 187.951 54.252 186.738 54.252V37.116ZM210.884 37.648H204.136C204.136 35.4827 205.116 34.4 207.076 34.4H221.384C221.384 36.5653 220.394 37.648 218.416 37.648H214.636V51.48C214.636 52.376 214.318 53.0667 213.684 53.552C213.049 54.0187 212.116 54.252 210.884 54.252V37.648ZM230.231 54.252C228.551 54.252 227.086 54.0467 225.835 53.636C224.584 53.2253 223.623 52.6467 222.951 51.9C222.298 51.1347 221.971 50.248 221.971 49.24C221.971 47.7093 223.007 46.944 225.079 46.944C225.154 48.3627 225.63 49.436 226.507 50.164C227.403 50.892 228.654 51.256 230.259 51.256C231.584 51.256 232.611 51.032 233.339 50.584C234.067 50.1173 234.431 49.4733 234.431 48.652C234.431 48.1107 234.291 47.672 234.011 47.336C233.731 46.9813 233.255 46.6733 232.583 46.412C231.911 46.132 230.931 45.852 229.643 45.572C227.814 45.1427 226.367 44.6667 225.303 44.144C224.258 43.6213 223.502 42.996 223.035 42.268C222.568 41.5213 222.335 40.5973 222.335 39.496C222.335 38.432 222.643 37.4987 223.259 36.696C223.894 35.8933 224.78 35.268 225.919 34.82C227.076 34.372 228.402 34.148 229.895 34.148C231.332 34.148 232.611 34.344 233.731 34.736C234.87 35.1093 235.756 35.6413 236.391 36.332C237.044 37.0227 237.371 37.816 237.371 38.712C237.371 40.0933 236.372 40.812 234.375 40.868C234.263 39.58 233.852 38.6373 233.143 38.04C232.434 37.4427 231.351 37.144 229.895 37.144C228.644 37.144 227.683 37.3493 227.011 37.76C226.339 38.1707 226.003 38.7493 226.003 39.496C226.003 40.0187 226.134 40.4573 226.395 40.812C226.656 41.148 227.095 41.4467 227.711 41.708C228.327 41.9507 229.204 42.2027 230.343 42.464C232.266 42.8933 233.787 43.3787 234.907 43.92C236.027 44.4427 236.839 45.0867 237.343 45.852C237.847 46.5987 238.099 47.5227 238.099 48.624C238.099 49.7627 237.772 50.7613 237.119 51.62C236.484 52.46 235.57 53.1133 234.375 53.58C233.199 54.028 231.818 54.252 230.231 54.252Z" fill="black"/>
</svg>
