<svg width="285" height="285" viewBox="0 0 285 285" fill="none" xmlns="http://www.w3.org/2000/svg">
<rect width="285" height="285" rx="10" fill="black"/>
<path d="M189.025 277.135C188.205 277.135 187.455 276.975 186.775 276.655C186.095 276.325 185.555 275.88 185.155 275.32C184.765 274.76 184.57 274.15 184.57 273.49V269.995C184.57 269.335 184.765 268.73 185.155 268.18C185.555 267.62 186.095 267.18 186.775 266.86C187.455 266.53 188.205 266.365 189.025 266.365C189.845 266.365 190.595 266.53 191.275 266.86C191.965 267.18 192.505 267.62 192.895 268.18C193.295 268.73 193.495 269.335 193.495 269.995V273.49C193.495 274.15 193.295 274.76 192.895 275.32C192.505 275.88 191.965 276.325 191.275 276.655C190.595 276.975 189.845 277.135 189.025 277.135ZM189.025 275.38C189.775 275.38 190.375 275.205 190.825 274.855C191.275 274.495 191.5 274.03 191.5 273.46V270.04C191.5 269.46 191.275 268.995 190.825 268.645C190.375 268.285 189.775 268.105 189.025 268.105C188.285 268.105 187.69 268.285 187.24 268.645C186.79 268.995 186.565 269.46 186.565 270.04V273.46C186.565 274.03 186.79 274.495 187.24 274.855C187.69 275.205 188.285 275.38 189.025 275.38ZM195.953 277C195.673 277 195.433 276.915 195.233 276.745C195.043 276.565 194.948 276.345 194.948 276.085V267.415C194.948 267.155 195.043 266.94 195.233 266.77C195.423 266.59 195.663 266.5 195.953 266.5H199.283C200.173 266.5 200.958 266.67 201.638 267.01C202.328 267.35 202.858 267.83 203.228 268.45C203.608 269.06 203.798 269.76 203.798 270.55V272.92C203.798 273.71 203.608 274.415 203.228 275.035C202.848 275.655 202.313 276.14 201.623 276.49C200.943 276.83 200.163 277 199.283 277H195.953ZM199.133 275.275C200.003 275.275 200.663 275.08 201.113 274.69C201.563 274.29 201.788 273.705 201.788 272.935V270.52C201.788 269.77 201.563 269.2 201.113 268.81C200.663 268.42 200.003 268.225 199.133 268.225H196.958V275.275H199.133ZM209.445 277.135C208.625 277.135 207.875 276.975 207.195 276.655C206.515 276.325 205.975 275.88 205.575 275.32C205.185 274.76 204.99 274.15 204.99 273.49V269.995C204.99 269.335 205.185 268.73 205.575 268.18C205.975 267.62 206.515 267.18 207.195 266.86C207.875 266.53 208.625 266.365 209.445 266.365C210.265 266.365 211.015 266.53 211.695 266.86C212.385 267.18 212.925 267.62 213.315 268.18C213.715 268.73 213.915 269.335 213.915 269.995V273.49C213.915 274.15 213.715 274.76 213.315 275.32C212.925 275.88 212.385 276.325 211.695 276.655C211.015 276.975 210.265 277.135 209.445 277.135ZM209.445 275.38C210.195 275.38 210.795 275.205 211.245 274.855C211.695 274.495 211.92 274.03 211.92 273.46V270.04C211.92 269.46 211.695 268.995 211.245 268.645C210.795 268.285 210.195 268.105 209.445 268.105C208.705 268.105 208.11 268.285 207.66 268.645C207.21 268.995 206.985 269.46 206.985 270.04V273.46C206.985 274.03 207.21 274.495 207.66 274.855C208.11 275.205 208.705 275.38 209.445 275.38Z" fill="white" fill-opacity="0.5"/>
<path d="M81.485 277C81.205 277 80.98 276.92 80.81 276.76C80.65 276.6 80.57 276.39 80.57 276.13C80.57 275.35 80.875 274.64 81.485 274C82.105 273.35 83.075 272.725 84.395 272.125C85.025 271.845 85.505 271.59 85.835 271.36C86.165 271.12 86.395 270.875 86.525 270.625C86.665 270.365 86.735 270.055 86.735 269.695C86.735 269.195 86.565 268.81 86.225 268.54C85.885 268.26 85.405 268.12 84.785 268.12C83.365 268.12 82.655 268.705 82.655 269.875C82.655 270.145 82.675 270.38 82.715 270.58C82.625 270.6 82.495 270.61 82.325 270.61C81.865 270.61 81.47 270.48 81.14 270.22C80.82 269.95 80.66 269.62 80.66 269.23C80.66 268.7 80.84 268.215 81.2 267.775C81.56 267.335 82.055 266.99 82.685 266.74C83.315 266.49 84.015 266.365 84.785 266.365C85.575 266.365 86.27 266.505 86.87 266.785C87.48 267.055 87.95 267.445 88.28 267.955C88.61 268.455 88.775 269.035 88.775 269.695C88.775 270.435 88.5 271.11 87.95 271.72C87.4 272.32 86.565 272.875 85.445 273.385C84.575 273.785 83.93 274.14 83.51 274.45C83.1 274.75 82.88 275.03 82.85 275.29H87.41C87.91 275.29 88.29 275.435 88.55 275.725C88.81 276.015 88.94 276.44 88.94 277H81.485ZM95.1322 274.405H90.7522C90.4922 274.405 90.2872 274.335 90.1372 274.195C89.9872 274.055 89.9122 273.87 89.9122 273.64C89.9122 273.38 89.9822 273.175 90.1222 273.025L95.3872 266.68C95.4672 266.58 95.5872 266.505 95.7472 266.455C95.9072 266.395 96.0772 266.365 96.2572 266.365C96.5172 266.365 96.7322 266.45 96.9022 266.62C97.0722 266.78 97.1572 266.985 97.1572 267.235V272.695H98.8822C98.8822 273.295 98.7772 273.73 98.5672 274C98.3672 274.27 98.0472 274.405 97.6072 274.405H97.1572V275.86C97.1572 276.3 96.9922 276.625 96.6622 276.835C96.3422 277.035 95.8322 277.135 95.1322 277.135V274.405ZM95.2522 272.695V269.68L95.8072 268.945L95.6872 268.87L92.5372 272.695H95.2522ZM106.957 276.595C106.867 276.765 106.737 276.9 106.567 277C106.397 277.09 106.202 277.135 105.982 277.135C105.792 277.135 105.622 277.09 105.472 277C105.322 276.92 105.177 276.785 105.037 276.595L103.057 273.67L102.037 274.615V275.995C102.037 276.395 101.882 276.685 101.572 276.865C101.272 277.045 100.812 277.135 100.192 277.135V267.805C100.192 266.845 100.817 266.365 102.067 266.365V272.56L105.502 269.365C106.002 269.755 106.252 270.075 106.252 270.325C106.252 270.485 106.207 270.625 106.117 270.745C106.037 270.865 105.907 271.005 105.727 271.165L104.152 272.635L106.957 276.595ZM108.365 270.805C108.365 270.345 108.51 269.99 108.8 269.74C109.09 269.49 109.53 269.365 110.12 269.365V270.265C109.94 270.485 109.82 270.645 109.76 270.745L109.865 270.805C110.175 270.335 110.505 269.98 110.855 269.74C111.205 269.49 111.62 269.365 112.1 269.365C112.97 269.365 113.57 269.79 113.9 270.64C114.15 270.24 114.47 269.93 114.86 269.71C115.25 269.48 115.69 269.365 116.18 269.365C116.86 269.365 117.4 269.615 117.8 270.115C118.21 270.605 118.415 271.235 118.415 272.005V275.995C118.415 276.395 118.26 276.685 117.95 276.865C117.65 277.045 117.19 277.135 116.57 277.135V272.155C116.57 271.785 116.485 271.49 116.315 271.27C116.155 271.05 115.905 270.94 115.565 270.94C115.205 270.94 114.9 271.065 114.65 271.315C114.41 271.555 114.29 271.935 114.29 272.455V275.995C114.29 276.395 114.14 276.685 113.84 276.865C113.55 277.045 113.095 277.135 112.475 277.135V272.155C112.475 271.775 112.395 271.48 112.235 271.27C112.075 271.05 111.825 270.94 111.485 270.94C111.065 270.94 110.745 271.085 110.525 271.375C110.315 271.655 110.21 272.04 110.21 272.53V275.995C110.21 276.395 110.055 276.685 109.745 276.865C109.445 277.045 108.985 277.135 108.365 277.135V270.805Z" fill="white"/>
<path d="M19.38 17.32H14.56C14.56 15.7733 15.26 15 16.66 15H26.88C26.88 16.5467 26.1733 17.32 24.76 17.32H22.06V27.2C22.06 27.84 21.8333 28.3333 21.38 28.68C20.9267 29.0133 20.26 29.18 19.38 29.18V17.32ZM29.985 29.18C29.1183 29.18 28.3317 29.0267 27.625 28.72C26.9317 28.4 26.385 27.96 25.985 27.4C25.585 26.84 25.385 26.2067 25.385 25.5V22.68C25.385 21.96 25.5783 21.3067 25.965 20.72C26.365 20.1333 26.9117 19.6733 27.605 19.34C28.2983 18.9933 29.0917 18.82 29.985 18.82C30.8783 18.82 31.6717 18.9933 32.365 19.34C33.0717 19.6733 33.6183 20.1333 34.005 20.72C34.405 21.3067 34.605 21.96 34.605 22.68V25.5C34.605 26.2067 34.3983 26.84 33.985 27.4C33.585 27.96 33.0317 28.4 32.325 28.72C31.6317 29.0267 30.8517 29.18 29.985 29.18ZM29.985 27.04C30.6517 27.04 31.1717 26.8867 31.545 26.58C31.9317 26.2733 32.125 25.86 32.125 25.34V22.8C32.125 22.2533 31.9317 21.8133 31.545 21.48C31.1717 21.1333 30.6517 20.96 29.985 20.96C29.3317 20.96 28.8117 21.1333 28.425 21.48C28.0383 21.8133 27.845 22.2533 27.845 22.8V25.34C27.845 25.86 28.0383 26.2733 28.425 26.58C28.8117 26.8867 29.3317 27.04 29.985 27.04ZM39.7584 29.18C39.0384 29.18 38.3918 29.0267 37.8184 28.72C37.2451 28.4133 36.7918 27.9933 36.4584 27.46C36.1251 26.9133 35.9584 26.2867 35.9584 25.58V22.42C35.9584 21.7267 36.1318 21.1067 36.4784 20.56C36.8251 20.0133 37.3051 19.5867 37.9184 19.28C38.5451 18.9733 39.2384 18.82 39.9984 18.82C40.4918 18.82 40.9984 18.9267 41.5184 19.14C42.0518 19.34 42.4984 19.6133 42.8584 19.96L42.9384 19.86C42.8718 19.7533 42.7251 19.62 42.4984 19.46V16.5C42.4984 15.9667 42.7051 15.5533 43.1184 15.26C43.5451 14.9667 44.1851 14.82 45.0384 14.82V27.46C45.0384 27.9533 44.8518 28.3667 44.4784 28.7C44.1051 29.02 43.5251 29.18 42.7384 29.18V28.08C42.9118 27.8667 43.0384 27.6933 43.1184 27.56L43.0184 27.48C42.6051 28.04 42.1451 28.4667 41.6384 28.76C41.1451 29.04 40.5184 29.18 39.7584 29.18ZM40.4984 27.02C41.0984 27.02 41.5851 26.88 41.9584 26.6C42.3451 26.3067 42.5384 25.94 42.5384 25.5V22.48C42.5384 22.0533 42.3451 21.7 41.9584 21.42C41.5851 21.1267 41.0918 20.98 40.4784 20.98C39.8251 20.98 39.3184 21.12 38.9584 21.4C38.6118 21.6667 38.4384 22.0533 38.4384 22.56V25.4C38.4384 25.9333 38.6118 26.34 38.9584 26.62C39.3184 26.8867 39.8318 27.02 40.4984 27.02ZM50.707 29.18C50.027 29.18 49.4004 29.0467 48.827 28.78C48.267 28.5133 47.8137 28.1333 47.467 27.64C47.1337 27.1333 46.967 26.5333 46.967 25.84C46.967 25.1467 47.147 24.5467 47.507 24.04C47.867 23.52 48.3537 23.1267 48.967 22.86C49.5937 22.58 50.2804 22.44 51.027 22.44C51.6404 22.44 52.187 22.54 52.667 22.74C53.1604 22.9267 53.6137 23.2133 54.027 23.6L54.127 23.5C54.007 23.38 53.8004 23.2 53.507 22.96V22.56C53.507 22.0133 53.3137 21.58 52.927 21.26C52.5404 20.94 52.0004 20.78 51.307 20.78C50.067 20.78 49.1537 21.2333 48.567 22.14C48.2737 22.0467 48.027 21.9 47.827 21.7C47.627 21.4867 47.527 21.26 47.527 21.02C47.527 20.62 47.707 20.2533 48.067 19.92C48.427 19.5867 48.9137 19.32 49.527 19.12C50.1404 18.92 50.807 18.82 51.527 18.82C52.9404 18.82 54.0337 19.1533 54.807 19.82C55.5804 20.4733 55.967 21.3667 55.967 22.5V27.5C55.967 28.0867 55.7804 28.5133 55.407 28.78C55.0337 29.0467 54.447 29.18 53.647 29.18V28.36C53.8737 28.1333 54.027 27.9667 54.107 27.86L54.027 27.76C53.587 28.2267 53.1137 28.58 52.607 28.82C52.1137 29.06 51.4804 29.18 50.707 29.18ZM51.347 27.36C52.0404 27.36 52.5804 27.2267 52.967 26.96C53.3537 26.6933 53.547 26.3133 53.547 25.82C53.547 25.34 53.347 24.96 52.947 24.68C52.5604 24.4 52.0337 24.26 51.367 24.26C50.7537 24.26 50.267 24.4 49.907 24.68C49.5604 24.9467 49.387 25.3267 49.387 25.82C49.387 26.3267 49.5604 26.7133 49.907 26.98C50.2537 27.2333 50.7337 27.36 51.347 27.36ZM58.4988 33.18C57.9788 33.18 57.5654 33 57.2588 32.64C56.9654 32.28 56.8188 31.76 56.8188 31.08C57.2188 31.1467 57.5521 31.18 57.8188 31.18C58.3254 31.18 58.7254 31.0467 59.0188 30.78C59.3254 30.5133 59.6588 29.98 60.0188 29.18L60.3388 28.44L56.4788 19.02C56.5721 18.9667 56.7321 18.92 56.9588 18.88C57.1988 18.84 57.3921 18.82 57.5388 18.82C57.9254 18.82 58.2788 18.9067 58.5988 19.08C58.9188 19.24 59.1388 19.4667 59.2588 19.76L61.3988 25.38L61.0588 26.32L61.2388 26.38L63.8188 19.76C63.9388 19.4533 64.1521 19.22 64.4588 19.06C64.7788 18.9 65.1321 18.82 65.5188 18.82C65.6654 18.82 65.8521 18.84 66.0788 18.88C66.3188 18.92 66.4921 18.9667 66.5988 19.02L62.1188 29.9C61.6521 31.02 61.1388 31.8467 60.5788 32.38C60.0321 32.9133 59.3388 33.18 58.4988 33.18ZM68.5998 31.76C69.0932 31.3067 69.4665 30.8333 69.7198 30.34C69.9865 29.8467 70.1198 29.42 70.1198 29.06C69.9998 29.14 69.8332 29.18 69.6198 29.18C69.1798 29.18 68.8132 29.0267 68.5198 28.72C68.2398 28.4133 68.0998 28.0133 68.0998 27.52C68.0998 27.0133 68.2665 26.6 68.5998 26.28C68.9332 25.9467 69.3665 25.78 69.8998 25.78C70.4465 25.78 70.8865 25.96 71.2198 26.32C71.5665 26.6667 71.7398 27.0867 71.7398 27.58C71.7398 29.34 71.1598 30.7067 69.9998 31.68C69.8265 31.84 69.5532 31.92 69.1798 31.92C68.8998 31.92 68.7065 31.8667 68.5998 31.76Z" fill="white" fill-opacity="0.5"/>
<path d="M81.0528 17.3H80.0328C79.4728 17.3 79.0261 17.0933 78.6928 16.68C78.3595 16.2533 78.1928 15.6933 78.1928 15H82.4928C82.8395 15 83.1328 15.1133 83.3728 15.34C83.6128 15.5667 83.7328 15.8333 83.7328 16.14V27.2C83.7328 27.84 83.4995 28.3333 83.0328 28.68C82.5795 29.0133 81.9195 29.18 81.0528 29.18V17.3ZM88.3966 17.3H87.3766C86.8166 17.3 86.3699 17.0933 86.0366 16.68C85.7032 16.2533 85.5366 15.6933 85.5366 15H89.8366C90.1832 15 90.4766 15.1133 90.7166 15.34C90.9566 15.5667 91.0766 15.8333 91.0766 16.14V27.2C91.0766 27.84 90.8432 28.3333 90.3766 28.68C89.9232 29.0133 89.2632 29.18 88.3966 29.18V17.3ZM100.077 29.18C99.5032 29.1133 99.0499 28.9133 98.7166 28.58C98.3966 28.2467 98.2366 27.8267 98.2366 27.32C98.2366 26.9333 98.3299 26.5333 98.5166 26.12L103.097 15.7C103.35 15.1133 103.79 14.82 104.417 14.82C105.03 14.82 105.463 15.1133 105.717 15.7L110.297 26.12C110.483 26.56 110.577 26.96 110.577 27.32C110.577 27.8267 110.41 28.2467 110.077 28.58C109.757 28.9133 109.303 29.1133 108.717 29.18L107.037 25.38H101.777L100.077 29.18ZM106.217 23.1L104.017 17.62L103.777 17.72L104.257 18.96L102.577 23.1H106.217ZM121.384 27.24C121.384 27.8667 121.184 28.3467 120.784 28.68C120.397 29.0133 119.804 29.18 119.004 29.18V27.98C119.177 27.78 119.337 27.56 119.484 27.32L119.364 27.24C118.51 28.5333 117.364 29.18 115.924 29.18C115.244 29.18 114.63 29.0267 114.084 28.72C113.55 28.4 113.124 27.96 112.804 27.4C112.497 26.84 112.344 26.2067 112.344 25.5V20.34C112.344 19.7933 112.544 19.4067 112.944 19.18C113.357 18.94 113.984 18.82 114.824 18.82V25.32C114.824 25.84 114.984 26.2533 115.304 26.56C115.624 26.8667 116.084 27.02 116.684 27.02C117.35 27.02 117.884 26.8133 118.284 26.4C118.697 25.9733 118.904 25.4467 118.904 24.82V20.34C118.904 19.7933 119.104 19.4067 119.504 19.18C119.904 18.94 120.53 18.82 121.384 18.82V27.24ZM127.855 33.18C127.068 33.18 126.368 33.0667 125.755 32.84C125.141 32.6267 124.661 32.3333 124.315 31.96C123.968 31.5867 123.795 31.1733 123.795 30.72C123.795 30.2667 123.948 29.9467 124.255 29.76C124.575 29.5733 125.021 29.48 125.595 29.48C125.648 30.0267 125.861 30.4467 126.235 30.74C126.608 31.0467 127.148 31.2 127.855 31.2C128.641 31.2 129.195 31.0067 129.515 30.62C129.848 30.2333 130.015 29.7 130.015 29.02V28.34C130.215 28.1933 130.361 28.0533 130.455 27.92L130.375 27.82C130.028 28.1667 129.561 28.4467 128.975 28.66C128.401 28.8733 127.861 28.98 127.355 28.98C126.608 28.98 125.941 28.8333 125.355 28.54C124.768 28.2333 124.301 27.8067 123.955 27.26C123.621 26.7133 123.455 26.0933 123.455 25.4V22.42C123.455 21.7533 123.628 21.1467 123.975 20.6C124.335 20.04 124.801 19.6067 125.375 19.3C125.961 18.98 126.588 18.82 127.255 18.82C127.988 18.82 128.608 18.9667 129.115 19.26C129.635 19.5533 130.108 19.9733 130.535 20.52L130.615 20.44C130.548 20.32 130.421 20.1467 130.235 19.92C130.235 19.1867 131.001 18.82 132.535 18.82V28.66C132.535 29.54 132.335 30.32 131.935 31C131.535 31.68 130.975 32.2133 130.255 32.6C129.548 32.9867 128.748 33.18 127.855 33.18ZM127.995 26.84C128.581 26.84 129.075 26.6933 129.475 26.4C129.875 26.0933 130.075 25.7333 130.075 25.32V22.48C130.075 22.0533 129.875 21.6933 129.475 21.4C129.088 21.1067 128.595 20.96 127.995 20.96C127.341 20.96 126.835 21.1 126.475 21.38C126.128 21.66 125.955 22.06 125.955 22.58V25.22C125.955 25.7267 126.128 26.1267 126.475 26.42C126.821 26.7 127.328 26.84 127.995 26.84Z" fill="white"/>
<path d="M121 83.4C118.68 83.4 116.653 83.0533 114.92 82.36C113.187 81.64 111.853 80.64 110.92 79.36C109.987 78.0533 109.52 76.5333 109.52 74.8C109.52 73.3333 109.92 72.04 110.72 70.92C111.52 69.8 112.693 68.9067 114.24 68.24C111.733 66.8533 110.48 64.9467 110.48 62.52C110.48 61 110.92 59.64 111.8 58.44C112.707 57.24 113.96 56.3067 115.56 55.64C117.16 54.9733 118.973 54.64 121 54.64C123.08 54.64 124.92 54.9733 126.52 55.64C128.12 56.3067 129.36 57.24 130.24 58.44C131.12 59.6133 131.56 60.9733 131.56 62.52C131.56 64.9467 130.293 66.8533 127.76 68.24C129.307 68.9067 130.48 69.8 131.28 70.92C132.107 72.04 132.52 73.3333 132.52 74.8C132.52 76.5333 132.053 78.0533 131.12 79.36C130.187 80.6667 128.853 81.6667 127.12 82.36C125.387 83.0533 123.347 83.4 121 83.4ZM121 66.4C122.653 66.4 123.947 66.08 124.88 65.44C125.84 64.8 126.32 63.9067 126.32 62.76C126.32 61.5867 125.867 60.6933 124.96 60.08C124.08 59.44 122.76 59.12 121 59.12C119.293 59.12 117.973 59.44 117.04 60.08C116.133 60.6933 115.68 61.5867 115.68 62.76C115.68 63.88 116.16 64.7733 117.12 65.44C118.107 66.08 119.4 66.4 121 66.4ZM121 78.88C125.187 78.88 127.28 77.4533 127.28 74.6C127.28 73.1867 126.733 72.1067 125.64 71.36C124.547 70.5867 123 70.2 121 70.2C119.053 70.2 117.52 70.6 116.4 71.4C115.28 72.1733 114.72 73.24 114.72 74.6C114.72 75.9867 115.253 77.0533 116.32 77.8C117.413 78.52 118.973 78.88 121 78.88ZM147.176 54.64C149.522 54.64 151.576 55.0933 153.336 56C155.096 56.88 156.456 58.1333 157.416 59.76C158.376 61.3867 158.856 63.2933 158.856 65.48C158.856 66.8667 158.549 68.2933 157.936 69.76C157.349 71.2267 156.522 72.5467 155.456 73.72L147.856 82.16C147.429 82.6133 147.029 82.92 146.656 83.08C146.282 83.2667 145.816 83.36 145.256 83.36C143.869 83.36 142.696 82.7867 141.736 81.64L147.256 75.8C148.136 75.5867 148.922 75.32 149.616 75L149.416 74.52C148.296 75.0533 147.109 75.32 145.856 75.32C143.776 75.32 141.949 74.92 140.376 74.12C138.829 73.2933 137.629 72.1467 136.776 70.68C135.949 69.1867 135.536 67.4533 135.536 65.48C135.536 63.2933 136.002 61.3867 136.936 59.76C137.896 58.1333 139.256 56.88 141.016 56C142.776 55.0933 144.829 54.64 147.176 54.64ZM147.176 59.2C145.229 59.2 143.669 59.7733 142.496 60.92C141.322 62.0667 140.736 63.5867 140.736 65.48C140.736 67.4 141.322 68.9467 142.496 70.12C143.669 71.2667 145.229 71.84 147.176 71.84C149.096 71.84 150.642 71.2533 151.816 70.08C153.016 68.9067 153.616 67.3733 153.616 65.48C153.616 63.6133 153.016 62.1067 151.816 60.96C150.642 59.7867 149.096 59.2 147.176 59.2ZM191.095 81.92C190.855 82.3733 190.509 82.7333 190.055 83C189.602 83.24 189.082 83.36 188.495 83.36C187.989 83.36 187.535 83.24 187.135 83C186.735 82.7867 186.349 82.4267 185.975 81.92L180.695 74.12L177.975 76.64V80.32C177.975 81.3867 177.562 82.16 176.735 82.64C175.935 83.12 174.709 83.36 173.055 83.36V58.48C173.055 55.92 174.722 54.64 178.055 54.64V71.16L187.215 62.64C188.549 63.68 189.215 64.5333 189.215 65.2C189.215 65.6267 189.095 66 188.855 66.32C188.642 66.64 188.295 67.0133 187.815 67.44L183.615 71.36L191.095 81.92ZM194.852 66.48C194.852 65.2533 195.239 64.3067 196.012 63.64C196.786 62.9733 197.959 62.64 199.532 62.64V65.04C199.052 65.6267 198.732 66.0533 198.572 66.32L198.852 66.48C199.679 65.2267 200.559 64.28 201.492 63.64C202.426 62.9733 203.532 62.64 204.812 62.64C207.132 62.64 208.732 63.7733 209.612 66.04C210.279 64.9733 211.132 64.1467 212.172 63.56C213.212 62.9467 214.386 62.64 215.692 62.64C217.506 62.64 218.946 63.3067 220.012 64.64C221.106 65.9467 221.652 67.6267 221.652 69.68V80.32C221.652 81.3867 221.239 82.16 220.412 82.64C219.612 83.12 218.386 83.36 216.732 83.36V70.08C216.732 69.0933 216.506 68.3067 216.052 67.72C215.626 67.1333 214.959 66.84 214.052 66.84C213.092 66.84 212.279 67.1733 211.612 67.84C210.972 68.48 210.652 69.4933 210.652 70.88V80.32C210.652 81.3867 210.252 82.16 209.452 82.64C208.679 83.12 207.466 83.36 205.812 83.36V70.08C205.812 69.0667 205.599 68.28 205.172 67.72C204.746 67.1333 204.079 66.84 203.172 66.84C202.052 66.84 201.199 67.2267 200.612 68C200.052 68.7467 199.772 69.7733 199.772 71.08V80.32C199.772 81.3867 199.359 82.16 198.532 82.64C197.732 83.12 196.506 83.36 194.852 83.36V66.48Z" fill="white"/>
<path d="M120.52 135.36C118.493 135.36 116.64 135.04 114.96 134.4C113.28 133.733 111.947 132.827 110.96 131.68C110 130.533 109.52 129.267 109.52 127.88C109.52 126.707 109.853 125.853 110.52 125.32C111.187 124.787 112.24 124.52 113.68 124.52L114.52 124.56C114.44 124.987 114.4 125.52 114.4 126.16C114.4 127.573 114.947 128.68 116.04 129.48C117.133 130.28 118.627 130.68 120.52 130.68C122.493 130.68 124 130.173 125.04 129.16C126.107 128.12 126.64 126.653 126.64 124.76C126.64 122.973 126.093 121.587 125 120.6C123.907 119.613 122.387 119.12 120.44 119.12C118.307 119.12 116.493 119.68 115 120.8C114.333 121.28 113.64 121.52 112.92 121.52C112.2 121.52 111.587 121.307 111.08 120.88C110.573 120.427 110.32 119.853 110.32 119.16C110.32 118.973 110.333 118.827 110.36 118.72L111.96 108.92C112.067 108.28 112.333 107.8 112.76 107.48C113.213 107.16 113.8 107 114.52 107H130.6C130.6 110.04 129.36 111.56 126.88 111.56H116.08L115.36 115.84C114.693 116.293 114.147 116.747 113.72 117.2L113.92 117.44C114.933 116.587 116.147 115.907 117.56 115.4C119 114.893 120.413 114.64 121.8 114.64C123.827 114.64 125.587 115.053 127.08 115.88C128.6 116.707 129.76 117.88 130.56 119.4C131.387 120.92 131.8 122.707 131.8 124.76C131.8 126.92 131.347 128.8 130.44 130.4C129.533 132 128.227 133.227 126.52 134.08C124.84 134.933 122.84 135.36 120.52 135.36ZM148.353 128.08H136.673C135.979 128.08 135.433 127.893 135.033 127.52C134.633 127.147 134.433 126.653 134.433 126.04C134.433 125.347 134.619 124.8 134.993 124.4L149.033 107.48C149.246 107.213 149.566 107.013 149.993 106.88C150.419 106.72 150.873 106.64 151.353 106.64C152.046 106.64 152.619 106.867 153.073 107.32C153.526 107.747 153.753 108.293 153.753 108.96V123.52H158.353C158.353 125.12 158.073 126.28 157.513 127C156.979 127.72 156.126 128.08 154.953 128.08H153.753V131.96C153.753 133.133 153.313 134 152.433 134.56C151.579 135.093 150.219 135.36 148.353 135.36V128.08ZM148.673 123.52V115.48L150.153 113.52L149.833 113.32L141.433 123.52H148.673ZM190.197 133.92C189.957 134.373 189.61 134.733 189.157 135C188.704 135.24 188.184 135.36 187.597 135.36C187.09 135.36 186.637 135.24 186.237 135C185.837 134.787 185.45 134.427 185.077 133.92L179.797 126.12L177.077 128.64V132.32C177.077 133.387 176.664 134.16 175.837 134.64C175.037 135.12 173.81 135.36 172.157 135.36V110.48C172.157 107.92 173.824 106.64 177.157 106.64V123.16L186.317 114.64C187.65 115.68 188.317 116.533 188.317 117.2C188.317 117.627 188.197 118 187.957 118.32C187.744 118.64 187.397 119.013 186.917 119.44L182.717 123.36L190.197 133.92ZM193.954 118.48C193.954 117.253 194.34 116.307 195.114 115.64C195.887 114.973 197.06 114.64 198.634 114.64V117.04C198.154 117.627 197.834 118.053 197.674 118.32L197.954 118.48C198.78 117.227 199.66 116.28 200.594 115.64C201.527 114.973 202.634 114.64 203.914 114.64C206.234 114.64 207.834 115.773 208.714 118.04C209.38 116.973 210.234 116.147 211.274 115.56C212.314 114.947 213.487 114.64 214.794 114.64C216.607 114.64 218.047 115.307 219.114 116.64C220.207 117.947 220.754 119.627 220.754 121.68V132.32C220.754 133.387 220.34 134.16 219.514 134.64C218.714 135.12 217.487 135.36 215.834 135.36V122.08C215.834 121.093 215.607 120.307 215.154 119.72C214.727 119.133 214.06 118.84 213.154 118.84C212.194 118.84 211.38 119.173 210.714 119.84C210.074 120.48 209.754 121.493 209.754 122.88V132.32C209.754 133.387 209.354 134.16 208.554 134.64C207.78 135.12 206.567 135.36 204.914 135.36V122.08C204.914 121.067 204.7 120.28 204.274 119.72C203.847 119.133 203.18 118.84 202.274 118.84C201.154 118.84 200.3 119.227 199.714 120C199.154 120.747 198.874 121.773 198.874 123.08V132.32C198.874 133.387 198.46 134.16 197.634 134.64C196.834 135.12 195.607 135.36 193.954 135.36V118.48ZM238.324 107.28C238.59 106.72 238.99 106.293 239.524 106C240.084 105.68 240.697 105.52 241.364 105.52C242.457 105.52 243.444 105.867 244.324 106.56L230.324 134.68C230.03 135.24 229.617 135.667 229.084 135.96C228.55 136.28 227.95 136.44 227.284 136.44C226.27 136.44 225.297 136.08 224.364 135.36L238.324 107.28ZM248.212 110.48C248.212 109.253 248.638 108.307 249.492 107.64C250.345 106.973 251.572 106.64 253.172 106.64V117.04C252.825 117.413 252.505 117.84 252.212 118.32L252.452 118.48C254.292 115.92 256.638 114.64 259.492 114.64C260.852 114.64 262.052 114.947 263.092 115.56C264.132 116.173 264.932 117.013 265.492 118.08C266.078 119.147 266.372 120.347 266.372 121.68V132.32C266.372 133.387 265.958 134.16 265.132 134.64C264.305 135.12 263.052 135.36 261.372 135.36V122.4C261.372 121.387 261.065 120.56 260.452 119.92C259.865 119.28 258.998 118.96 257.852 118.96C256.492 118.96 255.372 119.387 254.492 120.24C253.612 121.067 253.172 122.107 253.172 123.36V132.32C253.172 133.387 252.758 134.16 251.932 134.64C251.105 135.12 249.865 135.36 248.212 135.36V110.48Z" fill="white"/>
<path d="M16.52 75C16.1467 75 15.8267 74.8867 15.56 74.66C15.3067 74.42 15.18 74.1267 15.18 73.78V62.22C15.18 61.8733 15.3067 61.5867 15.56 61.36C15.8133 61.12 16.1333 61 16.52 61H20.96C22.1467 61 23.1933 61.2267 24.1 61.68C25.02 62.1333 25.7267 62.7733 26.22 63.6C26.7267 64.4133 26.98 65.3467 26.98 66.4V69.56C26.98 70.6133 26.7267 71.5533 26.22 72.38C25.7133 73.2067 25 73.8533 24.08 74.32C23.1733 74.7733 22.1333 75 20.96 75H16.52ZM20.76 72.7C21.92 72.7 22.8 72.44 23.4 71.92C24 71.3867 24.3 70.6067 24.3 69.58V66.36C24.3 65.36 24 64.6 23.4 64.08C22.8 63.56 21.92 63.3 20.76 63.3H17.86V72.7H20.76ZM30.6486 63.88C30.1686 63.88 29.7686 63.74 29.4486 63.46C29.1419 63.1667 28.9886 62.7933 28.9886 62.34C28.9886 61.9 29.1419 61.54 29.4486 61.26C29.7686 60.9667 30.1686 60.82 30.6486 60.82C31.1286 60.82 31.5219 60.9667 31.8286 61.26C32.1486 61.54 32.3086 61.9 32.3086 62.34C32.3086 62.7933 32.1486 63.1667 31.8286 63.46C31.5219 63.74 31.1286 63.88 30.6486 63.88ZM29.3886 66.34C29.3886 65.7933 29.5953 65.4067 30.0086 65.18C30.4219 64.94 31.0486 64.82 31.8886 64.82V73.66C31.8886 74.1933 31.6819 74.58 31.2686 74.82C30.8553 75.06 30.2286 75.18 29.3886 75.18V66.34ZM38.7322 75.18C37.4522 75.18 36.4189 74.9533 35.6322 74.5C34.8589 74.0333 34.4655 73.4133 34.4522 72.64C34.4522 72.3067 34.5855 72.0267 34.8522 71.8C35.1322 71.5733 35.5722 71.4533 36.1722 71.44C36.2922 72.0267 36.5722 72.48 37.0122 72.8C37.4522 73.1067 37.9855 73.26 38.6122 73.26C39.2922 73.26 39.8255 73.1733 40.2122 73C40.5989 72.8267 40.7922 72.5667 40.7922 72.22C40.7922 71.9 40.6322 71.6333 40.3122 71.42C40.0055 71.2067 39.3922 70.9933 38.4722 70.78C37.4722 70.54 36.6922 70.3 36.1322 70.06C35.5855 69.82 35.1789 69.5133 34.9122 69.14C34.6455 68.7667 34.5122 68.2733 34.5122 67.66C34.5122 66.8067 34.8722 66.12 35.5922 65.6C36.3122 65.08 37.2989 64.82 38.5522 64.82C39.7655 64.82 40.7722 65.04 41.5722 65.48C42.3722 65.9067 42.7722 66.48 42.7722 67.2C42.7722 67.56 42.6389 67.8267 42.3722 68C42.1055 68.1733 41.6655 68.2667 41.0522 68.28C40.9189 67.7467 40.6655 67.3467 40.2922 67.08C39.9189 66.8133 39.3922 66.68 38.7122 66.68C38.2055 66.68 37.7655 66.7667 37.3922 66.94C37.0322 67.1133 36.8522 67.34 36.8522 67.62C36.8522 67.9133 37.0055 68.14 37.3122 68.3C37.6189 68.46 38.1522 68.62 38.9122 68.78C40.4055 69.1 41.4855 69.5267 42.1522 70.06C42.8322 70.5933 43.1722 71.32 43.1722 72.24C43.1722 73.1333 42.7722 73.8467 41.9722 74.38C41.1855 74.9133 40.1055 75.18 38.7322 75.18ZM48.8267 75.18C47.7467 75.18 46.9467 74.8667 46.4267 74.24C45.9067 73.6133 45.6467 72.8067 45.6467 71.82V66.86H43.5867C43.5867 66.2333 43.7067 65.7667 43.9467 65.46C44.1867 65.1533 44.5067 65 44.9067 65H45.6867V63.34C45.6867 62.7933 45.8867 62.4067 46.2867 62.18C46.6867 61.94 47.2934 61.82 48.1067 61.82V65H50.7667C50.7667 65.6667 50.6401 66.1467 50.3867 66.44C50.1334 66.72 49.7267 66.86 49.1667 66.86H48.1467V71.72C48.1467 72.1867 48.2334 72.52 48.4067 72.72C48.5934 72.92 48.9067 73.02 49.3467 73.02C49.8134 73.02 50.2801 72.8933 50.7467 72.64C50.8801 72.76 50.9867 72.9133 51.0667 73.1C51.1467 73.2733 51.1867 73.4533 51.1867 73.64C51.1867 74.04 50.9801 74.4 50.5667 74.72C50.1534 75.0267 49.5734 75.18 48.8267 75.18Z" fill="white"/>
<path d="M16.6 114.18C16.0267 114.113 15.5733 113.913 15.24 113.58C14.92 113.247 14.76 112.827 14.76 112.32C14.76 111.933 14.8533 111.533 15.04 111.12L19.62 100.7C19.8733 100.113 20.3133 99.82 20.94 99.82C21.5533 99.82 21.9867 100.113 22.24 100.7L26.82 111.12C27.0067 111.56 27.1 111.96 27.1 112.32C27.1 112.827 26.9333 113.247 26.6 113.58C26.28 113.913 25.8267 114.113 25.24 114.18L23.56 110.38H18.3L16.6 114.18ZM22.74 108.1L20.54 102.62L20.3 102.72L20.78 103.96L19.1 108.1H22.74ZM32.2386 114.18C31.9186 114.18 31.6386 114.107 31.3986 113.96C31.1719 113.813 31.0119 113.613 30.9186 113.36L27.3186 104.02C27.4119 103.967 27.5719 103.92 27.7986 103.88C28.0386 103.84 28.2319 103.82 28.3786 103.82C28.7653 103.82 29.1119 103.9 29.4186 104.06C29.7386 104.22 29.9519 104.453 30.0586 104.76L32.1186 111L31.7786 111.94L31.9386 111.98L34.4186 104.76C34.5253 104.453 34.7319 104.22 35.0386 104.06C35.3586 103.9 35.7119 103.82 36.0986 103.82C36.2453 103.82 36.4319 103.84 36.6586 103.88C36.8986 103.92 37.0653 103.967 37.1586 104.02L33.5586 113.36C33.4653 113.613 33.2986 113.813 33.0586 113.96C32.8319 114.107 32.5586 114.18 32.2386 114.18ZM42.2297 118.18C41.443 118.18 40.743 118.067 40.1297 117.84C39.5164 117.627 39.0364 117.333 38.6897 116.96C38.343 116.587 38.1697 116.173 38.1697 115.72C38.1697 115.267 38.323 114.947 38.6297 114.76C38.9497 114.573 39.3964 114.48 39.9697 114.48C40.023 115.027 40.2364 115.447 40.6097 115.74C40.983 116.047 41.523 116.2 42.2297 116.2C43.0164 116.2 43.5697 116.007 43.8897 115.62C44.223 115.233 44.3897 114.7 44.3897 114.02V113.34C44.5897 113.193 44.7364 113.053 44.8297 112.92L44.7497 112.82C44.403 113.167 43.9364 113.447 43.3497 113.66C42.7764 113.873 42.2364 113.98 41.7297 113.98C40.983 113.98 40.3164 113.833 39.7297 113.54C39.143 113.233 38.6764 112.807 38.3297 112.26C37.9964 111.713 37.8297 111.093 37.8297 110.4V107.42C37.8297 106.753 38.003 106.147 38.3497 105.6C38.7097 105.04 39.1764 104.607 39.7497 104.3C40.3364 103.98 40.963 103.82 41.6297 103.82C42.363 103.82 42.983 103.967 43.4897 104.26C44.0097 104.553 44.483 104.973 44.9097 105.52L44.9897 105.44C44.923 105.32 44.7964 105.147 44.6097 104.92C44.6097 104.187 45.3764 103.82 46.9097 103.82V113.66C46.9097 114.54 46.7097 115.32 46.3097 116C45.9097 116.68 45.3497 117.213 44.6297 117.6C43.923 117.987 43.123 118.18 42.2297 118.18ZM42.3697 111.84C42.9564 111.84 43.4497 111.693 43.8497 111.4C44.2497 111.093 44.4497 110.733 44.4497 110.32V107.48C44.4497 107.053 44.2497 106.693 43.8497 106.4C43.463 106.107 42.9697 105.96 42.3697 105.96C41.7164 105.96 41.2097 106.1 40.8497 106.38C40.503 106.66 40.3297 107.06 40.3297 107.58V110.22C40.3297 110.727 40.503 111.127 40.8497 111.42C41.1964 111.7 41.703 111.84 42.3697 111.84ZM20.68 140.18C19.48 140.18 18.4333 140.033 17.54 139.74C16.6467 139.447 15.96 139.033 15.48 138.5C15.0133 137.953 14.78 137.32 14.78 136.6C14.78 135.507 15.52 134.96 17 134.96C17.0533 135.973 17.3933 136.74 18.02 137.26C18.66 137.78 19.5533 138.04 20.7 138.04C21.6467 138.04 22.38 137.88 22.9 137.56C23.42 137.227 23.68 136.767 23.68 136.18C23.68 135.793 23.58 135.48 23.38 135.24C23.18 134.987 22.84 134.767 22.36 134.58C21.88 134.38 21.18 134.18 20.26 133.98C18.9533 133.673 17.92 133.333 17.16 132.96C16.4133 132.587 15.8733 132.14 15.54 131.62C15.2067 131.087 15.04 130.427 15.04 129.64C15.04 128.88 15.26 128.213 15.7 127.64C16.1533 127.067 16.7867 126.62 17.6 126.3C18.4267 125.98 19.3733 125.82 20.44 125.82C21.4667 125.82 22.38 125.96 23.18 126.24C23.9933 126.507 24.6267 126.887 25.08 127.38C25.5467 127.873 25.78 128.44 25.78 129.08C25.78 130.067 25.0667 130.58 23.64 130.62C23.56 129.7 23.2667 129.027 22.76 128.6C22.2533 128.173 21.48 127.96 20.44 127.96C19.5467 127.96 18.86 128.107 18.38 128.4C17.9 128.693 17.66 129.107 17.66 129.64C17.66 130.013 17.7533 130.327 17.94 130.58C18.1267 130.82 18.44 131.033 18.88 131.22C19.32 131.393 19.9467 131.573 20.76 131.76C22.1333 132.067 23.22 132.413 24.02 132.8C24.82 133.173 25.4 133.633 25.76 134.18C26.12 134.713 26.3 135.373 26.3 136.16C26.3 136.973 26.0667 137.687 25.6 138.3C25.1467 138.9 24.4933 139.367 23.64 139.7C22.8 140.02 21.8133 140.18 20.68 140.18ZM28.2269 131.54C28.2269 131.047 28.4202 130.64 28.8069 130.32C29.1935 129.987 29.7669 129.82 30.5269 129.82V130.9C30.3002 131.207 30.1735 131.387 30.1469 131.44L30.2269 131.52C30.6535 130.96 31.1202 130.54 31.6269 130.26C32.1469 129.967 32.7869 129.82 33.5469 129.82C34.2802 129.82 34.9269 129.973 35.4869 130.28C36.0602 130.573 36.5069 130.993 36.8269 131.54C37.1469 132.087 37.3069 132.713 37.3069 133.42V136.58C37.3069 137.3 37.1269 137.933 36.7669 138.48C36.4202 139.027 35.9402 139.447 35.3269 139.74C34.7135 140.033 34.0202 140.18 33.2469 140.18C32.7535 140.18 32.2402 140.08 31.7069 139.88C31.1869 139.667 30.7469 139.38 30.3869 139.02L30.3069 139.12C30.4002 139.253 30.5469 139.393 30.7469 139.54V142.5C30.7469 143.62 29.9069 144.18 28.2269 144.18V131.54ZM32.7669 138.02C33.4202 138.02 33.9269 137.88 34.2869 137.6C34.6469 137.32 34.8269 136.927 34.8269 136.42V133.58C34.8269 133.06 34.6469 132.667 34.2869 132.4C33.9402 132.12 33.4335 131.98 32.7669 131.98C32.1669 131.98 31.6735 132.127 31.2869 132.42C30.9002 132.7 30.7069 133.053 30.7069 133.48V136.52C30.7069 136.933 30.8935 137.287 31.2669 137.58C31.6535 137.873 32.1535 138.02 32.7669 138.02ZM43.6611 140.18C42.8344 140.18 42.0811 140.02 41.4011 139.7C40.7211 139.367 40.1811 138.92 39.7811 138.36C39.3811 137.787 39.1811 137.147 39.1811 136.44V133.78C39.1811 133.033 39.3878 132.36 39.8011 131.76C40.2144 131.16 40.7611 130.687 41.4411 130.34C42.1344 129.993 42.8811 129.82 43.6811 129.82C44.4678 129.82 45.1878 129.987 45.8411 130.32C46.5078 130.64 47.0344 131.093 47.4211 131.68C47.8078 132.253 48.0011 132.913 48.0011 133.66V134.78C48.0011 135.073 47.8878 135.32 47.6611 135.52C47.4478 135.72 47.1744 135.82 46.8411 135.82H41.6011V136.26C41.6011 136.833 41.7744 137.3 42.1211 137.66C42.4678 138.02 42.9878 138.2 43.6811 138.2C44.3478 138.2 44.8411 138.053 45.1611 137.76C45.4944 137.467 45.6611 137.087 45.6611 136.62C45.9011 136.593 46.0678 136.58 46.1611 136.58C46.6544 136.58 47.0411 136.693 47.3211 136.92C47.6011 137.133 47.7411 137.44 47.7411 137.84C47.7411 138.227 47.5611 138.6 47.2011 138.96C46.8411 139.32 46.3478 139.613 45.7211 139.84C45.0944 140.067 44.4078 140.18 43.6611 140.18ZM45.7411 134.04V133.66C45.7411 133.1 45.5478 132.647 45.1611 132.3C44.7744 131.953 44.2744 131.78 43.6611 131.78C43.0478 131.78 42.5478 131.953 42.1611 132.3C41.7878 132.633 41.6011 133.087 41.6011 133.66V134.04H45.7411ZM54.2861 140.18C53.4594 140.18 52.7061 140.02 52.0261 139.7C51.3461 139.367 50.8061 138.92 50.4061 138.36C50.0061 137.787 49.8061 137.147 49.8061 136.44V133.78C49.8061 133.033 50.0128 132.36 50.4261 131.76C50.8394 131.16 51.3861 130.687 52.0661 130.34C52.7594 129.993 53.5061 129.82 54.3061 129.82C55.0928 129.82 55.8128 129.987 56.4661 130.32C57.1328 130.64 57.6594 131.093 58.0461 131.68C58.4328 132.253 58.6261 132.913 58.6261 133.66V134.78C58.6261 135.073 58.5128 135.32 58.2861 135.52C58.0728 135.72 57.7994 135.82 57.4661 135.82H52.2261V136.26C52.2261 136.833 52.3994 137.3 52.7461 137.66C53.0928 138.02 53.6128 138.2 54.3061 138.2C54.9728 138.2 55.4661 138.053 55.7861 137.76C56.1194 137.467 56.2861 137.087 56.2861 136.62C56.5261 136.593 56.6928 136.58 56.7861 136.58C57.2794 136.58 57.6661 136.693 57.9461 136.92C58.2261 137.133 58.3661 137.44 58.3661 137.84C58.3661 138.227 58.1861 138.6 57.8261 138.96C57.4661 139.32 56.9728 139.613 56.3461 139.84C55.7194 140.067 55.0328 140.18 54.2861 140.18ZM56.3661 134.04V133.66C56.3661 133.1 56.1728 132.647 55.7861 132.3C55.3994 131.953 54.8994 131.78 54.2861 131.78C53.6728 131.78 53.1728 131.953 52.7861 132.3C52.4128 132.633 52.2261 133.087 52.2261 133.66V134.04H56.3661ZM64.2311 140.18C63.5111 140.18 62.8644 140.027 62.2911 139.72C61.7178 139.413 61.2644 138.993 60.9311 138.46C60.5978 137.913 60.4311 137.287 60.4311 136.58V133.42C60.4311 132.727 60.6044 132.107 60.9511 131.56C61.2978 131.013 61.7778 130.587 62.3911 130.28C63.0178 129.973 63.7111 129.82 64.4711 129.82C64.9644 129.82 65.4711 129.927 65.9911 130.14C66.5244 130.34 66.9711 130.613 67.3311 130.96L67.4111 130.86C67.3444 130.753 67.1978 130.62 66.9711 130.46V127.5C66.9711 126.967 67.1778 126.553 67.5911 126.26C68.0178 125.967 68.6578 125.82 69.5111 125.82V138.46C69.5111 138.953 69.3244 139.367 68.9511 139.7C68.5778 140.02 67.9978 140.18 67.2111 140.18V139.08C67.3844 138.867 67.5111 138.693 67.5911 138.56L67.4911 138.48C67.0778 139.04 66.6178 139.467 66.1111 139.76C65.6178 140.04 64.9911 140.18 64.2311 140.18ZM64.9711 138.02C65.5711 138.02 66.0578 137.88 66.4311 137.6C66.8178 137.307 67.0111 136.94 67.0111 136.5V133.48C67.0111 133.053 66.8178 132.7 66.4311 132.42C66.0578 132.127 65.5644 131.98 64.9511 131.98C64.2978 131.98 63.7911 132.12 63.4311 132.4C63.0844 132.667 62.9111 133.053 62.9111 133.56V136.4C62.9111 136.933 63.0844 137.34 63.4311 137.62C63.7911 137.887 64.3044 138.02 64.9711 138.02Z" fill="white"/>
<path d="M18.872 276.126C18.06 276.126 17.332 275.972 16.688 275.664C16.0533 275.347 15.5587 274.913 15.204 274.362C14.8493 273.802 14.672 273.167 14.672 272.458V269.7C14.672 268.991 14.8447 268.365 15.19 267.824C15.5447 267.273 16.0347 266.844 16.66 266.536C17.2947 266.228 18.0133 266.074 18.816 266.074C19.628 266.074 20.3467 266.2 20.972 266.452C21.5973 266.695 22.0827 267.04 22.428 267.488C22.7827 267.927 22.96 268.431 22.96 269C22.96 269.327 22.8527 269.583 22.638 269.77C22.4233 269.947 22.134 270.036 21.77 270.036C21.5927 270.036 21.4247 270.017 21.266 269.98C21.294 269.84 21.308 269.63 21.308 269.35C21.308 268.818 21.0747 268.384 20.608 268.048C20.1507 267.712 19.5533 267.544 18.816 267.544C18.088 267.544 17.4953 267.745 17.038 268.146C16.5807 268.547 16.352 269.065 16.352 269.7V272.458C16.352 273.102 16.5853 273.629 17.052 274.04C17.5187 274.441 18.1253 274.642 18.872 274.642C19.6093 274.642 20.2113 274.479 20.678 274.152C21.1447 273.816 21.378 273.382 21.378 272.85C21.378 272.589 21.364 272.388 21.336 272.248C21.4853 272.211 21.6487 272.192 21.826 272.192C22.19 272.192 22.4793 272.29 22.694 272.486C22.918 272.682 23.03 272.948 23.03 273.284C23.03 273.835 22.8527 274.325 22.498 274.754C22.1527 275.183 21.6627 275.519 21.028 275.762C20.3933 276.005 19.6747 276.126 18.872 276.126ZM30.528 274.88C30.528 275.281 30.402 275.589 30.15 275.804C29.9073 276.019 29.534 276.126 29.03 276.126V275.258C29.114 275.155 29.2213 275.015 29.352 274.838L29.268 274.782C28.988 275.202 28.6427 275.533 28.232 275.776C27.8307 276.009 27.3733 276.126 26.86 276.126C26.3747 276.126 25.936 276.019 25.544 275.804C25.1613 275.58 24.8627 275.277 24.648 274.894C24.4333 274.502 24.326 274.059 24.326 273.564V269.882C24.326 269.527 24.452 269.271 24.704 269.112C24.9653 268.953 25.3667 268.874 25.908 268.874V273.466C25.908 273.867 26.0247 274.185 26.258 274.418C26.4913 274.642 26.8367 274.754 27.294 274.754C27.7887 274.754 28.19 274.605 28.498 274.306C28.806 274.007 28.96 273.634 28.96 273.186V269.882C28.96 269.527 29.086 269.271 29.338 269.112C29.5993 268.953 29.996 268.874 30.528 268.874V274.88ZM35.7023 270.232C35.161 270.232 34.7176 270.386 34.3723 270.694C34.027 270.993 33.8543 271.361 33.8543 271.8V275.118C33.8543 275.473 33.7236 275.729 33.4623 275.888C33.2103 276.047 32.8183 276.126 32.2863 276.126V270.12C32.2863 269.289 32.7856 268.874 33.7843 268.874V269.714C33.6536 269.863 33.5463 270.013 33.4623 270.162L33.5323 270.218C34.139 269.322 34.881 268.874 35.7583 268.874C36.1316 268.874 36.4163 268.972 36.6123 269.168C36.8083 269.355 36.9063 269.593 36.9063 269.882C36.9063 270.097 36.8503 270.288 36.7383 270.456C36.4676 270.307 36.1223 270.232 35.7023 270.232ZM41.2668 270.232C40.7254 270.232 40.2821 270.386 39.9368 270.694C39.5914 270.993 39.4188 271.361 39.4188 271.8V275.118C39.4188 275.473 39.2881 275.729 39.0267 275.888C38.7748 276.047 38.3828 276.126 37.8508 276.126V270.12C37.8508 269.289 38.3501 268.874 39.3488 268.874V269.714C39.2181 269.863 39.1108 270.013 39.0267 270.162L39.0968 270.218C39.7034 269.322 40.4454 268.874 41.3228 268.874C41.6961 268.874 41.9808 268.972 42.1768 269.168C42.3728 269.355 42.4708 269.593 42.4708 269.882C42.4708 270.097 42.4148 270.288 42.3028 270.456C42.0321 270.307 41.6868 270.232 41.2668 270.232ZM47.38 266.97C47.38 266.755 47.4594 266.573 47.618 266.424C47.786 266.275 47.9914 266.2 48.234 266.2H52C52.9707 266.2 53.7314 266.466 54.282 266.998C54.842 267.53 55.122 268.263 55.122 269.196C55.122 269.747 55.0054 270.213 54.772 270.596C54.5387 270.969 54.1887 271.268 53.722 271.492V271.548C54.1327 271.725 54.4454 271.991 54.66 272.346C54.8747 272.691 54.982 273.121 54.982 273.634V274.838C54.982 275.258 54.8374 275.58 54.548 275.804C54.268 276.019 53.8527 276.126 53.302 276.126V273.704C53.302 272.696 52.8727 272.192 52.014 272.192H49.046V274.838C49.046 275.258 48.9014 275.58 48.612 275.804C48.332 276.019 47.9214 276.126 47.38 276.126V266.97ZM51.93 270.75C52.3967 270.75 52.7607 270.615 53.022 270.344C53.2927 270.064 53.428 269.677 53.428 269.182C53.428 268.155 52.9287 267.642 51.93 267.642H49.046V270.75H51.93ZM57.8096 268.076C57.5016 268.076 57.2449 267.983 57.0396 267.796C56.8343 267.6 56.7316 267.357 56.7316 267.068C56.7316 266.779 56.8343 266.541 57.0396 266.354C57.2449 266.167 57.5016 266.074 57.8096 266.074C58.1176 266.074 58.3743 266.167 58.5796 266.354C58.7849 266.541 58.8876 266.779 58.8876 267.068C58.8876 267.357 58.7849 267.6 58.5796 267.796C58.3743 267.983 58.1176 268.076 57.8096 268.076ZM57.0256 269.882C57.0256 269.527 57.1563 269.271 57.4176 269.112C57.6789 268.953 58.0709 268.874 58.5936 268.874V275.118C58.5936 275.473 58.4629 275.729 58.2016 275.888C57.9403 276.047 57.5483 276.126 57.0256 276.126V269.882ZM63.2174 276.126C62.7041 276.126 62.2421 276.023 61.8314 275.818C61.4301 275.603 61.1128 275.309 60.8794 274.936C60.6554 274.553 60.5434 274.119 60.5434 273.634V271.352C60.5434 270.867 60.6648 270.437 60.9074 270.064C61.1501 269.691 61.4814 269.401 61.9014 269.196C62.3308 268.981 62.8161 268.874 63.3574 268.874C63.7308 268.874 64.1041 268.953 64.4774 269.112C64.8508 269.261 65.1681 269.471 65.4294 269.742L65.4714 269.672C65.4154 269.597 65.3174 269.499 65.1774 269.378V267.18C65.1774 266.825 65.3081 266.555 65.5694 266.368C65.8308 266.172 66.2274 266.074 66.7594 266.074V274.992C66.7594 275.328 66.6428 275.603 66.4094 275.818C66.1761 276.023 65.8074 276.126 65.3034 276.126V275.356C65.4248 275.207 65.5134 275.081 65.5694 274.978L65.5134 274.922C65.2148 275.314 64.8881 275.613 64.5334 275.818C64.1881 276.023 63.7494 276.126 63.2174 276.126ZM63.6514 274.754C64.0994 274.754 64.4681 274.647 64.7574 274.432C65.0468 274.208 65.1914 273.933 65.1914 273.606V271.38C65.1914 271.053 65.0514 270.783 64.7714 270.568C64.4914 270.344 64.1181 270.232 63.6514 270.232C63.1568 270.232 62.7741 270.339 62.5034 270.554C62.2421 270.769 62.1114 271.067 62.1114 271.45V273.536C62.1114 273.928 62.2421 274.231 62.5034 274.446C62.7741 274.651 63.1568 274.754 63.6514 274.754ZM71.4848 276.126C70.9154 276.126 70.3928 276.014 69.9168 275.79C69.4501 275.566 69.0814 275.258 68.8108 274.866C68.5401 274.465 68.4048 274.017 68.4048 273.522V271.59C68.4048 271.077 68.5448 270.615 68.8248 270.204C69.1048 269.793 69.4828 269.471 69.9588 269.238C70.4348 268.995 70.9481 268.874 71.4988 268.874C72.0494 268.874 72.5488 268.986 72.9968 269.21C73.4541 269.434 73.8134 269.751 74.0748 270.162C74.3454 270.563 74.4808 271.016 74.4808 271.52V272.346C74.4808 272.533 74.4108 272.691 74.2708 272.822C74.1308 272.953 73.9534 273.018 73.7388 273.018H69.9308V273.424C69.9308 273.853 70.0614 274.199 70.3228 274.46C70.5934 274.721 70.9854 274.852 71.4988 274.852C72.0028 274.852 72.3808 274.745 72.6328 274.53C72.8848 274.306 73.0108 274.012 73.0108 273.648C73.0668 273.639 73.1508 273.634 73.2628 273.634C73.5801 273.634 73.8321 273.709 74.0188 273.858C74.2148 273.998 74.3128 274.199 74.3128 274.46C74.3128 274.74 74.1868 275.011 73.9348 275.272C73.6828 275.524 73.3374 275.729 72.8988 275.888C72.4694 276.047 71.9981 276.126 71.4848 276.126ZM73.0388 271.856V271.52C73.0388 271.1 72.8941 270.764 72.6048 270.512C72.3248 270.251 71.9514 270.12 71.4848 270.12C71.0181 270.12 70.6401 270.251 70.3508 270.512C70.0708 270.764 69.9308 271.1 69.9308 271.52V271.856H73.0388Z" fill="white" fill-opacity="0.5"/>
<path d="M223.565 268.225H222.8C222.38 268.225 222.045 268.07 221.795 267.76C221.545 267.44 221.42 267.02 221.42 266.5H224.645C224.905 266.5 225.125 266.585 225.305 266.755C225.485 266.925 225.575 267.125 225.575 267.355V275.65C225.575 276.13 225.4 276.5 225.05 276.76C224.71 277.01 224.215 277.135 223.565 277.135V268.225ZM231.308 277.135C230.488 277.135 229.758 277.015 229.118 276.775C228.478 276.525 227.978 276.18 227.618 275.74C227.258 275.29 227.078 274.78 227.078 274.21C227.078 273.74 227.228 273.4 227.528 273.19C227.838 272.98 228.338 272.875 229.028 272.875C228.998 273.065 228.983 273.29 228.983 273.55C228.983 274.15 229.178 274.61 229.568 274.93C229.968 275.24 230.548 275.395 231.308 275.395C232.058 275.395 232.623 275.275 233.003 275.035C233.393 274.795 233.588 274.44 233.588 273.97C233.588 272.99 232.923 272.5 231.593 272.5H231.098C230.848 272.5 230.643 272.42 230.483 272.26C230.323 272.1 230.243 271.895 230.243 271.645C230.243 271.385 230.318 271.18 230.468 271.03C230.628 270.87 230.838 270.79 231.098 270.79H231.608C232.728 270.79 233.288 270.335 233.288 269.425C233.288 268.995 233.123 268.67 232.793 268.45C232.463 268.22 231.988 268.105 231.368 268.105C230.688 268.105 230.163 268.225 229.793 268.465C229.423 268.695 229.238 269.03 229.238 269.47C229.238 269.66 229.258 269.875 229.298 270.115C228.718 270.135 228.243 270.035 227.873 269.815C227.513 269.595 227.333 269.3 227.333 268.93C227.333 268.43 227.503 267.985 227.843 267.595C228.183 267.205 228.658 266.905 229.268 266.695C229.888 266.475 230.588 266.365 231.368 266.365C232.158 266.365 232.853 266.49 233.453 266.74C234.053 266.99 234.513 267.35 234.833 267.82C235.163 268.28 235.328 268.815 235.328 269.425C235.328 270.365 234.843 271.105 233.873 271.645C234.503 271.915 234.948 272.23 235.208 272.59C235.478 272.95 235.613 273.41 235.613 273.97C235.613 274.6 235.433 275.155 235.073 275.635C234.713 276.115 234.208 276.485 233.558 276.745C232.908 277.005 232.158 277.135 231.308 277.135ZM241.816 274.405H237.436C237.176 274.405 236.971 274.335 236.821 274.195C236.671 274.055 236.596 273.87 236.596 273.64C236.596 273.38 236.666 273.175 236.806 273.025L242.071 266.68C242.151 266.58 242.271 266.505 242.431 266.455C242.591 266.395 242.761 266.365 242.941 266.365C243.201 266.365 243.416 266.45 243.586 266.62C243.756 266.78 243.841 266.985 243.841 267.235V272.695H245.566C245.566 273.295 245.461 273.73 245.251 274C245.051 274.27 244.731 274.405 244.291 274.405H243.841V275.86C243.841 276.3 243.676 276.625 243.346 276.835C243.026 277.035 242.516 277.135 241.816 277.135V274.405ZM241.936 272.695V269.68L242.491 268.945L242.371 268.87L239.221 272.695H241.936ZM250.685 277.135C249.925 277.135 249.23 277.015 248.6 276.775C247.97 276.525 247.47 276.185 247.1 275.755C246.74 275.325 246.56 274.85 246.56 274.33C246.56 273.89 246.685 273.57 246.935 273.37C247.185 273.17 247.58 273.07 248.12 273.07L248.435 273.085C248.405 273.245 248.39 273.445 248.39 273.685C248.39 274.215 248.595 274.63 249.005 274.93C249.415 275.23 249.975 275.38 250.685 275.38C251.425 275.38 251.99 275.19 252.38 274.81C252.78 274.42 252.98 273.87 252.98 273.16C252.98 272.49 252.775 271.97 252.365 271.6C251.955 271.23 251.385 271.045 250.655 271.045C249.855 271.045 249.175 271.255 248.615 271.675C248.365 271.855 248.105 271.945 247.835 271.945C247.565 271.945 247.335 271.865 247.145 271.705C246.955 271.535 246.86 271.32 246.86 271.06C246.86 270.99 246.865 270.935 246.875 270.895L247.475 267.22C247.515 266.98 247.615 266.8 247.775 266.68C247.945 266.56 248.165 266.5 248.435 266.5H254.465C254.465 267.64 254 268.21 253.07 268.21H249.02L248.75 269.815C248.5 269.985 248.295 270.155 248.135 270.325L248.21 270.415C248.59 270.095 249.045 269.84 249.575 269.65C250.115 269.46 250.645 269.365 251.165 269.365C251.925 269.365 252.585 269.52 253.145 269.83C253.715 270.14 254.15 270.58 254.45 271.15C254.76 271.72 254.915 272.39 254.915 273.16C254.915 273.97 254.745 274.675 254.405 275.275C254.065 275.875 253.575 276.335 252.935 276.655C252.305 276.975 251.555 277.135 250.685 277.135ZM263.132 276.595C263.042 276.765 262.912 276.9 262.742 277C262.572 277.09 262.377 277.135 262.157 277.135C261.967 277.135 261.797 277.09 261.647 277C261.497 276.92 261.352 276.785 261.212 276.595L259.232 273.67L258.212 274.615V275.995C258.212 276.395 258.057 276.685 257.747 276.865C257.447 277.045 256.987 277.135 256.367 277.135V267.805C256.367 266.845 256.992 266.365 258.242 266.365V272.56L261.677 269.365C262.177 269.755 262.427 270.075 262.427 270.325C262.427 270.485 262.382 270.625 262.292 270.745C262.212 270.865 262.082 271.005 261.902 271.165L260.327 272.635L263.132 276.595ZM264.541 270.805C264.541 270.345 264.686 269.99 264.976 269.74C265.266 269.49 265.706 269.365 266.296 269.365V270.265C266.116 270.485 265.996 270.645 265.936 270.745L266.041 270.805C266.351 270.335 266.681 269.98 267.031 269.74C267.381 269.49 267.796 269.365 268.276 269.365C269.146 269.365 269.746 269.79 270.076 270.64C270.326 270.24 270.646 269.93 271.036 269.71C271.426 269.48 271.866 269.365 272.356 269.365C273.036 269.365 273.576 269.615 273.976 270.115C274.386 270.605 274.591 271.235 274.591 272.005V275.995C274.591 276.395 274.436 276.685 274.126 276.865C273.826 277.045 273.366 277.135 272.746 277.135V272.155C272.746 271.785 272.661 271.49 272.491 271.27C272.331 271.05 272.081 270.94 271.741 270.94C271.381 270.94 271.076 271.065 270.826 271.315C270.586 271.555 270.466 271.935 270.466 272.455V275.995C270.466 276.395 270.316 276.685 270.016 276.865C269.726 277.045 269.271 277.135 268.651 277.135V272.155C268.651 271.775 268.571 271.48 268.411 271.27C268.251 271.05 268.001 270.94 267.661 270.94C267.241 270.94 266.921 271.085 266.701 271.375C266.491 271.655 266.386 272.04 266.386 272.53V275.995C266.386 276.395 266.231 276.685 265.921 276.865C265.621 277.045 265.161 277.135 264.541 277.135V270.805Z" fill="white"/>
<path d="M19.64 220.36C18.76 220.36 18.0133 220.08 17.4 219.52C16.8133 218.933 16.52 218.2 16.52 217.32C16.52 216.44 16.8133 215.707 17.4 215.12C18.0133 214.507 18.76 214.2 19.64 214.2C20.4933 214.2 21.2267 214.507 21.84 215.12C22.48 215.707 22.8 216.44 22.8 217.32C22.8 218.173 22.48 218.893 21.84 219.48C21.2267 220.067 20.4933 220.36 19.64 220.36Z" fill="#7BE849"/>
<path d="M101.64 220.36C100.76 220.36 100.013 220.08 99.4 219.52C98.8133 218.933 98.52 218.2 98.52 217.32C98.52 216.44 98.8133 215.707 99.4 215.12C100.013 214.507 100.76 214.2 101.64 214.2C102.493 214.2 103.227 214.507 103.84 215.12C104.48 215.707 104.8 216.44 104.8 217.32C104.8 218.173 104.48 218.893 103.84 219.48C103.227 220.067 102.493 220.36 101.64 220.36Z" fill="#0075FF"/>
<path d="M186.64 221.36C185.76 221.36 185.013 221.08 184.4 220.52C183.813 219.933 183.52 219.2 183.52 218.32C183.52 217.44 183.813 216.707 184.4 216.12C185.013 215.507 185.76 215.2 186.64 215.2C187.493 215.2 188.227 215.507 188.84 216.12C189.48 216.707 189.8 217.44 189.8 218.32C189.8 219.173 189.48 219.893 188.84 220.48C188.227 221.067 187.493 221.36 186.64 221.36Z" fill="#FF0000"/>
<path d="M25.649 214.971C25.649 214.788 25.7187 214.63 25.858 214.498C26.0047 214.366 26.1807 214.3 26.386 214.3H31.292C31.292 214.74 31.215 215.063 31.061 215.268C30.9143 215.466 30.6723 215.565 30.335 215.565H27.123V217.479H30.049C30.049 217.919 29.972 218.242 29.818 218.447C29.6713 218.645 29.4293 218.744 29.092 218.744H27.123V220.735H30.566C30.896 220.735 31.1343 220.838 31.281 221.043C31.435 221.241 31.512 221.56 31.512 222H26.386C26.1807 222 26.0047 221.938 25.858 221.813C25.7187 221.681 25.649 221.52 25.649 221.329V214.971ZM35.2516 222.099C34.5989 222.099 34.0159 221.974 33.5026 221.725C32.9966 221.476 32.6006 221.127 32.3146 220.68C32.0286 220.233 31.8856 219.723 31.8856 219.151V217.127C31.8856 216.555 32.0249 216.049 32.3036 215.609C32.5896 215.162 32.9819 214.817 33.4806 214.575C33.9792 214.326 34.5512 214.201 35.1966 214.201C35.8419 214.201 36.4139 214.3 36.9126 214.498C37.4186 214.689 37.8109 214.96 38.0896 215.312C38.3682 215.657 38.5076 216.053 38.5076 216.5C38.5076 216.771 38.4159 216.988 38.2326 217.149C38.0566 217.303 37.8182 217.38 37.5176 217.38C37.3709 217.38 37.2096 217.358 37.0336 217.314C37.0482 217.138 37.0556 216.966 37.0556 216.797C37.0556 216.408 36.8832 216.093 36.5386 215.851C36.1939 215.609 35.7466 215.488 35.1966 215.488C34.6539 215.488 34.2102 215.642 33.8656 215.95C33.5282 216.251 33.3596 216.643 33.3596 217.127V219.151C33.3596 219.642 33.5356 220.042 33.8876 220.35C34.2396 220.658 34.6942 220.812 35.2516 220.812C35.8016 220.812 36.2489 220.691 36.5936 220.449C36.9382 220.207 37.1106 219.895 37.1106 219.514C37.1106 219.338 37.1032 219.169 37.0886 219.008C37.2719 218.971 37.4259 218.953 37.5506 218.953C37.8586 218.953 38.1042 219.034 38.2876 219.195C38.4709 219.356 38.5626 219.576 38.5626 219.855C38.5626 220.288 38.4232 220.676 38.1446 221.021C37.8659 221.358 37.4736 221.622 36.9676 221.813C36.4689 222.004 35.8969 222.099 35.2516 222.099ZM42.6606 222.099C42.0593 222.099 41.5093 221.982 41.0106 221.747C40.5119 221.505 40.1159 221.179 39.8226 220.768C39.5366 220.357 39.3936 219.91 39.3936 219.426V216.863C39.3936 216.379 39.5366 215.935 39.8226 215.532C40.1159 215.121 40.5119 214.799 41.0106 214.564C41.5093 214.322 42.0593 214.201 42.6606 214.201C43.2619 214.201 43.8119 214.322 44.3106 214.564C44.8166 214.799 45.2126 215.121 45.4986 215.532C45.7919 215.935 45.9386 216.379 45.9386 216.863V219.426C45.9386 219.91 45.7919 220.357 45.4986 220.768C45.2126 221.179 44.8166 221.505 44.3106 221.747C43.8119 221.982 43.2619 222.099 42.6606 222.099ZM42.6606 220.812C43.2106 220.812 43.6506 220.684 43.9806 220.427C44.3106 220.163 44.4756 219.822 44.4756 219.404V216.896C44.4756 216.471 44.3106 216.13 43.9806 215.873C43.6506 215.609 43.2106 215.477 42.6606 215.477C42.1179 215.477 41.6816 215.609 41.3516 215.873C41.0216 216.13 40.8566 216.471 40.8566 216.896V219.404C40.8566 219.822 41.0216 220.163 41.3516 220.427C41.6816 220.684 42.1179 220.812 42.6606 220.812ZM53.3274 220.097H50.1154C49.9247 220.097 49.7744 220.046 49.6644 219.943C49.5544 219.84 49.4994 219.705 49.4994 219.536C49.4994 219.345 49.5507 219.195 49.6534 219.085L53.5144 214.432C53.5731 214.359 53.6611 214.304 53.7784 214.267C53.8957 214.223 54.0204 214.201 54.1524 214.201C54.3431 214.201 54.5007 214.263 54.6254 214.388C54.7501 214.505 54.8124 214.656 54.8124 214.839V218.843H56.0774C56.0774 219.283 56.0004 219.602 55.8464 219.8C55.6997 219.998 55.4651 220.097 55.1424 220.097H54.8124V221.164C54.8124 221.487 54.6914 221.725 54.4494 221.879C54.2147 222.026 53.8407 222.099 53.3274 222.099V220.097ZM53.4154 218.843V216.632L53.8224 216.093L53.7344 216.038L51.4244 218.843H53.4154ZM59.8317 222.099C59.2743 222.099 58.7647 222.011 58.3027 221.835C57.8407 221.652 57.474 221.402 57.2027 221.087C56.9387 220.772 56.8067 220.423 56.8067 220.042C56.8067 219.719 56.8983 219.485 57.0817 219.338C57.265 219.191 57.5547 219.118 57.9507 219.118L58.1817 219.129C58.1597 219.246 58.1487 219.393 58.1487 219.569C58.1487 219.958 58.299 220.262 58.5997 220.482C58.9003 220.702 59.311 220.812 59.8317 220.812C60.3743 220.812 60.7887 220.673 61.0747 220.394C61.368 220.108 61.5147 219.705 61.5147 219.184C61.5147 218.693 61.3643 218.311 61.0637 218.04C60.763 217.769 60.345 217.633 59.8097 217.633C59.223 217.633 58.7243 217.787 58.3137 218.095C58.1303 218.227 57.9397 218.293 57.7417 218.293C57.5437 218.293 57.375 218.234 57.2357 218.117C57.0963 217.992 57.0267 217.835 57.0267 217.644C57.0267 217.593 57.0303 217.552 57.0377 217.523L57.4777 214.828C57.507 214.652 57.5803 214.52 57.6977 214.432C57.8223 214.344 57.9837 214.3 58.1817 214.3H62.6037C62.6037 215.136 62.2627 215.554 61.5807 215.554H58.6107L58.4127 216.731C58.2293 216.856 58.079 216.98 57.9617 217.105L58.0167 217.171C58.2953 216.936 58.629 216.749 59.0177 216.61C59.4137 216.471 59.8023 216.401 60.1837 216.401C60.741 216.401 61.225 216.515 61.6357 216.742C62.0537 216.969 62.3727 217.292 62.5927 217.71C62.82 218.128 62.9337 218.619 62.9337 219.184C62.9337 219.778 62.809 220.295 62.5597 220.735C62.3103 221.175 61.951 221.512 61.4817 221.747C61.0197 221.982 60.4697 222.099 59.8317 222.099ZM68.9596 221.703C68.8936 221.828 68.7983 221.927 68.6736 222C68.5489 222.066 68.4059 222.099 68.2446 222.099C68.1053 222.099 67.9806 222.066 67.8706 222C67.7606 221.941 67.6543 221.842 67.5516 221.703L66.0996 219.558L65.3516 220.251V221.263C65.3516 221.556 65.2379 221.769 65.0106 221.901C64.7906 222.033 64.4533 222.099 63.9986 222.099V215.257C63.9986 214.553 64.4569 214.201 65.3736 214.201V218.744L67.8926 216.401C68.2593 216.687 68.4426 216.922 68.4426 217.105C68.4426 217.222 68.4096 217.325 68.3436 217.413C68.2849 217.501 68.1896 217.604 68.0576 217.721L66.9026 218.799L68.9596 221.703ZM69.9928 217.457C69.9928 217.12 70.0991 216.859 70.3118 216.676C70.5244 216.493 70.8471 216.401 71.2798 216.401V217.061C71.1478 217.222 71.0598 217.34 71.0158 217.413L71.0928 217.457C71.3201 217.112 71.5621 216.852 71.8188 216.676C72.0754 216.493 72.3798 216.401 72.7318 216.401C73.3698 216.401 73.8098 216.713 74.0518 217.336C74.2351 217.043 74.4698 216.815 74.7558 216.654C75.0418 216.485 75.3644 216.401 75.7238 216.401C76.2224 216.401 76.6184 216.584 76.9118 216.951C77.2124 217.31 77.3628 217.772 77.3628 218.337V221.263C77.3628 221.556 77.2491 221.769 77.0218 221.901C76.8018 222.033 76.4644 222.099 76.0098 222.099V218.447C76.0098 218.176 75.9474 217.959 75.8228 217.798C75.7054 217.637 75.5221 217.556 75.2728 217.556C75.0088 217.556 74.7851 217.648 74.6018 217.831C74.4258 218.007 74.3378 218.286 74.3378 218.667V221.263C74.3378 221.556 74.2278 221.769 74.0078 221.901C73.7951 222.033 73.4614 222.099 73.0068 222.099V218.447C73.0068 218.168 72.9481 217.952 72.8308 217.798C72.7134 217.637 72.5301 217.556 72.2808 217.556C71.9728 217.556 71.7381 217.662 71.5768 217.875C71.4228 218.08 71.3458 218.363 71.3458 218.722V221.263C71.3458 221.556 71.2321 221.769 71.0048 221.901C70.7848 222.033 70.4474 222.099 69.9928 222.099V217.457Z" fill="white"/>
<path d="M108.649 214.971C108.649 214.78 108.719 214.623 108.858 214.498C108.997 214.366 109.173 214.3 109.386 214.3H112.323C113.115 214.3 113.727 214.509 114.16 214.927C114.6 215.345 114.82 215.932 114.82 216.687C114.82 217.12 114.732 217.486 114.556 217.787C114.38 218.08 114.112 218.315 113.753 218.491V218.524C114.398 218.81 114.721 219.353 114.721 220.152V221.01C114.721 221.362 114.596 221.633 114.347 221.824C114.098 222.007 113.731 222.099 113.247 222.099V220.218C113.247 219.829 113.17 219.543 113.016 219.36C112.862 219.177 112.627 219.085 112.312 219.085H110.101V221.01C110.101 221.369 109.976 221.641 109.727 221.824C109.485 222.007 109.126 222.099 108.649 222.099V214.971ZM112.246 217.831C112.598 217.831 112.869 217.732 113.06 217.534C113.251 217.329 113.346 217.043 113.346 216.676C113.346 215.928 112.979 215.554 112.246 215.554H110.101V217.831H112.246ZM116.227 215.301C116.227 214.956 116.356 214.689 116.612 214.498C116.869 214.3 117.232 214.201 117.701 214.201V220.999C117.701 221.351 117.573 221.622 117.316 221.813C117.06 222.004 116.697 222.099 116.227 222.099V215.301ZM119.946 222C119.74 222 119.564 221.938 119.418 221.813C119.278 221.681 119.209 221.52 119.209 221.329V214.971C119.209 214.78 119.278 214.623 119.418 214.498C119.557 214.366 119.733 214.3 119.946 214.3H122.388C123.04 214.3 123.616 214.425 124.115 214.674C124.621 214.923 125.009 215.275 125.281 215.73C125.559 216.177 125.699 216.691 125.699 217.27V219.008C125.699 219.587 125.559 220.104 125.281 220.559C125.002 221.014 124.61 221.369 124.104 221.626C123.605 221.875 123.033 222 122.388 222H119.946ZM122.278 220.735C122.916 220.735 123.4 220.592 123.73 220.306C124.06 220.013 124.225 219.584 124.225 219.019V217.248C124.225 216.698 124.06 216.28 123.73 215.994C123.4 215.708 122.916 215.565 122.278 215.565H120.683V220.735H122.278ZM126.803 214.971C126.803 214.788 126.873 214.63 127.012 214.498C127.159 214.366 127.335 214.3 127.54 214.3H132.446C132.446 214.74 132.369 215.063 132.215 215.268C132.069 215.466 131.827 215.565 131.489 215.565H128.277V217.479H131.203C131.203 217.919 131.126 218.242 130.972 218.447C130.826 218.645 130.584 218.744 130.246 218.744H128.277V220.735H131.72C132.05 220.735 132.289 220.838 132.435 221.043C132.589 221.241 132.666 221.56 132.666 222H127.54C127.335 222 127.159 221.938 127.012 221.813C126.873 221.681 126.803 221.52 126.803 221.329V214.971ZM140.055 220.097H136.843C136.652 220.097 136.502 220.046 136.392 219.943C136.282 219.84 136.227 219.705 136.227 219.536C136.227 219.345 136.278 219.195 136.381 219.085L140.242 214.432C140.301 214.359 140.389 214.304 140.506 214.267C140.623 214.223 140.748 214.201 140.88 214.201C141.071 214.201 141.228 214.263 141.353 214.388C141.478 214.505 141.54 214.656 141.54 214.839V218.843H142.805C142.805 219.283 142.728 219.602 142.574 219.8C142.427 219.998 142.193 220.097 141.87 220.097H141.54V221.164C141.54 221.487 141.419 221.725 141.177 221.879C140.942 222.026 140.568 222.099 140.055 222.099V220.097ZM140.143 218.843V216.632L140.55 216.093L140.462 216.038L138.152 218.843H140.143ZM146.559 222.099C146.002 222.099 145.492 222.011 145.03 221.835C144.568 221.652 144.202 221.402 143.93 221.087C143.666 220.772 143.534 220.423 143.534 220.042C143.534 219.719 143.626 219.485 143.809 219.338C143.993 219.191 144.282 219.118 144.678 219.118L144.909 219.129C144.887 219.246 144.876 219.393 144.876 219.569C144.876 219.958 145.027 220.262 145.327 220.482C145.628 220.702 146.039 220.812 146.559 220.812C147.102 220.812 147.516 220.673 147.802 220.394C148.096 220.108 148.242 219.705 148.242 219.184C148.242 218.693 148.092 218.311 147.791 218.04C147.491 217.769 147.073 217.633 146.537 217.633C145.951 217.633 145.452 217.787 145.041 218.095C144.858 218.227 144.667 218.293 144.469 218.293C144.271 218.293 144.103 218.234 143.963 218.117C143.824 217.992 143.754 217.835 143.754 217.644C143.754 217.593 143.758 217.552 143.765 217.523L144.205 214.828C144.235 214.652 144.308 214.52 144.425 214.432C144.55 214.344 144.711 214.3 144.909 214.3H149.331C149.331 215.136 148.99 215.554 148.308 215.554H145.338L145.14 216.731C144.957 216.856 144.807 216.98 144.689 217.105L144.744 217.171C145.023 216.936 145.357 216.749 145.745 216.61C146.141 216.471 146.53 216.401 146.911 216.401C147.469 216.401 147.953 216.515 148.363 216.742C148.781 216.969 149.1 217.292 149.32 217.71C149.548 218.128 149.661 218.619 149.661 219.184C149.661 219.778 149.537 220.295 149.287 220.735C149.038 221.175 148.679 221.512 148.209 221.747C147.747 221.982 147.197 222.099 146.559 222.099ZM155.687 221.703C155.621 221.828 155.526 221.927 155.401 222C155.276 222.066 155.133 222.099 154.972 222.099C154.833 222.099 154.708 222.066 154.598 222C154.488 221.941 154.382 221.842 154.279 221.703L152.827 219.558L152.079 220.251V221.263C152.079 221.556 151.965 221.769 151.738 221.901C151.518 222.033 151.181 222.099 150.726 222.099V215.257C150.726 214.553 151.184 214.201 152.101 214.201V218.744L154.62 216.401C154.987 216.687 155.17 216.922 155.17 217.105C155.17 217.222 155.137 217.325 155.071 217.413C155.012 217.501 154.917 217.604 154.785 217.721L153.63 218.799L155.687 221.703ZM156.72 217.457C156.72 217.12 156.827 216.859 157.039 216.676C157.252 216.493 157.575 216.401 158.007 216.401V217.061C157.875 217.222 157.787 217.34 157.743 217.413L157.82 217.457C158.048 217.112 158.29 216.852 158.546 216.676C158.803 216.493 159.107 216.401 159.459 216.401C160.097 216.401 160.537 216.713 160.779 217.336C160.963 217.043 161.197 216.815 161.483 216.654C161.769 216.485 162.092 216.401 162.451 216.401C162.95 216.401 163.346 216.584 163.639 216.951C163.94 217.31 164.09 217.772 164.09 218.337V221.263C164.09 221.556 163.977 221.769 163.749 221.901C163.529 222.033 163.192 222.099 162.737 222.099V218.447C162.737 218.176 162.675 217.959 162.55 217.798C162.433 217.637 162.25 217.556 162 217.556C161.736 217.556 161.513 217.648 161.329 217.831C161.153 218.007 161.065 218.286 161.065 218.667V221.263C161.065 221.556 160.955 221.769 160.735 221.901C160.523 222.033 160.189 222.099 159.734 222.099V218.447C159.734 218.168 159.676 217.952 159.558 217.798C159.441 217.637 159.258 217.556 159.008 217.556C158.7 217.556 158.466 217.662 158.304 217.875C158.15 218.08 158.073 218.363 158.073 218.722V221.263C158.073 221.556 157.96 221.769 157.732 221.901C157.512 222.033 157.175 222.099 156.72 222.099V217.457Z" fill="white"/>
<path d="M197.674 222.099C197.014 222.099 196.438 222.018 195.947 221.857C195.456 221.696 195.078 221.468 194.814 221.175C194.557 220.874 194.429 220.526 194.429 220.13C194.429 219.529 194.836 219.228 195.65 219.228C195.679 219.785 195.866 220.207 196.211 220.493C196.563 220.779 197.054 220.922 197.685 220.922C198.206 220.922 198.609 220.834 198.895 220.658C199.181 220.475 199.324 220.222 199.324 219.899C199.324 219.686 199.269 219.514 199.159 219.382C199.049 219.243 198.862 219.122 198.598 219.019C198.334 218.909 197.949 218.799 197.443 218.689C196.724 218.52 196.156 218.333 195.738 218.128C195.327 217.923 195.03 217.677 194.847 217.391C194.664 217.098 194.572 216.735 194.572 216.302C194.572 215.884 194.693 215.517 194.935 215.202C195.184 214.887 195.533 214.641 195.98 214.465C196.435 214.289 196.955 214.201 197.542 214.201C198.107 214.201 198.609 214.278 199.049 214.432C199.496 214.579 199.845 214.788 200.094 215.059C200.351 215.33 200.479 215.642 200.479 215.994C200.479 216.537 200.087 216.819 199.302 216.841C199.258 216.335 199.097 215.965 198.818 215.73C198.539 215.495 198.114 215.378 197.542 215.378C197.051 215.378 196.673 215.459 196.409 215.62C196.145 215.781 196.013 216.009 196.013 216.302C196.013 216.507 196.064 216.68 196.167 216.819C196.27 216.951 196.442 217.068 196.684 217.171C196.926 217.266 197.271 217.365 197.718 217.468C198.473 217.637 199.071 217.827 199.511 218.04C199.951 218.245 200.27 218.498 200.468 218.799C200.666 219.092 200.765 219.455 200.765 219.888C200.765 220.335 200.637 220.728 200.38 221.065C200.131 221.395 199.771 221.652 199.302 221.835C198.84 222.011 198.297 222.099 197.674 222.099ZM201.825 214.971C201.825 214.78 201.894 214.623 202.034 214.498C202.173 214.366 202.349 214.3 202.562 214.3H205.62C206.148 214.3 206.613 214.406 207.017 214.619C207.427 214.824 207.743 215.121 207.963 215.51C208.19 215.891 208.304 216.335 208.304 216.841C208.304 217.354 208.194 217.805 207.974 218.194C207.754 218.575 207.442 218.872 207.039 219.085C206.635 219.29 206.162 219.393 205.62 219.393H203.299V221.01C203.299 221.362 203.17 221.633 202.914 221.824C202.664 222.007 202.301 222.099 201.825 222.099V214.971ZM205.62 218.117C206.008 218.117 206.309 218.003 206.522 217.776C206.734 217.549 206.841 217.233 206.841 216.83C206.841 216.434 206.731 216.126 206.511 215.906C206.298 215.686 206.001 215.576 205.62 215.576H203.299V218.117H205.62ZM212.123 222.099C211.521 222.099 210.971 221.982 210.473 221.747C209.974 221.505 209.578 221.179 209.285 220.768C208.999 220.357 208.856 219.91 208.856 219.426V216.863C208.856 216.379 208.999 215.935 209.285 215.532C209.578 215.121 209.974 214.799 210.473 214.564C210.971 214.322 211.521 214.201 212.123 214.201C212.724 214.201 213.274 214.322 213.773 214.564C214.279 214.799 214.675 215.121 214.961 215.532C215.254 215.935 215.401 216.379 215.401 216.863V219.426C215.401 219.91 215.254 220.357 214.961 220.768C214.675 221.179 214.279 221.505 213.773 221.747C213.274 221.982 212.724 222.099 212.123 222.099ZM212.123 220.812C212.673 220.812 213.113 220.684 213.443 220.427C213.773 220.163 213.938 219.822 213.938 219.404V216.896C213.938 216.471 213.773 216.13 213.443 215.873C213.113 215.609 212.673 215.477 212.123 215.477C211.58 215.477 211.144 215.609 210.814 215.873C210.484 216.13 210.319 216.471 210.319 216.896V219.404C210.319 219.822 210.484 220.163 210.814 220.427C211.144 220.684 211.58 220.812 212.123 220.812ZM216.466 214.971C216.466 214.78 216.536 214.623 216.675 214.498C216.815 214.366 216.991 214.3 217.203 214.3H220.14C220.932 214.3 221.545 214.509 221.977 214.927C222.417 215.345 222.637 215.932 222.637 216.687C222.637 217.12 222.549 217.486 222.373 217.787C222.197 218.08 221.93 218.315 221.57 218.491V218.524C222.216 218.81 222.538 219.353 222.538 220.152V221.01C222.538 221.362 222.414 221.633 222.164 221.824C221.915 222.007 221.548 222.099 221.064 222.099V220.218C221.064 219.829 220.987 219.543 220.833 219.36C220.679 219.177 220.445 219.085 220.129 219.085H217.918V221.01C217.918 221.369 217.794 221.641 217.544 221.824C217.302 222.007 216.943 222.099 216.466 222.099V214.971ZM220.063 217.831C220.415 217.831 220.687 217.732 220.877 217.534C221.068 217.329 221.163 217.043 221.163 216.676C221.163 215.928 220.797 215.554 220.063 215.554H217.918V217.831H220.063ZM225.748 215.576H223.097C223.097 214.725 223.482 214.3 224.252 214.3H229.873C229.873 215.151 229.484 215.576 228.707 215.576H227.222V221.01C227.222 221.362 227.097 221.633 226.848 221.824C226.599 222.007 226.232 222.099 225.748 222.099V215.576ZM237.141 220.097H233.929C233.738 220.097 233.588 220.046 233.478 219.943C233.368 219.84 233.313 219.705 233.313 219.536C233.313 219.345 233.364 219.195 233.467 219.085L237.328 214.432C237.387 214.359 237.475 214.304 237.592 214.267C237.709 214.223 237.834 214.201 237.966 214.201C238.157 214.201 238.314 214.263 238.439 214.388C238.564 214.505 238.626 214.656 238.626 214.839V218.843H239.891C239.891 219.283 239.814 219.602 239.66 219.8C239.513 219.998 239.279 220.097 238.956 220.097H238.626V221.164C238.626 221.487 238.505 221.725 238.263 221.879C238.028 222.026 237.654 222.099 237.141 222.099V220.097ZM237.229 218.843V216.632L237.636 216.093L237.548 216.038L235.238 218.843H237.229ZM243.645 222.099C243.088 222.099 242.578 222.011 242.116 221.835C241.654 221.652 241.287 221.402 241.016 221.087C240.752 220.772 240.62 220.423 240.62 220.042C240.62 219.719 240.712 219.485 240.895 219.338C241.078 219.191 241.368 219.118 241.764 219.118L241.995 219.129C241.973 219.246 241.962 219.393 241.962 219.569C241.962 219.958 242.112 220.262 242.413 220.482C242.714 220.702 243.124 220.812 243.645 220.812C244.188 220.812 244.602 220.673 244.888 220.394C245.181 220.108 245.328 219.705 245.328 219.184C245.328 218.693 245.178 218.311 244.877 218.04C244.576 217.769 244.158 217.633 243.623 217.633C243.036 217.633 242.538 217.787 242.127 218.095C241.944 218.227 241.753 218.293 241.555 218.293C241.357 218.293 241.188 218.234 241.049 218.117C240.91 217.992 240.84 217.835 240.84 217.644C240.84 217.593 240.844 217.552 240.851 217.523L241.291 214.828C241.32 214.652 241.394 214.52 241.511 214.432C241.636 214.344 241.797 214.3 241.995 214.3H246.417C246.417 215.136 246.076 215.554 245.394 215.554H242.424L242.226 216.731C242.043 216.856 241.892 216.98 241.775 217.105L241.83 217.171C242.109 216.936 242.442 216.749 242.831 216.61C243.227 216.471 243.616 216.401 243.997 216.401C244.554 216.401 245.038 216.515 245.449 216.742C245.867 216.969 246.186 217.292 246.406 217.71C246.633 218.128 246.747 218.619 246.747 219.184C246.747 219.778 246.622 220.295 246.373 220.735C246.124 221.175 245.764 221.512 245.295 221.747C244.833 221.982 244.283 222.099 243.645 222.099ZM252.773 221.703C252.707 221.828 252.612 221.927 252.487 222C252.362 222.066 252.219 222.099 252.058 222.099C251.919 222.099 251.794 222.066 251.684 222C251.574 221.941 251.468 221.842 251.365 221.703L249.913 219.558L249.165 220.251V221.263C249.165 221.556 249.051 221.769 248.824 221.901C248.604 222.033 248.267 222.099 247.812 222.099V215.257C247.812 214.553 248.27 214.201 249.187 214.201V218.744L251.706 216.401C252.073 216.687 252.256 216.922 252.256 217.105C252.256 217.222 252.223 217.325 252.157 217.413C252.098 217.501 252.003 217.604 251.871 217.721L250.716 218.799L252.773 221.703ZM253.806 217.457C253.806 217.12 253.913 216.859 254.125 216.676C254.338 216.493 254.661 216.401 255.093 216.401V217.061C254.961 217.222 254.873 217.34 254.829 217.413L254.906 217.457C255.134 217.112 255.376 216.852 255.632 216.676C255.889 216.493 256.193 216.401 256.545 216.401C257.183 216.401 257.623 216.713 257.865 217.336C258.049 217.043 258.283 216.815 258.569 216.654C258.855 216.485 259.178 216.401 259.537 216.401C260.036 216.401 260.432 216.584 260.725 216.951C261.026 217.31 261.176 217.772 261.176 218.337V221.263C261.176 221.556 261.063 221.769 260.835 221.901C260.615 222.033 260.278 222.099 259.823 222.099V218.447C259.823 218.176 259.761 217.959 259.636 217.798C259.519 217.637 259.336 217.556 259.086 217.556C258.822 217.556 258.599 217.648 258.415 217.831C258.239 218.007 258.151 218.286 258.151 218.667V221.263C258.151 221.556 258.041 221.769 257.821 221.901C257.609 222.033 257.275 222.099 256.82 222.099V218.447C256.82 218.168 256.762 217.952 256.644 217.798C256.527 217.637 256.344 217.556 256.094 217.556C255.786 217.556 255.552 217.662 255.39 217.875C255.236 218.08 255.159 218.363 255.159 218.722V221.263C255.159 221.556 255.046 221.769 254.818 221.901C254.598 222.033 254.261 222.099 253.806 222.099V217.457Z" fill="white"/>
</svg>
