<svg width="285" height="87" viewBox="0 0 285 87" fill="none" xmlns="http://www.w3.org/2000/svg">
<rect width="285" height="87" rx="10" fill="black"/>
<path d="M106.16 42.36C103.867 42.36 101.84 41.9067 100.08 41C98.32 40.0933 96.9467 38.8133 95.96 37.16C95 35.5067 94.52 33.6133 94.52 31.48C94.52 30.0933 94.8133 28.68 95.4 27.24C96.0133 25.7733 96.84 24.4533 97.88 23.28L105.52 14.84C105.92 14.3867 106.307 14.08 106.68 13.92C107.08 13.7333 107.547 13.64 108.08 13.64C109.493 13.64 110.667 14.2 111.6 15.32L106.4 21.2C106.08 21.2533 105.68 21.36 105.2 21.52C104.72 21.68 104.333 21.84 104.04 22L104.28 22.48C104.76 22.24 105.36 22.0533 106.08 21.92C106.8 21.76 107.44 21.68 108 21.68C109.867 21.68 111.547 22.1067 113.04 22.96C114.533 23.8133 115.707 24.9867 116.56 26.48C117.413 27.9733 117.84 29.64 117.84 31.48C117.84 33.6133 117.347 35.5067 116.36 37.16C115.373 38.7867 114 40.0667 112.24 41C110.48 41.9067 108.453 42.36 106.16 42.36ZM106.16 37.76C108.08 37.76 109.64 37.1867 110.84 36.04C112.04 34.8667 112.64 33.3467 112.64 31.48C112.64 29.6133 112.04 28.0933 110.84 26.92C109.64 25.7467 108.08 25.16 106.16 25.16C104.267 25.16 102.72 25.7467 101.52 26.92C100.347 28.0933 99.76 29.6133 99.76 31.48C99.76 33.3467 100.347 34.8667 101.52 36.04C102.72 37.1867 104.267 37.76 106.16 37.76ZM124.007 42.36C123.127 42.36 122.381 42.08 121.767 41.52C121.181 40.9333 120.887 40.2 120.887 39.32C120.887 38.44 121.181 37.7067 121.767 37.12C122.381 36.5067 123.127 36.2 124.007 36.2C124.861 36.2 125.594 36.5067 126.207 37.12C126.847 37.7067 127.167 38.44 127.167 39.32C127.167 40.1733 126.847 40.8933 126.207 41.48C125.594 42.0667 124.861 42.36 124.007 42.36ZM141.664 42.4C139.344 42.4 137.317 42.0533 135.584 41.36C133.851 40.64 132.517 39.64 131.584 38.36C130.651 37.0533 130.184 35.5333 130.184 33.8C130.184 32.3333 130.584 31.04 131.384 29.92C132.184 28.8 133.357 27.9067 134.904 27.24C132.397 25.8533 131.144 23.9467 131.144 21.52C131.144 20 131.584 18.64 132.464 17.44C133.371 16.24 134.624 15.3067 136.224 14.64C137.824 13.9733 139.637 13.64 141.664 13.64C143.744 13.64 145.584 13.9733 147.184 14.64C148.784 15.3067 150.024 16.24 150.904 17.44C151.784 18.6133 152.224 19.9733 152.224 21.52C152.224 23.9467 150.957 25.8533 148.424 27.24C149.971 27.9067 151.144 28.8 151.944 29.92C152.771 31.04 153.184 32.3333 153.184 33.8C153.184 35.5333 152.717 37.0533 151.784 38.36C150.851 39.6667 149.517 40.6667 147.784 41.36C146.051 42.0533 144.011 42.4 141.664 42.4ZM141.664 25.4C143.317 25.4 144.611 25.08 145.544 24.44C146.504 23.8 146.984 22.9067 146.984 21.76C146.984 20.5867 146.531 19.6933 145.624 19.08C144.744 18.44 143.424 18.12 141.664 18.12C139.957 18.12 138.637 18.44 137.704 19.08C136.797 19.6933 136.344 20.5867 136.344 21.76C136.344 22.88 136.824 23.7733 137.784 24.44C138.771 25.08 140.064 25.4 141.664 25.4ZM141.664 37.88C145.851 37.88 147.944 36.4533 147.944 33.6C147.944 32.1867 147.397 31.1067 146.304 30.36C145.211 29.5867 143.664 29.2 141.664 29.2C139.717 29.2 138.184 29.6 137.064 30.4C135.944 31.1733 135.384 32.24 135.384 33.6C135.384 34.9867 135.917 36.0533 136.984 36.8C138.077 37.52 139.637 37.88 141.664 37.88ZM175.192 41.46C175.072 41.6867 174.899 41.8667 174.672 42C174.446 42.12 174.186 42.18 173.892 42.18C173.639 42.18 173.412 42.12 173.212 42C173.012 41.8933 172.819 41.7133 172.632 41.46L169.992 37.56L168.632 38.82V40.66C168.632 41.1933 168.426 41.58 168.012 41.82C167.612 42.06 166.999 42.18 166.172 42.18V29.74C166.172 28.46 167.006 27.82 168.672 27.82V36.08L173.252 31.82C173.919 32.34 174.252 32.7667 174.252 33.1C174.252 33.3133 174.192 33.5 174.072 33.66C173.966 33.82 173.792 34.0067 173.552 34.22L171.452 36.18L175.192 41.46ZM177.071 33.74C177.071 33.1267 177.264 32.6533 177.651 32.32C178.037 31.9867 178.624 31.82 179.411 31.82V33.02C179.171 33.3133 179.011 33.5267 178.931 33.66L179.071 33.74C179.484 33.1133 179.924 32.64 180.391 32.32C180.857 31.9867 181.411 31.82 182.051 31.82C183.211 31.82 184.011 32.3867 184.451 33.52C184.784 32.9867 185.211 32.5733 185.731 32.28C186.251 31.9733 186.837 31.82 187.491 31.82C188.397 31.82 189.117 32.1533 189.651 32.82C190.197 33.4733 190.471 34.3133 190.471 35.34V40.66C190.471 41.1933 190.264 41.58 189.851 41.82C189.451 42.06 188.837 42.18 188.011 42.18V35.54C188.011 35.0467 187.897 34.6533 187.671 34.36C187.457 34.0667 187.124 33.92 186.671 33.92C186.191 33.92 185.784 34.0867 185.451 34.42C185.131 34.74 184.971 35.2467 184.971 35.94V40.66C184.971 41.1933 184.771 41.58 184.371 41.82C183.984 42.06 183.377 42.18 182.551 42.18V35.54C182.551 35.0333 182.444 34.64 182.231 34.36C182.017 34.0667 181.684 33.92 181.231 33.92C180.671 33.92 180.244 34.1133 179.951 34.5C179.671 34.8733 179.531 35.3867 179.531 36.04V40.66C179.531 41.1933 179.324 41.58 178.911 41.82C178.511 42.06 177.897 42.18 177.071 42.18V33.74Z" fill="white"/>
<path d="M81.376 75.216C80.032 75.216 78.832 74.968 77.776 74.472C76.72 73.96 75.896 73.256 75.304 72.36C74.728 71.448 74.44 70.416 74.44 69.264V63.888C74.44 62.736 74.728 61.712 75.304 60.816C75.896 59.92 76.712 59.224 77.752 58.728C78.792 58.232 79.984 57.984 81.328 57.984C82.672 57.984 83.864 58.2 84.904 58.632C85.944 59.048 86.752 59.632 87.328 60.384C87.92 61.136 88.216 62 88.216 62.976C88.216 63.456 88.056 63.832 87.736 64.104C87.416 64.376 86.992 64.512 86.464 64.512C86.352 64.512 86.184 64.496 85.96 64.464C85.992 64.272 86.008 63.968 86.008 63.552C86.008 62.864 85.808 62.248 85.408 61.704C85.024 61.16 84.472 60.736 83.752 60.432C83.048 60.128 82.24 59.976 81.328 59.976C80.432 59.976 79.632 60.144 78.928 60.48C78.224 60.8 77.672 61.264 77.272 61.872C76.888 62.464 76.696 63.136 76.696 63.888V69.264C76.696 70.032 76.888 70.72 77.272 71.328C77.672 71.92 78.224 72.384 78.928 72.72C79.648 73.056 80.464 73.224 81.376 73.224C82.304 73.224 83.128 73.072 83.848 72.768C84.568 72.464 85.128 72.048 85.528 71.52C85.928 70.976 86.128 70.352 86.128 69.648C86.128 69.392 86.112 69.088 86.08 68.736C86.304 68.704 86.464 68.688 86.56 68.688C87.088 68.688 87.512 68.84 87.832 69.144C88.168 69.448 88.336 69.856 88.336 70.368C88.336 71.312 88.04 72.152 87.448 72.888C86.856 73.624 86.032 74.2 84.976 74.616C83.936 75.016 82.736 75.216 81.376 75.216ZM101.022 73.44C101.022 74.624 100.35 75.216 99.0063 75.216V73.68C99.1503 73.536 99.3183 73.32 99.5103 73.032L99.4143 72.936C98.9343 73.624 98.3263 74.176 97.5903 74.592C96.8703 75.008 96.0783 75.216 95.2143 75.216C94.3503 75.216 93.5823 75.032 92.9103 74.664C92.2543 74.296 91.7423 73.784 91.3743 73.128C91.0223 72.472 90.8463 71.736 90.8463 70.92V64.32C90.8463 63.792 91.0223 63.408 91.3743 63.168C91.7263 62.912 92.2543 62.784 92.9583 62.784V70.824C92.9583 71.592 93.1823 72.208 93.6303 72.672C94.0943 73.136 94.7743 73.368 95.6703 73.368C96.2623 73.368 96.8063 73.248 97.3023 73.008C97.7983 72.752 98.1903 72.416 98.4783 72C98.7823 71.568 98.9343 71.104 98.9343 70.608V64.32C98.9343 63.792 99.1023 63.408 99.4383 63.168C99.7903 62.912 100.318 62.784 101.022 62.784V73.44ZM109.583 64.632C108.687 64.632 107.943 64.904 107.351 65.448C106.759 65.976 106.463 66.624 106.463 67.392V73.68C106.463 74.208 106.287 74.6 105.935 74.856C105.599 75.096 105.079 75.216 104.375 75.216V64.56C104.375 63.376 105.047 62.784 106.391 62.784V64.248C106.135 64.52 105.959 64.76 105.863 64.968L105.959 65.064C106.983 63.544 108.263 62.784 109.799 62.784C110.375 62.784 110.815 62.928 111.119 63.216C111.423 63.488 111.575 63.824 111.575 64.224C111.575 64.512 111.503 64.768 111.359 64.992C110.911 64.752 110.319 64.632 109.583 64.632ZM118.701 64.632C117.805 64.632 117.061 64.904 116.469 65.448C115.877 65.976 115.581 66.624 115.581 67.392V73.68C115.581 74.208 115.405 74.6 115.053 74.856C114.717 75.096 114.197 75.216 113.493 75.216V64.56C113.493 63.376 114.165 62.784 115.509 62.784V64.248C115.253 64.52 115.077 64.76 114.98 64.968L115.077 65.064C116.101 63.544 117.381 62.784 118.917 62.784C119.493 62.784 119.933 62.928 120.237 63.216C120.541 63.488 120.693 63.824 120.693 64.224C120.693 64.512 120.621 64.768 120.477 64.992C120.029 64.752 119.437 64.632 118.701 64.632ZM126.965 75.216C125.989 75.216 125.117 75.032 124.349 74.664C123.581 74.28 122.981 73.76 122.549 73.104C122.117 72.432 121.901 71.68 121.901 70.848V67.296C121.901 66.448 122.125 65.68 122.573 64.992C123.037 64.304 123.653 63.768 124.421 63.384C125.205 62.984 126.053 62.784 126.965 62.784C127.877 62.784 128.709 62.976 129.461 63.36C130.229 63.744 130.829 64.272 131.261 64.944C131.709 65.616 131.933 66.376 131.933 67.224V68.76C131.933 69.016 131.837 69.232 131.645 69.408C131.453 69.584 131.221 69.672 130.949 69.672H123.941V70.752C123.941 71.568 124.197 72.224 124.709 72.72C125.237 73.216 125.989 73.464 126.965 73.464C127.941 73.464 128.685 73.248 129.197 72.816C129.709 72.384 129.965 71.8 129.965 71.064C130.445 71.032 130.845 71.128 131.165 71.352C131.501 71.56 131.669 71.872 131.669 72.288C131.669 72.8 131.445 73.28 130.997 73.728C130.565 74.176 129.989 74.536 129.269 74.808C128.549 75.08 127.781 75.216 126.965 75.216ZM129.989 68.04V67.224C129.989 66.424 129.709 65.776 129.149 65.28C128.605 64.768 127.877 64.512 126.965 64.512C126.053 64.512 125.317 64.768 124.757 65.28C124.213 65.776 123.941 66.424 123.941 67.224V68.04H129.989ZM134.703 64.56C134.703 63.376 135.375 62.784 136.719 62.784V64.32C136.575 64.464 136.407 64.68 136.215 64.968L136.311 65.064C136.791 64.392 137.415 63.848 138.183 63.432C138.951 63 139.783 62.784 140.679 62.784C141.975 62.784 142.999 63.168 143.751 63.936C144.503 64.704 144.879 65.696 144.879 66.912V73.68C144.879 74.208 144.703 74.6 144.351 74.856C144.015 75.096 143.495 75.216 142.791 75.216V67.128C142.791 66.36 142.575 65.752 142.143 65.304C141.711 64.856 141.055 64.632 140.175 64.632C139.583 64.632 139.023 64.76 138.495 65.016C137.983 65.256 137.567 65.592 137.247 66.024C136.943 66.44 136.791 66.896 136.791 67.392V73.68C136.791 74.208 136.615 74.6 136.263 74.856C135.927 75.096 135.407 75.216 134.703 75.216V64.56ZM152.769 75.216C151.633 75.216 150.785 74.896 150.225 74.256C149.665 73.6 149.385 72.744 149.385 71.688V64.68H147.153C147.153 64.136 147.273 63.72 147.513 63.432C147.753 63.144 148.081 63 148.497 63H149.409V60.72C149.409 60.192 149.577 59.808 149.913 59.568C150.265 59.312 150.785 59.184 151.473 59.184V63H154.665C154.665 64.12 154.161 64.68 153.153 64.68H151.497V71.616C151.497 72.256 151.609 72.712 151.833 72.984C152.073 73.24 152.497 73.368 153.105 73.368C153.665 73.368 154.193 73.224 154.689 72.936C154.897 73.144 155.001 73.424 155.001 73.776C155.001 74.16 154.801 74.496 154.401 74.784C154.001 75.072 153.457 75.216 152.769 75.216ZM163.719 59.256C163.719 58.952 163.823 58.704 164.031 58.512C164.255 58.304 164.535 58.2 164.871 58.2H171.495C173.047 58.2 174.279 58.656 175.191 59.568C176.119 60.464 176.583 61.664 176.583 63.168C176.583 65.056 175.759 66.392 174.111 67.176V67.248C174.831 67.552 175.383 68.016 175.767 68.64C176.151 69.248 176.343 69.992 176.343 70.872V73.344C176.343 73.952 176.151 74.416 175.767 74.736C175.383 75.056 174.823 75.216 174.087 75.216V71.016C174.087 70.072 173.871 69.36 173.439 68.88C173.023 68.384 172.399 68.136 171.567 68.136H165.951V73.344C165.951 73.952 165.759 74.416 165.375 74.736C165.007 75.056 164.455 75.216 163.719 75.216V59.256ZM171.423 66.192C172.303 66.192 172.999 65.92 173.511 65.376C174.039 64.832 174.303 64.088 174.303 63.144C174.303 62.184 174.055 61.448 173.559 60.936C173.063 60.424 172.351 60.168 171.423 60.168H165.951V66.192H171.423ZM181.287 60.984C180.839 60.984 180.463 60.84 180.159 60.552C179.855 60.264 179.703 59.904 179.703 59.472C179.703 59.04 179.855 58.688 180.159 58.416C180.463 58.128 180.839 57.984 181.287 57.984C181.719 57.984 182.087 58.128 182.391 58.416C182.695 58.688 182.847 59.04 182.847 59.472C182.847 59.904 182.695 60.264 182.391 60.552C182.087 60.84 181.719 60.984 181.287 60.984ZM180.231 64.32C180.231 63.792 180.399 63.408 180.735 63.168C181.087 62.912 181.615 62.784 182.319 62.784V73.68C182.319 74.208 182.143 74.6 181.791 74.856C181.455 75.096 180.935 75.216 180.231 75.216V64.32ZM190.611 75.216C189.235 75.216 188.115 74.84 187.251 74.088C186.403 73.32 185.979 72.304 185.979 71.04V66.936C185.979 66.12 186.179 65.4 186.579 64.776C186.979 64.136 187.531 63.648 188.235 63.312C188.955 62.96 189.779 62.784 190.707 62.784C191.459 62.784 192.155 62.944 192.795 63.264C193.435 63.568 193.995 63.976 194.475 64.488L194.547 64.368C194.435 64.208 194.267 64.032 194.043 63.84V59.616C194.043 59.088 194.219 58.688 194.571 58.416C194.923 58.128 195.451 57.984 196.155 57.984V73.512C196.155 74.04 195.995 74.456 195.675 74.76C195.371 75.064 194.875 75.216 194.187 75.216V73.872C194.411 73.584 194.563 73.376 194.643 73.248L194.571 73.152C194.059 73.792 193.491 74.296 192.867 74.664C192.243 75.032 191.491 75.216 190.611 75.216ZM191.067 73.368C191.915 73.368 192.627 73.152 193.203 72.72C193.779 72.272 194.067 71.72 194.067 71.064V66.912C194.067 66.272 193.795 65.736 193.251 65.304C192.707 64.856 191.971 64.632 191.043 64.632C190.099 64.632 189.363 64.848 188.835 65.28C188.323 65.696 188.067 66.28 188.067 67.032V70.944C188.067 71.728 188.323 72.328 188.835 72.744C189.363 73.16 190.107 73.368 191.067 73.368ZM204.332 75.216C203.356 75.216 202.484 75.032 201.716 74.664C200.948 74.28 200.348 73.76 199.916 73.104C199.484 72.432 199.268 71.68 199.268 70.848V67.296C199.268 66.448 199.492 65.68 199.94 64.992C200.404 64.304 201.02 63.768 201.788 63.384C202.572 62.984 203.42 62.784 204.332 62.784C205.244 62.784 206.076 62.976 206.828 63.36C207.596 63.744 208.196 64.272 208.628 64.944C209.076 65.616 209.3 66.376 209.3 67.224V68.76C209.3 69.016 209.204 69.232 209.012 69.408C208.82 69.584 208.588 69.672 208.316 69.672H201.308V70.752C201.308 71.568 201.564 72.224 202.076 72.72C202.604 73.216 203.356 73.464 204.332 73.464C205.308 73.464 206.052 73.248 206.564 72.816C207.076 72.384 207.332 71.8 207.332 71.064C207.812 71.032 208.212 71.128 208.532 71.352C208.868 71.56 209.036 71.872 209.036 72.288C209.036 72.8 208.812 73.28 208.364 73.728C207.932 74.176 207.356 74.536 206.636 74.808C205.916 75.08 205.148 75.216 204.332 75.216ZM207.356 68.04V67.224C207.356 66.424 207.076 65.776 206.516 65.28C205.972 64.768 205.244 64.512 204.332 64.512C203.42 64.512 202.684 64.768 202.124 65.28C201.58 65.776 201.308 66.424 201.308 67.224V68.04H207.356Z" fill="#888888"/>
<path d="M228.742 68.4329L219.271 61.0359C219.246 61.0164 219.217 61.0043 219.185 61.0009C219.154 60.9976 219.122 61.0032 219.094 61.017C219.066 61.0308 219.042 61.0523 219.025 61.0791C219.009 61.1058 219 61.1367 219 61.1682V62.7922C219 62.8951 219.048 62.9938 219.128 63.0569L226.691 68.9623L219.128 74.8677C219.046 74.9307 219 75.0295 219 75.1324V76.7564C219 76.8971 219.162 76.9749 219.271 76.8887L228.742 69.4917C228.822 69.4289 228.887 69.3486 228.932 69.2569C228.977 69.1651 229 69.0644 229 68.9623C229 68.8602 228.977 68.7595 228.932 68.6677C228.887 68.576 228.822 68.4957 228.742 68.4329Z" fill="#F8F8F8"/>
<path d="M55.2585 67.4919L64.729 74.8889C64.7537 74.9084 64.7835 74.9205 64.8148 74.9239C64.8461 74.9272 64.8777 74.9216 64.906 74.9078C64.9343 74.894 64.9582 74.8725 64.9748 74.8457C64.9914 74.819 65.0001 74.7881 65 74.7566V73.1326C65 73.0297 64.9517 72.931 64.8718 72.8679L57.3089 66.9625L64.8718 61.0571C64.9538 60.9941 65 60.8953 65 60.7924V59.1684C65 59.0277 64.8382 58.95 64.729 59.0361L55.2585 66.4331C55.178 66.4959 55.1129 66.5762 55.0681 66.6679C55.0233 66.7597 55 66.8604 55 66.9625C55 67.0646 55.0233 67.1653 55.0681 67.2571C55.1129 67.3488 55.178 67.4291 55.2585 67.4919Z" fill="#F8F8F8"/>
</svg>
