<svg width="285" height="87" viewBox="0 0 285 87" fill="none" xmlns="http://www.w3.org/2000/svg">
<g filter="url(#filter0_i_348_440)">
<rect width="285" height="87" rx="10" fill="white"/>
</g>
<path d="M17.885 37.415C17.885 37.155 17.98 36.94 18.17 36.77C18.36 36.59 18.6 36.5 18.89 36.5H23.06C23.78 36.5 24.415 36.645 24.965 36.935C25.525 37.215 25.955 37.62 26.255 38.15C26.565 38.67 26.72 39.275 26.72 39.965C26.72 40.665 26.57 41.28 26.27 41.81C25.97 42.33 25.545 42.735 24.995 43.025C24.445 43.305 23.8 43.445 23.06 43.445H19.895V45.65C19.895 46.13 19.72 46.5 19.37 46.76C19.03 47.01 18.535 47.135 17.885 47.135V37.415ZM23.06 41.705C23.59 41.705 24 41.55 24.29 41.24C24.58 40.93 24.725 40.5 24.725 39.95C24.725 39.41 24.575 38.99 24.275 38.69C23.985 38.39 23.58 38.24 23.06 38.24H19.895V41.705H23.06ZM31.4959 40.985C30.9059 40.985 30.4259 41.145 30.0559 41.465C29.6859 41.775 29.5009 42.165 29.5009 42.635V45.995C29.5009 46.395 29.3509 46.685 29.0509 46.865C28.7509 47.045 28.2809 47.135 27.6409 47.135V40.805C27.6409 40.345 27.7859 39.99 28.0759 39.74C28.3759 39.49 28.8259 39.365 29.4259 39.365V40.25C29.2759 40.42 29.1559 40.585 29.0659 40.745L29.1559 40.805C29.7859 39.845 30.5759 39.365 31.5259 39.365C31.9559 39.365 32.2809 39.48 32.5009 39.71C32.7209 39.93 32.8309 40.21 32.8309 40.55C32.8309 40.81 32.7609 41.03 32.6209 41.21C32.3509 41.06 31.9759 40.985 31.4959 40.985ZM36.269 47.135C35.619 47.135 35.029 47.02 34.499 46.79C33.979 46.55 33.569 46.22 33.269 45.8C32.969 45.38 32.819 44.905 32.819 44.375V42.26C32.819 41.72 32.964 41.23 33.254 40.79C33.554 40.35 33.964 40.005 34.484 39.755C35.004 39.495 35.599 39.365 36.269 39.365C36.939 39.365 37.534 39.495 38.054 39.755C38.584 40.005 38.994 40.35 39.284 40.79C39.584 41.23 39.734 41.72 39.734 42.26V44.375C39.734 44.905 39.579 45.38 39.269 45.8C38.969 46.22 38.554 46.55 38.024 46.79C37.504 47.02 36.919 47.135 36.269 47.135ZM36.269 45.53C36.769 45.53 37.159 45.415 37.439 45.185C37.729 44.955 37.874 44.645 37.874 44.255V42.35C37.874 41.94 37.729 41.61 37.439 41.36C37.159 41.1 36.769 40.97 36.269 40.97C35.779 40.97 35.389 41.1 35.099 41.36C34.809 41.61 34.664 41.94 34.664 42.35V44.255C34.664 44.645 34.809 44.955 35.099 45.185C35.389 45.415 35.779 45.53 36.269 45.53ZM41.9257 40.895H40.7257C40.7257 40.415 40.7957 40.06 40.9357 39.83C41.0757 39.6 41.2907 39.485 41.5807 39.485H41.9257V38.915C41.9257 38.135 42.1557 37.515 42.6157 37.055C43.0757 36.595 43.7007 36.365 44.4907 36.365C44.9907 36.365 45.4057 36.475 45.7357 36.695C46.0657 36.915 46.2307 37.195 46.2307 37.535C46.2307 37.855 46.1257 38.105 45.9157 38.285C45.5457 38.085 45.1707 37.985 44.7907 37.985C44.4507 37.985 44.1957 38.065 44.0257 38.225C43.8657 38.385 43.7857 38.635 43.7857 38.975V39.485H48.9157V45.995C48.9157 46.385 48.7657 46.675 48.4657 46.865C48.1657 47.045 47.6957 47.135 47.0557 47.135V40.895H43.7857V45.995C43.7857 46.395 43.6357 46.685 43.3357 46.865C43.0457 47.045 42.5757 47.135 41.9257 47.135V40.895ZM48.0007 38.66C47.6407 38.66 47.3407 38.55 47.1007 38.33C46.8607 38.11 46.7407 37.835 46.7407 37.505C46.7407 37.175 46.8607 36.905 47.1007 36.695C47.3407 36.475 47.6407 36.365 48.0007 36.365C48.3507 36.365 48.6457 36.475 48.8857 36.695C49.1257 36.905 49.2457 37.175 49.2457 37.505C49.2457 37.835 49.1257 38.11 48.8857 38.33C48.6457 38.55 48.3507 38.66 48.0007 38.66ZM53.4651 47.135C52.6351 47.135 52.0051 46.9 51.5751 46.43C51.1551 45.95 50.9451 45.345 50.9451 44.615V37.505C50.9451 37.095 51.0951 36.805 51.3951 36.635C51.7051 36.455 52.1801 36.365 52.8201 36.365V44.54C52.8201 44.88 52.8951 45.13 53.0451 45.29C53.1951 45.44 53.4351 45.515 53.7651 45.515C54.1351 45.515 54.5051 45.42 54.8751 45.23C54.9751 45.32 55.0501 45.435 55.1001 45.575C55.1601 45.705 55.1901 45.84 55.1901 45.98C55.1901 46.28 55.0401 46.55 54.7401 46.79C54.4401 47.02 54.0151 47.135 53.4651 47.135ZM59.3728 47.135C58.7528 47.135 58.1878 47.015 57.6778 46.775C57.1678 46.525 56.7628 46.19 56.4628 45.77C56.1628 45.34 56.0128 44.86 56.0128 44.33V42.335C56.0128 41.775 56.1678 41.27 56.4778 40.82C56.7878 40.37 57.1978 40.015 57.7078 39.755C58.2278 39.495 58.7878 39.365 59.3878 39.365C59.9778 39.365 60.5178 39.49 61.0078 39.74C61.5078 39.98 61.9028 40.32 62.1928 40.76C62.4828 41.19 62.6278 41.685 62.6278 42.245V43.085C62.6278 43.305 62.5428 43.49 62.3728 43.64C62.2128 43.79 62.0078 43.865 61.7578 43.865H57.8278V44.195C57.8278 44.625 57.9578 44.975 58.2178 45.245C58.4778 45.515 58.8678 45.65 59.3878 45.65C59.8878 45.65 60.2578 45.54 60.4978 45.32C60.7478 45.1 60.8728 44.815 60.8728 44.465C61.0528 44.445 61.1778 44.435 61.2478 44.435C61.6178 44.435 61.9078 44.52 62.1178 44.69C62.3278 44.85 62.4328 45.08 62.4328 45.38C62.4328 45.67 62.2978 45.95 62.0278 46.22C61.7578 46.49 61.3878 46.71 60.9178 46.88C60.4478 47.05 59.9328 47.135 59.3728 47.135ZM60.9328 42.53V42.245C60.9328 41.825 60.7878 41.485 60.4978 41.225C60.2078 40.965 59.8328 40.835 59.3728 40.835C58.9128 40.835 58.5378 40.965 58.2478 41.225C57.9678 41.475 57.8278 41.815 57.8278 42.245V42.53H60.9328Z" fill="#9B9B9B"/>
<path d="M9.416 15.664C9.416 15.248 9.568 14.904 9.872 14.632C10.176 14.344 10.56 14.2 11.024 14.2H17.432C19.16 14.2 20.496 14.656 21.44 15.568C22.4 16.48 22.88 17.76 22.88 19.408C22.88 20.352 22.688 21.152 22.304 21.808C21.92 22.448 21.336 22.96 20.552 23.344V23.416C21.96 24.04 22.664 25.224 22.664 26.968V28.84C22.664 29.608 22.392 30.2 21.848 30.616C21.304 31.016 20.504 31.216 19.448 31.216V27.112C19.448 26.264 19.28 25.64 18.944 25.24C18.608 24.84 18.096 24.64 17.408 24.64H12.584V28.84C12.584 29.624 12.312 30.216 11.768 30.616C11.24 31.016 10.456 31.216 9.416 31.216V15.664ZM17.264 21.904C18.032 21.904 18.624 21.688 19.04 21.256C19.456 20.808 19.664 20.184 19.664 19.384C19.664 17.752 18.864 16.936 17.264 16.936H12.584V21.904H17.264ZM25.9507 16.384C25.9507 15.632 26.2307 15.048 26.7907 14.632C27.3507 14.2 28.1427 13.984 29.1667 13.984V28.816C29.1667 29.584 28.8867 30.176 28.3267 30.592C27.7667 31.008 26.9747 31.216 25.9507 31.216V16.384ZM34.0631 31C33.6151 31 33.2311 30.864 32.9111 30.592C32.6071 30.304 32.4551 29.952 32.4551 29.536V15.664C32.4551 15.248 32.6071 14.904 32.9111 14.632C33.2151 14.344 33.5991 14.2 34.0631 14.2H39.3911C40.8151 14.2 42.0711 14.472 43.1591 15.016C44.2631 15.56 45.1111 16.328 45.7031 17.32C46.3111 18.296 46.6151 19.416 46.6151 20.68V24.472C46.6151 25.736 46.3111 26.864 45.7031 27.856C45.0951 28.848 44.2391 29.624 43.1351 30.184C42.0471 30.728 40.7991 31 39.3911 31H34.0631ZM39.1511 28.24C40.5431 28.24 41.5991 27.928 42.3191 27.304C43.0391 26.664 43.3991 25.728 43.3991 24.496V20.632C43.3991 19.432 43.0391 18.52 42.3191 17.896C41.5991 17.272 40.5431 16.96 39.1511 16.96H35.6711V28.24H39.1511ZM49.0254 15.664C49.0254 15.264 49.1774 14.92 49.4814 14.632C49.8014 14.344 50.1854 14.2 50.6334 14.2H61.3374C61.3374 15.16 61.1694 15.864 60.8334 16.312C60.5134 16.744 59.9854 16.96 59.2494 16.96H52.2414V21.136H58.6254C58.6254 22.096 58.4574 22.8 58.1214 23.248C57.8014 23.68 57.2734 23.896 56.5374 23.896H52.2414V28.24H59.7534C60.4734 28.24 60.9934 28.464 61.3134 28.912C61.6494 29.344 61.8174 30.04 61.8174 31H50.6334C50.1854 31 49.8014 30.864 49.4814 30.592C49.1774 30.304 49.0254 29.952 49.0254 29.536V15.664ZM64.1426 15.664C64.1426 15.248 64.2946 14.904 64.5986 14.632C64.9026 14.344 65.2866 14.2 65.7506 14.2H72.1586C73.8866 14.2 75.2226 14.656 76.1666 15.568C77.1266 16.48 77.6066 17.76 77.6066 19.408C77.6066 20.352 77.4146 21.152 77.0306 21.808C76.6466 22.448 76.0626 22.96 75.2786 23.344V23.416C76.6866 24.04 77.3906 25.224 77.3906 26.968V28.84C77.3906 29.608 77.1186 30.2 76.5746 30.616C76.0306 31.016 75.2306 31.216 74.1746 31.216V27.112C74.1746 26.264 74.0066 25.64 73.6706 25.24C73.3346 24.84 72.8226 24.64 72.1346 24.64H67.3106V28.84C67.3106 29.624 67.0386 30.216 66.4946 30.616C65.9666 31.016 65.1826 31.216 64.1426 31.216V15.664ZM71.9906 21.904C72.7586 21.904 73.3506 21.688 73.7666 21.256C74.1826 20.808 74.3906 20.184 74.3906 19.384C74.3906 17.752 73.5906 16.936 71.9906 16.936H67.3106V21.904H71.9906Z" fill="black"/>
<g filter="url(#filter1_d_348_440)">
<path d="M113.072 63.544H92.048C90.8 63.544 89.816 63.208 89.096 62.536C88.376 61.864 88.016 60.976 88.016 59.872C88.016 58.624 88.352 57.64 89.024 56.92L114.296 26.464C114.68 25.984 115.256 25.624 116.024 25.384C116.792 25.096 117.608 24.952 118.472 24.952C119.72 24.952 120.752 25.36 121.568 26.176C122.384 26.944 122.792 27.928 122.792 29.128V55.336H131.072C131.072 58.216 130.568 60.304 129.56 61.6C128.6 62.896 127.064 63.544 124.952 63.544H122.792V70.528C122.792 72.64 122 74.2 120.416 75.208C118.88 76.168 116.432 76.648 113.072 76.648V63.544ZM113.648 55.336V40.864L116.312 37.336L115.736 36.976L100.616 55.336H113.648ZM155.645 76.648C151.997 76.648 148.661 76.072 145.637 74.92C142.613 73.72 140.213 72.088 138.437 70.024C136.709 67.96 135.845 65.68 135.845 63.184C135.845 61.072 136.445 59.536 137.645 58.576C138.845 57.616 140.741 57.136 143.333 57.136L144.845 57.208C144.701 57.976 144.629 58.936 144.629 60.088C144.629 62.632 145.613 64.624 147.581 66.064C149.549 67.504 152.237 68.224 155.645 68.224C159.197 68.224 161.909 67.312 163.781 65.488C165.701 63.616 166.661 60.976 166.661 57.568C166.661 54.352 165.677 51.856 163.709 50.08C161.741 48.304 159.005 47.416 155.501 47.416C151.661 47.416 148.397 48.424 145.709 50.44C144.509 51.304 143.261 51.736 141.965 51.736C140.669 51.736 139.565 51.352 138.653 50.584C137.741 49.768 137.285 48.736 137.285 47.488C137.285 47.152 137.309 46.888 137.357 46.696L140.237 29.056C140.429 27.904 140.909 27.04 141.677 26.464C142.493 25.888 143.549 25.6 144.845 25.6H173.789C173.789 31.072 171.557 33.808 167.093 33.808H147.653L146.357 41.512C145.157 42.328 144.173 43.144 143.405 43.96L143.765 44.392C145.589 42.856 147.773 41.632 150.317 40.72C152.909 39.808 155.453 39.352 157.949 39.352C161.597 39.352 164.765 40.096 167.453 41.584C170.189 43.072 172.277 45.184 173.717 47.92C175.205 50.656 175.949 53.872 175.949 57.568C175.949 61.456 175.133 64.84 173.501 67.72C171.869 70.6 169.517 72.808 166.445 74.344C163.421 75.88 159.821 76.648 155.645 76.648ZM202.72 76.648C198.976 76.648 195.544 75.928 192.424 74.488C189.352 73.048 186.928 71.08 185.152 68.584C183.376 66.04 182.488 63.256 182.488 60.232V41.368C182.488 38.344 183.376 35.584 185.152 33.088C186.928 30.544 189.352 28.552 192.424 27.112C195.544 25.672 198.976 24.952 202.72 24.952C206.464 24.952 209.872 25.696 212.944 27.184C216.064 28.624 218.512 30.592 220.288 33.088C222.112 35.584 223.024 38.344 223.024 41.368V60.232C223.024 63.256 222.112 66.016 220.288 68.512C218.512 71.008 216.064 73 212.944 74.488C209.872 75.928 206.464 76.648 202.72 76.648ZM202.72 68.224C205.984 68.224 208.576 67.48 210.496 65.992C212.416 64.456 213.376 62.44 213.376 59.944V41.656C213.376 39.16 212.416 37.168 210.496 35.68C208.576 34.144 205.984 33.376 202.72 33.376C199.456 33.376 196.864 34.144 194.944 35.68C193.024 37.168 192.064 39.16 192.064 41.656V59.944C192.064 62.44 193.024 64.456 194.944 65.992C196.864 67.48 199.456 68.224 202.72 68.224ZM235.046 76.648C232.79 76.648 230.942 75.832 229.502 74.2L246.71 50.08L230.294 26.752C230.822 26.224 231.542 25.792 232.454 25.456C233.414 25.12 234.398 24.952 235.406 24.952C236.798 24.952 238.094 25.192 239.294 25.672C240.494 26.104 241.334 26.704 241.814 27.472L251.462 42.16L249.518 44.968L250.238 45.472L262.334 27.472C262.814 26.704 263.654 26.104 264.854 25.672C266.054 25.192 267.35 24.952 268.742 24.952C269.75 24.952 270.71 25.12 271.622 25.456C272.582 25.792 273.326 26.224 273.854 26.752L257.438 50.08L274.646 74.2C273.158 75.832 271.31 76.648 269.102 76.648C266.654 76.648 264.806 75.76 263.558 73.984L252.038 57.064L240.59 73.984C240.014 74.8 239.222 75.448 238.214 75.928C237.254 76.408 236.198 76.648 235.046 76.648Z" fill="#020202"/>
</g>
<defs>
<filter id="filter0_i_348_440" x="0" y="0" width="285" height="91" filterUnits="userSpaceOnUse" color-interpolation-filters="sRGB">
<feFlood flood-opacity="0" result="BackgroundImageFix"/>
<feBlend mode="normal" in="SourceGraphic" in2="BackgroundImageFix" result="shape"/>
<feColorMatrix in="SourceAlpha" type="matrix" values="0 0 0 0 0 0 0 0 0 0 0 0 0 0 0 0 0 0 127 0" result="hardAlpha"/>
<feOffset dy="4"/>
<feGaussianBlur stdDeviation="2"/>
<feComposite in2="hardAlpha" operator="arithmetic" k2="-1" k3="1"/>
<feColorMatrix type="matrix" values="0 0 0 0 0 0 0 0 0 0 0 0 0 0 0 0 0 0 0.25 0"/>
<feBlend mode="normal" in2="shape" result="effect1_innerShadow_348_440"/>
</filter>
<filter id="filter1_d_348_440" x="84.0161" y="24.952" width="194.629" height="59.6959" filterUnits="userSpaceOnUse" color-interpolation-filters="sRGB">
<feFlood flood-opacity="0" result="BackgroundImageFix"/>
<feColorMatrix in="SourceAlpha" type="matrix" values="0 0 0 0 0 0 0 0 0 0 0 0 0 0 0 0 0 0 127 0" result="hardAlpha"/>
<feOffset dy="4"/>
<feGaussianBlur stdDeviation="2"/>
<feComposite in2="hardAlpha" operator="out"/>
<feColorMatrix type="matrix" values="0 0 0 0 0 0 0 0 0 0 0 0 0 0 0 0 0 0 0.25 0"/>
<feBlend mode="normal" in2="BackgroundImageFix" result="effect1_dropShadow_348_440"/>
<feBlend mode="normal" in="SourceGraphic" in2="effect1_dropShadow_348_440" result="shape"/>
</filter>
</defs>
</svg>
