<svg width="285" height="384" viewBox="0 0 285 384" fill="none" xmlns="http://www.w3.org/2000/svg">
<rect x="0.5" y="0.5" width="284" height="383" rx="9.5" fill="url(#paint0_linear_321_364)" stroke="#EAEAEA"/>
<path d="M105.448 193.152C94.696 193.152 86.2053 190.805 79.976 186.112C73.832 181.419 70.76 174.976 70.76 166.784C70.76 156.373 76.4773 149.035 87.912 144.768C83.3893 142.805 79.8907 140.203 77.416 136.96C75.0267 133.632 73.832 129.835 73.832 125.568C73.832 120.789 75.1547 116.565 77.8 112.896C80.4453 109.227 84.1573 106.368 88.936 104.32C93.7147 102.272 99.2187 101.248 105.448 101.248C111.677 101.248 117.181 102.272 121.96 104.32C126.739 106.283 130.451 109.141 133.096 112.896C135.741 116.565 137.064 120.789 137.064 125.568C137.064 129.835 135.827 133.632 133.352 136.96C130.963 140.203 127.507 142.805 122.984 144.768C134.419 149.035 140.136 156.373 140.136 166.784C140.136 174.976 137.064 181.419 130.92 186.112C124.776 190.805 116.285 193.152 105.448 193.152ZM105.448 140.288C111.507 140.288 116.285 139.008 119.784 136.448C123.368 133.888 125.16 130.389 125.16 125.952C125.16 121.259 123.496 117.717 120.168 115.328C116.84 112.853 111.933 111.616 105.448 111.616C98.9627 111.616 94.056 112.853 90.728 115.328C87.4 117.717 85.736 121.259 85.736 125.952C85.736 130.304 87.528 133.803 91.112 136.448C94.696 139.008 99.4747 140.288 105.448 140.288ZM105.448 182.784C112.957 182.784 118.632 181.419 122.472 178.688C126.312 175.872 128.232 171.819 128.232 166.528C128.232 161.152 126.269 157.013 122.344 154.112C118.419 151.211 112.787 149.76 105.448 149.76C98.1947 149.76 92.5627 151.253 88.552 154.24C84.6267 157.141 82.664 161.237 82.664 166.528C82.664 171.819 84.584 175.872 88.424 178.688C92.3493 181.419 98.024 182.784 105.448 182.784ZM186.323 193.152C175.571 193.152 167.08 190.805 160.851 186.112C154.707 181.419 151.635 174.976 151.635 166.784C151.635 156.373 157.352 149.035 168.787 144.768C164.264 142.805 160.766 140.203 158.291 136.96C155.902 133.632 154.707 129.835 154.707 125.568C154.707 120.789 156.03 116.565 158.675 112.896C161.32 109.227 165.032 106.368 169.811 104.32C174.59 102.272 180.094 101.248 186.323 101.248C192.552 101.248 198.056 102.272 202.835 104.32C207.614 106.283 211.326 109.141 213.971 112.896C216.616 116.565 217.939 120.789 217.939 125.568C217.939 129.835 216.702 133.632 214.227 136.96C211.838 140.203 208.382 142.805 203.859 144.768C215.294 149.035 221.011 156.373 221.011 166.784C221.011 174.976 217.939 181.419 211.795 186.112C205.651 190.805 197.16 193.152 186.323 193.152ZM186.323 140.288C192.382 140.288 197.16 139.008 200.659 136.448C204.243 133.888 206.035 130.389 206.035 125.952C206.035 121.259 204.371 117.717 201.043 115.328C197.715 112.853 192.808 111.616 186.323 111.616C179.838 111.616 174.931 112.853 171.603 115.328C168.275 117.717 166.611 121.259 166.611 125.952C166.611 130.304 168.403 133.803 171.987 136.448C175.571 139.008 180.35 140.288 186.323 140.288ZM186.323 182.784C193.832 182.784 199.507 181.419 203.347 178.688C207.187 175.872 209.107 171.819 209.107 166.528C209.107 161.152 207.144 157.013 203.219 154.112C199.294 151.211 193.662 149.76 186.323 149.76C179.07 149.76 173.438 151.253 169.427 154.24C165.502 157.141 163.539 161.237 163.539 166.528C163.539 171.819 165.459 175.872 169.299 178.688C173.224 181.419 178.899 182.784 186.323 182.784Z" fill="black"/>
<path d="M134.457 220.568C134.361 220.749 134.222 220.893 134.041 221C133.86 221.096 133.652 221.144 133.417 221.144C133.214 221.144 133.033 221.096 132.873 221C132.713 220.915 132.558 220.771 132.409 220.568L130.297 217.448L129.209 218.456V219.928C129.209 220.355 129.044 220.664 128.713 220.856C128.393 221.048 127.902 221.144 127.241 221.144V211.192C127.241 210.168 127.908 209.656 129.241 209.656V216.264L132.905 212.856C133.438 213.272 133.705 213.613 133.705 213.88C133.705 214.051 133.657 214.2 133.561 214.328C133.476 214.456 133.337 214.605 133.145 214.776L131.465 216.344L134.457 220.568ZM135.96 214.392C135.96 213.901 136.114 213.523 136.424 213.256C136.733 212.989 137.202 212.856 137.832 212.856V213.816C137.64 214.051 137.512 214.221 137.448 214.328L137.56 214.392C137.89 213.891 138.242 213.512 138.616 213.256C138.989 212.989 139.432 212.856 139.944 212.856C140.872 212.856 141.512 213.309 141.864 214.216C142.13 213.789 142.472 213.459 142.888 213.224C143.304 212.979 143.773 212.856 144.296 212.856C145.021 212.856 145.597 213.123 146.024 213.656C146.461 214.179 146.68 214.851 146.68 215.672V219.928C146.68 220.355 146.514 220.664 146.184 220.856C145.864 221.048 145.373 221.144 144.712 221.144V215.832C144.712 215.437 144.621 215.123 144.44 214.888C144.269 214.653 144.002 214.536 143.64 214.536C143.256 214.536 142.93 214.669 142.664 214.936C142.408 215.192 142.28 215.597 142.28 216.152V219.928C142.28 220.355 142.12 220.664 141.8 220.856C141.49 221.048 141.005 221.144 140.344 221.144V215.832C140.344 215.427 140.258 215.112 140.088 214.888C139.917 214.653 139.65 214.536 139.288 214.536C138.84 214.536 138.498 214.691 138.264 215C138.04 215.299 137.928 215.709 137.928 216.232V219.928C137.928 220.355 137.762 220.664 137.432 220.856C137.112 221.048 136.621 221.144 135.96 221.144V214.392ZM153.708 209.912C153.814 209.688 153.974 209.517 154.188 209.4C154.412 209.272 154.657 209.208 154.924 209.208C155.361 209.208 155.756 209.347 156.108 209.624L150.508 220.872C150.39 221.096 150.225 221.267 150.012 221.384C149.798 221.512 149.558 221.576 149.292 221.576C148.886 221.576 148.497 221.432 148.124 221.144L153.708 209.912ZM157.663 211.192C157.663 210.701 157.833 210.323 158.175 210.056C158.516 209.789 159.007 209.656 159.647 209.656V213.816C159.508 213.965 159.38 214.136 159.263 214.328L159.359 214.392C160.095 213.368 161.033 212.856 162.175 212.856C162.719 212.856 163.199 212.979 163.615 213.224C164.031 213.469 164.351 213.805 164.575 214.232C164.809 214.659 164.927 215.139 164.927 215.672V219.928C164.927 220.355 164.761 220.664 164.431 220.856C164.1 221.048 163.599 221.144 162.927 221.144V215.96C162.927 215.555 162.804 215.224 162.559 214.968C162.324 214.712 161.977 214.584 161.519 214.584C160.975 214.584 160.527 214.755 160.175 215.096C159.823 215.427 159.647 215.843 159.647 216.344V219.928C159.647 220.355 159.481 220.664 159.151 220.856C158.82 221.048 158.324 221.144 157.663 221.144V211.192Z" fill="black"/>
<g filter="url(#filter0_i_321_364)">
<circle cx="146" cy="158" r="100" fill="#D9D9D9" fill-opacity="0.11"/>
</g>
<g clip-path="url(#clip0_321_364)">
<path d="M17.459 7.96701C15.3987 7.05126 12.9215 8.17551 12.674 10.5718C12.5574 11.7108 12.4993 12.855 12.5 14C12.5 15.2975 12.5727 16.4518 12.6732 17.4275C12.9207 19.8245 15.3987 20.9488 17.459 20.033L17.6277 19.958C18.7803 19.4457 19.7595 18.6102 20.4467 17.5526C21.1339 16.495 21.4997 15.2609 21.4997 13.9996C21.4997 12.7384 21.1339 11.5042 20.4467 10.4467C19.7595 9.3891 18.7803 8.55355 17.6277 8.04126L17.459 7.96626V7.96701ZM7.25 9.50001C7.05109 9.50001 6.86032 9.57903 6.71967 9.71968C6.57902 9.86033 6.5 10.0511 6.5 10.25C6.5 10.4489 6.57902 10.6397 6.71967 10.7803C6.86032 10.921 7.05109 11 7.25 11H11C11.1989 11 11.3897 10.921 11.5303 10.7803C11.671 10.6397 11.75 10.4489 11.75 10.25C11.75 10.0511 11.671 9.86033 11.5303 9.71968C11.3897 9.57903 11.1989 9.50001 11 9.50001H7.25ZM7.25 13.25C7.05109 13.25 6.86032 13.329 6.71967 13.4697C6.57902 13.6103 6.5 13.8011 6.5 14C6.5 14.1989 6.57902 14.3897 6.71967 14.5303C6.86032 14.671 7.05109 14.75 7.25 14.75H11C11.1989 14.75 11.3897 14.671 11.5303 14.5303C11.671 14.3897 11.75 14.1989 11.75 14C11.75 13.8011 11.671 13.6103 11.5303 13.4697C11.3897 13.329 11.1989 13.25 11 13.25H7.25ZM6.5 17.75C6.5 17.5511 6.57902 17.3603 6.71967 17.2197C6.86032 17.079 7.05109 17 7.25 17H11C11.1989 17 11.3897 17.079 11.5303 17.2197C11.671 17.3603 11.75 17.5511 11.75 17.75C11.75 17.9489 11.671 18.1397 11.5303 18.2803C11.3897 18.421 11.1989 18.5 11 18.5H7.25C7.05109 18.5 6.86032 18.421 6.71967 18.2803C6.57902 18.1397 6.5 17.9489 6.5 17.75Z" fill="black"/>
</g>
<path d="M269.556 6.33333C269.556 5.97971 269.696 5.64057 269.946 5.39052C270.196 5.14048 270.535 5 270.889 5H272.667C273.02 5 273.359 5.14048 273.609 5.39052C273.86 5.64057 274 5.97971 274 6.33333V19.6667C274 20.0203 273.86 20.3594 273.609 20.6095C273.359 20.8595 273.02 21 272.667 21H270.889C270.535 21 270.196 20.8595 269.946 20.6095C269.696 20.3594 269.556 20.0203 269.556 19.6667V6.33333ZM263.778 11.6667C263.778 11.313 263.918 10.9739 264.168 10.7239C264.418 10.4738 264.757 10.3333 265.111 10.3333H266.889C267.243 10.3333 267.582 10.4738 267.832 10.7239C268.082 10.9739 268.222 11.313 268.222 11.6667V19.6667C268.222 20.0203 268.082 20.3594 267.832 20.6095C267.582 20.8595 267.243 21 266.889 21H265.111C264.757 21 264.418 20.8595 264.168 20.6095C263.918 20.3594 263.778 20.0203 263.778 19.6667V11.6667ZM259.333 15.6667C258.98 15.6667 258.641 15.8071 258.391 16.0572C258.14 16.3072 258 16.6464 258 17V19.6667C258 20.0203 258.14 20.3594 258.391 20.6095C258.641 20.8595 258.98 21 259.333 21H261.111C261.465 21 261.804 20.8595 262.054 20.6095C262.304 20.3594 262.444 20.0203 262.444 19.6667V17C262.444 16.6464 262.304 16.3072 262.054 16.0572C261.804 15.8071 261.465 15.6667 261.111 15.6667H259.333Z" fill="#FFB636"/>
<path d="M112.744 16C112.399 16 112.082 15.9113 111.792 15.734C111.512 15.5473 111.288 15.3047 111.12 15.006C110.952 14.7073 110.868 14.39 110.868 14.054V7.824C110.868 7.47867 110.952 7.16133 111.12 6.872C111.288 6.58267 111.512 6.354 111.792 6.186C112.082 6.00867 112.399 5.92 112.744 5.92H119.016C119.362 5.92 119.674 6.00867 119.954 6.186C120.244 6.354 120.472 6.58267 120.64 6.872C120.808 7.16133 120.892 7.47867 120.892 7.824V14.054C120.892 14.39 120.808 14.7073 120.64 15.006C120.472 15.3047 120.244 15.5473 119.954 15.734C119.674 15.9113 119.362 16 119.016 16H112.744ZM113.206 14.25H118.974C119.04 14.25 119.096 14.2267 119.142 14.18C119.198 14.124 119.226 14.0633 119.226 13.998V9.252L113.206 14.25ZM112.534 12.626L118.554 7.628H112.8C112.726 7.628 112.66 7.656 112.604 7.712C112.558 7.75867 112.534 7.81467 112.534 7.88V12.626ZM122.544 16V12.15C122.544 11.8047 122.628 11.492 122.796 11.212C122.964 10.9227 123.188 10.6987 123.468 10.54C123.757 10.372 124.075 10.288 124.42 10.288H130.65C130.715 10.288 130.771 10.2647 130.818 10.218C130.874 10.162 130.902 10.0967 130.902 10.022V7.852C130.902 7.77733 130.874 7.71667 130.818 7.67C130.771 7.614 130.715 7.586 130.65 7.586H124.476C124.401 7.586 124.336 7.614 124.28 7.67C124.233 7.71667 124.21 7.77733 124.21 7.852V8.468H122.544V7.796C122.544 7.44133 122.628 7.124 122.796 6.844C122.964 6.564 123.188 6.34 123.468 6.172C123.757 6.004 124.075 5.92 124.42 5.92H130.692C131.037 5.92 131.35 6.004 131.63 6.172C131.919 6.34 132.148 6.564 132.316 6.844C132.484 7.124 132.568 7.44133 132.568 7.796V10.078C132.568 10.4233 132.484 10.7407 132.316 11.03C132.148 11.31 131.919 11.5387 131.63 11.716C131.35 11.884 131.037 11.968 130.692 11.968H124.476C124.401 11.968 124.336 11.9913 124.28 12.038C124.233 12.0847 124.21 12.1453 124.21 12.22V14.068C124.21 14.1427 124.233 14.208 124.28 14.264C124.336 14.3107 124.401 14.334 124.476 14.334H132.568V16H122.544ZM134.123 9.504V7.824H135.789V9.504H134.123ZM134.123 16V14.334H135.789V16H134.123ZM137.405 16V12.15C137.405 11.8047 137.489 11.492 137.657 11.212C137.825 10.9227 138.049 10.6987 138.329 10.54C138.619 10.372 138.936 10.288 139.281 10.288H145.511C145.577 10.288 145.633 10.2647 145.679 10.218C145.735 10.162 145.763 10.0967 145.763 10.022V7.852C145.763 7.77733 145.735 7.71667 145.679 7.67C145.633 7.614 145.577 7.586 145.511 7.586H139.337C139.263 7.586 139.197 7.614 139.141 7.67C139.095 7.71667 139.071 7.77733 139.071 7.852V8.468H137.405V7.796C137.405 7.44133 137.489 7.124 137.657 6.844C137.825 6.564 138.049 6.34 138.329 6.172C138.619 6.004 138.936 5.92 139.281 5.92H145.553C145.899 5.92 146.211 6.004 146.491 6.172C146.781 6.34 147.009 6.564 147.177 6.844C147.345 7.124 147.429 7.44133 147.429 7.796V10.078C147.429 10.4233 147.345 10.7407 147.177 11.03C147.009 11.31 146.781 11.5387 146.491 11.716C146.211 11.884 145.899 11.968 145.553 11.968H139.337C139.263 11.968 139.197 11.9913 139.141 12.038C139.095 12.0847 139.071 12.1453 139.071 12.22V14.068C139.071 14.1427 139.095 14.208 139.141 14.264C139.197 14.3107 139.263 14.334 139.337 14.334H147.429V16H137.405ZM151.421 16V8.244L150.455 9.434H148.243L151.197 5.92H153.101V16H151.421ZM158.651 16V5.934H166.841C167.187 5.934 167.499 6.02267 167.779 6.2C168.069 6.368 168.297 6.59667 168.465 6.886C168.643 7.166 168.731 7.47867 168.731 7.824V10.596C168.731 10.932 168.643 11.2447 168.465 11.534C168.297 11.8233 168.069 12.052 167.779 12.22C167.499 12.388 167.187 12.472 166.841 12.472L160.331 12.486V16H158.651ZM160.583 10.778H166.785C166.851 10.778 166.907 10.7547 166.953 10.708C167.009 10.6613 167.037 10.6007 167.037 10.526V7.866C167.037 7.80067 167.009 7.74467 166.953 7.698C166.907 7.642 166.851 7.614 166.785 7.614H160.583C160.518 7.614 160.457 7.642 160.401 7.698C160.355 7.74467 160.331 7.80067 160.331 7.866V10.526C160.331 10.6007 160.355 10.6613 160.401 10.708C160.457 10.7547 160.518 10.778 160.583 10.778ZM169.725 16V5.92H171.643L175.423 10.428L179.189 5.92H181.121V16H179.427V8.272L175.423 13.046L171.405 8.286V16H169.725Z" fill="black"/>
<path d="M182 308.5H143C137.753 308.5 133.5 304.247 133.5 299V287C133.5 281.753 137.753 277.5 143 277.5H182C187.247 277.5 191.5 281.753 191.5 287V299C191.5 304.247 187.247 308.5 182 308.5Z" fill="white" stroke="black"/>
<path d="M161.444 298.144C160.484 298.144 159.647 298.027 158.932 297.792C158.218 297.557 157.668 297.227 157.284 296.8C156.911 296.363 156.724 295.856 156.724 295.28C156.724 294.405 157.316 293.968 158.5 293.968C158.543 294.779 158.815 295.392 159.316 295.808C159.828 296.224 160.543 296.432 161.46 296.432C162.218 296.432 162.804 296.304 163.22 296.048C163.636 295.781 163.844 295.413 163.844 294.944C163.844 294.635 163.764 294.384 163.604 294.192C163.444 293.989 163.172 293.813 162.788 293.664C162.404 293.504 161.844 293.344 161.108 293.184C160.063 292.939 159.236 292.667 158.628 292.368C158.031 292.069 157.599 291.712 157.332 291.296C157.066 290.869 156.932 290.341 156.932 289.712C156.932 289.104 157.108 288.571 157.46 288.112C157.823 287.653 158.33 287.296 158.98 287.04C159.642 286.784 160.399 286.656 161.252 286.656C162.074 286.656 162.804 286.768 163.444 286.992C164.095 287.205 164.602 287.509 164.964 287.904C165.338 288.299 165.524 288.752 165.524 289.264C165.524 290.053 164.954 290.464 163.812 290.496C163.748 289.76 163.514 289.221 163.108 288.88C162.703 288.539 162.084 288.368 161.252 288.368C160.538 288.368 159.988 288.485 159.604 288.72C159.22 288.955 159.028 289.285 159.028 289.712C159.028 290.011 159.103 290.261 159.252 290.464C159.402 290.656 159.652 290.827 160.004 290.976C160.356 291.115 160.858 291.259 161.508 291.408C162.607 291.653 163.476 291.931 164.116 292.24C164.756 292.539 165.22 292.907 165.508 293.344C165.796 293.771 165.94 294.299 165.94 294.928C165.94 295.579 165.754 296.149 165.38 296.64C165.018 297.12 164.495 297.493 163.812 297.76C163.14 298.016 162.351 298.144 161.444 298.144Z" fill="#FF0000"/>
<path d="M173.369 287.776C173.369 287.499 173.47 287.269 173.673 287.088C173.876 286.896 174.132 286.8 174.441 286.8H178.713C179.865 286.8 180.756 287.104 181.385 287.712C182.025 288.32 182.345 289.173 182.345 290.272C182.345 290.901 182.217 291.435 181.961 291.872C181.705 292.299 181.316 292.64 180.793 292.896V292.944C181.732 293.36 182.201 294.149 182.201 295.312V296.56C182.201 297.072 182.02 297.467 181.657 297.744C181.294 298.011 180.761 298.144 180.057 298.144V295.408C180.057 294.843 179.945 294.427 179.721 294.16C179.497 293.893 179.156 293.76 178.697 293.76H175.481V296.56C175.481 297.083 175.3 297.477 174.937 297.744C174.585 298.011 174.062 298.144 173.369 298.144V287.776ZM178.601 291.936C179.113 291.936 179.508 291.792 179.785 291.504C180.062 291.205 180.201 290.789 180.201 290.256C180.201 289.168 179.668 288.624 178.601 288.624H175.481V291.936H178.601Z" fill="#001791"/>
<path d="M140 308H111C106.029 308 102 303.971 102 299V287C102 282.029 106.029 278 111 278H140C144.971 278 149 282.029 149 287V299C149 303.971 144.971 308 140 308Z" fill="white" stroke="black" stroke-width="2"/>
<path d="M110.913 287.776C110.913 287.509 111.014 287.28 111.217 287.088C111.43 286.896 111.686 286.8 111.985 286.8H119.121C119.121 287.44 119.009 287.909 118.785 288.208C118.571 288.496 118.219 288.64 117.729 288.64H113.057V291.424H117.313C117.313 292.064 117.201 292.533 116.977 292.832C116.763 293.12 116.411 293.264 115.921 293.264H113.057V296.16H118.065C118.545 296.16 118.891 296.309 119.105 296.608C119.329 296.896 119.441 297.36 119.441 298H111.985C111.686 298 111.43 297.909 111.217 297.728C111.014 297.536 110.913 297.301 110.913 297.024V287.776ZM124.88 298.144C123.931 298.144 123.083 297.963 122.336 297.6C121.6 297.237 121.024 296.731 120.608 296.08C120.192 295.429 119.984 294.688 119.984 293.856V290.912C119.984 290.08 120.187 289.344 120.592 288.704C121.008 288.053 121.579 287.552 122.304 287.2C123.029 286.837 123.861 286.656 124.8 286.656C125.739 286.656 126.571 286.8 127.296 287.088C128.032 287.365 128.603 287.76 129.008 288.272C129.413 288.773 129.616 289.349 129.616 290C129.616 290.395 129.483 290.709 129.216 290.944C128.96 291.168 128.613 291.28 128.176 291.28C127.963 291.28 127.728 291.248 127.472 291.184C127.493 290.928 127.504 290.677 127.504 290.432C127.504 289.867 127.253 289.408 126.752 289.056C126.251 288.704 125.6 288.528 124.8 288.528C124.011 288.528 123.365 288.752 122.864 289.2C122.373 289.637 122.128 290.208 122.128 290.912V293.856C122.128 294.571 122.384 295.152 122.896 295.6C123.408 296.048 124.069 296.272 124.88 296.272C125.68 296.272 126.331 296.096 126.832 295.744C127.333 295.392 127.584 294.939 127.584 294.384C127.584 294.128 127.573 293.883 127.552 293.648C127.819 293.595 128.043 293.568 128.224 293.568C128.672 293.568 129.029 293.685 129.296 293.92C129.563 294.155 129.696 294.475 129.696 294.88C129.696 295.509 129.493 296.075 129.088 296.576C128.683 297.067 128.112 297.451 127.376 297.728C126.651 298.005 125.819 298.144 124.88 298.144ZM135.657 298.144C134.782 298.144 133.982 297.973 133.257 297.632C132.532 297.28 131.956 296.805 131.529 296.208C131.113 295.611 130.905 294.96 130.905 294.256V290.528C130.905 289.824 131.113 289.179 131.529 288.592C131.956 287.995 132.532 287.525 133.257 287.184C133.982 286.832 134.782 286.656 135.657 286.656C136.532 286.656 137.332 286.832 138.057 287.184C138.793 287.525 139.369 287.995 139.785 288.592C140.212 289.179 140.425 289.824 140.425 290.528V294.256C140.425 294.96 140.212 295.611 139.785 296.208C139.369 296.805 138.793 297.28 138.057 297.632C137.332 297.973 136.532 298.144 135.657 298.144ZM135.657 296.272C136.457 296.272 137.097 296.085 137.577 295.712C138.057 295.328 138.297 294.832 138.297 294.224V290.576C138.297 289.957 138.057 289.461 137.577 289.088C137.097 288.704 136.457 288.512 135.657 288.512C134.868 288.512 134.233 288.704 133.753 289.088C133.273 289.461 133.033 289.957 133.033 290.576V294.224C133.033 294.832 133.273 295.328 133.753 295.712C134.233 296.085 134.868 296.272 135.657 296.272Z" fill="#05ED00"/>
<g filter="url(#filter1_d_321_364)">
<rect x="12" y="342" width="97" height="28" rx="5" fill="#FFE500"/>
<path d="M21.6954 360V351.372H28.7154C29.0114 351.372 29.2794 351.448 29.5194 351.6C29.7674 351.744 29.9634 351.94 30.1074 352.188C30.2594 352.428 30.3354 352.696 30.3354 352.992V355.368C30.3354 355.656 30.2594 355.924 30.1074 356.172C29.9634 356.42 29.7674 356.616 29.5194 356.76C29.2794 356.904 29.0114 356.976 28.7154 356.976L23.1354 356.988V360H21.6954ZM23.3514 355.524H28.6674C28.7234 355.524 28.7714 355.504 28.8114 355.464C28.8594 355.424 28.8834 355.372 28.8834 355.308V353.028C28.8834 352.972 28.8594 352.924 28.8114 352.884C28.7714 352.836 28.7234 352.812 28.6674 352.812H23.3514C23.2954 352.812 23.2434 352.836 23.1954 352.884C23.1554 352.924 23.1354 352.972 23.1354 353.028V355.308C23.1354 355.372 23.1554 355.424 23.1954 355.464C23.2434 355.504 23.2954 355.524 23.3514 355.524ZM32.7476 360C32.4516 360 32.1796 359.928 31.9316 359.784C31.6916 359.632 31.4996 359.436 31.3556 359.196C31.2116 358.956 31.1396 358.688 31.1396 358.392V355.8H36.7796V354.696C36.7796 354.632 36.7556 354.58 36.7076 354.54C36.6676 354.492 36.6156 354.468 36.5516 354.468H31.1396V353.04H36.5996C36.9036 353.04 37.1756 353.116 37.4156 353.268C37.6556 353.412 37.8476 353.604 37.9916 353.844C38.1356 354.084 38.2076 354.352 38.2076 354.648V360H32.7476ZM32.7956 358.572H36.7796V357.108H32.5676V358.344C32.5676 358.408 32.5876 358.464 32.6276 358.512C32.6756 358.552 32.7316 358.572 32.7956 358.572ZM39.2724 360V354.648C39.2724 354.352 39.3444 354.084 39.4884 353.844C39.6404 353.604 39.8364 353.412 40.0764 353.268C40.3244 353.116 40.5924 353.04 40.8804 353.04H44.7564V354.468H40.9284C40.8644 354.468 40.8084 354.492 40.7604 354.54C40.7204 354.58 40.7004 354.632 40.7004 354.696V360H39.2724ZM45.5191 360V350.76H46.9471V355.8H48.3511L50.8951 353.04H52.4791V353.376L49.6231 356.52L52.4791 359.664V360H50.8951L48.3511 357.24H46.9471V360H45.5191ZM56.8991 360V352.98C56.8991 352.684 56.9711 352.412 57.1151 352.164C57.2591 351.916 57.4551 351.72 57.7031 351.576C57.9511 351.432 58.2231 351.36 58.5191 351.36H63.9191C64.2151 351.36 64.4831 351.432 64.7231 351.576C64.9711 351.72 65.1671 351.916 65.3111 352.164C65.4631 352.412 65.5391 352.684 65.5391 352.98V360H64.0871V357.036H58.3391V360H56.8991ZM58.3391 355.596H64.0871V353.028C64.0871 352.964 64.0631 352.912 64.0151 352.872C63.9751 352.832 63.9271 352.812 63.8711 352.812H58.5551C58.4991 352.812 58.4471 352.832 58.3991 352.872C58.3591 352.912 58.3391 352.964 58.3391 353.028V355.596ZM68.4184 360C68.1224 360 67.8544 359.928 67.6144 359.784C67.3744 359.632 67.1784 359.436 67.0264 359.196C66.8824 358.956 66.8104 358.688 66.8104 358.392V358.164H68.2384V358.344C68.2384 358.408 68.2584 358.464 68.2984 358.512C68.3464 358.552 68.4024 358.572 68.4664 358.572H72.2224C72.2864 358.572 72.3384 358.552 72.3784 358.512C72.4264 358.464 72.4504 358.408 72.4504 358.344V357.456C72.4504 357.4 72.4264 357.352 72.3784 357.312C72.3384 357.264 72.2864 357.24 72.2224 357.24H68.4184C68.1224 357.24 67.8544 357.168 67.6144 357.024C67.3744 356.872 67.1784 356.676 67.0264 356.436C66.8824 356.196 66.8104 355.928 66.8104 355.632V354.648C66.8104 354.352 66.8824 354.084 67.0264 353.844C67.1784 353.604 67.3744 353.412 67.6144 353.268C67.8544 353.116 68.1224 353.04 68.4184 353.04H72.2704C72.5744 353.04 72.8464 353.116 73.0864 353.268C73.3264 353.412 73.5184 353.604 73.6624 353.844C73.8144 354.084 73.8904 354.352 73.8904 354.648V354.876H72.4504V354.696C72.4504 354.632 72.4264 354.58 72.3784 354.54C72.3384 354.492 72.2864 354.468 72.2224 354.468H68.4664C68.4024 354.468 68.3464 354.492 68.2984 354.54C68.2584 354.58 68.2384 354.632 68.2384 354.696V355.584C68.2384 355.64 68.2584 355.692 68.2984 355.74C68.3464 355.78 68.4024 355.8 68.4664 355.8H72.2704C72.5744 355.8 72.8464 355.876 73.0864 356.028C73.3264 356.172 73.5184 356.364 73.6624 356.604C73.8144 356.844 73.8904 357.112 73.8904 357.408V358.392C73.8904 358.688 73.8144 358.956 73.6624 359.196C73.5184 359.436 73.3264 359.632 73.0864 359.784C72.8464 359.928 72.5744 360 72.2704 360H68.4184ZM76.6449 360C76.3489 360 76.0809 359.928 75.8409 359.784C75.6009 359.632 75.4049 359.436 75.2529 359.196C75.1089 358.956 75.0369 358.688 75.0369 358.392V358.164H76.4649V358.344C76.4649 358.408 76.4849 358.464 76.5249 358.512C76.5729 358.552 76.6289 358.572 76.6929 358.572H80.4489C80.5129 358.572 80.5649 358.552 80.6049 358.512C80.6529 358.464 80.6769 358.408 80.6769 358.344V357.456C80.6769 357.4 80.6529 357.352 80.6049 357.312C80.5649 357.264 80.5129 357.24 80.4489 357.24H76.6449C76.3489 357.24 76.0809 357.168 75.8409 357.024C75.6009 356.872 75.4049 356.676 75.2529 356.436C75.1089 356.196 75.0369 355.928 75.0369 355.632V354.648C75.0369 354.352 75.1089 354.084 75.2529 353.844C75.4049 353.604 75.6009 353.412 75.8409 353.268C76.0809 353.116 76.3489 353.04 76.6449 353.04H80.4969C80.8009 353.04 81.0729 353.116 81.3129 353.268C81.5529 353.412 81.7449 353.604 81.8889 353.844C82.0409 354.084 82.1169 354.352 82.1169 354.648V354.876H80.6769V354.696C80.6769 354.632 80.6529 354.58 80.6049 354.54C80.5649 354.492 80.5129 354.468 80.4489 354.468H76.6929C76.6289 354.468 76.5729 354.492 76.5249 354.54C76.4849 354.58 76.4649 354.632 76.4649 354.696V355.584C76.4649 355.64 76.4849 355.692 76.5249 355.74C76.5729 355.78 76.6289 355.8 76.6929 355.8H80.4969C80.8009 355.8 81.0729 355.876 81.3129 356.028C81.5529 356.172 81.7449 356.364 81.8889 356.604C82.0409 356.844 82.1169 357.112 82.1169 357.408V358.392C82.1169 358.688 82.0409 358.956 81.8889 359.196C81.7449 359.436 81.5529 359.632 81.3129 359.784C81.0729 359.928 80.8009 360 80.4969 360H76.6449ZM83.3115 360V353.04H84.7395V360H83.3115ZM83.3115 352.2V350.76H84.7395V352.2H83.3115ZM87.7543 360C87.4583 360 87.1903 359.928 86.9503 359.784C86.7103 359.632 86.5143 359.436 86.3623 359.196C86.2183 358.956 86.1463 358.688 86.1463 358.392V358.164H87.5743V358.344C87.5743 358.408 87.5943 358.464 87.6343 358.512C87.6823 358.552 87.7383 358.572 87.8023 358.572H91.5583C91.6223 358.572 91.6743 358.552 91.7143 358.512C91.7623 358.464 91.7863 358.408 91.7863 358.344V357.456C91.7863 357.4 91.7623 357.352 91.7143 357.312C91.6743 357.264 91.6223 357.24 91.5583 357.24H87.7543C87.4583 357.24 87.1903 357.168 86.9503 357.024C86.7103 356.872 86.5143 356.676 86.3623 356.436C86.2183 356.196 86.1463 355.928 86.1463 355.632V354.648C86.1463 354.352 86.2183 354.084 86.3623 353.844C86.5143 353.604 86.7103 353.412 86.9503 353.268C87.1903 353.116 87.4583 353.04 87.7543 353.04H91.6063C91.9103 353.04 92.1823 353.116 92.4223 353.268C92.6623 353.412 92.8543 353.604 92.9983 353.844C93.1503 354.084 93.2263 354.352 93.2263 354.648V354.876H91.7863V354.696C91.7863 354.632 91.7623 354.58 91.7143 354.54C91.6743 354.492 91.6223 354.468 91.5583 354.468H87.8023C87.7383 354.468 87.6823 354.492 87.6343 354.54C87.5943 354.58 87.5743 354.632 87.5743 354.696V355.584C87.5743 355.64 87.5943 355.692 87.6343 355.74C87.6823 355.78 87.7383 355.8 87.8023 355.8H91.6063C91.9103 355.8 92.1823 355.876 92.4223 356.028C92.6623 356.172 92.8543 356.364 92.9983 356.604C93.1503 356.844 93.2263 357.112 93.2263 357.408V358.392C93.2263 358.688 93.1503 358.956 92.9983 359.196C92.8543 359.436 92.6623 359.632 92.4223 359.784C92.1823 359.928 91.9103 360 91.6063 360H87.7543ZM96.0409 360C95.7449 360 95.4729 359.928 95.2249 359.784C94.9849 359.632 94.7929 359.436 94.6489 359.196C94.5049 358.956 94.4329 358.688 94.4329 358.392V350.868H95.8609V353.04H98.6449V354.468H95.8609V358.344C95.8609 358.408 95.8809 358.464 95.9209 358.512C95.9689 358.552 96.0249 358.572 96.0889 358.572H98.6449V360H96.0409Z" fill="#020202"/>
</g>
<g filter="url(#filter2_d_321_364)">
<g clip-path="url(#clip1_321_364)">
<path fill-rule="evenodd" clip-rule="evenodd" d="M127.401 355.157C127.599 355.418 127.711 355.772 127.711 356.141C127.711 356.51 127.599 356.864 127.401 357.125L123.413 362.378C123.215 362.639 122.945 362.786 122.665 362.786C122.384 362.786 122.115 362.639 121.917 362.378C121.719 362.116 121.607 361.762 121.607 361.393C121.607 361.023 121.719 360.669 121.917 360.408L125.158 356.141L121.917 351.874C121.725 351.611 121.618 351.26 121.62 350.895C121.622 350.529 121.734 350.18 121.93 349.922C122.126 349.663 122.391 349.517 122.668 349.513C122.945 349.51 123.213 349.65 123.412 349.904L127.402 355.156L127.401 355.157Z" fill="black"/>
</g>
<g clip-path="url(#clip2_321_364)">
<path fill-rule="evenodd" clip-rule="evenodd" d="M122.324 355.157C122.522 355.418 122.633 355.772 122.633 356.141C122.633 356.51 122.522 356.864 122.324 357.125L118.336 362.378C118.137 362.639 117.868 362.786 117.588 362.786C117.307 362.786 117.038 362.639 116.84 362.378C116.642 362.116 116.53 361.762 116.53 361.393C116.53 361.023 116.642 360.669 116.84 360.408L120.081 356.141L116.84 351.874C116.648 351.611 116.541 351.26 116.543 350.895C116.545 350.529 116.656 350.18 116.852 349.922C117.048 349.663 117.314 349.517 117.591 349.513C117.868 349.51 118.136 349.65 118.335 349.904L122.325 355.156L122.324 355.157Z" fill="black"/>
</g>
</g>
<path d="M237.982 373.24C236.606 373.24 235.406 373.032 234.382 372.616C233.374 372.2 232.59 371.608 232.03 370.84C231.486 370.072 231.214 369.168 231.214 368.128C231.214 367.232 231.462 366.448 231.958 365.776C232.47 365.088 233.214 364.544 234.19 364.144C233.406 363.744 232.806 363.248 232.39 362.656C231.99 362.064 231.79 361.4 231.79 360.664C231.79 359.752 232.054 358.944 232.582 358.24C233.11 357.52 233.838 356.968 234.766 356.584C235.71 356.184 236.782 355.984 237.982 355.984C239.198 355.984 240.27 356.184 241.198 356.584C242.142 356.968 242.87 357.512 243.382 358.216C243.91 358.92 244.174 359.736 244.174 360.664C244.174 361.416 243.974 362.088 243.574 362.68C243.174 363.256 242.582 363.744 241.798 364.144C242.758 364.544 243.486 365.088 243.982 365.776C244.494 366.448 244.75 367.232 244.75 368.128C244.75 369.168 244.478 370.072 243.934 370.84C243.39 371.608 242.606 372.2 241.582 372.616C240.574 373.032 239.374 373.24 237.982 373.24ZM237.982 363.136C239.022 363.136 239.838 362.928 240.43 362.512C241.038 362.08 241.342 361.504 241.342 360.784C241.342 360 241.054 359.416 240.478 359.032C239.918 358.632 239.086 358.432 237.982 358.432C236.894 358.432 236.062 358.632 235.486 359.032C234.91 359.432 234.622 360.016 234.622 360.784C234.622 361.488 234.926 362.056 235.534 362.488C236.158 362.92 236.974 363.136 237.982 363.136ZM237.982 370.768C239.278 370.768 240.254 370.544 240.91 370.096C241.582 369.632 241.918 368.952 241.918 368.056C241.918 367.16 241.574 366.472 240.886 365.992C240.214 365.496 239.246 365.248 237.982 365.248C236.75 365.248 235.782 365.496 235.078 365.992C234.39 366.488 234.046 367.176 234.046 368.056C234.046 368.936 234.382 369.608 235.054 370.072C235.742 370.536 236.718 370.768 237.982 370.768ZM253.139 373.216C251.939 373.216 250.843 373.024 249.851 372.64C248.859 372.24 248.075 371.696 247.499 371.008C246.939 370.32 246.659 369.56 246.659 368.728C246.659 368.072 246.843 367.592 247.211 367.288C247.579 366.968 248.155 366.808 248.939 366.808L249.395 366.832C249.347 367.12 249.323 367.424 249.323 367.744C249.323 368.672 249.659 369.392 250.331 369.904C251.003 370.416 251.939 370.672 253.139 370.672C254.355 370.672 255.299 370.344 255.971 369.688C256.643 369.032 256.979 368.104 256.979 366.904C256.979 365.736 256.643 364.84 255.971 364.216C255.299 363.592 254.339 363.28 253.091 363.28C251.731 363.28 250.611 363.656 249.731 364.408C249.395 364.68 249.019 364.816 248.603 364.816C248.203 364.816 247.859 364.696 247.571 364.456C247.299 364.2 247.163 363.88 247.163 363.496C247.163 363.4 247.171 363.328 247.187 363.28L248.171 357.232C248.219 356.896 248.363 356.64 248.603 356.464C248.859 356.288 249.187 356.2 249.587 356.2H259.019C259.019 357.848 258.331 358.672 256.955 358.672H250.403L249.947 361.576C249.547 361.848 249.235 362.104 249.011 362.344L249.107 362.488C249.715 361.992 250.443 361.6 251.291 361.312C252.139 361.008 252.963 360.856 253.763 360.856C255.619 360.856 257.083 361.4 258.155 362.488C259.243 363.56 259.787 365.032 259.787 366.904C259.787 368.184 259.515 369.304 258.971 370.264C258.443 371.208 257.675 371.936 256.667 372.448C255.675 372.96 254.499 373.216 253.139 373.216Z" fill="black"/>
<path d="M268.102 372.724C267.95 372.98 267.714 373.108 267.394 373.108C267.242 373.108 267.11 373.076 266.998 373.012C266.894 372.948 266.794 372.844 266.698 372.7L265.006 370.156L264.166 370.924V372.244C264.166 372.548 264.054 372.768 263.83 372.904C263.614 373.04 263.282 373.108 262.834 373.108V365.548C262.834 364.844 263.282 364.492 264.178 364.492V369.46L266.974 366.892C267.318 367.18 267.49 367.412 267.49 367.588C267.49 367.708 267.458 367.812 267.394 367.9C267.338 367.98 267.238 368.088 267.094 368.224L265.798 369.412L268.102 372.724ZM269.338 367.96C269.338 367.248 269.762 366.892 270.61 366.892V367.624C270.482 367.768 270.39 367.892 270.334 367.996L270.394 368.044C270.65 367.668 270.918 367.384 271.198 367.192C271.478 366.992 271.81 366.892 272.194 366.892C272.89 366.892 273.378 367.236 273.658 367.924C273.866 367.596 274.122 367.344 274.426 367.168C274.73 366.984 275.082 366.892 275.482 366.892C276.034 366.892 276.466 367.088 276.778 367.48C277.098 367.872 277.258 368.372 277.258 368.98V372.244C277.258 372.548 277.15 372.768 276.934 372.904C276.718 373.04 276.386 373.108 275.938 373.108V369.088C275.938 368.76 275.866 368.504 275.722 368.32C275.578 368.128 275.358 368.032 275.062 368.032C274.75 368.032 274.486 368.14 274.27 368.356C274.062 368.564 273.958 368.876 273.958 369.292V372.244C273.958 372.548 273.85 372.768 273.634 372.904C273.418 373.04 273.09 373.108 272.65 373.108V369.088C272.65 368.384 272.362 368.032 271.786 368.032C271.442 368.032 271.166 368.152 270.958 368.392C270.758 368.632 270.658 368.944 270.658 369.328V372.244C270.658 372.548 270.55 372.768 270.334 372.904C270.118 373.04 269.786 373.108 269.338 373.108V367.96Z" fill="black"/>
<defs>
<filter id="filter0_i_321_364" x="46" y="58" width="200" height="203" filterUnits="userSpaceOnUse" color-interpolation-filters="sRGB">
<feFlood flood-opacity="0" result="BackgroundImageFix"/>
<feBlend mode="normal" in="SourceGraphic" in2="BackgroundImageFix" result="shape"/>
<feColorMatrix in="SourceAlpha" type="matrix" values="0 0 0 0 0 0 0 0 0 0 0 0 0 0 0 0 0 0 127 0" result="hardAlpha"/>
<feOffset dy="3"/>
<feGaussianBlur stdDeviation="2"/>
<feComposite in2="hardAlpha" operator="arithmetic" k2="-1" k3="1"/>
<feColorMatrix type="matrix" values="0 0 0 0 0 0 0 0 0 0 0 0 0 0 0 0 0 0 0.5 0"/>
<feBlend mode="normal" in2="shape" result="effect1_innerShadow_321_364"/>
</filter>
<filter id="filter1_d_321_364" x="8" y="338" width="113" height="44" filterUnits="userSpaceOnUse" color-interpolation-filters="sRGB">
<feFlood flood-opacity="0" result="BackgroundImageFix"/>
<feColorMatrix in="SourceAlpha" type="matrix" values="0 0 0 0 0 0 0 0 0 0 0 0 0 0 0 0 0 0 127 0" result="hardAlpha"/>
<feOffset dx="4" dy="4"/>
<feGaussianBlur stdDeviation="4"/>
<feComposite in2="hardAlpha" operator="out"/>
<feColorMatrix type="matrix" values="0 0 0 0 0 0 0 0 0 0 0 0 0 0 0 0 0 0 0.25 0"/>
<feBlend mode="normal" in2="BackgroundImageFix" result="effect1_dropShadow_321_364"/>
<feBlend mode="normal" in="SourceGraphic" in2="effect1_dropShadow_321_364" result="shape"/>
</filter>
<filter id="filter2_d_321_364" x="111" y="345" width="30" height="30.282" filterUnits="userSpaceOnUse" color-interpolation-filters="sRGB">
<feFlood flood-opacity="0" result="BackgroundImageFix"/>
<feColorMatrix in="SourceAlpha" type="matrix" values="0 0 0 0 0 0 0 0 0 0 0 0 0 0 0 0 0 0 127 0" result="hardAlpha"/>
<feOffset dx="4" dy="4"/>
<feGaussianBlur stdDeviation="2"/>
<feComposite in2="hardAlpha" operator="out"/>
<feColorMatrix type="matrix" values="0 0 0 0 0 0 0 0 0 0 0 0 0 0 0 0 0 0 0.25 0"/>
<feBlend mode="normal" in2="BackgroundImageFix" result="effect1_dropShadow_321_364"/>
<feBlend mode="normal" in="SourceGraphic" in2="effect1_dropShadow_321_364" result="shape"/>
</filter>
<linearGradient id="paint0_linear_321_364" x1="142.5" y1="0" x2="142.5" y2="384" gradientUnits="userSpaceOnUse">
<stop offset="0.125" stop-color="#A5A5A5" stop-opacity="0"/>
<stop offset="0.760417" stop-color="#C2C2C2" stop-opacity="0.473958"/>
<stop offset="1" stop-color="white" stop-opacity="0"/>
</linearGradient>
<clipPath id="clip0_321_364">
<rect width="18" height="18" fill="white" transform="translate(5 5)"/>
</clipPath>
<clipPath id="clip1_321_364">
<rect width="16.9231" height="22.2821" fill="white" transform="translate(116.077 345)"/>
</clipPath>
<clipPath id="clip2_321_364">
<rect width="16.9231" height="22.2821" fill="white" transform="translate(111 345)"/>
</clipPath>
</defs>
</svg>
