<svg width="884" height="379" viewBox="0 0 884 379" fill="none" xmlns="http://www.w3.org/2000/svg">
<rect width="884" height="379" rx="15" fill="white"/>
<g filter="url(#filter0_d_304_280)">
<path d="M752.5 226.5C752.5 231.471 748.471 235.5 743.5 235.5H679.5C674.529 235.5 670.5 231.471 670.5 226.5V199.5C670.5 194.529 674.529 190.5 679.5 190.5H743.5C748.471 190.5 752.5 194.529 752.5 199.5V226.5Z" fill="white" stroke="black" stroke-width="2"/>
<path d="M707.688 221.716C706.248 221.716 704.992 221.54 703.92 221.188C702.848 220.836 702.024 220.34 701.448 219.7C700.888 219.044 700.608 218.284 700.608 217.42C700.608 216.108 701.496 215.452 703.272 215.452C703.336 216.668 703.744 217.588 704.496 218.212C705.264 218.836 706.336 219.148 707.712 219.148C708.848 219.148 709.728 218.956 710.352 218.572C710.976 218.172 711.288 217.62 711.288 216.916C711.288 216.452 711.168 216.076 710.928 215.788C710.688 215.484 710.28 215.22 709.704 214.996C709.128 214.756 708.288 214.516 707.184 214.276C705.616 213.908 704.376 213.5 703.464 213.052C702.568 212.604 701.92 212.068 701.52 211.444C701.12 210.804 700.92 210.012 700.92 209.068C700.92 208.156 701.184 207.356 701.712 206.668C702.256 205.98 703.016 205.444 703.992 205.06C704.984 204.676 706.12 204.484 707.4 204.484C708.632 204.484 709.728 204.652 710.688 204.988C711.664 205.308 712.424 205.764 712.968 206.356C713.528 206.948 713.808 207.628 713.808 208.396C713.808 209.58 712.952 210.196 711.24 210.244C711.144 209.14 710.792 208.332 710.184 207.82C709.576 207.308 708.648 207.052 707.4 207.052C706.328 207.052 705.504 207.228 704.928 207.58C704.352 207.932 704.064 208.428 704.064 209.068C704.064 209.516 704.176 209.892 704.4 210.196C704.624 210.484 705 210.74 705.528 210.964C706.056 211.172 706.808 211.388 707.784 211.612C709.432 211.98 710.736 212.396 711.696 212.86C712.656 213.308 713.352 213.86 713.784 214.516C714.216 215.156 714.432 215.948 714.432 216.892C714.432 217.868 714.152 218.724 713.592 219.46C713.048 220.18 712.264 220.74 711.24 221.14C710.232 221.524 709.048 221.716 707.688 221.716Z" fill="#FF0000"/>
<path d="M728.389 206.164C728.389 205.748 728.541 205.404 728.845 205.132C729.149 204.844 729.533 204.7 729.997 204.7H736.405C738.133 204.7 739.469 205.156 740.413 206.068C741.373 206.98 741.853 208.26 741.853 209.908C741.853 210.852 741.661 211.652 741.277 212.308C740.893 212.948 740.309 213.46 739.525 213.844V213.916C740.933 214.54 741.637 215.724 741.637 217.468V219.34C741.637 220.108 741.365 220.7 740.821 221.116C740.277 221.516 739.477 221.716 738.421 221.716V217.612C738.421 216.764 738.253 216.14 737.917 215.74C737.581 215.34 737.069 215.14 736.381 215.14H731.557V219.34C731.557 220.124 731.285 220.716 730.741 221.116C730.213 221.516 729.429 221.716 728.389 221.716V206.164ZM736.237 212.404C737.005 212.404 737.597 212.188 738.013 211.756C738.429 211.308 738.637 210.684 738.637 209.884C738.637 208.252 737.837 207.436 736.237 207.436H731.557V212.404H736.237Z" fill="#001791"/>
<path d="M687.109 226.33C687.109 231.3 683.08 235.33 678.109 235.33H627.5C622.529 235.33 618.5 231.3 618.5 226.33V199.5C618.5 194.529 622.529 190.5 627.5 190.5H678.109C683.08 190.5 687.109 194.529 687.109 199.5V226.33Z" fill="white" stroke="black" stroke-width="2"/>
<path d="M631.119 206.164C631.119 205.764 631.271 205.42 631.575 205.132C631.895 204.844 632.279 204.7 632.727 204.7H643.431C643.431 205.66 643.263 206.364 642.927 206.812C642.607 207.244 642.079 207.46 641.343 207.46H634.335V211.636H640.719C640.719 212.596 640.551 213.3 640.215 213.748C639.895 214.18 639.367 214.396 638.631 214.396H634.335V218.74H641.847C642.567 218.74 643.087 218.964 643.407 219.412C643.743 219.844 643.911 220.54 643.911 221.5H632.727C632.279 221.5 631.895 221.364 631.575 221.092C631.271 220.804 631.119 220.452 631.119 220.036V206.164ZM652.07 221.716C650.646 221.716 649.374 221.444 648.254 220.9C647.15 220.356 646.286 219.596 645.662 218.62C645.038 217.644 644.726 216.532 644.726 215.284V210.868C644.726 209.62 645.03 208.516 645.638 207.556C646.262 206.58 647.118 205.828 648.206 205.3C649.294 204.756 650.542 204.484 651.95 204.484C653.358 204.484 654.606 204.7 655.694 205.132C656.798 205.548 657.654 206.14 658.262 206.908C658.87 207.66 659.174 208.524 659.174 209.5C659.174 210.092 658.974 210.564 658.574 210.916C658.19 211.252 657.67 211.42 657.014 211.42C656.694 211.42 656.342 211.372 655.958 211.276C655.99 210.892 656.006 210.516 656.006 210.148C656.006 209.3 655.63 208.612 654.878 208.084C654.126 207.556 653.15 207.292 651.95 207.292C650.766 207.292 649.798 207.628 649.046 208.3C648.31 208.956 647.942 209.812 647.942 210.868V215.284C647.942 216.356 648.326 217.228 649.094 217.9C649.862 218.572 650.854 218.908 652.07 218.908C653.27 218.908 654.246 218.644 654.998 218.116C655.75 217.588 656.126 216.908 656.126 216.076C656.126 215.692 656.11 215.324 656.078 214.972C656.478 214.892 656.814 214.852 657.086 214.852C657.758 214.852 658.294 215.028 658.694 215.38C659.094 215.732 659.294 216.212 659.294 216.82C659.294 217.764 658.99 218.612 658.382 219.364C657.774 220.1 656.918 220.676 655.814 221.092C654.726 221.508 653.478 221.716 652.07 221.716ZM668.235 221.716C666.923 221.716 665.723 221.46 664.635 220.948C663.547 220.42 662.683 219.708 662.043 218.812C661.419 217.916 661.107 216.94 661.107 215.884V210.292C661.107 209.236 661.419 208.268 662.043 207.388C662.683 206.492 663.547 205.788 664.635 205.276C665.723 204.748 666.923 204.484 668.235 204.484C669.547 204.484 670.747 204.748 671.835 205.276C672.939 205.788 673.803 206.492 674.427 207.388C675.067 208.268 675.387 209.236 675.387 210.292V215.884C675.387 216.94 675.067 217.916 674.427 218.812C673.803 219.708 672.939 220.42 671.835 220.948C670.747 221.46 669.547 221.716 668.235 221.716ZM668.235 218.908C669.435 218.908 670.395 218.628 671.115 218.068C671.835 217.492 672.195 216.748 672.195 215.836V210.364C672.195 209.436 671.835 208.692 671.115 208.132C670.395 207.556 669.435 207.268 668.235 207.268C667.051 207.268 666.099 207.556 665.379 208.132C664.659 208.692 664.299 209.436 664.299 210.364V215.836C664.299 216.748 664.659 217.492 665.379 218.068C666.099 218.628 667.051 218.908 668.235 218.908Z" fill="#05ED00"/>
</g>
<path d="M184.663 209.48C181.911 209.48 179.511 209.064 177.463 208.232C175.447 207.4 173.879 206.216 172.759 204.68C171.671 203.144 171.127 201.336 171.127 199.256C171.127 197.464 171.623 195.896 172.615 194.552C173.639 193.176 175.127 192.088 177.079 191.288C175.511 190.488 174.311 189.496 173.479 188.312C172.679 187.128 172.279 185.8 172.279 184.328C172.279 182.504 172.807 180.888 173.863 179.48C174.919 178.04 176.375 176.936 178.231 176.168C180.119 175.368 182.263 174.968 184.663 174.968C187.095 174.968 189.239 175.368 191.095 176.168C192.983 176.936 194.439 178.024 195.463 179.432C196.519 180.84 197.047 182.472 197.047 184.328C197.047 185.832 196.647 187.176 195.847 188.36C195.047 189.512 193.863 190.488 192.295 191.288C194.215 192.088 195.671 193.176 196.663 194.552C197.687 195.896 198.199 197.464 198.199 199.256C198.199 201.336 197.655 203.144 196.567 204.68C195.479 206.216 193.911 207.4 191.863 208.232C189.847 209.064 187.447 209.48 184.663 209.48ZM184.663 189.272C186.743 189.272 188.375 188.856 189.559 188.024C190.775 187.16 191.383 186.008 191.383 184.568C191.383 183 190.807 181.832 189.655 181.064C188.535 180.264 186.871 179.864 184.663 179.864C182.487 179.864 180.823 180.264 179.671 181.064C178.519 181.864 177.943 183.032 177.943 184.568C177.943 185.976 178.551 187.112 179.767 187.976C181.015 188.84 182.647 189.272 184.663 189.272ZM184.663 204.536C187.255 204.536 189.207 204.088 190.519 203.192C191.863 202.264 192.535 200.904 192.535 199.112C192.535 197.32 191.847 195.944 190.471 194.984C189.127 193.992 187.191 193.496 184.663 193.496C182.199 193.496 180.263 193.992 178.855 194.984C177.479 195.976 176.791 197.352 176.791 199.112C176.791 200.872 177.463 202.216 178.807 203.144C180.183 204.072 182.135 204.536 184.663 204.536ZM214.978 209.432C212.578 209.432 210.386 209.048 208.402 208.28C206.418 207.48 204.85 206.392 203.698 205.016C202.578 203.64 202.018 202.12 202.018 200.456C202.018 199.144 202.386 198.184 203.122 197.576C203.858 196.936 205.01 196.616 206.578 196.616L207.49 196.664C207.394 197.24 207.346 197.848 207.346 198.488C207.346 200.344 208.018 201.784 209.362 202.808C210.706 203.832 212.578 204.344 214.978 204.344C217.41 204.344 219.298 203.688 220.642 202.376C221.986 201.064 222.658 199.208 222.658 196.808C222.658 194.472 221.986 192.68 220.642 191.432C219.298 190.184 217.378 189.56 214.882 189.56C212.162 189.56 209.922 190.312 208.162 191.816C207.49 192.36 206.738 192.632 205.906 192.632C205.106 192.632 204.418 192.392 203.842 191.912C203.298 191.4 203.026 190.76 203.026 189.992C203.026 189.8 203.042 189.656 203.074 189.56L205.042 177.464C205.138 176.792 205.426 176.28 205.906 175.928C206.418 175.576 207.074 175.4 207.874 175.4H226.738C226.738 178.696 225.362 180.344 222.61 180.344H209.506L208.594 186.152C207.794 186.696 207.17 187.208 206.722 187.688L206.914 187.976C208.13 186.984 209.586 186.2 211.282 185.624C212.978 185.016 214.626 184.712 216.226 184.712C219.938 184.712 222.866 185.8 225.01 187.976C227.186 190.12 228.274 193.064 228.274 196.808C228.274 199.368 227.73 201.608 226.642 203.528C225.586 205.416 224.05 206.872 222.034 207.896C220.05 208.92 217.698 209.432 214.978 209.432ZM250.384 208.64C250.131 209 249.777 209.18 249.324 209.18C249.097 209.18 248.897 209.133 248.724 209.04C248.551 208.947 248.391 208.787 248.244 208.56L245.244 203.94L243.804 205.24V207.84C243.804 208.733 243.144 209.18 241.824 209.18V196.42C241.824 195.353 242.491 194.82 243.824 194.82L243.804 203.14L248.564 198.84C249.044 199.253 249.284 199.6 249.284 199.88C249.284 200.067 249.237 200.227 249.144 200.36C249.051 200.48 248.884 200.653 248.644 200.88L246.464 202.86L250.384 208.64ZM252.605 200.44C252.605 199.36 253.238 198.82 254.505 198.82V200.08C254.372 200.213 254.225 200.4 254.065 200.64L254.165 200.72C254.592 200.107 255.038 199.64 255.505 199.32C255.972 198.987 256.525 198.82 257.165 198.82C258.365 198.82 259.185 199.393 259.625 200.54C260.372 199.393 261.385 198.82 262.665 198.82C263.598 198.82 264.325 199.14 264.845 199.78C265.378 200.42 265.645 201.253 265.645 202.28V207.82C265.645 208.287 265.478 208.633 265.145 208.86C264.825 209.073 264.332 209.18 263.665 209.18V202.42C263.665 201.153 263.152 200.52 262.125 200.52C261.565 200.52 261.085 200.713 260.685 201.1C260.298 201.473 260.105 202 260.105 202.68V207.82C260.105 208.3 259.945 208.647 259.625 208.86C259.305 209.073 258.818 209.18 258.165 209.18V202.42C258.165 201.833 258.038 201.373 257.785 201.04C257.532 200.693 257.138 200.52 256.605 200.52C256.018 200.52 255.532 200.733 255.145 201.16C254.772 201.573 254.585 202.1 254.585 202.74V207.82C254.585 208.287 254.418 208.633 254.085 208.86C253.765 209.073 253.272 209.18 252.605 209.18V200.44Z" fill="black"/>
<path d="M141.585 223.08H135.325C134.779 223.08 134.359 222.9 134.065 222.54C133.772 222.18 133.625 221.667 133.625 221H143.405C143.752 221 144.025 221.1 144.225 221.3C144.439 221.487 144.545 221.72 144.545 222C144.545 222.173 144.505 222.353 144.425 222.54L138.505 234.38C138.225 234.913 137.785 235.18 137.185 235.18C136.879 235.18 136.612 235.147 136.385 235.08C136.159 235.013 135.945 234.893 135.745 234.72L141.585 223.08ZM151.594 235.2C150.448 235.2 149.448 235.027 148.594 234.68C147.754 234.333 147.101 233.84 146.634 233.2C146.181 232.56 145.954 231.807 145.954 230.94C145.954 230.193 146.161 229.54 146.574 228.98C147.001 228.407 147.621 227.953 148.434 227.62C147.781 227.287 147.281 226.873 146.934 226.38C146.601 225.887 146.434 225.333 146.434 224.72C146.434 223.96 146.654 223.287 147.094 222.7C147.534 222.1 148.141 221.64 148.914 221.32C149.701 220.987 150.594 220.82 151.594 220.82C152.608 220.82 153.501 220.987 154.274 221.32C155.061 221.64 155.668 222.093 156.094 222.68C156.534 223.267 156.754 223.947 156.754 224.72C156.754 225.347 156.588 225.907 156.254 226.4C155.921 226.88 155.428 227.287 154.774 227.62C155.574 227.953 156.181 228.407 156.594 228.98C157.021 229.54 157.234 230.193 157.234 230.94C157.234 231.807 157.008 232.56 156.554 233.2C156.101 233.84 155.448 234.333 154.594 234.68C153.754 235.027 152.754 235.2 151.594 235.2ZM151.594 226.78C152.461 226.78 153.141 226.607 153.634 226.26C154.141 225.9 154.394 225.42 154.394 224.82C154.394 224.167 154.154 223.68 153.674 223.36C153.208 223.027 152.514 222.86 151.594 222.86C150.688 222.86 149.994 223.027 149.514 223.36C149.034 223.693 148.794 224.18 148.794 224.82C148.794 225.407 149.048 225.88 149.554 226.24C150.074 226.6 150.754 226.78 151.594 226.78ZM151.594 233.14C152.674 233.14 153.488 232.953 154.034 232.58C154.594 232.193 154.874 231.627 154.874 230.88C154.874 230.133 154.588 229.56 154.014 229.16C153.454 228.747 152.648 228.54 151.594 228.54C150.568 228.54 149.761 228.747 149.174 229.16C148.601 229.573 148.314 230.147 148.314 230.88C148.314 231.613 148.594 232.173 149.154 232.56C149.728 232.947 150.541 233.14 151.594 233.14ZM169.365 221.04C169.485 220.787 169.659 220.593 169.885 220.46C170.125 220.327 170.385 220.26 170.665 220.26C171.052 220.26 171.432 220.387 171.805 220.64L164.685 234.94C164.552 235.193 164.372 235.387 164.145 235.52C163.919 235.653 163.672 235.72 163.405 235.72C162.992 235.72 162.605 235.587 162.245 235.32L169.365 221.04ZM162.245 229.08C161.632 229.08 161.065 228.96 160.545 228.72C160.039 228.467 159.632 228.133 159.325 227.72C159.032 227.307 158.885 226.853 158.885 226.36V223.54C158.885 223.047 159.032 222.593 159.325 222.18C159.632 221.753 160.039 221.42 160.545 221.18C161.065 220.94 161.632 220.82 162.245 220.82C162.859 220.82 163.419 220.94 163.925 221.18C164.445 221.42 164.852 221.747 165.145 222.16C165.439 222.573 165.585 223.033 165.585 223.54V226.36C165.585 226.853 165.432 227.307 165.125 227.72C164.832 228.133 164.432 228.467 163.925 228.72C163.419 228.96 162.859 229.08 162.245 229.08ZM162.245 227.4C162.659 227.4 162.985 227.3 163.225 227.1C163.479 226.887 163.605 226.62 163.605 226.3V223.58C163.605 223.273 163.479 223.013 163.225 222.8C162.972 222.587 162.645 222.48 162.245 222.48C161.832 222.48 161.492 222.587 161.225 222.8C160.972 223.013 160.845 223.273 160.845 223.58V226.3C160.845 226.62 160.972 226.887 161.225 227.1C161.479 227.3 161.819 227.4 162.245 227.4ZM171.785 235.18C171.172 235.18 170.612 235.06 170.105 234.82C169.599 234.567 169.192 234.233 168.885 233.82C168.592 233.407 168.445 232.953 168.445 232.46V229.64C168.445 229.147 168.592 228.693 168.885 228.28C169.192 227.867 169.599 227.54 170.105 227.3C170.612 227.047 171.172 226.92 171.785 226.92C172.412 226.92 172.979 227.04 173.485 227.28C173.992 227.52 174.392 227.847 174.685 228.26C174.979 228.673 175.125 229.133 175.125 229.64V232.46C175.125 232.953 174.979 233.407 174.685 233.82C174.392 234.233 173.985 234.567 173.465 234.82C172.959 235.06 172.399 235.18 171.785 235.18ZM171.865 233.46C172.279 233.46 172.619 233.36 172.885 233.16C173.152 232.947 173.285 232.687 173.285 232.38V229.72C173.285 229.413 173.145 229.16 172.865 228.96C172.599 228.747 172.265 228.64 171.865 228.64C171.452 228.64 171.105 228.747 170.825 228.96C170.559 229.16 170.425 229.413 170.425 229.72V232.38C170.425 232.687 170.559 232.947 170.825 233.16C171.092 233.36 171.439 233.46 171.865 233.46Z" fill="#05ED00"/>
<path d="M278.508 234C280.441 234 282.008 232.433 282.008 230.5C282.008 228.567 280.441 227 278.508 227V234ZM215.5 234H278.508V227H215.5V234Z" fill="#8F8F8F"/>
<path d="M182.5 227C180.567 227 179 228.567 179 230.5C179 232.433 180.567 234 182.5 234V227ZM254.5 234H258V227H254.5V234ZM182.5 234L254.5 234V227L182.5 227V234Z" fill="#05ED00"/>
<path d="M402.004 217.796C389.908 217.796 380.356 215.156 373.348 209.876C366.436 204.596 362.98 197.348 362.98 188.132C362.98 176.42 369.412 168.164 382.276 163.364C377.188 161.156 373.252 158.228 370.468 154.58C367.78 150.836 366.436 146.564 366.436 141.764C366.436 136.388 367.924 131.636 370.9 127.508C373.876 123.38 378.052 120.164 383.428 117.86C388.804 115.556 394.996 114.404 402.004 114.404C409.012 114.404 415.204 115.556 420.58 117.86C425.956 120.068 430.132 123.284 433.108 127.508C436.084 131.636 437.572 136.388 437.572 141.764C437.572 146.564 436.18 150.836 433.396 154.58C430.708 158.228 426.82 161.156 421.732 163.364C434.596 168.164 441.028 176.42 441.028 188.132C441.028 197.348 437.572 204.596 430.66 209.876C423.748 215.156 414.196 217.796 402.004 217.796ZM402.004 158.324C408.82 158.324 414.196 156.884 418.132 154.004C422.164 151.124 424.18 147.188 424.18 142.196C424.18 136.916 422.308 132.932 418.564 130.244C414.82 127.46 409.3 126.068 402.004 126.068C394.708 126.068 389.188 127.46 385.444 130.244C381.7 132.932 379.828 136.916 379.828 142.196C379.828 147.092 381.844 151.028 385.876 154.004C389.908 156.884 395.284 158.324 402.004 158.324ZM402.004 206.132C410.452 206.132 416.836 204.596 421.156 201.524C425.476 198.356 427.636 193.796 427.636 187.844C427.636 181.796 425.428 177.14 421.012 173.876C416.596 170.612 410.26 168.98 402.004 168.98C393.844 168.98 387.508 170.66 382.996 174.02C378.58 177.284 376.372 181.892 376.372 187.844C376.372 193.796 378.532 198.356 382.852 201.524C387.268 204.596 393.652 206.132 402.004 206.132ZM492.988 217.796C480.892 217.796 471.34 215.156 464.332 209.876C457.42 204.596 453.964 197.348 453.964 188.132C453.964 176.42 460.396 168.164 473.26 163.364C468.172 161.156 464.236 158.228 461.452 154.58C458.764 150.836 457.42 146.564 457.42 141.764C457.42 136.388 458.908 131.636 461.884 127.508C464.86 123.38 469.036 120.164 474.412 117.86C479.788 115.556 485.98 114.404 492.988 114.404C499.996 114.404 506.188 115.556 511.564 117.86C516.94 120.068 521.116 123.284 524.092 127.508C527.068 131.636 528.556 136.388 528.556 141.764C528.556 146.564 527.164 150.836 524.38 154.58C521.692 158.228 517.804 161.156 512.716 163.364C525.58 168.164 532.012 176.42 532.012 188.132C532.012 197.348 528.556 204.596 521.644 209.876C514.732 215.156 505.18 217.796 492.988 217.796ZM492.988 158.324C499.804 158.324 505.18 156.884 509.116 154.004C513.148 151.124 515.164 147.188 515.164 142.196C515.164 136.916 513.292 132.932 509.548 130.244C505.804 127.46 500.284 126.068 492.988 126.068C485.692 126.068 480.172 127.46 476.428 130.244C472.684 132.932 470.812 136.916 470.812 142.196C470.812 147.092 472.828 151.028 476.86 154.004C480.892 156.884 486.268 158.324 492.988 158.324ZM492.988 206.132C501.436 206.132 507.82 204.596 512.14 201.524C516.46 198.356 518.62 193.796 518.62 187.844C518.62 181.796 516.412 177.14 511.996 173.876C507.58 170.612 501.244 168.98 492.988 168.98C484.828 168.98 478.492 170.66 473.98 174.02C469.564 177.284 467.356 181.892 467.356 187.844C467.356 193.796 469.516 198.356 473.836 201.524C478.252 204.596 484.636 206.132 492.988 206.132Z" fill="black"/>
<path d="M436.957 242.068C436.861 242.249 436.722 242.393 436.541 242.5C436.36 242.596 436.152 242.644 435.917 242.644C435.714 242.644 435.533 242.596 435.373 242.5C435.213 242.415 435.058 242.271 434.909 242.068L432.797 238.948L431.709 239.956V241.428C431.709 241.855 431.544 242.164 431.213 242.356C430.893 242.548 430.402 242.644 429.741 242.644V232.692C429.741 231.668 430.408 231.156 431.741 231.156V237.764L435.405 234.356C435.938 234.772 436.205 235.113 436.205 235.38C436.205 235.551 436.157 235.7 436.061 235.828C435.976 235.956 435.837 236.105 435.645 236.276L433.965 237.844L436.957 242.068ZM438.46 235.892C438.46 235.401 438.614 235.023 438.924 234.756C439.233 234.489 439.702 234.356 440.332 234.356V235.316C440.14 235.551 440.012 235.721 439.948 235.828L440.06 235.892C440.39 235.391 440.742 235.012 441.116 234.756C441.489 234.489 441.932 234.356 442.444 234.356C443.372 234.356 444.012 234.809 444.364 235.716C444.63 235.289 444.972 234.959 445.388 234.724C445.804 234.479 446.273 234.356 446.796 234.356C447.521 234.356 448.097 234.623 448.524 235.156C448.961 235.679 449.18 236.351 449.18 237.172V241.428C449.18 241.855 449.014 242.164 448.684 242.356C448.364 242.548 447.873 242.644 447.212 242.644V237.332C447.212 236.937 447.121 236.623 446.94 236.388C446.769 236.153 446.502 236.036 446.14 236.036C445.756 236.036 445.43 236.169 445.164 236.436C444.908 236.692 444.78 237.097 444.78 237.652V241.428C444.78 241.855 444.62 242.164 444.3 242.356C443.99 242.548 443.505 242.644 442.844 242.644V237.332C442.844 236.927 442.758 236.612 442.588 236.388C442.417 236.153 442.15 236.036 441.788 236.036C441.34 236.036 440.998 236.191 440.764 236.5C440.54 236.799 440.428 237.209 440.428 237.732V241.428C440.428 241.855 440.262 242.164 439.932 242.356C439.612 242.548 439.121 242.644 438.46 242.644V235.892ZM456.208 231.412C456.314 231.188 456.474 231.017 456.688 230.9C456.912 230.772 457.157 230.708 457.424 230.708C457.861 230.708 458.256 230.847 458.608 231.124L453.008 242.372C452.89 242.596 452.725 242.767 452.512 242.884C452.298 243.012 452.058 243.076 451.792 243.076C451.386 243.076 450.997 242.932 450.624 242.644L456.208 231.412ZM460.163 232.692C460.163 232.201 460.333 231.823 460.675 231.556C461.016 231.289 461.507 231.156 462.147 231.156V235.316C462.008 235.465 461.88 235.636 461.763 235.828L461.859 235.892C462.595 234.868 463.533 234.356 464.675 234.356C465.219 234.356 465.699 234.479 466.115 234.724C466.531 234.969 466.851 235.305 467.075 235.732C467.309 236.159 467.427 236.639 467.427 237.172V241.428C467.427 241.855 467.261 242.164 466.931 242.356C466.6 242.548 466.099 242.644 465.427 242.644V237.46C465.427 237.055 465.304 236.724 465.059 236.468C464.824 236.212 464.477 236.084 464.019 236.084C463.475 236.084 463.027 236.255 462.675 236.596C462.323 236.927 462.147 237.343 462.147 237.844V241.428C462.147 241.855 461.981 242.164 461.651 242.356C461.32 242.548 460.824 242.644 460.163 242.644V232.692Z" fill="black"/>
<g filter="url(#filter1_i_304_280)">
<circle cx="448" cy="179" r="114.5" fill="#D9D9D9" fill-opacity="0.11"/>
</g>
<path d="M775.948 366C775.543 366 775.175 365.893 774.844 365.68C774.513 365.456 774.247 365.168 774.044 364.816C773.841 364.464 773.74 364.091 773.74 363.696V356.736C773.74 356.32 773.841 355.947 774.044 355.616C774.247 355.275 774.513 355.003 774.844 354.8C775.175 354.587 775.543 354.48 775.948 354.48H782.94C783.345 354.48 783.713 354.587 784.044 354.8C784.375 355.003 784.641 355.275 784.844 355.616C785.047 355.947 785.148 356.32 785.148 356.736V363.696C785.148 364.091 785.047 364.464 784.844 364.816C784.641 365.168 784.375 365.456 784.044 365.68C783.713 365.893 783.345 366 782.94 366H775.948ZM776.796 363.792H782.86C782.913 363.792 782.956 363.776 782.988 363.744C783.031 363.701 783.052 363.653 783.052 363.6V358.576L776.796 363.792ZM775.836 361.84L782.092 356.624H776.028C775.975 356.624 775.927 356.645 775.884 356.688C775.852 356.72 775.836 356.763 775.836 356.816V361.84ZM787.084 366V361.584C787.084 361.168 787.185 360.795 787.388 360.464C787.591 360.133 787.857 359.872 788.188 359.68C788.519 359.477 788.887 359.376 789.292 359.376H796.204C796.257 359.376 796.3 359.36 796.332 359.328C796.375 359.285 796.396 359.237 796.396 359.184V356.768C796.396 356.715 796.375 356.672 796.332 356.64C796.3 356.597 796.257 356.576 796.204 356.576H789.372C789.319 356.576 789.271 356.597 789.228 356.64C789.196 356.672 789.18 356.715 789.18 356.768V357.552H787.084V356.688C787.084 356.272 787.185 355.899 787.388 355.568C787.591 355.237 787.857 354.976 788.188 354.784C788.519 354.581 788.887 354.48 789.292 354.48H796.284C796.689 354.48 797.057 354.581 797.388 354.784C797.729 354.976 797.996 355.237 798.188 355.568C798.391 355.899 798.492 356.272 798.492 356.688V359.28C798.492 359.675 798.391 360.043 798.188 360.384C797.996 360.715 797.729 360.981 797.388 361.184C797.057 361.387 796.689 361.488 796.284 361.488H789.372C789.319 361.488 789.271 361.509 789.228 361.552C789.196 361.584 789.18 361.627 789.18 361.68V363.712C789.18 363.765 789.196 363.813 789.228 363.856C789.271 363.888 789.319 363.904 789.372 363.904H798.492V366H787.084ZM800.317 358.784V356.688H802.413V358.784H800.317ZM800.317 366V363.904H802.413V366H800.317ZM804.162 366V361.584C804.162 361.168 804.263 360.795 804.466 360.464C804.669 360.133 804.935 359.872 805.266 359.68C805.597 359.477 805.965 359.376 806.37 359.376H813.282C813.335 359.376 813.378 359.36 813.41 359.328C813.453 359.285 813.474 359.237 813.474 359.184V356.768C813.474 356.715 813.453 356.672 813.41 356.64C813.378 356.597 813.335 356.576 813.282 356.576H806.45C806.397 356.576 806.349 356.597 806.306 356.64C806.274 356.672 806.258 356.715 806.258 356.768V357.552H804.162V356.688C804.162 356.272 804.263 355.899 804.466 355.568C804.669 355.237 804.935 354.976 805.266 354.784C805.597 354.581 805.965 354.48 806.37 354.48H813.362C813.767 354.48 814.135 354.581 814.466 354.784C814.807 354.976 815.074 355.237 815.266 355.568C815.469 355.899 815.57 356.272 815.57 356.688V359.28C815.57 359.675 815.469 360.043 815.266 360.384C815.074 360.715 814.807 360.981 814.466 361.184C814.135 361.387 813.767 361.488 813.362 361.488H806.45C806.397 361.488 806.349 361.509 806.306 361.552C806.274 361.584 806.258 361.627 806.258 361.68V363.712C806.258 363.765 806.274 363.813 806.306 363.856C806.349 363.888 806.397 363.904 806.45 363.904H815.57V366H804.162ZM820.227 366V357.504L819.315 358.624H816.547L820.019 354.48H822.339V366H820.227ZM828.568 366V354.496H837.848C838.253 354.496 838.627 354.597 838.968 354.8C839.309 355.003 839.581 355.275 839.784 355.616C839.987 355.947 840.088 356.315 840.088 356.72V359.824C840.088 360.229 839.987 360.603 839.784 360.944C839.581 361.285 839.309 361.557 838.968 361.76C838.627 361.952 838.253 362.048 837.848 362.048L830.68 362.064V366H828.568ZM830.872 359.92H837.752C837.805 359.92 837.853 359.904 837.896 359.872C837.939 359.84 837.96 359.797 837.96 359.744V356.8C837.96 356.747 837.939 356.704 837.896 356.672C837.853 356.629 837.805 356.608 837.752 356.608H830.872C830.819 356.608 830.771 356.629 830.728 356.672C830.696 356.704 830.68 356.747 830.68 356.8V359.744C830.68 359.797 830.696 359.84 830.728 359.872C830.771 359.904 830.819 359.92 830.872 359.92ZM841.224 366V354.48H843.544L847.72 359.456L851.88 354.48H854.216V366H852.088V357.552L847.72 362.752L843.336 357.568V366H841.224Z" fill="black"/>
<g clip-path="url(#clip0_304_280)">
<path d="M32.612 8.95593C29.865 7.73493 26.562 9.23393 26.232 12.4289C26.0765 13.9476 25.999 15.4733 26 16.9999C26 18.7299 26.097 20.2689 26.231 21.5699C26.561 24.7659 29.865 26.2649 32.612 25.0439L32.837 24.9439C34.3737 24.2609 35.6793 23.1468 36.5956 21.7367C37.5119 20.3266 37.9996 18.6811 37.9996 16.9994C37.9996 15.3178 37.5119 13.6722 36.5956 12.2621C35.6793 10.8521 34.3737 9.73799 32.837 9.05493L32.612 8.95493V8.95593ZM19 10.9999C18.7348 10.9999 18.4804 11.1053 18.2929 11.2928C18.1054 11.4804 18 11.7347 18 11.9999C18 12.2651 18.1054 12.5195 18.2929 12.707C18.4804 12.8946 18.7348 12.9999 19 12.9999H24C24.2652 12.9999 24.5196 12.8946 24.7071 12.707C24.8946 12.5195 25 12.2651 25 11.9999C25 11.7347 24.8946 11.4804 24.7071 11.2928C24.5196 11.1053 24.2652 10.9999 24 10.9999H19ZM19 15.9999C18.7348 15.9999 18.4804 16.1053 18.2929 16.2928C18.1054 16.4804 18 16.7347 18 16.9999C18 17.2651 18.1054 17.5195 18.2929 17.707C18.4804 17.8946 18.7348 17.9999 19 17.9999H24C24.2652 17.9999 24.5196 17.8946 24.7071 17.707C24.8946 17.5195 25 17.2651 25 16.9999C25 16.7347 24.8946 16.4804 24.7071 16.2928C24.5196 16.1053 24.2652 15.9999 24 15.9999H19ZM18 21.9999C18 21.7347 18.1054 21.4804 18.2929 21.2928C18.4804 21.1053 18.7348 20.9999 19 20.9999H24C24.2652 20.9999 24.5196 21.1053 24.7071 21.2928C24.8946 21.4804 25 21.7347 25 21.9999C25 22.2651 24.8946 22.5195 24.7071 22.707C24.5196 22.8946 24.2652 22.9999 24 22.9999H19C18.7348 22.9999 18.4804 22.8946 18.2929 22.707C18.1054 22.5195 18 22.2651 18 21.9999Z" fill="black"/>
</g>
<g filter="url(#filter2_d_304_280)">
<path d="M131.102 252.182C132.005 251.419 133.149 251 134.331 251L341.747 251L549.243 251L771.561 251C772.926 251 774.231 251.558 775.174 252.544L846.912 327.544C849.954 330.724 847.7 336 843.299 336H45.6544C40.996 336 38.8688 330.191 42.4256 327.182L131.102 252.182Z" fill="url(#paint0_linear_304_280)"/>
</g>
<path d="M860.333 7C860.333 6.46957 860.544 5.96086 860.919 5.58579C861.294 5.21071 861.803 5 862.333 5H865C865.53 5 866.039 5.21071 866.414 5.58579C866.789 5.96086 867 6.46957 867 7V27C867 27.5304 866.789 28.0391 866.414 28.4142C866.039 28.7893 865.53 29 865 29H862.333C861.803 29 861.294 28.7893 860.919 28.4142C860.544 28.0391 860.333 27.5304 860.333 27V7ZM851.667 15C851.667 14.4696 851.877 13.9609 852.252 13.5858C852.628 13.2107 853.136 13 853.667 13H856.333C856.864 13 857.372 13.2107 857.748 13.5858C858.123 13.9609 858.333 14.4696 858.333 15V27C858.333 27.5304 858.123 28.0391 857.748 28.4142C857.372 28.7893 856.864 29 856.333 29H853.667C853.136 29 852.628 28.7893 852.252 28.4142C851.877 28.0391 851.667 27.5304 851.667 27V15ZM845 21C844.47 21 843.961 21.2107 843.586 21.5858C843.211 21.9609 843 22.4696 843 23V27C843 27.5304 843.211 28.0391 843.586 28.4142C843.961 28.7893 844.47 29 845 29H847.667C848.197 29 848.706 28.7893 849.081 28.4142C849.456 28.0391 849.667 27.5304 849.667 27V23C849.667 22.4696 849.456 21.9609 849.081 21.5858C848.706 21.2107 848.197 21 847.667 21H845Z" fill="black"/>
<path d="M341 9L555 7" stroke="black" stroke-width="4" stroke-linecap="round"/>
<rect x="18" y="95" width="111" height="32" rx="5" fill="#FFE500"/>
<path d="M28.8113 116V105.934H37.0013C37.3467 105.934 37.6593 106.023 37.9393 106.2C38.2287 106.368 38.4573 106.597 38.6253 106.886C38.8027 107.166 38.8913 107.479 38.8913 107.824V110.596C38.8913 110.932 38.8027 111.245 38.6253 111.534C38.4573 111.823 38.2287 112.052 37.9393 112.22C37.6593 112.388 37.3467 112.472 37.0013 112.472L30.4913 112.486V116H28.8113ZM30.7433 110.778H36.9453C37.0107 110.778 37.0667 110.755 37.1133 110.708C37.1693 110.661 37.1973 110.601 37.1973 110.526V107.866C37.1973 107.801 37.1693 107.745 37.1133 107.698C37.0667 107.642 37.0107 107.614 36.9453 107.614H30.7433C30.678 107.614 30.6173 107.642 30.5613 107.698C30.5147 107.745 30.4913 107.801 30.4913 107.866V110.526C30.4913 110.601 30.5147 110.661 30.5613 110.708C30.6173 110.755 30.678 110.778 30.7433 110.778ZM41.7056 116C41.3602 116 41.0429 115.916 40.7536 115.748C40.4736 115.571 40.2496 115.342 40.0816 115.062C39.9136 114.782 39.8296 114.469 39.8296 114.124V111.1H46.4096V109.812C46.4096 109.737 46.3816 109.677 46.3256 109.63C46.2789 109.574 46.2182 109.546 46.1436 109.546H39.8296V107.88H46.1996C46.5542 107.88 46.8716 107.969 47.1516 108.146C47.4316 108.314 47.6556 108.538 47.8236 108.818C47.9916 109.098 48.0756 109.411 48.0756 109.756V116H41.7056ZM41.7616 114.334H46.4096V112.626H41.4956V114.068C41.4956 114.143 41.5189 114.208 41.5656 114.264C41.6216 114.311 41.6869 114.334 41.7616 114.334ZM49.3178 116V109.756C49.3178 109.411 49.4018 109.098 49.5698 108.818C49.7472 108.538 49.9758 108.314 50.2558 108.146C50.5452 107.969 50.8578 107.88 51.1938 107.88H55.7158V109.546H51.2498C51.1752 109.546 51.1098 109.574 51.0538 109.63C51.0072 109.677 50.9838 109.737 50.9838 109.812V116H49.3178ZM56.6056 116V105.22H58.2716V111.1H59.9096L62.8776 107.88H64.7256V108.272L61.3936 111.94L64.7256 115.608V116H62.8776L59.9096 112.78H58.2716V116H56.6056ZM69.8823 116V107.81C69.8823 107.465 69.9663 107.147 70.1343 106.858C70.3023 106.569 70.531 106.34 70.8203 106.172C71.1096 106.004 71.427 105.92 71.7723 105.92H78.0723C78.4176 105.92 78.7303 106.004 79.0103 106.172C79.2996 106.34 79.5283 106.569 79.6963 106.858C79.8736 107.147 79.9623 107.465 79.9623 107.81V116H78.2683V112.542H71.5623V116H69.8823ZM71.5623 110.862H78.2683V107.866C78.2683 107.791 78.2403 107.731 78.1843 107.684C78.1376 107.637 78.0816 107.614 78.0163 107.614H71.8143C71.749 107.614 71.6883 107.637 71.6323 107.684C71.5856 107.731 71.5623 107.791 71.5623 107.866V110.862ZM83.3214 116C82.9761 116 82.6634 115.916 82.3834 115.748C82.1034 115.571 81.8748 115.342 81.6974 115.062C81.5294 114.782 81.4454 114.469 81.4454 114.124V113.858H83.1114V114.068C83.1114 114.143 83.1348 114.208 83.1814 114.264C83.2374 114.311 83.3028 114.334 83.3774 114.334H87.7594C87.8341 114.334 87.8948 114.311 87.9414 114.264C87.9974 114.208 88.0254 114.143 88.0254 114.068V113.032C88.0254 112.967 87.9974 112.911 87.9414 112.864C87.8948 112.808 87.8341 112.78 87.7594 112.78H83.3214C82.9761 112.78 82.6634 112.696 82.3834 112.528C82.1034 112.351 81.8748 112.122 81.6974 111.842C81.5294 111.562 81.4454 111.249 81.4454 110.904V109.756C81.4454 109.411 81.5294 109.098 81.6974 108.818C81.8748 108.538 82.1034 108.314 82.3834 108.146C82.6634 107.969 82.9761 107.88 83.3214 107.88H87.8154C88.1701 107.88 88.4874 107.969 88.7674 108.146C89.0474 108.314 89.2714 108.538 89.4394 108.818C89.6168 109.098 89.7054 109.411 89.7054 109.756V110.022H88.0254V109.812C88.0254 109.737 87.9974 109.677 87.9414 109.63C87.8948 109.574 87.8341 109.546 87.7594 109.546H83.3774C83.3028 109.546 83.2374 109.574 83.1814 109.63C83.1348 109.677 83.1114 109.737 83.1114 109.812V110.848C83.1114 110.913 83.1348 110.974 83.1814 111.03C83.2374 111.077 83.3028 111.1 83.3774 111.1H87.8154C88.1701 111.1 88.4874 111.189 88.7674 111.366C89.0474 111.534 89.2714 111.758 89.4394 112.038C89.6168 112.318 89.7054 112.631 89.7054 112.976V114.124C89.7054 114.469 89.6168 114.782 89.4394 115.062C89.2714 115.342 89.0474 115.571 88.7674 115.748C88.4874 115.916 88.1701 116 87.8154 116H83.3214ZM92.9191 116C92.5738 116 92.2611 115.916 91.9811 115.748C91.7011 115.571 91.4724 115.342 91.2951 115.062C91.1271 114.782 91.0431 114.469 91.0431 114.124V113.858H92.7091V114.068C92.7091 114.143 92.7324 114.208 92.7791 114.264C92.8351 114.311 92.9004 114.334 92.9751 114.334H97.3571C97.4318 114.334 97.4924 114.311 97.5391 114.264C97.5951 114.208 97.6231 114.143 97.6231 114.068V113.032C97.6231 112.967 97.5951 112.911 97.5391 112.864C97.4924 112.808 97.4318 112.78 97.3571 112.78H92.9191C92.5738 112.78 92.2611 112.696 91.9811 112.528C91.7011 112.351 91.4724 112.122 91.2951 111.842C91.1271 111.562 91.0431 111.249 91.0431 110.904V109.756C91.0431 109.411 91.1271 109.098 91.2951 108.818C91.4724 108.538 91.7011 108.314 91.9811 108.146C92.2611 107.969 92.5738 107.88 92.9191 107.88H97.4131C97.7678 107.88 98.0851 107.969 98.3651 108.146C98.6451 108.314 98.8691 108.538 99.0371 108.818C99.2144 109.098 99.3031 109.411 99.3031 109.756V110.022H97.6231V109.812C97.6231 109.737 97.5951 109.677 97.5391 109.63C97.4924 109.574 97.4318 109.546 97.3571 109.546H92.9751C92.9004 109.546 92.8351 109.574 92.7791 109.63C92.7324 109.677 92.7091 109.737 92.7091 109.812V110.848C92.7091 110.913 92.7324 110.974 92.7791 111.03C92.8351 111.077 92.9004 111.1 92.9751 111.1H97.4131C97.7678 111.1 98.0851 111.189 98.3651 111.366C98.6451 111.534 98.8691 111.758 99.0371 112.038C99.2144 112.318 99.3031 112.631 99.3031 112.976V114.124C99.3031 114.469 99.2144 114.782 99.0371 115.062C98.8691 115.342 98.6451 115.571 98.3651 115.748C98.0851 115.916 97.7678 116 97.4131 116H92.9191ZM100.697 116V107.88H102.363V116H100.697ZM100.697 106.9V105.22H102.363V106.9H100.697ZM105.88 116C105.535 116 105.222 115.916 104.942 115.748C104.662 115.571 104.433 115.342 104.256 115.062C104.088 114.782 104.004 114.469 104.004 114.124V113.858H105.67V114.068C105.67 114.143 105.693 114.208 105.74 114.264C105.796 114.311 105.861 114.334 105.936 114.334H110.318C110.393 114.334 110.453 114.311 110.5 114.264C110.556 114.208 110.584 114.143 110.584 114.068V113.032C110.584 112.967 110.556 112.911 110.5 112.864C110.453 112.808 110.393 112.78 110.318 112.78H105.88C105.535 112.78 105.222 112.696 104.942 112.528C104.662 112.351 104.433 112.122 104.256 111.842C104.088 111.562 104.004 111.249 104.004 110.904V109.756C104.004 109.411 104.088 109.098 104.256 108.818C104.433 108.538 104.662 108.314 104.942 108.146C105.222 107.969 105.535 107.88 105.88 107.88H110.374C110.729 107.88 111.046 107.969 111.326 108.146C111.606 108.314 111.83 108.538 111.998 108.818C112.175 109.098 112.264 109.411 112.264 109.756V110.022H110.584V109.812C110.584 109.737 110.556 109.677 110.5 109.63C110.453 109.574 110.393 109.546 110.318 109.546H105.936C105.861 109.546 105.796 109.574 105.74 109.63C105.693 109.677 105.67 109.737 105.67 109.812V110.848C105.67 110.913 105.693 110.974 105.74 111.03C105.796 111.077 105.861 111.1 105.936 111.1H110.374C110.729 111.1 111.046 111.189 111.326 111.366C111.606 111.534 111.83 111.758 111.998 112.038C112.175 112.318 112.264 112.631 112.264 112.976V114.124C112.264 114.469 112.175 114.782 111.998 115.062C111.83 115.342 111.606 115.571 111.326 115.748C111.046 115.916 110.729 116 110.374 116H105.88ZM115.548 116C115.202 116 114.885 115.916 114.596 115.748C114.316 115.571 114.092 115.342 113.924 115.062C113.756 114.782 113.672 114.469 113.672 114.124V105.346H115.338V107.88H118.586V109.546H115.338V114.068C115.338 114.143 115.361 114.208 115.408 114.264C115.464 114.311 115.529 114.334 115.604 114.334H118.586V116H115.548Z" fill="#020202"/>
<g clip-path="url(#clip1_304_280)">
<path fill-rule="evenodd" clip-rule="evenodd" d="M147.384 110.004C147.618 110.312 147.75 110.731 147.75 111.167C147.75 111.603 147.618 112.021 147.384 112.33L142.671 118.538C142.436 118.847 142.118 119.02 141.787 119.02C141.455 119.02 141.137 118.846 140.903 118.537C140.669 118.229 140.537 117.81 140.537 117.373C140.537 116.937 140.669 116.518 140.903 116.21L144.733 111.167L140.903 106.124C140.676 105.814 140.55 105.398 140.552 104.967C140.555 104.535 140.686 104.122 140.918 103.817C141.15 103.512 141.463 103.338 141.791 103.334C142.118 103.33 142.434 103.496 142.67 103.796L147.385 110.003L147.384 110.004Z" fill="black"/>
</g>
<g clip-path="url(#clip2_304_280)">
<path fill-rule="evenodd" clip-rule="evenodd" d="M141.384 110.004C141.618 110.312 141.75 110.731 141.75 111.167C141.75 111.603 141.618 112.021 141.384 112.33L136.671 118.538C136.436 118.847 136.118 119.02 135.787 119.02C135.455 119.02 135.137 118.846 134.903 118.537C134.669 118.229 134.537 117.81 134.537 117.373C134.537 116.937 134.669 116.518 134.903 116.21L138.733 111.167L134.903 106.124C134.676 105.814 134.55 105.398 134.552 104.967C134.555 104.535 134.686 104.122 134.918 103.817C135.15 103.512 135.463 103.338 135.791 103.334C136.118 103.33 136.434 103.496 136.67 103.796L141.385 110.003L141.384 110.004Z" fill="black"/>
</g>
<path d="M801.55 29.18C800.43 29.18 799.43 29.0133 798.55 28.68C797.683 28.3467 797.003 27.88 796.51 27.28C796.03 26.68 795.79 25.9933 795.79 25.22C795.79 24.5533 796.01 24.0733 796.45 23.78C796.903 23.4867 797.637 23.34 798.65 23.34C798.61 23.5933 798.59 23.9133 798.59 24.3C798.59 25.0733 798.837 25.66 799.33 26.06C799.837 26.4467 800.577 26.64 801.55 26.64C803.483 26.64 804.45 26.06 804.45 24.9C804.45 23.7 803.623 23.1 801.97 23.1H801.33C800.957 23.1 800.657 22.9867 800.43 22.76C800.203 22.5333 800.09 22.2333 800.09 21.86C800.09 21.4867 800.203 21.1867 800.43 20.96C800.657 20.7333 800.957 20.62 801.33 20.62H801.99C802.683 20.62 803.197 20.4867 803.53 20.22C803.877 19.94 804.05 19.52 804.05 18.96C804.05 18.4533 803.837 18.06 803.41 17.78C802.997 17.5 802.403 17.36 801.63 17.36C800.763 17.36 800.09 17.5133 799.61 17.82C799.143 18.1133 798.91 18.5333 798.91 19.08C798.91 19.3067 798.937 19.6067 798.99 19.98C798.15 20.0067 797.463 19.8667 796.93 19.56C796.397 19.2533 796.13 18.84 796.13 18.32C796.13 17.64 796.357 17.0333 796.81 16.5C797.277 15.9667 797.923 15.5533 798.75 15.26C799.59 14.9667 800.55 14.82 801.63 14.82C802.71 14.82 803.657 14.9933 804.47 15.34C805.283 15.6733 805.91 16.1533 806.35 16.78C806.803 17.4067 807.03 18.1333 807.03 18.96C807.03 20.1733 806.41 21.14 805.17 21.86C805.983 22.2333 806.563 22.6533 806.91 23.12C807.257 23.5733 807.43 24.1667 807.43 24.9C807.43 25.74 807.183 26.4867 806.69 27.14C806.197 27.78 805.503 28.28 804.61 28.64C803.73 29 802.71 29.18 801.55 29.18ZM814.457 29.18C813.43 29.18 812.483 29.0133 811.617 28.68C810.763 28.3467 810.083 27.9 809.577 27.34C809.083 26.7667 808.837 26.1333 808.837 25.44C808.837 24.8267 809.017 24.38 809.377 24.1C809.737 23.82 810.31 23.68 811.097 23.68C811.31 23.68 811.477 23.6867 811.597 23.7C811.543 23.8733 811.517 24.1533 811.517 24.54C811.517 25.1933 811.777 25.7067 812.297 26.08C812.83 26.44 813.55 26.62 814.457 26.62C815.39 26.62 816.11 26.38 816.617 25.9C817.123 25.42 817.377 24.7333 817.377 23.84C817.377 23.0267 817.11 22.3867 816.577 21.92C816.057 21.4533 815.33 21.22 814.397 21.22C813.383 21.22 812.51 21.4733 811.777 21.98C811.443 22.22 811.07 22.34 810.657 22.34C810.257 22.34 809.917 22.2267 809.637 22C809.357 21.76 809.217 21.4467 809.217 21.06C809.217 20.9533 809.223 20.8733 809.237 20.82L810.037 16.06C810.157 15.3533 810.623 15 811.437 15H819.617C819.617 16.6667 818.95 17.5 817.617 17.5H812.277L811.957 19.36C811.61 19.5733 811.323 19.8067 811.097 20.06L811.217 20.2C811.71 19.7733 812.323 19.4333 813.057 19.18C813.79 18.9133 814.503 18.78 815.197 18.78C816.197 18.78 817.077 18.9867 817.837 19.4C818.597 19.8133 819.183 20.4067 819.597 21.18C820.01 21.94 820.217 22.8267 820.217 23.84C820.217 25.4933 819.703 26.8 818.677 27.76C817.65 28.7067 816.243 29.18 814.457 29.18Z" fill="#7BE849"/>
<circle cx="793" cy="21" r="2" fill="#7BE849"/>
<path d="M759.06 29C758.647 29 758.313 28.8867 758.06 28.66C757.82 28.42 757.7 28.1133 757.7 27.74C757.7 26.6867 758.113 25.7333 758.94 24.88C759.767 24.0267 761.08 23.22 762.88 22.46C763.68 22.1267 764.287 21.8133 764.7 21.52C765.127 21.2267 765.427 20.9133 765.6 20.58C765.787 20.2467 765.88 19.8467 765.88 19.38C765.88 18.7533 765.66 18.2667 765.22 17.92C764.793 17.56 764.193 17.38 763.42 17.38C762.513 17.38 761.84 17.56 761.4 17.92C760.96 18.2667 760.74 18.8067 760.74 19.54C760.74 19.9533 760.773 20.2867 760.84 20.54C760.613 20.58 760.407 20.6 760.22 20.6C759.567 20.6 759.007 20.4133 758.54 20.04C758.073 19.6533 757.84 19.18 757.84 18.62C757.84 17.9133 758.08 17.2733 758.56 16.7C759.053 16.1133 759.727 15.6533 760.58 15.32C761.433 14.9867 762.38 14.82 763.42 14.82C764.5 14.82 765.447 15.0133 766.26 15.4C767.087 15.7733 767.727 16.3067 768.18 17C768.633 17.68 768.86 18.4733 768.86 19.38C768.86 20.3667 768.487 21.2733 767.74 22.1C767.007 22.9267 765.907 23.6533 764.44 24.28C763.28 24.7733 762.433 25.1933 761.9 25.54C761.38 25.8867 761.1 26.2067 761.06 26.5H766.9C767.62 26.5 768.16 26.7133 768.52 27.14C768.893 27.5533 769.08 28.1733 769.08 29H759.06ZM777.133 25.56H771.513C771.14 25.56 770.84 25.46 770.613 25.26C770.387 25.06 770.273 24.7867 770.273 24.44C770.273 24.08 770.373 23.78 770.573 23.54L777.513 15.28C777.633 15.1467 777.807 15.04 778.033 14.96C778.26 14.8667 778.507 14.82 778.773 14.82C779.16 14.82 779.473 14.94 779.713 15.18C779.967 15.42 780.093 15.7267 780.093 16.1V23.06H782.393C782.393 23.9267 782.247 24.56 781.953 24.96C781.66 25.36 781.2 25.56 780.573 25.56H780.093V27.38C780.093 28.0067 779.853 28.4667 779.373 28.76C778.907 29.04 778.16 29.18 777.133 29.18V25.56ZM777.333 23.06V19.62L778.093 18.6L777.933 18.48L774.113 23.06H777.333Z" fill="#FFE500"/>
<circle cx="755" cy="21" r="2" fill="#FFE500"/>
<path d="M132.5 251L850 337H43.7384C39.0702 337 36.9484 331.17 40.5246 328.17L132.5 251Z" fill="#D9D9D9"/>
<rect x="833" y="43" width="45" height="45" rx="5" fill="#E8E8E8"/>
<g clip-path="url(#clip3_304_280)">
<path d="M850.793 73.2234C851.663 74.3291 852.455 75.4938 853.163 76.7091C853.768 77.8521 854.02 78.6271 854.462 80.0042C854.733 80.7651 854.978 80.9922 855.504 80.9922C856.078 80.9922 856.338 80.6059 856.539 80.0084C856.957 78.7079 857.285 77.7153 857.802 76.7775C858.816 74.9668 860.077 73.3579 861.316 71.8115C861.651 71.3739 863.819 68.8242 864.795 66.8124C864.795 66.8124 865.995 64.6025 865.995 61.5161C865.995 58.629 864.812 56.6267 864.812 56.6267L861.405 57.5362L859.337 62.9682L858.825 63.7172L858.723 63.8529L858.587 64.0227L858.348 64.294L858.006 64.6343L856.164 66.1306L851.559 68.7817L850.793 73.2234Z" fill="#34A853"/>
<path d="M846.04 66.4408C847.164 69.0005 849.331 71.2505 850.798 73.2251L858.587 64.0262C858.587 64.0262 857.489 65.457 855.499 65.457C853.282 65.457 851.491 63.6918 851.491 61.4659C851.491 59.9395 852.412 58.8909 852.412 58.8909L847.124 60.3034L846.04 66.4408Z" fill="#FBBC04"/>
<path d="M858.673 51.473C861.26 52.3046 863.474 54.0504 864.814 56.6247L858.589 64.0207C858.589 64.0207 859.51 62.9532 859.51 61.4363C859.51 59.1585 857.586 57.457 855.508 57.457C853.543 57.457 852.414 58.8854 852.414 58.8854V54.226L858.673 51.4729V51.473Z" fill="#4285F4"/>
<path d="M847.467 54.741C849.012 52.8979 851.731 51 855.479 51C857.297 51 858.667 51.476 858.667 51.476L852.409 58.8896H847.974L847.467 54.741Z" fill="#1A73E8"/>
<path d="M846.04 66.4407C846.04 66.4407 845.006 64.4218 845.006 61.497C845.006 58.7327 846.084 56.3163 847.467 54.741L852.412 58.8902L846.04 66.4407Z" fill="#EA4335"/>
</g>
<defs>
<filter id="filter0_d_304_280" x="607.5" y="183.5" width="156" height="67" filterUnits="userSpaceOnUse" color-interpolation-filters="sRGB">
<feFlood flood-opacity="0" result="BackgroundImageFix"/>
<feColorMatrix in="SourceAlpha" type="matrix" values="0 0 0 0 0 0 0 0 0 0 0 0 0 0 0 0 0 0 127 0" result="hardAlpha"/>
<feOffset dy="4"/>
<feGaussianBlur stdDeviation="5"/>
<feComposite in2="hardAlpha" operator="out"/>
<feColorMatrix type="matrix" values="0 0 0 0 0 0 0 0 0 0 0 0 0 0 0 0 0 0 0.25 0"/>
<feBlend mode="normal" in2="BackgroundImageFix" result="effect1_dropShadow_304_280"/>
<feBlend mode="normal" in="SourceGraphic" in2="effect1_dropShadow_304_280" result="shape"/>
</filter>
<filter id="filter1_i_304_280" x="333.5" y="64.5" width="229" height="233" filterUnits="userSpaceOnUse" color-interpolation-filters="sRGB">
<feFlood flood-opacity="0" result="BackgroundImageFix"/>
<feBlend mode="normal" in="SourceGraphic" in2="BackgroundImageFix" result="shape"/>
<feColorMatrix in="SourceAlpha" type="matrix" values="0 0 0 0 0 0 0 0 0 0 0 0 0 0 0 0 0 0 127 0" result="hardAlpha"/>
<feOffset dy="6"/>
<feGaussianBlur stdDeviation="2"/>
<feComposite in2="hardAlpha" operator="arithmetic" k2="-1" k3="1"/>
<feColorMatrix type="matrix" values="0 0 0 0 0 0 0 0 0 0 0 0 0 0 0 0 0 0 0.5 0"/>
<feBlend mode="normal" in2="shape" result="effect1_innerShadow_304_280"/>
</filter>
<filter id="filter2_d_304_280" x="36.6445" y="251" width="815.664" height="93" filterUnits="userSpaceOnUse" color-interpolation-filters="sRGB">
<feFlood flood-opacity="0" result="BackgroundImageFix"/>
<feColorMatrix in="SourceAlpha" type="matrix" values="0 0 0 0 0 0 0 0 0 0 0 0 0 0 0 0 0 0 127 0" result="hardAlpha"/>
<feOffset dy="4"/>
<feGaussianBlur stdDeviation="2"/>
<feComposite in2="hardAlpha" operator="out"/>
<feColorMatrix type="matrix" values="0 0 0 0 0 0 0 0 0 0 0 0 0 0 0 0 0 0 0.25 0"/>
<feBlend mode="normal" in2="BackgroundImageFix" result="effect1_dropShadow_304_280"/>
<feBlend mode="normal" in="SourceGraphic" in2="effect1_dropShadow_304_280" result="shape"/>
</filter>
<linearGradient id="paint0_linear_304_280" x1="443.5" y1="251" x2="443.5" y2="336" gradientUnits="userSpaceOnUse">
<stop stop-color="#7A7A7A"/>
<stop offset="0.513542" stop-color="#B7B7B7"/>
<stop offset="1" stop-color="white"/>
</linearGradient>
<clipPath id="clip0_304_280">
<rect width="24" height="24" fill="white" transform="translate(16 5)"/>
</clipPath>
<clipPath id="clip1_304_280">
<rect width="20" height="26.3333" fill="white" transform="translate(134 98.0002)"/>
</clipPath>
<clipPath id="clip2_304_280">
<rect width="20" height="26.3333" fill="white" transform="translate(128 98.0002)"/>
</clipPath>
<clipPath id="clip3_304_280">
<rect width="21" height="30" fill="white" transform="translate(845 51)"/>
</clipPath>
</defs>
</svg>
