<svg width="285" height="87" viewBox="0 0 285 87" fill="none" xmlns="http://www.w3.org/2000/svg">
<rect width="285" height="87" rx="10" fill="#1D1D1D"/>
<path d="M9.53267 9.99254V8.09091H18.4922V9.99254H15.1523V19H12.8725V9.99254H9.53267ZM22.1942 14.2699V19H19.9251V8.09091H22.1303V12.2617H22.2262C22.4109 11.7788 22.7092 11.4006 23.1211 11.1271C23.533 10.8501 24.0497 10.7116 24.6712 10.7116C25.2393 10.7116 25.7347 10.8359 26.1573 11.0845C26.5835 11.3295 26.9137 11.6829 27.1481 12.1445C27.386 12.6026 27.5032 13.1513 27.4996 13.7905V19H25.2305V14.1953C25.234 13.6911 25.1062 13.2987 24.8469 13.0181C24.5913 12.7376 24.2326 12.5973 23.771 12.5973C23.462 12.5973 23.1886 12.663 22.9506 12.7944C22.7163 12.9258 22.5316 13.1175 22.3967 13.3697C22.2653 13.6183 22.1978 13.9183 22.1942 14.2699ZM33.0141 19.1598C32.1725 19.1598 31.4481 18.9893 30.8408 18.6484C30.2371 18.304 29.7719 17.8175 29.4452 17.1889C29.1185 16.5568 28.9552 15.8093 28.9552 14.9464C28.9552 14.1048 29.1185 13.3661 29.4452 12.7305C29.7719 12.0948 30.2318 11.5994 30.8248 11.2443C31.4214 10.8892 32.121 10.7116 32.9236 10.7116C33.4633 10.7116 33.9658 10.7987 34.431 10.9727C34.8998 11.1431 35.3081 11.4006 35.6562 11.745C36.0077 12.0895 36.2812 12.5227 36.4765 13.0447C36.6718 13.5632 36.7694 14.1705 36.7694 14.8665V15.4897H29.8607V14.0835H34.6334C34.6334 13.7567 34.5624 13.4673 34.4204 13.2152C34.2783 12.9631 34.0812 12.766 33.8291 12.6239C33.5805 12.4783 33.2911 12.4055 32.9608 12.4055C32.6164 12.4055 32.311 12.4854 32.0447 12.6452C31.7819 12.8015 31.5759 13.0128 31.4268 13.2791C31.2776 13.5419 31.2013 13.8349 31.1977 14.158V15.495C31.1977 15.8999 31.2723 16.2496 31.4214 16.5444C31.5741 16.8391 31.789 17.0664 32.066 17.2262C32.343 17.386 32.6714 17.4659 33.0514 17.4659C33.3035 17.4659 33.5344 17.4304 33.7439 17.3594C33.9534 17.2884 34.1327 17.1818 34.2819 17.0398C34.431 16.8977 34.5447 16.7237 34.6228 16.5178L36.7215 16.6562C36.615 17.1605 36.3966 17.6009 36.0663 17.9773C35.7396 18.3501 35.317 18.6413 34.7986 18.8509C34.2836 19.0568 33.6888 19.1598 33.0141 19.1598ZM48.9982 11.6172C48.9237 11.358 48.8189 11.1289 48.6839 10.93C48.549 10.7276 48.3839 10.5572 48.1886 10.4187C47.9968 10.2766 47.7766 10.1683 47.5281 10.0938C47.283 10.0192 47.0114 9.98189 46.7131 9.98189C46.1555 9.98189 45.6655 10.1204 45.2429 10.3974C44.8239 10.6744 44.4972 11.0774 44.2628 11.6065C44.0284 12.1321 43.9112 12.7749 43.9112 13.5348C43.9112 14.2947 44.0266 14.9411 44.2575 15.4737C44.4883 16.0064 44.815 16.413 45.2376 16.6935C45.6602 16.9705 46.1591 17.109 46.7344 17.109C47.2564 17.109 47.7021 17.0167 48.0714 16.832C48.4442 16.6438 48.7283 16.3793 48.9237 16.0384C49.1225 15.6974 49.2219 15.2944 49.2219 14.8292L49.6907 14.8984H46.8782V13.1619H51.4432V14.5362C51.4432 15.495 51.2408 16.3189 50.8359 17.0078C50.4311 17.6932 49.8736 18.2223 49.1634 18.5952C48.4531 18.9645 47.6399 19.1491 46.7237 19.1491C45.701 19.1491 44.8026 18.9237 44.0284 18.4727C43.2543 18.0181 42.6506 17.3736 42.2173 16.5391C41.7876 15.701 41.5728 14.7067 41.5728 13.5561C41.5728 12.6719 41.7006 11.8835 41.9563 11.1911C42.2156 10.495 42.5778 9.90554 43.043 9.42259C43.5082 8.93963 44.0497 8.57209 44.6676 8.31996C45.2855 8.06783 45.9549 7.94176 46.6758 7.94176C47.2937 7.94176 47.869 8.03232 48.4016 8.21342C48.9343 8.39098 49.4066 8.64311 49.8185 8.96982C50.234 9.29652 50.5732 9.68537 50.8359 10.1364C51.0987 10.5838 51.2674 11.0774 51.342 11.6172H48.9982ZM53.6458 19V10.8182H55.915V19H53.6458ZM54.7857 9.76349C54.4483 9.76349 54.1589 9.65163 53.9174 9.42791C53.6795 9.20064 53.5605 8.92898 53.5605 8.61293C53.5605 8.30043 53.6795 8.03232 53.9174 7.80859C54.1589 7.58132 54.4483 7.46768 54.7857 7.46768C55.123 7.46768 55.4107 7.58132 55.6486 7.80859C55.8901 8.03232 56.0108 8.30043 56.0108 8.61293C56.0108 8.92898 55.8901 9.20064 55.6486 9.42791C55.4107 9.65163 55.123 9.76349 54.7857 9.76349ZM62.1325 10.8182V12.5227H57.0828V10.8182H62.1325ZM58.2387 19V10.2269C58.2387 9.63388 58.3541 9.14204 58.585 8.75142C58.8193 8.36079 59.1389 8.06783 59.5438 7.87251C59.9486 7.6772 60.4085 7.57954 60.9234 7.57954C61.2714 7.57954 61.5892 7.60618 61.8769 7.65945C62.1681 7.71271 62.3847 7.76065 62.5267 7.80327L62.1219 9.50781C62.0331 9.4794 61.923 9.45277 61.7916 9.42791C61.6638 9.40305 61.5324 9.39062 61.3975 9.39062C61.0637 9.39062 60.8311 9.46875 60.6997 9.625C60.5683 9.7777 60.5026 9.99254 60.5026 10.2695V19H58.2387ZM67.8707 10.8182V12.5227H62.9435V10.8182H67.8707ZM64.0621 8.85795H66.3313V16.4858C66.3313 16.6953 66.3633 16.8587 66.4272 16.9759C66.4911 17.0895 66.5799 17.1694 66.6935 17.2156C66.8107 17.2617 66.9457 17.2848 67.0984 17.2848C67.2049 17.2848 67.3114 17.2759 67.418 17.2582C67.5245 17.2369 67.6062 17.2209 67.663 17.2102L68.0199 18.8988C67.9063 18.9343 67.7464 18.9751 67.5405 19.0213C67.3345 19.071 67.0842 19.1012 66.7894 19.1119C66.2425 19.1332 65.7631 19.0604 65.3512 18.8935C64.9428 18.7266 64.625 18.4673 64.3977 18.1158C64.1705 17.7642 64.0586 17.3203 64.0621 16.7841V8.85795ZM76.5173 19.1598C75.6899 19.1598 74.9743 18.984 74.3706 18.6325C73.7705 18.2773 73.3071 17.7837 72.9804 17.1516C72.6537 16.516 72.4903 15.7791 72.4903 14.9411C72.4903 14.0959 72.6537 13.3572 72.9804 12.7251C73.3071 12.0895 73.7705 11.5959 74.3706 11.2443C74.9743 10.8892 75.6899 10.7116 76.5173 10.7116C77.3447 10.7116 78.0585 10.8892 78.6586 11.2443C79.2623 11.5959 79.7275 12.0895 80.0542 12.7251C80.3809 13.3572 80.5443 14.0959 80.5443 14.9411C80.5443 15.7791 80.3809 16.516 80.0542 17.1516C79.7275 17.7837 79.2623 18.2773 78.6586 18.6325C78.0585 18.984 77.3447 19.1598 76.5173 19.1598ZM76.528 17.402C76.9044 17.402 77.2187 17.2955 77.4708 17.0824C77.7229 16.8658 77.9129 16.571 78.0407 16.1982C78.1721 15.8253 78.2378 15.4009 78.2378 14.9251C78.2378 14.4492 78.1721 14.0249 78.0407 13.652C77.9129 13.2791 77.7229 12.9844 77.4708 12.7678C77.2187 12.5511 76.9044 12.4428 76.528 12.4428C76.148 12.4428 75.8284 12.5511 75.5692 12.7678C75.3135 12.9844 75.1199 13.2791 74.9885 13.652C74.8607 14.0249 74.7968 14.4492 74.7968 14.9251C74.7968 15.4009 74.8607 15.8253 74.9885 16.1982C75.1199 16.571 75.3135 16.8658 75.5692 17.0824C75.8284 17.2955 76.148 17.402 76.528 17.402ZM86.4197 10.8182V12.5227H81.3699V10.8182H86.4197ZM82.5258 19V10.2269C82.5258 9.63388 82.6412 9.14204 82.8721 8.75142C83.1064 8.36079 83.426 8.06783 83.8309 7.87251C84.2357 7.6772 84.6956 7.57954 85.2105 7.57954C85.5585 7.57954 85.8763 7.60618 86.164 7.65945C86.4552 7.71271 86.6718 7.76065 86.8138 7.80327L86.409 9.50781C86.3202 9.4794 86.2101 9.45277 86.0787 9.42791C85.9509 9.40305 85.8195 9.39062 85.6846 9.39062C85.3508 9.39062 85.1182 9.46875 84.9868 9.625C84.8554 9.7777 84.7897 9.99254 84.7897 10.2695V19H82.5258ZM91.3202 19V8.09091H93.6267V17.0984H98.3035V19H91.3202ZM99.7884 19V10.8182H102.058V19H99.7884ZM100.928 9.76349C100.591 9.76349 100.301 9.65163 100.06 9.42791C99.8221 9.20064 99.7031 8.92898 99.7031 8.61293C99.7031 8.30043 99.8221 8.03232 100.06 7.80859C100.301 7.58132 100.591 7.46768 100.928 7.46768C101.266 7.46768 101.553 7.58132 101.791 7.80859C102.033 8.03232 102.153 8.30043 102.153 8.61293C102.153 8.92898 102.033 9.20064 101.791 9.42791C101.553 9.65163 101.266 9.76349 100.928 9.76349ZM108.275 10.8182V12.5227H103.225V10.8182H108.275ZM104.381 19V10.2269C104.381 9.63388 104.497 9.14204 104.728 8.75142C104.962 8.36079 105.282 8.06783 105.686 7.87251C106.091 7.6772 106.551 7.57954 107.066 7.57954C107.414 7.57954 107.732 7.60618 108.019 7.65945C108.311 7.71271 108.527 7.76065 108.669 7.80327L108.264 9.50781C108.176 9.4794 108.066 9.45277 107.934 9.42791C107.806 9.40305 107.675 9.39062 107.54 9.39062C107.206 9.39062 106.974 9.46875 106.842 9.625C106.711 9.7777 106.645 9.99254 106.645 10.2695V19H104.381ZM113.097 19.1598C112.256 19.1598 111.531 18.9893 110.924 18.6484C110.32 18.304 109.855 17.8175 109.528 17.1889C109.202 16.5568 109.038 15.8093 109.038 14.9464C109.038 14.1048 109.202 13.3661 109.528 12.7305C109.855 12.0948 110.315 11.5994 110.908 11.2443C111.504 10.8892 112.204 10.7116 113.007 10.7116C113.546 10.7116 114.049 10.7987 114.514 10.9727C114.983 11.1431 115.391 11.4006 115.739 11.745C116.091 12.0895 116.364 12.5227 116.559 13.0447C116.755 13.5632 116.852 14.1705 116.852 14.8665V15.4897H109.944V14.0835H114.716C114.716 13.7567 114.645 13.4673 114.503 13.2152C114.361 12.9631 114.164 12.766 113.912 12.6239C113.664 12.4783 113.374 12.4055 113.044 12.4055C112.699 12.4055 112.394 12.4854 112.128 12.6452C111.865 12.8015 111.659 13.0128 111.51 13.2791C111.361 13.5419 111.284 13.8349 111.281 14.158V15.495C111.281 15.8999 111.355 16.2496 111.504 16.5444C111.657 16.8391 111.872 17.0664 112.149 17.2262C112.426 17.386 112.754 17.4659 113.134 17.4659C113.387 17.4659 113.617 17.4304 113.827 17.3594C114.036 17.2884 114.216 17.1818 114.365 17.0398C114.514 16.8977 114.628 16.7237 114.706 16.5178L116.805 16.6562C116.698 17.1605 116.48 17.6009 116.149 17.9773C115.823 18.3501 115.4 18.6413 114.882 18.8509C114.367 19.0568 113.772 19.1598 113.097 19.1598Z" fill="#DFDFDF"/>
<path d="M198.633 64.15L208.25 57.3667C209.183 56.7 209.183 55.3 208.25 54.65L198.633 47.85C197.517 47.0833 196 47.8667 196 49.2167V62.7833C196 64.1333 197.517 64.9167 198.633 64.15ZM212.667 47.6667V64.3333C212.667 65.25 213.417 66 214.333 66C215.25 66 216 65.25 216 64.3333V47.6667C216 46.75 215.25 46 214.333 46C213.417 46 212.667 46.75 212.667 47.6667Z" fill="#F8F8F8"/>
<path d="M85.3667 47.85L75.75 54.6333C74.8167 55.3 74.8167 56.7 75.75 57.35L85.3667 64.15C86.4833 64.9167 88 64.1333 88 62.7833V49.2167C88 47.8667 86.4833 47.0833 85.3667 47.85ZM71.3333 64.3333V47.6667C71.3333 46.75 70.5833 46 69.6667 46C68.75 46 68 46.75 68 47.6667V64.3333C68 65.25 68.75 66 69.6667 66C70.5833 66 71.3333 65.25 71.3333 64.3333Z" fill="#F8F8F8"/>
<rect x="122" y="36" width="40" height="40" rx="20" fill="#F5F5F5"/>
<path d="M136 48.5C136 48.2239 136.224 48 136.5 48H139.833C140.109 48 140.333 48.2239 140.333 48.5V64.5C140.333 64.7761 140.109 65 139.833 65H136.5C136.224 65 136 64.7761 136 64.5V48.5ZM144.667 48.5C144.667 48.2239 144.891 48 145.167 48H148.5C148.776 48 149 48.2239 149 48.5V64.5C149 64.7761 148.776 65 148.5 65H145.167C144.891 65 144.667 64.7761 144.667 64.5V48.5Z" fill="black"/>
</svg>
