<svg width="285" height="285" viewBox="0 0 285 285" fill="none" xmlns="http://www.w3.org/2000/svg">
<rect width="285" height="285" rx="10" fill="#1A1A1A"/>
<g filter="url(#filter0_i_289_13)">
<path d="M16.9819 25.24C15.6059 25.24 14.4059 25.032 13.3819 24.616C12.3739 24.2 11.5899 23.608 11.0299 22.84C10.4859 22.072 10.2139 21.168 10.2139 20.128C10.2139 19.232 10.4619 18.448 10.9579 17.776C11.4699 17.088 12.2139 16.544 13.1899 16.144C12.4059 15.744 11.8059 15.248 11.3899 14.656C10.9899 14.064 10.7899 13.4 10.7899 12.664C10.7899 11.752 11.0539 10.944 11.5819 10.24C12.1099 9.52 12.8379 8.968 13.7659 8.584C14.7099 8.184 15.7819 7.984 16.9819 7.984C18.1979 7.984 19.2699 8.184 20.1979 8.584C21.1419 8.968 21.8699 9.512 22.3819 10.216C22.9099 10.92 23.1739 11.736 23.1739 12.664C23.1739 13.416 22.9739 14.088 22.5739 14.68C22.1739 15.256 21.5819 15.744 20.7979 16.144C21.7579 16.544 22.4859 17.088 22.9819 17.776C23.4939 18.448 23.7499 19.232 23.7499 20.128C23.7499 21.168 23.4779 22.072 22.9339 22.84C22.3899 23.608 21.6059 24.2 20.5819 24.616C19.5739 25.032 18.3739 25.24 16.9819 25.24ZM16.9819 15.136C18.0219 15.136 18.8379 14.928 19.4299 14.512C20.0379 14.08 20.3419 13.504 20.3419 12.784C20.3419 12 20.0539 11.416 19.4779 11.032C18.9179 10.632 18.0859 10.432 16.9819 10.432C15.8939 10.432 15.0619 10.632 14.4859 11.032C13.9099 11.432 13.6219 12.016 13.6219 12.784C13.6219 13.488 13.9259 14.056 14.5339 14.488C15.1579 14.92 15.9739 15.136 16.9819 15.136ZM16.9819 22.768C18.2779 22.768 19.2539 22.544 19.9099 22.096C20.5819 21.632 20.9179 20.952 20.9179 20.056C20.9179 19.16 20.5739 18.472 19.8859 17.992C19.2139 17.496 18.2459 17.248 16.9819 17.248C15.7499 17.248 14.7819 17.496 14.0779 17.992C13.3899 18.488 13.0459 19.176 13.0459 20.056C13.0459 20.936 13.3819 21.608 14.0539 22.072C14.7419 22.536 15.7179 22.768 16.9819 22.768ZM32.1392 25.216C30.9392 25.216 29.8432 25.024 28.8512 24.64C27.8592 24.24 27.0752 23.696 26.4992 23.008C25.9392 22.32 25.6592 21.56 25.6592 20.728C25.6592 20.072 25.8432 19.592 26.2112 19.288C26.5792 18.968 27.1552 18.808 27.9392 18.808L28.3952 18.832C28.3472 19.12 28.3232 19.424 28.3232 19.744C28.3232 20.672 28.6592 21.392 29.3312 21.904C30.0032 22.416 30.9392 22.672 32.1392 22.672C33.3552 22.672 34.2992 22.344 34.9712 21.688C35.6432 21.032 35.9792 20.104 35.9792 18.904C35.9792 17.736 35.6432 16.84 34.9712 16.216C34.2992 15.592 33.3392 15.28 32.0912 15.28C30.7312 15.28 29.6112 15.656 28.7312 16.408C28.3952 16.68 28.0192 16.816 27.6032 16.816C27.2032 16.816 26.8592 16.696 26.5712 16.456C26.2992 16.2 26.1632 15.88 26.1632 15.496C26.1632 15.4 26.1712 15.328 26.1872 15.28L27.1712 9.232C27.2192 8.896 27.3632 8.64 27.6032 8.464C27.8592 8.288 28.1872 8.2 28.5872 8.2H38.0192C38.0192 9.848 37.3312 10.672 35.9552 10.672H29.4032L28.9472 13.576C28.5472 13.848 28.2352 14.104 28.0112 14.344L28.1072 14.488C28.7152 13.992 29.4432 13.6 30.2912 13.312C31.1392 13.008 31.9632 12.856 32.7632 12.856C34.6192 12.856 36.0832 13.4 37.1552 14.488C38.2432 15.56 38.7872 17.032 38.7872 18.904C38.7872 20.184 38.5152 21.304 37.9712 22.264C37.4432 23.208 36.6752 23.936 35.6672 24.448C34.6752 24.96 33.4992 25.216 32.1392 25.216Z" fill="#7BE849"/>
<path d="M47.1021 24.724C46.9501 24.98 46.7141 25.108 46.3941 25.108C46.2421 25.108 46.1101 25.076 45.9981 25.012C45.8941 24.948 45.7941 24.844 45.6981 24.7L44.0061 22.156L43.1661 22.924V24.244C43.1661 24.548 43.0541 24.768 42.8301 24.904C42.6141 25.04 42.2821 25.108 41.8341 25.108V17.548C41.8341 16.844 42.2821 16.492 43.1781 16.492V21.46L45.9741 18.892C46.3181 19.18 46.4901 19.412 46.4901 19.588C46.4901 19.708 46.4581 19.812 46.3941 19.9C46.3381 19.98 46.2381 20.088 46.0941 20.224L44.7981 21.412L47.1021 24.724ZM48.338 19.96C48.338 19.248 48.762 18.892 49.61 18.892V19.624C49.482 19.768 49.39 19.892 49.334 19.996L49.394 20.044C49.65 19.668 49.918 19.384 50.198 19.192C50.478 18.992 50.81 18.892 51.194 18.892C51.89 18.892 52.378 19.236 52.658 19.924C52.866 19.596 53.122 19.344 53.426 19.168C53.73 18.984 54.082 18.892 54.482 18.892C55.034 18.892 55.466 19.088 55.778 19.48C56.098 19.872 56.258 20.372 56.258 20.98V24.244C56.258 24.548 56.15 24.768 55.934 24.904C55.718 25.04 55.386 25.108 54.938 25.108V21.088C54.938 20.76 54.866 20.504 54.722 20.32C54.578 20.128 54.358 20.032 54.062 20.032C53.75 20.032 53.486 20.14 53.27 20.356C53.062 20.564 52.958 20.876 52.958 21.292V24.244C52.958 24.548 52.85 24.768 52.634 24.904C52.418 25.04 52.09 25.108 51.65 25.108V21.088C51.65 20.384 51.362 20.032 50.786 20.032C50.442 20.032 50.166 20.152 49.958 20.392C49.758 20.632 49.658 20.944 49.658 21.328V24.244C49.658 24.548 49.55 24.768 49.334 24.904C49.118 25.04 48.786 25.108 48.338 25.108V19.96Z" fill="#7BE849"/>
</g>
<rect x="76" y="236" width="129" height="37" rx="18.5" fill="#EEEEEE"/>
<path d="M126.264 260.144C125.325 260.144 124.509 260.021 123.816 259.776C123.123 259.531 122.589 259.195 122.216 258.768C121.853 258.341 121.672 257.851 121.672 257.296C121.672 256.432 122.216 256 123.304 256C123.325 256.843 123.592 257.483 124.104 257.92C124.627 258.357 125.357 258.576 126.296 258.576C127.117 258.576 127.752 258.437 128.2 258.16C128.648 257.883 128.872 257.483 128.872 256.96C128.872 256.629 128.787 256.363 128.616 256.16C128.445 255.947 128.157 255.76 127.752 255.6C127.347 255.429 126.76 255.259 125.992 255.088C124.968 254.864 124.157 254.603 123.56 254.304C122.973 254.005 122.547 253.648 122.28 253.232C122.013 252.816 121.88 252.299 121.88 251.68C121.88 251.083 122.056 250.555 122.408 250.096C122.76 249.637 123.256 249.285 123.896 249.04C124.536 248.784 125.277 248.656 126.12 248.656C126.92 248.656 127.64 248.768 128.28 248.992C128.92 249.205 129.421 249.509 129.784 249.904C130.147 250.299 130.328 250.752 130.328 251.264C130.328 252 129.811 252.384 128.776 252.416C128.691 251.648 128.435 251.088 128.008 250.736C127.592 250.384 126.963 250.208 126.12 250.208C125.373 250.208 124.797 250.336 124.392 250.592C123.987 250.848 123.784 251.211 123.784 251.68C123.784 252 123.859 252.267 124.008 252.48C124.168 252.683 124.429 252.864 124.792 253.024C125.155 253.173 125.677 253.323 126.36 253.472C127.448 253.717 128.312 253.995 128.952 254.304C129.592 254.603 130.051 254.965 130.328 255.392C130.616 255.808 130.76 256.331 130.76 256.96C130.76 257.611 130.573 258.176 130.2 258.656C129.837 259.136 129.315 259.504 128.632 259.76C127.96 260.016 127.171 260.144 126.264 260.144ZM135.639 260.144C134.807 260.144 134.189 259.904 133.783 259.424C133.389 258.944 133.191 258.325 133.191 257.568V253.36H131.591C131.591 252.901 131.682 252.56 131.863 252.336C132.045 252.112 132.29 252 132.599 252H133.207V250.608C133.207 250.203 133.351 249.909 133.639 249.728C133.938 249.547 134.381 249.456 134.967 249.456V252H137.095C137.095 252.48 136.999 252.827 136.807 253.04C136.615 253.253 136.311 253.36 135.895 253.36H134.983V257.504C134.983 257.888 135.058 258.165 135.207 258.336C135.357 258.496 135.618 258.576 135.991 258.576C136.365 258.576 136.733 258.475 137.095 258.272C137.191 258.357 137.261 258.464 137.303 258.592C137.357 258.72 137.383 258.853 137.383 258.992C137.383 259.291 137.229 259.557 136.919 259.792C136.61 260.027 136.183 260.144 135.639 260.144ZM141.195 260.144C140.63 260.144 140.118 260.037 139.659 259.824C139.201 259.611 138.838 259.301 138.571 258.896C138.305 258.491 138.171 258.016 138.171 257.472C138.171 256.917 138.31 256.437 138.587 256.032C138.875 255.616 139.265 255.301 139.755 255.088C140.246 254.864 140.795 254.752 141.403 254.752C142.374 254.752 143.19 255.083 143.851 255.744L143.931 255.664C143.739 255.472 143.585 255.333 143.467 255.248V254.8C143.467 254.331 143.307 253.963 142.987 253.696C142.667 253.419 142.219 253.28 141.643 253.28C141.131 253.28 140.683 253.381 140.299 253.584C139.915 253.776 139.606 254.064 139.371 254.448C139.158 254.373 138.977 254.256 138.827 254.096C138.689 253.936 138.619 253.765 138.619 253.584C138.619 253.275 138.763 252.987 139.051 252.72C139.339 252.453 139.723 252.245 140.203 252.096C140.694 251.936 141.222 251.856 141.787 251.856C142.875 251.856 143.718 252.117 144.315 252.64C144.923 253.152 145.227 253.856 145.227 254.752V258.896C145.227 259.333 145.094 259.653 144.827 259.856C144.561 260.048 144.134 260.144 143.547 260.144V259.456C143.739 259.264 143.867 259.125 143.931 259.04L143.851 258.976C143.51 259.36 143.126 259.653 142.699 259.856C142.283 260.048 141.782 260.144 141.195 260.144ZM141.611 258.8C142.198 258.8 142.657 258.683 142.987 258.448C143.329 258.213 143.499 257.883 143.499 257.456C143.499 257.029 143.329 256.699 142.987 256.464C142.657 256.219 142.203 256.096 141.627 256.096C141.105 256.096 140.689 256.219 140.379 256.464C140.081 256.699 139.931 257.029 139.931 257.456C139.931 257.893 140.081 258.229 140.379 258.464C140.678 258.688 141.089 258.8 141.611 258.8ZM151.068 253.408C150.45 253.408 149.943 253.584 149.548 253.936C149.154 254.277 148.956 254.699 148.956 255.2V258.992C148.956 259.397 148.807 259.691 148.508 259.872C148.22 260.053 147.772 260.144 147.164 260.144V253.28C147.164 252.331 147.735 251.856 148.876 251.856V252.816C148.727 252.987 148.604 253.157 148.508 253.328L148.588 253.392C149.282 252.368 150.13 251.856 151.132 251.856C151.559 251.856 151.884 251.968 152.108 252.192C152.332 252.405 152.444 252.677 152.444 253.008C152.444 253.253 152.38 253.472 152.252 253.664C151.943 253.493 151.548 253.408 151.068 253.408ZM157.124 260.144C156.292 260.144 155.673 259.904 155.268 259.424C154.873 258.944 154.676 258.325 154.676 257.568V253.36H153.076C153.076 252.901 153.166 252.56 153.348 252.336C153.529 252.112 153.774 252 154.084 252H154.692V250.608C154.692 250.203 154.836 249.909 155.124 249.728C155.422 249.547 155.865 249.456 156.452 249.456V252H158.58C158.58 252.48 158.484 252.827 158.292 253.04C158.1 253.253 157.796 253.36 157.38 253.36H156.468V257.504C156.468 257.888 156.542 258.165 156.692 258.336C156.841 258.496 157.102 258.576 157.476 258.576C157.849 258.576 158.217 258.475 158.58 258.272C158.676 258.357 158.745 258.464 158.788 258.592C158.841 258.72 158.868 258.853 158.868 258.992C158.868 259.291 158.713 259.557 158.404 259.792C158.094 260.027 157.668 260.144 157.124 260.144ZM167.915 250.48H164.027C164.027 249.36 164.544 248.8 165.579 248.8H173.707C173.707 249.355 173.574 249.776 173.307 250.064C173.051 250.341 172.667 250.48 172.155 250.48H169.835V258.672C169.835 259.141 169.67 259.504 169.339 259.76C169.008 260.016 168.534 260.144 167.915 260.144V250.48ZM177.178 253.408C176.559 253.408 176.052 253.584 175.658 253.936C175.263 254.277 175.066 254.699 175.066 255.2V258.992C175.066 259.397 174.916 259.691 174.618 259.872C174.33 260.053 173.882 260.144 173.274 260.144V253.28C173.274 252.331 173.844 251.856 174.986 251.856V252.816C174.836 252.987 174.714 253.157 174.618 253.328L174.698 253.392C175.391 252.368 176.239 251.856 177.242 251.856C177.668 251.856 177.994 251.968 178.218 252.192C178.442 252.405 178.554 252.677 178.554 253.008C178.554 253.253 178.49 253.472 178.362 253.664C178.052 253.493 177.658 253.408 177.178 253.408ZM180.865 250.944C180.513 250.944 180.22 250.837 179.985 250.624C179.75 250.4 179.633 250.123 179.633 249.792C179.633 249.461 179.75 249.189 179.985 248.976C180.22 248.763 180.513 248.656 180.865 248.656C181.217 248.656 181.51 248.763 181.745 248.976C181.98 249.189 182.097 249.461 182.097 249.792C182.097 250.123 181.98 250.4 181.745 250.624C181.51 250.837 181.217 250.944 180.865 250.944ZM179.969 253.008C179.969 252.603 180.118 252.309 180.417 252.128C180.716 251.947 181.164 251.856 181.761 251.856V258.992C181.761 259.397 181.612 259.691 181.313 259.872C181.014 260.053 180.566 260.144 179.969 260.144V253.008ZM184.117 253.152C184.117 252.779 184.256 252.469 184.533 252.224C184.811 251.979 185.227 251.856 185.781 251.856V252.736C185.643 252.907 185.541 253.045 185.477 253.152L185.541 253.216C185.872 252.779 186.245 252.443 186.661 252.208C187.077 251.973 187.589 251.856 188.197 251.856C189.093 251.856 189.819 252.117 190.373 252.64C190.939 253.163 191.221 253.851 191.221 254.704V257.296C191.221 257.861 191.083 258.363 190.805 258.8C190.528 259.227 190.144 259.557 189.653 259.792C189.173 260.027 188.624 260.144 188.005 260.144C187.579 260.144 187.152 260.053 186.725 259.872C186.299 259.691 185.936 259.451 185.637 259.152L185.589 259.232C185.653 259.317 185.765 259.429 185.925 259.568V262.08C185.925 262.923 185.323 263.344 184.117 263.344V253.152ZM187.669 258.576C188.235 258.576 188.667 258.459 188.965 258.224C189.275 257.979 189.429 257.637 189.429 257.2V254.816C189.429 254.357 189.275 254.011 188.965 253.776C188.667 253.531 188.235 253.408 187.669 253.408C187.157 253.408 186.736 253.536 186.405 253.792C186.075 254.048 185.909 254.363 185.909 254.736V257.264C185.909 257.637 186.069 257.952 186.389 258.208C186.709 258.453 187.136 258.576 187.669 258.576Z" fill="black"/>
<path d="M100.5 243C98.2255 243 96.0021 243.674 94.1109 244.938C92.2198 246.202 90.7458 247.998 89.8754 250.099C89.005 252.2 88.7772 254.513 89.221 256.743C89.6647 258.974 90.76 261.023 92.3683 262.632C93.9766 264.24 96.0257 265.335 98.2565 265.779C100.487 266.223 102.8 265.995 104.901 265.125C107.002 264.254 108.798 262.78 110.062 260.889C111.326 258.998 112 256.774 112 254.5C111.997 251.451 110.784 248.528 108.628 246.372C106.472 244.216 103.549 243.003 100.5 243ZM100.5 264.231C98.5754 264.231 96.6941 263.66 95.0939 262.591C93.4937 261.522 92.2464 260.002 91.5099 258.224C90.7734 256.446 90.5807 254.489 90.9562 252.602C91.3317 250.714 92.2584 248.98 93.6193 247.619C94.9802 246.258 96.714 245.332 98.6016 244.956C100.489 244.581 102.446 244.773 104.224 245.51C106.002 246.246 107.522 247.494 108.591 249.094C109.66 250.694 110.231 252.575 110.231 254.5C110.228 257.08 109.202 259.553 107.377 261.377C105.553 263.202 103.08 264.228 100.5 264.231Z" fill="black"/>
<path d="M100.5 262.461C104.897 262.461 108.461 258.897 108.461 254.5C108.461 250.103 104.897 246.538 100.5 246.538C96.1026 246.538 92.5381 250.103 92.5381 254.5C92.5381 258.897 96.1026 262.461 100.5 262.461Z" fill="#FF0000"/>
<path d="M50.416 144C50.256 144 50.12 143.952 50.008 143.856C49.896 143.752 49.84 143.624 49.84 143.472V136.128C49.84 135.976 49.892 135.852 49.996 135.756C50.108 135.652 50.248 135.6 50.416 135.6H53.224C53.904 135.6 54.504 135.728 55.024 135.984C55.544 136.24 55.948 136.6 56.236 137.064C56.532 137.52 56.68 138.044 56.68 138.636V140.94C56.68 141.532 56.532 142.06 56.236 142.524C55.948 142.988 55.54 143.352 55.012 143.616C54.492 143.872 53.896 144 53.224 144H50.416ZM53.104 143.016C53.872 143.016 54.472 142.836 54.904 142.476C55.336 142.108 55.552 141.6 55.552 140.952V138.624C55.552 137.984 55.336 137.484 54.904 137.124C54.472 136.764 53.872 136.584 53.104 136.584H50.968V143.016H53.104ZM59.0343 136.992C58.8103 136.992 58.6223 136.92 58.4703 136.776C58.3183 136.632 58.2423 136.452 58.2423 136.236C58.2423 136.02 58.3183 135.844 58.4703 135.708C58.6223 135.564 58.8103 135.492 59.0343 135.492C59.2503 135.492 59.4343 135.564 59.5863 135.708C59.7383 135.844 59.8143 136.02 59.8143 136.236C59.8143 136.452 59.7383 136.632 59.5863 136.776C59.4343 136.92 59.2503 136.992 59.0343 136.992ZM58.5063 138.66C58.5063 138.396 58.5903 138.204 58.7583 138.084C58.9343 137.956 59.1983 137.892 59.5503 137.892V143.34C59.5503 143.604 59.4623 143.8 59.2863 143.928C59.1183 144.048 58.8583 144.108 58.5063 144.108V138.66ZM63.6722 144.108C63.2642 144.108 62.8802 144.048 62.5202 143.928C62.1602 143.8 61.8682 143.62 61.6442 143.388C61.4282 143.156 61.3202 142.884 61.3202 142.572C61.3202 142.188 61.5522 141.98 62.0162 141.948C62.0962 142.396 62.2842 142.728 62.5802 142.944C62.8842 143.152 63.2682 143.256 63.7322 143.256C64.1962 143.256 64.5562 143.188 64.8122 143.052C65.0682 142.916 65.1962 142.708 65.1962 142.428C65.1962 142.228 65.1442 142.068 65.0402 141.948C64.9362 141.82 64.7682 141.712 64.5362 141.624C64.3122 141.528 63.9882 141.436 63.5642 141.348C63.0362 141.228 62.6162 141.1 62.3042 140.964C61.9922 140.828 61.7522 140.648 61.5842 140.424C61.4242 140.2 61.3442 139.904 61.3442 139.536C61.3442 139.224 61.4402 138.944 61.6322 138.696C61.8242 138.44 62.0882 138.244 62.4242 138.108C62.7682 137.964 63.1562 137.892 63.5882 137.892C63.9882 137.892 64.3642 137.948 64.7162 138.06C65.0762 138.172 65.3642 138.332 65.5802 138.54C65.8042 138.748 65.9162 138.988 65.9162 139.26C65.9162 139.444 65.8442 139.592 65.7002 139.704C65.5562 139.808 65.3562 139.868 65.1002 139.884C65.0762 139.532 64.9322 139.256 64.6682 139.056C64.4122 138.848 64.0522 138.744 63.5882 138.744C63.2042 138.744 62.9002 138.816 62.6762 138.96C62.4522 139.104 62.3402 139.296 62.3402 139.536C62.3402 139.792 62.4442 139.984 62.6522 140.112C62.8682 140.232 63.2322 140.348 63.7442 140.46C64.5842 140.628 65.2002 140.86 65.5922 141.156C65.9922 141.444 66.1922 141.856 66.1922 142.392C66.1922 142.936 65.9722 143.36 65.5322 143.664C65.0922 143.96 64.4722 144.108 63.6722 144.108ZM69.4194 144.108C68.8514 144.108 68.4274 143.948 68.1474 143.628C67.8674 143.3 67.7274 142.872 67.7274 142.344V138.84H66.6114C66.6114 138.568 66.6714 138.36 66.7914 138.216C66.9114 138.072 67.0754 138 67.2834 138H67.7394V136.86C67.7394 136.596 67.8234 136.404 67.9914 136.284C68.1674 136.156 68.4274 136.092 68.7714 136.092V138H70.3674C70.3674 138.56 70.1154 138.84 69.6114 138.84H68.7834V142.308C68.7834 142.628 68.8394 142.856 68.9514 142.992C69.0714 143.12 69.2834 143.184 69.5874 143.184C69.8674 143.184 70.1314 143.112 70.3794 142.968C70.4834 143.072 70.5354 143.212 70.5354 143.388C70.5354 143.58 70.4354 143.748 70.2354 143.892C70.0354 144.036 69.7634 144.108 69.4194 144.108ZM73.6172 144.108C72.9292 144.108 72.3732 143.924 71.9492 143.556C71.5332 143.188 71.3252 142.704 71.3252 142.104C71.3252 141.496 71.5452 141.008 71.9852 140.64C72.4252 140.264 73.0052 140.076 73.7252 140.076C74.4932 140.076 75.1252 140.348 75.6212 140.892L75.6692 140.844C75.5812 140.748 75.4812 140.648 75.3692 140.544V140.04C75.3692 139.632 75.2412 139.316 74.9852 139.092C74.7292 138.868 74.3652 138.756 73.8932 138.756C73.0532 138.756 72.4532 139.088 72.0932 139.752C71.9652 139.688 71.8572 139.604 71.7692 139.5C71.6892 139.388 71.6492 139.276 71.6492 139.164C71.6492 138.948 71.7572 138.744 71.9732 138.552C72.1892 138.352 72.4732 138.192 72.8252 138.072C73.1852 137.952 73.5612 137.892 73.9532 137.892C74.7132 137.892 75.3092 138.08 75.7412 138.456C76.1812 138.832 76.4012 139.352 76.4012 140.016V143.304C76.4012 143.584 76.3212 143.788 76.1612 143.916C76.0012 144.044 75.7492 144.108 75.4052 144.108V143.544C75.5732 143.368 75.6652 143.264 75.6812 143.232L75.6332 143.184C75.1132 143.8 74.4412 144.108 73.6172 144.108ZM73.7972 143.28C74.2932 143.28 74.6812 143.176 74.9612 142.968C75.2492 142.76 75.3932 142.472 75.3932 142.104C75.3932 141.736 75.2532 141.444 74.9732 141.228C74.6932 141.012 74.3092 140.904 73.8212 140.904C73.3652 140.904 73.0052 141.012 72.7412 141.228C72.4852 141.436 72.3572 141.728 72.3572 142.104C72.3572 142.48 72.4812 142.772 72.7292 142.98C72.9852 143.18 73.3412 143.28 73.7972 143.28ZM78.0236 138.78C78.0236 138.188 78.3596 137.892 79.0316 137.892V138.66C78.9596 138.732 78.8756 138.84 78.7796 138.984L78.8276 139.032C79.0676 138.696 79.3796 138.424 79.7636 138.216C80.1476 138 80.5636 137.892 81.0116 137.892C81.6596 137.892 82.1716 138.084 82.5476 138.468C82.9236 138.852 83.1116 139.348 83.1116 139.956V143.34C83.1116 143.604 83.0236 143.8 82.8476 143.928C82.6796 144.048 82.4196 144.108 82.0676 144.108V140.064C82.0676 139.68 81.9596 139.376 81.7436 139.152C81.5276 138.928 81.1996 138.816 80.7596 138.816C80.4636 138.816 80.1836 138.88 79.9196 139.008C79.6636 139.128 79.4556 139.296 79.2956 139.512C79.1436 139.72 79.0676 139.948 79.0676 140.196V143.34C79.0676 143.604 78.9796 143.8 78.8036 143.928C78.6356 144.048 78.3756 144.108 78.0236 144.108V138.78ZM87.0681 144.108C86.5801 144.108 86.1441 144.02 85.7601 143.844C85.3761 143.668 85.0761 143.42 84.8601 143.1C84.6521 142.78 84.5481 142.416 84.5481 142.008V140.064C84.5481 139.64 84.6521 139.264 84.8601 138.936C85.0761 138.608 85.3721 138.352 85.7481 138.168C86.1241 137.984 86.5561 137.892 87.0441 137.892C87.5001 137.892 87.9041 137.96 88.2561 138.096C88.6161 138.224 88.8961 138.408 89.0961 138.648C89.2961 138.888 89.3961 139.16 89.3961 139.464C89.3961 139.664 89.3161 139.828 89.1561 139.956C89.0041 140.076 88.8041 140.128 88.5561 140.112C88.5561 139.728 88.4161 139.416 88.1361 139.176C87.8641 138.936 87.5081 138.816 87.0681 138.816C86.6281 138.816 86.2721 138.936 86.0001 139.176C85.7281 139.408 85.5921 139.712 85.5921 140.088V141.96C85.5921 142.32 85.7321 142.616 86.0121 142.848C86.2921 143.072 86.6521 143.184 87.0921 143.184C87.5321 143.184 87.8881 143.064 88.1601 142.824C88.4401 142.584 88.5801 142.276 88.5801 141.9C88.8361 141.884 89.0401 141.936 89.1921 142.056C89.3521 142.168 89.4321 142.328 89.4321 142.536C89.4321 142.84 89.3321 143.112 89.1321 143.352C88.9321 143.592 88.6521 143.78 88.2921 143.916C87.9321 144.044 87.5241 144.108 87.0681 144.108ZM93.2208 144.108C92.7328 144.108 92.2968 144.016 91.9128 143.832C91.5288 143.64 91.2288 143.38 91.0128 143.052C90.7968 142.716 90.6888 142.34 90.6888 141.924V140.148C90.6888 139.724 90.8008 139.34 91.0248 138.996C91.2568 138.652 91.5648 138.384 91.9488 138.192C92.3408 137.992 92.7648 137.892 93.2208 137.892C93.6768 137.892 94.0928 137.988 94.4688 138.18C94.8528 138.372 95.1528 138.636 95.3688 138.972C95.5928 139.308 95.7048 139.688 95.7048 140.112V140.88C95.7048 141.008 95.6568 141.116 95.5608 141.204C95.4648 141.292 95.3488 141.336 95.2128 141.336H91.7088V141.876C91.7088 142.284 91.8368 142.612 92.0928 142.86C92.3568 143.108 92.7328 143.232 93.2208 143.232C93.7088 143.232 94.0808 143.124 94.3368 142.908C94.5928 142.692 94.7208 142.4 94.7208 142.032C94.9608 142.016 95.1608 142.064 95.3208 142.176C95.4888 142.28 95.5728 142.436 95.5728 142.644C95.5728 142.9 95.4608 143.14 95.2368 143.364C95.0208 143.588 94.7328 143.768 94.3728 143.904C94.0128 144.04 93.6288 144.108 93.2208 144.108ZM94.7328 140.52V140.112C94.7328 139.712 94.5928 139.388 94.3128 139.14C94.0408 138.884 93.6768 138.756 93.2208 138.756C92.7648 138.756 92.3968 138.884 92.1168 139.14C91.8448 139.388 91.7088 139.712 91.7088 140.112V140.52H94.7328Z" fill="white"/>
<path d="M61.952 177.324C60.128 177.324 58.448 176.976 56.912 176.28C55.4 175.56 54.2 174.588 53.312 173.364C52.424 172.14 51.98 170.784 51.98 169.296V159.504C51.98 158.016 52.424 156.66 53.312 155.436C54.2 154.212 55.4 153.252 56.912 152.556C58.448 151.836 60.128 151.476 61.952 151.476C63.8 151.476 65.48 151.836 66.992 152.556C68.528 153.252 69.728 154.212 70.592 155.436C71.48 156.66 71.924 158.016 71.924 159.504V169.296C71.924 170.784 71.48 172.14 70.592 173.364C69.704 174.588 68.492 175.56 66.956 176.28C65.444 176.976 63.776 177.324 61.952 177.324ZM61.952 173.508C63.656 173.508 65.024 173.112 66.056 172.32C67.088 171.528 67.604 170.472 67.604 169.152V159.612C67.604 158.316 67.088 157.272 66.056 156.48C65.024 155.688 63.656 155.292 61.952 155.292C60.272 155.292 58.916 155.688 57.884 156.48C56.852 157.272 56.336 158.316 56.336 159.612V169.152C56.336 170.472 56.84 171.528 57.848 172.32C58.88 173.112 60.248 173.508 61.952 173.508ZM85.8583 177.324C84.0343 177.324 82.3543 176.976 80.8183 176.28C79.3063 175.56 78.1063 174.588 77.2183 173.364C76.3303 172.14 75.8863 170.784 75.8863 169.296V159.504C75.8863 158.016 76.3303 156.66 77.2183 155.436C78.1063 154.212 79.3063 153.252 80.8183 152.556C82.3543 151.836 84.0343 151.476 85.8583 151.476C87.7063 151.476 89.3863 151.836 90.8983 152.556C92.4343 153.252 93.6343 154.212 94.4983 155.436C95.3863 156.66 95.8303 158.016 95.8303 159.504V169.296C95.8303 170.784 95.3863 172.14 94.4983 173.364C93.6103 174.588 92.3983 175.56 90.8623 176.28C89.3503 176.976 87.6823 177.324 85.8583 177.324ZM85.8583 173.508C87.5623 173.508 88.9303 173.112 89.9623 172.32C90.9943 171.528 91.5103 170.472 91.5103 169.152V159.612C91.5103 158.316 90.9943 157.272 89.9623 156.48C88.9303 155.688 87.5623 155.292 85.8583 155.292C84.1783 155.292 82.8223 155.688 81.7903 156.48C80.7583 157.272 80.2423 158.316 80.2423 159.612V169.152C80.2423 170.472 80.7463 171.528 81.7543 172.32C82.7863 173.112 84.1543 173.508 85.8583 173.508Z" fill="white"/>
<path d="M104.928 175.784C104.776 176 104.564 176.108 104.292 176.108C104.156 176.108 104.036 176.08 103.932 176.024C103.828 175.968 103.732 175.872 103.644 175.736L101.844 172.964L100.98 173.744V175.304C100.98 175.84 100.584 176.108 99.792 176.108V168.452C99.792 167.812 100.192 167.492 100.992 167.492L100.98 172.484L103.836 169.904C104.124 170.152 104.268 170.36 104.268 170.528C104.268 170.64 104.24 170.736 104.184 170.816C104.128 170.888 104.028 170.992 103.884 171.128L102.576 172.316L104.928 175.784ZM106.261 170.864C106.261 170.216 106.641 169.892 107.401 169.892V170.648C107.321 170.728 107.233 170.84 107.137 170.984L107.197 171.032C107.453 170.664 107.721 170.384 108.001 170.192C108.281 169.992 108.613 169.892 108.997 169.892C109.717 169.892 110.209 170.236 110.473 170.924C110.921 170.236 111.529 169.892 112.297 169.892C112.857 169.892 113.293 170.084 113.605 170.468C113.925 170.852 114.085 171.352 114.085 171.968V175.292C114.085 175.572 113.985 175.78 113.785 175.916C113.593 176.044 113.297 176.108 112.897 176.108V172.052C112.897 171.292 112.589 170.912 111.973 170.912C111.637 170.912 111.349 171.028 111.109 171.26C110.877 171.484 110.761 171.8 110.761 172.208V175.292C110.761 175.58 110.665 175.788 110.473 175.916C110.281 176.044 109.989 176.108 109.597 176.108V172.052C109.597 171.7 109.521 171.424 109.369 171.224C109.217 171.016 108.981 170.912 108.661 170.912C108.309 170.912 108.017 171.04 107.785 171.296C107.561 171.544 107.449 171.86 107.449 172.244V175.292C107.449 175.572 107.349 175.78 107.149 175.916C106.957 176.044 106.661 176.108 106.261 176.108V170.864Z" fill="white"/>
<path d="M172.308 144.108C172.068 144.06 171.88 143.96 171.744 143.808C171.608 143.648 171.54 143.456 171.54 143.232C171.54 143.08 171.576 142.92 171.648 142.752L174.516 135.852C174.612 135.612 174.796 135.492 175.068 135.492C175.324 135.492 175.504 135.612 175.608 135.852L178.476 142.752C178.548 142.92 178.584 143.08 178.584 143.232C178.584 143.448 178.516 143.636 178.38 143.796C178.244 143.956 178.056 144.06 177.816 144.108L176.784 141.6H173.34L172.308 144.108ZM176.436 140.628L174.888 136.704L174.792 136.74L175.008 137.292L173.688 140.628H176.436ZM181.708 144.108C181.588 144.108 181.48 144.076 181.384 144.012C181.288 143.948 181.22 143.868 181.18 143.772L178.876 137.976C178.924 137.952 178.992 137.932 179.08 137.916C179.168 137.9 179.248 137.892 179.32 137.892C179.496 137.892 179.652 137.932 179.788 138.012C179.924 138.092 180.016 138.208 180.064 138.36L181.648 142.668L181.48 143.148L181.54 143.172L183.34 138.36C183.388 138.208 183.48 138.092 183.616 138.012C183.752 137.932 183.904 137.892 184.072 137.892C184.144 137.892 184.224 137.9 184.312 137.916C184.4 137.932 184.472 137.952 184.528 137.976L182.224 143.772C182.184 143.868 182.116 143.948 182.02 144.012C181.932 144.076 181.828 144.108 181.708 144.108ZM187.505 146.508C187.089 146.508 186.701 146.44 186.341 146.304C185.981 146.168 185.697 145.984 185.489 145.752C185.281 145.528 185.177 145.284 185.177 145.02C185.177 144.812 185.245 144.66 185.381 144.564C185.525 144.468 185.717 144.42 185.957 144.42C185.973 144.796 186.117 145.092 186.389 145.308C186.669 145.532 187.041 145.644 187.505 145.644C188.529 145.644 189.041 145.148 189.041 144.156V143.46C189.153 143.364 189.237 143.276 189.293 143.196L189.257 143.136C189.025 143.384 188.733 143.588 188.381 143.748C188.037 143.908 187.689 143.988 187.337 143.988C186.649 143.988 186.085 143.8 185.645 143.424C185.213 143.04 184.997 142.536 184.997 141.912V139.98C184.997 139.572 185.097 139.212 185.297 138.9C185.505 138.58 185.785 138.332 186.137 138.156C186.497 137.98 186.893 137.892 187.325 137.892C188.109 137.892 188.765 138.236 189.293 138.924L189.341 138.876L189.101 138.576C189.101 138.352 189.177 138.184 189.329 138.072C189.489 137.952 189.745 137.892 190.097 137.892V144.048C190.097 144.528 189.985 144.952 189.761 145.32C189.545 145.696 189.241 145.988 188.849 146.196C188.457 146.404 188.009 146.508 187.505 146.508ZM187.529 143.076C187.953 143.076 188.313 142.964 188.609 142.74C188.905 142.508 189.053 142.236 189.053 141.924V139.968C189.053 139.64 188.905 139.364 188.609 139.14C188.321 138.916 187.969 138.804 187.553 138.804C187.073 138.804 186.701 138.912 186.437 139.128C186.173 139.336 186.041 139.636 186.041 140.028V141.864C186.041 142.24 186.169 142.536 186.425 142.752C186.689 142.968 187.057 143.076 187.529 143.076ZM197.867 144.108C197.195 144.108 196.611 144.012 196.115 143.82C195.627 143.628 195.255 143.372 194.999 143.052C194.743 142.732 194.615 142.388 194.615 142.02C194.615 141.716 194.695 141.484 194.855 141.324C195.015 141.156 195.259 141.072 195.587 141.072C195.587 141.752 195.791 142.272 196.199 142.632C196.607 142.984 197.179 143.16 197.915 143.16C198.619 143.16 199.159 143.044 199.535 142.812C199.911 142.572 200.099 142.22 200.099 141.756C200.099 141.476 200.027 141.248 199.883 141.072C199.747 140.888 199.511 140.732 199.175 140.604C198.847 140.468 198.371 140.332 197.747 140.196C197.011 140.036 196.427 139.852 195.995 139.644C195.563 139.428 195.247 139.168 195.047 138.864C194.847 138.56 194.747 138.184 194.747 137.736C194.747 137.288 194.871 136.896 195.119 136.56C195.375 136.216 195.735 135.952 196.199 135.768C196.663 135.584 197.203 135.492 197.819 135.492C198.403 135.492 198.923 135.576 199.379 135.744C199.843 135.904 200.203 136.136 200.459 136.44C200.723 136.736 200.855 137.072 200.855 137.448C200.855 137.68 200.779 137.864 200.627 138C200.483 138.128 200.255 138.192 199.943 138.192C199.855 137.584 199.639 137.14 199.295 136.86C198.959 136.58 198.467 136.44 197.819 136.44C197.195 136.44 196.715 136.552 196.379 136.776C196.043 136.992 195.875 137.3 195.875 137.7C195.875 137.98 195.935 138.212 196.055 138.396C196.183 138.572 196.395 138.724 196.691 138.852C196.995 138.98 197.419 139.104 197.963 139.224C198.779 139.4 199.419 139.596 199.883 139.812C200.355 140.028 200.695 140.292 200.903 140.604C201.111 140.916 201.215 141.3 201.215 141.756C201.215 142.484 200.911 143.06 200.303 143.484C199.695 143.9 198.883 144.108 197.867 144.108ZM202.59 138.744C202.59 138.48 202.67 138.272 202.83 138.12C202.998 137.968 203.25 137.892 203.586 137.892V138.564L203.346 138.876L203.382 138.924C203.63 138.604 203.914 138.352 204.234 138.168C204.554 137.984 204.934 137.892 205.374 137.892C206.062 137.892 206.618 138.084 207.042 138.468C207.466 138.844 207.678 139.348 207.678 139.98V142.032C207.678 142.664 207.458 143.168 207.018 143.544C206.578 143.92 206.006 144.108 205.302 144.108C204.926 144.108 204.578 144.032 204.258 143.88C203.946 143.72 203.67 143.512 203.43 143.256L203.394 143.316C203.45 143.396 203.534 143.484 203.646 143.58V145.692C203.646 146.236 203.294 146.508 202.59 146.508V138.744ZM205.146 143.184C205.618 143.184 205.986 143.08 206.25 142.872C206.514 142.656 206.646 142.36 206.646 141.984V140.028C206.646 139.636 206.514 139.336 206.25 139.128C205.986 138.92 205.614 138.816 205.134 138.816C204.71 138.816 204.354 138.928 204.066 139.152C203.778 139.368 203.634 139.64 203.634 139.968V142.044C203.634 142.364 203.77 142.636 204.042 142.86C204.314 143.076 204.682 143.184 205.146 143.184ZM211.647 144.108C211.159 144.108 210.723 144.016 210.339 143.832C209.955 143.64 209.655 143.38 209.439 143.052C209.223 142.716 209.115 142.34 209.115 141.924V140.148C209.115 139.724 209.227 139.34 209.451 138.996C209.683 138.652 209.991 138.384 210.375 138.192C210.767 137.992 211.191 137.892 211.647 137.892C212.103 137.892 212.519 137.988 212.895 138.18C213.279 138.372 213.579 138.636 213.795 138.972C214.019 139.308 214.131 139.688 214.131 140.112V140.88C214.131 141.008 214.083 141.116 213.987 141.204C213.891 141.292 213.775 141.336 213.639 141.336H210.135V141.876C210.135 142.284 210.263 142.612 210.519 142.86C210.783 143.108 211.159 143.232 211.647 143.232C212.135 143.232 212.507 143.124 212.763 142.908C213.019 142.692 213.147 142.4 213.147 142.032C213.387 142.016 213.587 142.064 213.747 142.176C213.915 142.28 213.999 142.436 213.999 142.644C213.999 142.9 213.887 143.14 213.663 143.364C213.447 143.588 213.159 143.768 212.799 143.904C212.439 144.04 212.055 144.108 211.647 144.108ZM213.159 140.52V140.112C213.159 139.712 213.019 139.388 212.739 139.14C212.467 138.884 212.103 138.756 211.647 138.756C211.191 138.756 210.823 138.884 210.543 139.14C210.271 139.388 210.135 139.712 210.135 140.112V140.52H213.159ZM217.928 144.108C217.44 144.108 217.004 144.016 216.62 143.832C216.236 143.64 215.936 143.38 215.72 143.052C215.504 142.716 215.396 142.34 215.396 141.924V140.148C215.396 139.724 215.508 139.34 215.732 138.996C215.964 138.652 216.272 138.384 216.656 138.192C217.048 137.992 217.472 137.892 217.928 137.892C218.384 137.892 218.8 137.988 219.176 138.18C219.56 138.372 219.86 138.636 220.076 138.972C220.3 139.308 220.412 139.688 220.412 140.112V140.88C220.412 141.008 220.364 141.116 220.268 141.204C220.172 141.292 220.056 141.336 219.92 141.336H216.416V141.876C216.416 142.284 216.544 142.612 216.8 142.86C217.064 143.108 217.44 143.232 217.928 143.232C218.416 143.232 218.788 143.124 219.044 142.908C219.3 142.692 219.428 142.4 219.428 142.032C219.668 142.016 219.868 142.064 220.028 142.176C220.196 142.28 220.28 142.436 220.28 142.644C220.28 142.9 220.168 143.14 219.944 143.364C219.728 143.588 219.44 143.768 219.08 143.904C218.72 144.04 218.336 144.108 217.928 144.108ZM219.44 140.52V140.112C219.44 139.712 219.3 139.388 219.02 139.14C218.748 138.884 218.384 138.756 217.928 138.756C217.472 138.756 217.104 138.884 216.824 139.14C216.552 139.388 216.416 139.712 216.416 140.112V140.52H219.44ZM223.993 144.108C223.305 144.108 222.745 143.92 222.313 143.544C221.889 143.16 221.677 142.652 221.677 142.02V139.968C221.677 139.56 221.777 139.2 221.977 138.888C222.177 138.568 222.453 138.324 222.805 138.156C223.165 137.98 223.577 137.892 224.041 137.892C224.417 137.892 224.765 137.972 225.085 138.132C225.405 138.284 225.685 138.488 225.925 138.744L225.961 138.684C225.905 138.604 225.821 138.516 225.709 138.42V136.308C225.709 136.044 225.797 135.844 225.973 135.708C226.149 135.564 226.413 135.492 226.765 135.492V143.256C226.765 143.52 226.685 143.728 226.525 143.88C226.373 144.032 226.125 144.108 225.781 144.108V143.436C225.893 143.292 225.969 143.188 226.009 143.124L225.973 143.076C225.717 143.396 225.433 143.648 225.121 143.832C224.809 144.016 224.433 144.108 223.993 144.108ZM224.221 143.184C224.645 143.184 225.001 143.076 225.289 142.86C225.577 142.636 225.721 142.36 225.721 142.032V139.956C225.721 139.636 225.585 139.368 225.313 139.152C225.041 138.928 224.673 138.816 224.209 138.816C223.737 138.816 223.369 138.924 223.105 139.14C222.849 139.348 222.721 139.64 222.721 140.016V141.972C222.721 142.364 222.849 142.664 223.105 142.872C223.369 143.08 223.741 143.184 224.221 143.184Z" fill="white"/>
<path d="M183.952 177.324C182.128 177.324 180.448 176.976 178.912 176.28C177.4 175.56 176.2 174.588 175.312 173.364C174.424 172.14 173.98 170.784 173.98 169.296V159.504C173.98 158.016 174.424 156.66 175.312 155.436C176.2 154.212 177.4 153.252 178.912 152.556C180.448 151.836 182.128 151.476 183.952 151.476C185.8 151.476 187.48 151.836 188.992 152.556C190.528 153.252 191.728 154.212 192.592 155.436C193.48 156.66 193.924 158.016 193.924 159.504V169.296C193.924 170.784 193.48 172.14 192.592 173.364C191.704 174.588 190.492 175.56 188.956 176.28C187.444 176.976 185.776 177.324 183.952 177.324ZM183.952 173.508C185.656 173.508 187.024 173.112 188.056 172.32C189.088 171.528 189.604 170.472 189.604 169.152V159.612C189.604 158.316 189.088 157.272 188.056 156.48C187.024 155.688 185.656 155.292 183.952 155.292C182.272 155.292 180.916 155.688 179.884 156.48C178.852 157.272 178.336 158.316 178.336 159.612V169.152C178.336 170.472 178.84 171.528 179.848 172.32C180.88 173.112 182.248 173.508 183.952 173.508ZM207.858 177.324C206.034 177.324 204.354 176.976 202.818 176.28C201.306 175.56 200.106 174.588 199.218 173.364C198.33 172.14 197.886 170.784 197.886 169.296V159.504C197.886 158.016 198.33 156.66 199.218 155.436C200.106 154.212 201.306 153.252 202.818 152.556C204.354 151.836 206.034 151.476 207.858 151.476C209.706 151.476 211.386 151.836 212.898 152.556C214.434 153.252 215.634 154.212 216.498 155.436C217.386 156.66 217.83 158.016 217.83 159.504V169.296C217.83 170.784 217.386 172.14 216.498 173.364C215.61 174.588 214.398 175.56 212.862 176.28C211.35 176.976 209.682 177.324 207.858 177.324ZM207.858 173.508C209.562 173.508 210.93 173.112 211.962 172.32C212.994 171.528 213.51 170.472 213.51 169.152V159.612C213.51 158.316 212.994 157.272 211.962 156.48C210.93 155.688 209.562 155.292 207.858 155.292C206.178 155.292 204.822 155.688 203.79 156.48C202.758 157.272 202.242 158.316 202.242 159.612V169.152C202.242 170.472 202.746 171.528 203.754 172.32C204.786 173.112 206.154 173.508 207.858 173.508Z" fill="white"/>
<path d="M226.928 175.784C226.776 176 226.564 176.108 226.292 176.108C226.156 176.108 226.036 176.08 225.932 176.024C225.828 175.968 225.732 175.872 225.644 175.736L223.844 172.964L222.98 173.744V175.304C222.98 175.84 222.584 176.108 221.792 176.108V168.452C221.792 167.812 222.192 167.492 222.992 167.492L222.98 172.484L225.836 169.904C226.124 170.152 226.268 170.36 226.268 170.528C226.268 170.64 226.24 170.736 226.184 170.816C226.128 170.888 226.028 170.992 225.884 171.128L224.576 172.316L226.928 175.784ZM228.261 170.864C228.261 170.216 228.641 169.892 229.401 169.892V170.648C229.321 170.728 229.233 170.84 229.137 170.984L229.197 171.032C229.453 170.664 229.721 170.384 230.001 170.192C230.281 169.992 230.613 169.892 230.997 169.892C231.717 169.892 232.209 170.236 232.473 170.924C232.921 170.236 233.529 169.892 234.297 169.892C234.857 169.892 235.293 170.084 235.605 170.468C235.925 170.852 236.085 171.352 236.085 171.968V175.292C236.085 175.572 235.985 175.78 235.785 175.916C235.593 176.044 235.297 176.108 234.897 176.108V172.052C234.897 171.292 234.589 170.912 233.973 170.912C233.637 170.912 233.349 171.028 233.109 171.26C232.877 171.484 232.761 171.8 232.761 172.208V175.292C232.761 175.58 232.665 175.788 232.473 175.916C232.281 176.044 231.989 176.108 231.597 176.108V172.052C231.597 171.7 231.521 171.424 231.369 171.224C231.217 171.016 230.981 170.912 230.661 170.912C230.309 170.912 230.017 171.04 229.785 171.296C229.561 171.544 229.449 171.86 229.449 172.244V175.292C229.449 175.572 229.349 175.78 229.149 175.916C228.957 176.044 228.661 176.108 228.261 176.108V170.864ZM241.561 167.624C241.633 167.472 241.737 167.356 241.873 167.276C242.017 167.196 242.173 167.156 242.341 167.156C242.581 167.156 242.813 167.232 243.037 167.384L238.741 175.964C238.661 176.116 238.553 176.232 238.417 176.312C238.289 176.392 238.141 176.432 237.973 176.432C237.733 176.432 237.505 176.352 237.289 176.192L241.561 167.624ZM244.339 168.464C244.339 168.152 244.439 167.912 244.639 167.744C244.847 167.576 245.147 167.492 245.539 167.492V170.636C245.451 170.724 245.359 170.84 245.263 170.984L245.323 171.032C245.571 170.688 245.879 170.412 246.247 170.204C246.615 169.996 247.019 169.892 247.459 169.892C248.099 169.892 248.607 170.088 248.983 170.48C249.359 170.864 249.547 171.36 249.547 171.968V175.292C249.547 175.572 249.447 175.78 249.247 175.916C249.055 176.044 248.759 176.108 248.359 176.108V172.112C248.359 171.76 248.255 171.476 248.047 171.26C247.839 171.044 247.535 170.936 247.135 170.936C246.855 170.936 246.591 171 246.343 171.128C246.095 171.248 245.899 171.412 245.755 171.62C245.611 171.828 245.539 172.056 245.539 172.304V175.292C245.539 175.572 245.439 175.78 245.239 175.916C245.039 176.044 244.739 176.108 244.339 176.108V168.464Z" fill="white"/>
<path d="M103.844 60.428C103.844 60.132 103.944 59.904 104.144 59.744C104.344 59.576 104.62 59.492 104.972 59.492L107.876 66.464L107.648 67.028L107.732 67.064L110.804 59.492C111.156 59.492 111.432 59.576 111.632 59.744C111.84 59.912 111.944 60.144 111.944 60.44V68.108C111.2 68.108 110.828 67.8 110.828 67.184V62.132L111.14 61.304L111.044 61.28L108.368 67.784C108.328 67.88 108.264 67.956 108.176 68.012C108.088 68.076 107.996 68.108 107.9 68.108C107.796 68.108 107.7 68.08 107.612 68.024C107.524 67.968 107.46 67.888 107.42 67.784L104.744 61.268L104.648 61.304L104.96 62.12V67.184C104.96 67.488 104.864 67.72 104.672 67.88C104.488 68.032 104.212 68.108 103.844 68.108V60.428ZM115.909 68.108C115.421 68.108 114.977 68.016 114.577 67.832C114.185 67.648 113.877 67.4 113.653 67.088C113.437 66.768 113.329 66.412 113.329 66.02V64.052C113.329 63.652 113.437 63.288 113.653 62.96C113.877 62.632 114.185 62.372 114.577 62.18C114.969 61.988 115.413 61.892 115.909 61.892C116.405 61.892 116.849 61.988 117.241 62.18C117.641 62.372 117.949 62.632 118.165 62.96C118.389 63.288 118.501 63.652 118.501 64.052V66.02C118.501 66.412 118.389 66.768 118.165 67.088C117.941 67.4 117.633 67.648 117.241 67.832C116.849 68.016 116.405 68.108 115.909 68.108ZM115.909 67.208C116.389 67.208 116.769 67.096 117.049 66.872C117.337 66.64 117.481 66.34 117.481 65.972V64.088C117.481 63.704 117.337 63.392 117.049 63.152C116.769 62.912 116.389 62.792 115.909 62.792C115.437 62.792 115.057 62.912 114.769 63.152C114.481 63.392 114.337 63.704 114.337 64.088V65.972C114.337 66.34 114.477 66.64 114.757 66.872C115.045 67.096 115.429 67.208 115.909 67.208ZM121.634 68.108C121.514 68.108 121.406 68.076 121.31 68.012C121.214 67.948 121.146 67.868 121.106 67.772L118.802 61.976C118.85 61.952 118.918 61.932 119.006 61.916C119.094 61.9 119.174 61.892 119.246 61.892C119.422 61.892 119.578 61.932 119.714 62.012C119.85 62.092 119.942 62.208 119.99 62.36L121.574 66.668L121.406 67.148L121.466 67.172L123.266 62.36C123.314 62.208 123.406 62.092 123.542 62.012C123.678 61.932 123.83 61.892 123.998 61.892C124.07 61.892 124.15 61.9 124.238 61.916C124.326 61.932 124.398 61.952 124.454 61.976L122.15 67.772C122.11 67.868 122.042 67.948 121.946 68.012C121.858 68.076 121.754 68.108 121.634 68.108ZM126.316 60.992C126.092 60.992 125.904 60.92 125.752 60.776C125.6 60.632 125.524 60.452 125.524 60.236C125.524 60.02 125.6 59.844 125.752 59.708C125.904 59.564 126.092 59.492 126.316 59.492C126.532 59.492 126.716 59.564 126.868 59.708C127.02 59.844 127.096 60.02 127.096 60.236C127.096 60.452 127.02 60.632 126.868 60.776C126.716 60.92 126.532 60.992 126.316 60.992ZM125.788 62.66C125.788 62.396 125.872 62.204 126.04 62.084C126.216 61.956 126.48 61.892 126.832 61.892V67.34C126.832 67.604 126.744 67.8 126.568 67.928C126.4 68.048 126.14 68.108 125.788 68.108V62.66ZM128.781 62.78C128.781 62.188 129.117 61.892 129.789 61.892V62.66C129.717 62.732 129.633 62.84 129.537 62.984L129.585 63.032C129.825 62.696 130.137 62.424 130.521 62.216C130.905 62 131.321 61.892 131.769 61.892C132.417 61.892 132.929 62.084 133.305 62.468C133.681 62.852 133.869 63.348 133.869 63.956V67.34C133.869 67.604 133.781 67.8 133.605 67.928C133.437 68.048 133.177 68.108 132.825 68.108V64.064C132.825 63.68 132.717 63.376 132.501 63.152C132.285 62.928 131.957 62.816 131.517 62.816C131.221 62.816 130.941 62.88 130.677 63.008C130.421 63.128 130.213 63.296 130.053 63.512C129.901 63.72 129.825 63.948 129.825 64.196V67.34C129.825 67.604 129.737 67.8 129.561 67.928C129.393 68.048 129.133 68.108 128.781 68.108V62.78ZM137.814 70.508C137.398 70.508 137.01 70.44 136.65 70.304C136.29 70.168 136.006 69.984 135.798 69.752C135.59 69.528 135.486 69.284 135.486 69.02C135.486 68.812 135.554 68.66 135.69 68.564C135.834 68.468 136.026 68.42 136.266 68.42C136.282 68.796 136.426 69.092 136.698 69.308C136.978 69.532 137.35 69.644 137.814 69.644C138.838 69.644 139.35 69.148 139.35 68.156V67.46C139.462 67.364 139.546 67.276 139.602 67.196L139.566 67.136C139.334 67.384 139.042 67.588 138.69 67.748C138.346 67.908 137.998 67.988 137.646 67.988C136.958 67.988 136.394 67.8 135.954 67.424C135.522 67.04 135.306 66.536 135.306 65.912V63.98C135.306 63.572 135.406 63.212 135.606 62.9C135.814 62.58 136.094 62.332 136.446 62.156C136.806 61.98 137.202 61.892 137.634 61.892C138.418 61.892 139.074 62.236 139.602 62.924L139.65 62.876L139.41 62.576C139.41 62.352 139.486 62.184 139.638 62.072C139.798 61.952 140.054 61.892 140.406 61.892V68.048C140.406 68.528 140.294 68.952 140.07 69.32C139.854 69.696 139.55 69.988 139.158 70.196C138.766 70.404 138.318 70.508 137.814 70.508ZM137.838 67.076C138.262 67.076 138.622 66.964 138.918 66.74C139.214 66.508 139.362 66.236 139.362 65.924V63.968C139.362 63.64 139.214 63.364 138.918 63.14C138.63 62.916 138.278 62.804 137.862 62.804C137.382 62.804 137.01 62.912 136.746 63.128C136.482 63.336 136.35 63.636 136.35 64.028V65.864C136.35 66.24 136.478 66.536 136.734 66.752C136.998 66.968 137.366 67.076 137.838 67.076ZM147.684 60.596H144.756C144.756 59.932 145.068 59.6 145.692 59.6H151.728C151.728 60.264 151.416 60.596 150.792 60.596H148.812V67.172C148.812 67.476 148.716 67.708 148.524 67.868C148.332 68.028 148.052 68.108 147.684 68.108V60.596ZM152.882 60.992C152.658 60.992 152.47 60.92 152.318 60.776C152.166 60.632 152.09 60.452 152.09 60.236C152.09 60.02 152.166 59.844 152.318 59.708C152.47 59.564 152.658 59.492 152.882 59.492C153.098 59.492 153.282 59.564 153.434 59.708C153.586 59.844 153.662 60.02 153.662 60.236C153.662 60.452 153.586 60.632 153.434 60.776C153.282 60.92 153.098 60.992 152.882 60.992ZM152.354 62.66C152.354 62.396 152.438 62.204 152.606 62.084C152.782 61.956 153.046 61.892 153.398 61.892V67.34C153.398 67.604 153.31 67.8 153.134 67.928C152.966 68.048 152.706 68.108 152.354 68.108V62.66ZM155.348 62.78C155.348 62.188 155.68 61.892 156.344 61.892V62.66C156.24 62.772 156.156 62.88 156.092 62.984L156.14 63.032C156.396 62.672 156.668 62.392 156.956 62.192C157.244 61.992 157.576 61.892 157.952 61.892C158.68 61.892 159.18 62.24 159.452 62.936C159.908 62.24 160.516 61.892 161.276 61.892C161.844 61.892 162.28 62.084 162.584 62.468C162.896 62.844 163.052 63.34 163.052 63.956V67.34C163.052 67.604 162.964 67.8 162.788 67.928C162.62 68.048 162.364 68.108 162.02 68.108V64.016C162.02 63.632 161.94 63.332 161.78 63.116C161.62 62.9 161.368 62.792 161.024 62.792C160.664 62.792 160.356 62.916 160.1 63.164C159.844 63.404 159.716 63.728 159.716 64.136V67.34C159.716 67.604 159.632 67.8 159.464 67.928C159.296 68.048 159.04 68.108 158.696 68.108V64.016C158.696 63.632 158.616 63.332 158.456 63.116C158.296 62.9 158.044 62.792 157.7 62.792C157.332 62.792 157.02 62.924 156.764 63.188C156.508 63.452 156.38 63.776 156.38 64.16V67.34C156.38 67.604 156.292 67.8 156.116 67.928C155.948 68.048 155.692 68.108 155.348 68.108V62.78ZM167.029 68.108C166.541 68.108 166.105 68.016 165.721 67.832C165.337 67.64 165.037 67.38 164.821 67.052C164.605 66.716 164.497 66.34 164.497 65.924V64.148C164.497 63.724 164.609 63.34 164.833 62.996C165.065 62.652 165.373 62.384 165.757 62.192C166.149 61.992 166.573 61.892 167.029 61.892C167.485 61.892 167.901 61.988 168.277 62.18C168.661 62.372 168.961 62.636 169.177 62.972C169.401 63.308 169.513 63.688 169.513 64.112V64.88C169.513 65.008 169.465 65.116 169.369 65.204C169.273 65.292 169.157 65.336 169.021 65.336H165.517V65.876C165.517 66.284 165.645 66.612 165.901 66.86C166.165 67.108 166.541 67.232 167.029 67.232C167.517 67.232 167.889 67.124 168.145 66.908C168.401 66.692 168.529 66.4 168.529 66.032C168.769 66.016 168.969 66.064 169.129 66.176C169.297 66.28 169.381 66.436 169.381 66.644C169.381 66.9 169.269 67.14 169.045 67.364C168.829 67.588 168.541 67.768 168.181 67.904C167.821 68.04 167.437 68.108 167.029 68.108ZM168.541 64.52V64.112C168.541 63.712 168.401 63.388 168.121 63.14C167.849 62.884 167.485 62.756 167.029 62.756C166.573 62.756 166.205 62.884 165.925 63.14C165.653 63.388 165.517 63.712 165.517 64.112V64.52H168.541Z" fill="white"/>
<path d="M70.952 106.324C69.128 106.324 67.448 105.976 65.912 105.28C64.4 104.56 63.2 103.588 62.312 102.364C61.424 101.14 60.98 99.784 60.98 98.296V88.504C60.98 87.016 61.424 85.66 62.312 84.436C63.2 83.212 64.4 82.252 65.912 81.556C67.448 80.836 69.128 80.476 70.952 80.476C72.8 80.476 74.48 80.836 75.992 81.556C77.528 82.252 78.728 83.212 79.592 84.436C80.48 85.66 80.924 87.016 80.924 88.504V98.296C80.924 99.784 80.48 101.14 79.592 102.364C78.704 103.588 77.492 104.56 75.956 105.28C74.444 105.976 72.776 106.324 70.952 106.324ZM70.952 102.508C72.656 102.508 74.024 102.112 75.056 101.32C76.088 100.528 76.604 99.472 76.604 98.152V88.612C76.604 87.316 76.088 86.272 75.056 85.48C74.024 84.688 72.656 84.292 70.952 84.292C69.272 84.292 67.916 84.688 66.884 85.48C65.852 86.272 65.336 87.316 65.336 88.612V98.152C65.336 99.472 65.84 100.528 66.848 101.32C67.88 102.112 69.248 102.508 70.952 102.508ZM94.8583 106.324C93.0343 106.324 91.3543 105.976 89.8183 105.28C88.3063 104.56 87.1063 103.588 86.2183 102.364C85.3303 101.14 84.8863 99.784 84.8863 98.296V88.504C84.8863 87.016 85.3303 85.66 86.2183 84.436C87.1063 83.212 88.3063 82.252 89.8183 81.556C91.3543 80.836 93.0343 80.476 94.8583 80.476C96.7063 80.476 98.3863 80.836 99.8983 81.556C101.434 82.252 102.634 83.212 103.498 84.436C104.386 85.66 104.83 87.016 104.83 88.504V98.296C104.83 99.784 104.386 101.14 103.498 102.364C102.61 103.588 101.398 104.56 99.8623 105.28C98.3503 105.976 96.6823 106.324 94.8583 106.324ZM94.8583 102.508C96.5623 102.508 97.9303 102.112 98.9623 101.32C99.9943 100.528 100.51 99.472 100.51 98.152V88.612C100.51 87.316 99.9943 86.272 98.9623 85.48C97.9303 84.688 96.5623 84.292 94.8583 84.292C93.1783 84.292 91.8223 84.688 90.7903 85.48C89.7583 86.272 89.2423 87.316 89.2423 88.612V98.152C89.2423 99.472 89.7463 100.528 90.7543 101.32C91.7863 102.112 93.1543 102.508 94.8583 102.508ZM111.277 93.544C110.413 93.544 109.693 93.268 109.117 92.716C108.541 92.14 108.253 91.42 108.253 90.556C108.253 89.716 108.541 89.008 109.117 88.432C109.693 87.856 110.413 87.568 111.277 87.568C112.117 87.568 112.837 87.868 113.437 88.468C114.037 89.044 114.337 89.74 114.337 90.556C114.337 91.42 114.037 92.14 113.437 92.716C112.837 93.268 112.117 93.544 111.277 93.544ZM111.277 106.324C110.413 106.324 109.693 106.048 109.117 105.496C108.541 104.92 108.253 104.2 108.253 103.336C108.253 102.496 108.541 101.788 109.117 101.212C109.693 100.636 110.413 100.348 111.277 100.348C112.117 100.348 112.837 100.636 113.437 101.212C114.037 101.788 114.337 102.496 114.337 103.336C114.337 104.176 114.037 104.884 113.437 105.46C112.837 106.036 112.117 106.324 111.277 106.324ZM127.729 106.324C125.905 106.324 124.225 105.976 122.689 105.28C121.177 104.56 119.977 103.588 119.089 102.364C118.201 101.14 117.757 99.784 117.757 98.296V88.504C117.757 87.016 118.201 85.66 119.089 84.436C119.977 83.212 121.177 82.252 122.689 81.556C124.225 80.836 125.905 80.476 127.729 80.476C129.577 80.476 131.257 80.836 132.769 81.556C134.305 82.252 135.505 83.212 136.369 84.436C137.257 85.66 137.701 87.016 137.701 88.504V98.296C137.701 99.784 137.257 101.14 136.369 102.364C135.481 103.588 134.269 104.56 132.733 105.28C131.221 105.976 129.553 106.324 127.729 106.324ZM127.729 102.508C129.433 102.508 130.801 102.112 131.833 101.32C132.865 100.528 133.381 99.472 133.381 98.152V88.612C133.381 87.316 132.865 86.272 131.833 85.48C130.801 84.688 129.433 84.292 127.729 84.292C126.049 84.292 124.693 84.688 123.661 85.48C122.629 86.272 122.113 87.316 122.113 88.612V98.152C122.113 99.472 122.617 100.528 123.625 101.32C124.657 102.112 126.025 102.508 127.729 102.508ZM151.636 106.324C149.812 106.324 148.132 105.976 146.596 105.28C145.084 104.56 143.884 103.588 142.996 102.364C142.108 101.14 141.664 99.784 141.664 98.296V88.504C141.664 87.016 142.108 85.66 142.996 84.436C143.884 83.212 145.084 82.252 146.596 81.556C148.132 80.836 149.812 80.476 151.636 80.476C153.484 80.476 155.164 80.836 156.676 81.556C158.212 82.252 159.412 83.212 160.276 84.436C161.164 85.66 161.608 87.016 161.608 88.504V98.296C161.608 99.784 161.164 101.14 160.276 102.364C159.388 103.588 158.176 104.56 156.64 105.28C155.128 105.976 153.46 106.324 151.636 106.324ZM151.636 102.508C153.34 102.508 154.708 102.112 155.74 101.32C156.772 100.528 157.288 99.472 157.288 98.152V88.612C157.288 87.316 156.772 86.272 155.74 85.48C154.708 84.688 153.34 84.292 151.636 84.292C149.956 84.292 148.6 84.688 147.568 85.48C146.536 86.272 146.02 87.316 146.02 88.612V98.152C146.02 99.472 146.524 100.528 147.532 101.32C148.564 102.112 149.932 102.508 151.636 102.508ZM168.054 93.544C167.19 93.544 166.47 93.268 165.894 92.716C165.318 92.14 165.03 91.42 165.03 90.556C165.03 89.716 165.318 89.008 165.894 88.432C166.47 87.856 167.19 87.568 168.054 87.568C168.894 87.568 169.614 87.868 170.214 88.468C170.814 89.044 171.114 89.74 171.114 90.556C171.114 91.42 170.814 92.14 170.214 92.716C169.614 93.268 168.894 93.544 168.054 93.544ZM168.054 106.324C167.19 106.324 166.47 106.048 165.894 105.496C165.318 104.92 165.03 104.2 165.03 103.336C165.03 102.496 165.318 101.788 165.894 101.212C166.47 100.636 167.19 100.348 168.054 100.348C168.894 100.348 169.614 100.636 170.214 101.212C170.814 101.788 171.114 102.496 171.114 103.336C171.114 104.176 170.814 104.884 170.214 105.46C169.614 106.036 168.894 106.324 168.054 106.324ZM184.507 106.324C182.683 106.324 181.003 105.976 179.467 105.28C177.955 104.56 176.755 103.588 175.867 102.364C174.979 101.14 174.535 99.784 174.535 98.296V88.504C174.535 87.016 174.979 85.66 175.867 84.436C176.755 83.212 177.955 82.252 179.467 81.556C181.003 80.836 182.683 80.476 184.507 80.476C186.355 80.476 188.035 80.836 189.547 81.556C191.083 82.252 192.283 83.212 193.147 84.436C194.035 85.66 194.479 87.016 194.479 88.504V98.296C194.479 99.784 194.035 101.14 193.147 102.364C192.259 103.588 191.047 104.56 189.511 105.28C187.999 105.976 186.331 106.324 184.507 106.324ZM184.507 102.508C186.211 102.508 187.579 102.112 188.611 101.32C189.643 100.528 190.159 99.472 190.159 98.152V88.612C190.159 87.316 189.643 86.272 188.611 85.48C187.579 84.688 186.211 84.292 184.507 84.292C182.827 84.292 181.471 84.688 180.439 85.48C179.407 86.272 178.891 87.316 178.891 88.612V98.152C178.891 99.472 179.395 100.528 180.403 101.32C181.435 102.112 182.803 102.508 184.507 102.508ZM208.413 106.324C206.589 106.324 204.909 105.976 203.373 105.28C201.861 104.56 200.661 103.588 199.773 102.364C198.885 101.14 198.441 99.784 198.441 98.296V88.504C198.441 87.016 198.885 85.66 199.773 84.436C200.661 83.212 201.861 82.252 203.373 81.556C204.909 80.836 206.589 80.476 208.413 80.476C210.261 80.476 211.941 80.836 213.453 81.556C214.989 82.252 216.189 83.212 217.053 84.436C217.941 85.66 218.385 87.016 218.385 88.504V98.296C218.385 99.784 217.941 101.14 217.053 102.364C216.165 103.588 214.953 104.56 213.417 105.28C211.905 105.976 210.237 106.324 208.413 106.324ZM208.413 102.508C210.117 102.508 211.485 102.112 212.517 101.32C213.549 100.528 214.065 99.472 214.065 98.152V88.612C214.065 87.316 213.549 86.272 212.517 85.48C211.485 84.688 210.117 84.292 208.413 84.292C206.733 84.292 205.377 84.688 204.345 85.48C203.313 86.272 202.797 87.316 202.797 88.612V98.152C202.797 99.472 203.301 100.528 204.309 101.32C205.341 102.112 206.709 102.508 208.413 102.508Z" fill="white"/>
<line x1="14" y1="122.5" x2="270.008" y2="122.5" stroke="#A2A2A2"/>
<line x1="139.504" y1="134" x2="139.504" y2="179" stroke="#A2A2A2"/>
<rect x="229" y="10" width="45" height="45" rx="5" fill="#E8E8E8"/>
<g clip-path="url(#clip0_289_13)">
<path d="M246.793 40.2233C247.663 41.329 248.455 42.4937 249.163 43.709C249.768 44.852 250.02 45.627 250.462 47.0041C250.733 47.765 250.978 47.9921 251.504 47.9921C252.078 47.9921 252.338 47.6057 252.539 47.0083C252.957 45.7077 253.285 44.7152 253.802 43.7773C254.816 41.9667 256.077 40.3578 257.316 38.8114C257.651 38.3738 259.819 35.8241 260.795 33.8123C260.795 33.8123 261.995 31.6023 261.995 28.5159C261.995 25.6289 260.812 23.6266 260.812 23.6266L257.405 24.5361L255.337 29.968L254.825 30.7171L254.723 30.8527L254.587 31.0226L254.348 31.2939L254.006 31.6342L252.164 33.1305L247.559 35.7816L246.793 40.2233Z" fill="#34A853"/>
<path d="M242.04 33.4408C243.164 36.0004 245.331 38.2505 246.798 40.2251L254.587 31.0261C254.587 31.0261 253.489 32.457 251.499 32.457C249.282 32.457 247.491 30.6917 247.491 28.4658C247.491 26.9394 248.412 25.8908 248.412 25.8908L243.124 27.3033L242.04 33.4408Z" fill="#FBBC04"/>
<path d="M254.673 18.473C257.26 19.3046 259.474 21.0504 260.814 23.6248L254.589 31.0208C254.589 31.0208 255.51 29.9532 255.51 28.4363C255.51 26.1586 253.586 24.457 251.508 24.457C249.543 24.457 248.414 25.8855 248.414 25.8855V21.2261L254.673 18.473V18.473Z" fill="#4285F4"/>
<path d="M243.467 21.741C245.012 19.8979 247.731 18 251.479 18C253.297 18 254.667 18.476 254.667 18.476L248.409 25.8896H243.974L243.467 21.741Z" fill="#1A73E8"/>
<path d="M242.04 33.4408C242.04 33.4408 241.006 31.4219 241.006 28.4971C241.006 25.7327 242.084 23.3164 243.467 21.741L248.412 25.8903L242.04 33.4408Z" fill="#EA4335"/>
</g>
<defs>
<filter id="filter0_i_289_13" x="10.2139" y="7.98401" width="48.0439" height="21.256" filterUnits="userSpaceOnUse" color-interpolation-filters="sRGB">
<feFlood flood-opacity="0" result="BackgroundImageFix"/>
<feBlend mode="normal" in="SourceGraphic" in2="BackgroundImageFix" result="shape"/>
<feColorMatrix in="SourceAlpha" type="matrix" values="0 0 0 0 0 0 0 0 0 0 0 0 0 0 0 0 0 0 127 0" result="hardAlpha"/>
<feOffset dx="2" dy="4"/>
<feGaussianBlur stdDeviation="2"/>
<feComposite in2="hardAlpha" operator="arithmetic" k2="-1" k3="1"/>
<feColorMatrix type="matrix" values="0 0 0 0 0 0 0 0 0 0 0 0 0 0 0 0 0 0 0.25 0"/>
<feBlend mode="normal" in2="shape" result="effect1_innerShadow_289_13"/>
</filter>
<clipPath id="clip0_289_13">
<rect width="21" height="30" fill="white" transform="translate(241 18)"/>
</clipPath>
</defs>
</svg>
