<svg width="285" height="87" viewBox="0 0 285 87" fill="none" xmlns="http://www.w3.org/2000/svg">
<rect width="285" height="87" rx="10" fill="black"/>
<rect x="12" y="14" width="257" height="60" rx="10" fill="black"/>
<path d="M84.336 32.816C84.336 32.4533 84.4533 32.1653 84.688 31.952C84.944 31.7173 85.264 31.6 85.648 31.6H94.608C95.9093 31.6 97.0613 31.8773 98.064 32.432C99.0667 32.9653 99.8347 33.7227 100.368 34.704C100.923 35.6853 101.2 36.816 101.2 38.096C101.2 40.6133 100.08 42.416 97.84 43.504V43.6C98.8 43.984 99.5467 44.6027 100.08 45.456C100.613 46.288 100.88 47.28 100.88 48.432V52.048C100.88 52.7733 100.656 53.328 100.208 53.712C99.7813 54.096 99.152 54.288 98.32 54.288V48.624C98.32 47.3227 98.0107 46.3307 97.392 45.648C96.7947 44.9653 95.9093 44.624 94.736 44.624H86.864V52.048C86.864 53.5413 86.0213 54.288 84.336 54.288V32.816ZM94.544 42.384C95.7813 42.384 96.7627 41.9893 97.488 41.2C98.2347 40.4107 98.608 39.3653 98.608 38.064C98.608 36.7413 98.2453 35.7067 97.52 34.96C96.816 34.2133 95.824 33.84 94.544 33.84H86.864V42.384H94.544ZM111.046 54.288C109.766 54.288 108.624 54.0427 107.622 53.552C106.619 53.0613 105.84 52.3787 105.286 51.504C104.731 50.6293 104.454 49.6373 104.454 48.528V43.6C104.454 42.512 104.752 41.52 105.35 40.624C105.947 39.7067 106.747 38.992 107.75 38.48C108.752 37.968 109.851 37.712 111.046 37.712C112.24 37.712 113.339 37.968 114.342 38.48C115.344 38.9707 116.134 39.664 116.71 40.56C117.286 41.456 117.574 42.4587 117.574 43.568V45.68C117.574 45.9573 117.456 46.2027 117.222 46.416C117.008 46.6293 116.752 46.736 116.454 46.736H106.758V48.464C106.758 49.616 107.131 50.544 107.878 51.248C108.624 51.9307 109.68 52.272 111.046 52.272C112.432 52.272 113.488 51.9627 114.214 51.344C114.96 50.7253 115.334 49.8827 115.334 48.816C115.846 48.7733 116.294 48.9013 116.678 49.2C117.062 49.4987 117.254 49.872 117.254 50.32C117.254 51.0027 116.966 51.6533 116.39 52.272C115.814 52.8907 115.046 53.3813 114.086 53.744C113.126 54.1067 112.112 54.288 111.046 54.288ZM115.366 44.816V43.568C115.366 42.4373 114.971 41.52 114.182 40.816C113.392 40.0907 112.347 39.728 111.046 39.728C109.766 39.728 108.731 40.0907 107.942 40.816C107.152 41.52 106.758 42.4373 106.758 43.568V44.816H115.366ZM127.733 54.288C126.453 54.288 125.312 54.0533 124.309 53.584C123.306 53.1147 122.528 52.464 121.973 51.632C121.418 50.8 121.141 49.8507 121.141 48.784V43.344C121.141 42.256 121.418 41.2853 121.973 40.432C122.528 39.5787 123.296 38.9173 124.277 38.448C125.28 37.9573 126.41 37.712 127.669 37.712C128.864 37.712 129.93 37.8933 130.869 38.256C131.808 38.5973 132.533 39.0773 133.045 39.696C133.578 40.3147 133.845 41.0293 133.845 41.84C133.845 42.3307 133.664 42.7253 133.301 43.024C132.96 43.3013 132.512 43.4293 131.957 43.408C131.957 42.3413 131.562 41.4773 130.773 40.816C129.984 40.1333 128.96 39.792 127.701 39.792C126.464 39.792 125.45 40.1227 124.661 40.784C123.872 41.4453 123.477 42.3093 123.477 43.376V48.72C123.477 49.744 123.872 50.5867 124.661 51.248C125.472 51.888 126.506 52.208 127.765 52.208C129.024 52.208 130.048 51.8773 130.837 51.216C131.648 50.5547 132.053 49.6907 132.053 48.624C132.608 48.5813 133.056 48.7093 133.397 49.008C133.76 49.2853 133.941 49.6693 133.941 50.16C133.941 50.9707 133.674 51.6853 133.141 52.304C132.629 52.9227 131.893 53.4133 130.933 53.776C129.994 54.1173 128.928 54.288 127.733 54.288ZM143.072 54.288C141.792 54.288 140.64 54.0533 139.616 53.584C138.592 53.0933 137.792 52.432 137.216 51.6C136.64 50.768 136.352 49.84 136.352 48.816V43.312C136.352 42.288 136.64 41.3493 137.216 40.496C137.792 39.6427 138.582 38.9707 139.584 38.48C140.608 37.968 141.771 37.712 143.072 37.712C144.374 37.712 145.536 37.968 146.56 38.48C147.584 38.9707 148.384 39.6427 148.96 40.496C149.536 41.3493 149.824 42.288 149.824 43.312V48.816C149.824 49.84 149.536 50.768 148.96 51.6C148.384 52.432 147.574 53.0933 146.528 53.584C145.504 54.0533 144.352 54.288 143.072 54.288ZM143.072 52.24C144.438 52.24 145.515 51.92 146.304 51.28C147.115 50.6187 147.52 49.776 147.52 48.752V43.376C147.52 42.3093 147.115 41.4453 146.304 40.784C145.494 40.1013 144.416 39.76 143.072 39.76C141.728 39.76 140.651 40.1013 139.84 40.784C139.03 41.4667 138.624 42.3307 138.624 43.376V48.752C138.624 49.776 139.03 50.6187 139.84 51.28C140.651 51.92 141.728 52.24 143.072 52.24ZM160.363 39.792C159.19 39.792 158.209 40.1653 157.419 40.912C156.63 41.6373 156.235 42.5227 156.235 43.568V52.4C156.235 53.04 156.033 53.52 155.627 53.84C155.243 54.1387 154.657 54.288 153.867 54.288V39.824C153.867 38.416 154.625 37.712 156.139 37.712V39.696C155.819 40.0373 155.595 40.336 155.467 40.592L155.563 40.72C156.971 38.7147 158.689 37.712 160.715 37.712C161.419 37.712 161.963 37.8827 162.347 38.224C162.753 38.544 162.955 38.9387 162.955 39.408C162.955 39.7493 162.87 40.0373 162.699 40.272C162.102 39.952 161.323 39.792 160.363 39.792ZM170.943 54.288C169.087 54.288 167.583 53.7867 166.431 52.784C165.3 51.7813 164.735 50.448 164.735 48.784V43.184C164.735 41.52 165.311 40.1973 166.463 39.216C167.615 38.2133 169.129 37.712 171.007 37.712C172.031 37.712 172.98 37.9253 173.855 38.352C174.729 38.7787 175.508 39.376 176.191 40.144L176.255 39.984C176.063 39.728 175.849 39.4827 175.615 39.248V33.296C175.615 31.9733 176.404 31.312 177.983 31.312V52.176C177.983 53.584 177.225 54.288 175.711 54.288V52.464L176.351 51.664L176.255 51.536C174.783 53.3707 173.012 54.288 170.943 54.288ZM171.359 52.208C172.553 52.208 173.556 51.888 174.367 51.248C175.199 50.608 175.615 49.8187 175.615 48.88V43.088C175.615 42.1493 175.22 41.3707 174.431 40.752C173.641 40.112 172.607 39.792 171.327 39.792C170.004 39.792 168.959 40.1013 168.191 40.72C167.444 41.3387 167.071 42.1813 167.071 43.248V48.72C167.071 49.8293 167.444 50.6933 168.191 51.312C168.937 51.9093 169.993 52.208 171.359 52.208ZM197.619 33.872H189.779C189.779 32.3573 190.504 31.6 191.955 31.6H207.987C207.987 32.3467 207.795 32.912 207.411 33.296C207.048 33.68 206.515 33.872 205.811 33.872H200.179V52.048C200.179 52.7733 199.955 53.328 199.507 53.712C199.08 54.096 198.451 54.288 197.619 54.288V33.872ZM214.176 39.792C213.002 39.792 212.021 40.1653 211.232 40.912C210.442 41.6373 210.048 42.5227 210.048 43.568V52.4C210.048 53.04 209.845 53.52 209.44 53.84C209.056 54.1387 208.469 54.288 207.68 54.288V39.824C207.68 38.416 208.437 37.712 209.952 37.712V39.696C209.632 40.0373 209.408 40.336 209.28 40.592L209.376 40.72C210.784 38.7147 212.501 37.712 214.528 37.712C215.232 37.712 215.776 37.8827 216.16 38.224C216.565 38.544 216.768 38.9387 216.768 39.408C216.768 39.7493 216.682 40.0373 216.512 40.272C215.914 39.952 215.136 39.792 214.176 39.792ZM221.412 34.992C220.879 34.992 220.42 34.8213 220.036 34.48C219.674 34.1173 219.492 33.6693 219.492 33.136C219.492 32.624 219.674 32.1973 220.036 31.856C220.42 31.4933 220.879 31.312 221.412 31.312C221.924 31.312 222.362 31.4933 222.724 31.856C223.108 32.1973 223.3 32.624 223.3 33.136C223.3 33.648 223.108 34.0853 222.724 34.448C222.362 34.8107 221.924 34.992 221.412 34.992ZM220.228 39.632C220.228 38.352 221.007 37.712 222.564 37.712V52.4C222.564 53.6587 221.786 54.288 220.228 54.288V39.632ZM227.961 39.824C227.961 38.416 228.718 37.712 230.233 37.712V39.536L229.593 40.336L229.689 40.464C231.161 38.6293 232.932 37.712 235.001 37.712C236.857 37.712 238.35 38.2133 239.481 39.216C240.633 40.2187 241.209 41.552 241.209 43.216V48.816C241.209 50.48 240.622 51.8133 239.449 52.816C238.297 53.7973 236.782 54.288 234.905 54.288C232.942 54.288 231.225 53.4773 229.753 51.856L229.689 52.016C229.86 52.2293 230.073 52.4747 230.329 52.752V58.704C230.329 60.0267 229.54 60.688 227.961 60.688V39.824ZM234.617 52.208C235.94 52.208 236.974 51.8987 237.721 51.28C238.489 50.6613 238.873 49.8187 238.873 48.752V43.28C238.873 42.1707 238.5 41.3173 237.753 40.72C237.006 40.1013 235.95 39.792 234.585 39.792C233.39 39.792 232.377 40.112 231.545 40.752C230.734 41.392 230.329 42.1813 230.329 43.12V48.912C230.329 49.8507 230.724 50.64 231.513 51.28C232.302 51.8987 233.337 52.208 234.617 52.208Z" fill="white"/>
<path d="M55.25 27C52.0361 27 48.8943 27.953 46.222 29.7386C43.5497 31.5242 41.4669 34.0621 40.237 37.0314C39.007 40.0007 38.6852 43.268 39.3122 46.4202C39.9393 49.5724 41.4869 52.4679 43.7595 54.7405C46.0321 57.0131 48.9276 58.5607 52.0798 59.1878C55.232 59.8148 58.4993 59.493 61.4686 58.263C64.4379 57.0331 66.9758 54.9503 68.7614 52.278C70.547 49.6057 71.5 46.4639 71.5 43.25C71.4955 38.9416 69.7819 34.811 66.7355 31.7645C63.689 28.7181 59.5584 27.0045 55.25 27ZM55.25 57C52.5305 57 49.8721 56.1936 47.6109 54.6827C45.3497 53.1718 43.5874 51.0244 42.5467 48.5119C41.506 45.9994 41.2337 43.2347 41.7642 40.5675C42.2948 37.9003 43.6043 35.4503 45.5273 33.5273C47.4503 31.6043 49.9003 30.2947 52.5675 29.7642C55.2348 29.2337 57.9994 29.506 60.5119 30.5467C63.0244 31.5874 65.1718 33.3497 66.6827 35.6109C68.1936 37.8721 69 40.5305 69 43.25C68.9959 46.8955 67.5459 50.3904 64.9682 52.9682C62.3904 55.5459 58.8955 56.9959 55.25 57Z" fill="white"/>
<path d="M55.25 54.5C61.4632 54.5 66.5 49.4632 66.5 43.25C66.5 37.0368 61.4632 32 55.25 32C49.0368 32 44 37.0368 44 43.25C44 49.4632 49.0368 54.5 55.25 54.5Z" fill="#FF0000"/>
</svg>
