<svg width="285" height="87" viewBox="0 0 285 87" fill="none" xmlns="http://www.w3.org/2000/svg">
<rect width="285" height="87" rx="10" fill="#26619C"/>
<path d="M203 17.8162C202.176 17.8162 201.484 17.5338 200.926 16.9688C200.367 16.4038 200.089 15.7055 200.091 14.8737V11.9312C200.091 11.0975 200.37 10.3981 200.929 9.83316C201.487 9.2682 202.178 8.9867 203 8.98866C203.824 8.98866 204.516 9.27114 205.074 9.83611C205.633 10.4011 205.911 11.0994 205.909 11.9312V14.8737C205.909 15.7074 205.63 16.4068 205.071 16.9717C204.513 17.5367 203.822 17.8182 203 17.8162ZM203 73.7243C202.176 73.7243 201.484 73.4418 200.926 72.8768C200.367 72.3119 200.089 71.6135 200.091 70.7817V67.8392C200.091 67.0055 200.37 66.3062 200.929 65.7412C201.487 65.1762 202.178 64.8947 203 64.8967C203.824 64.8967 204.516 65.1792 205.074 65.7441C205.633 66.3091 205.911 67.0075 205.909 67.8392V70.7817C205.909 71.6155 205.63 72.3148 205.071 72.8798C204.513 73.4447 203.822 73.7262 203 73.7243ZM229.182 44.299C228.358 44.299 227.666 44.0165 227.108 43.4515C226.549 42.8866 226.271 42.1882 226.273 41.3565C226.273 40.5227 226.552 39.8234 227.111 39.2584C227.669 38.6935 228.36 38.412 229.182 38.4139H232.091C232.915 38.4139 233.607 38.6964 234.165 39.2614C234.724 39.8263 235.002 40.5247 235 41.3565C235 42.1902 234.721 42.8895 234.162 43.4545C233.604 44.0195 232.913 44.301 232.091 44.299H229.182ZM173.909 44.299C173.085 44.299 172.393 44.0165 171.835 43.4515C171.276 42.8866 170.998 42.1882 171 41.3565C171 40.5227 171.279 39.8234 171.838 39.2584C172.396 38.6935 173.087 38.412 173.909 38.4139H176.818C177.642 38.4139 178.334 38.6964 178.892 39.2614C179.451 39.8263 179.729 40.5247 179.727 41.3565C179.727 42.1902 179.448 42.8895 178.889 43.4545C178.331 44.0195 177.64 44.301 176.818 44.299H173.909ZM220.455 23.7013C219.921 23.1618 219.655 22.487 219.655 21.6768C219.655 20.8667 219.921 20.1683 220.455 19.5818L221.473 18.4783C222.006 17.8898 222.685 17.5956 223.509 17.5956C224.333 17.5956 225.036 17.8898 225.618 18.4783C226.2 19.0668 226.491 19.7779 226.491 20.6116C226.491 21.4454 226.2 22.1565 225.618 22.745L224.527 23.7749C223.945 24.3143 223.267 24.5841 222.491 24.5841C221.715 24.5841 221.036 24.2898 220.455 23.7013ZM180.382 64.2346C179.8 63.6461 179.509 62.935 179.509 62.1013C179.509 61.2676 179.8 60.5565 180.382 59.968L181.473 58.9381C182.055 58.3986 182.733 58.1289 183.509 58.1289C184.285 58.1289 184.964 58.4231 185.545 59.0116C186.079 59.5511 186.358 60.2377 186.383 61.0714C186.408 61.9051 186.129 62.5917 185.545 63.1312L184.527 64.2346C183.994 64.8231 183.315 65.1174 182.491 65.1174C181.667 65.1174 180.964 64.8231 180.382 64.2346ZM221.4 64.2346L220.382 63.1312C219.848 62.5427 219.582 61.8561 219.582 61.0714C219.582 60.2867 219.873 59.6001 220.455 59.0116C220.988 58.4722 221.667 58.1907 222.491 58.1671C223.315 58.1436 223.994 58.4251 224.527 59.0116L225.618 60.0415C226.2 60.581 226.491 61.2676 226.491 62.1013C226.491 62.935 226.2 63.6461 225.618 64.2346C225.036 64.8231 224.333 65.1174 223.509 65.1174C222.685 65.1174 221.982 64.8231 221.4 64.2346ZM181.473 23.7013L180.382 22.6714C179.8 22.1319 179.509 21.4454 179.509 20.6116C179.509 19.7779 179.8 19.0668 180.382 18.4783C180.964 17.8898 181.667 17.5956 182.491 17.5956C183.315 17.5956 184.018 17.8898 184.6 18.4783L185.618 19.5818C186.152 20.1703 186.418 20.8569 186.418 21.6415C186.418 22.4262 186.127 23.1128 185.545 23.7013C185.012 24.2408 184.346 24.5105 183.547 24.5105C182.748 24.5105 182.056 24.2408 181.473 23.7013ZM203 59.0116C198.152 59.0116 194.03 57.2952 190.636 53.8622C187.242 50.4293 185.545 46.2607 185.545 41.3565C185.545 36.4523 187.242 32.2837 190.636 28.8507C194.03 25.4178 198.152 23.7013 203 23.7013C207.848 23.7013 211.97 25.4178 215.364 28.8507C218.758 32.2837 220.455 36.4523 220.455 41.3565C220.455 46.2607 218.758 50.4293 215.364 53.8622C211.97 57.2952 207.848 59.0116 203 59.0116Z" fill="#FFC700"/>
<path d="M23.144 67C22.0773 67 21.2027 66.7013 20.52 66.104C19.88 65.464 19.56 64.6533 19.56 63.672C19.56 60.344 20.84 57.2933 23.4 54.52C26.0027 51.704 30.0987 48.9733 35.688 46.328C38.504 44.9627 40.6373 43.768 42.088 42.744C43.5813 41.6773 44.6267 40.5893 45.224 39.48C45.8213 38.3707 46.12 37.0267 46.12 35.448C46.12 33.1867 45.352 31.4587 43.816 30.264C42.3227 29.0267 40.168 28.408 37.352 28.408C34.1947 28.408 31.784 29.0907 30.12 30.456C28.456 31.8213 27.624 33.8267 27.624 36.472C27.624 37.5387 27.7093 38.4773 27.88 39.288C27.2827 39.3733 26.8133 39.416 26.472 39.416C24.68 39.416 23.144 38.8827 21.864 37.816C20.584 36.7493 19.944 35.448 19.944 33.912C19.944 31.608 20.712 29.5173 22.248 27.64C23.784 25.7627 25.8747 24.2907 28.52 23.224C31.1653 22.1573 34.1093 21.624 37.352 21.624C40.68 21.624 43.5813 22.2 46.056 23.352C48.5733 24.4613 50.5147 26.0613 51.88 28.152C53.2453 30.2427 53.928 32.6747 53.928 35.448C53.928 38.5627 52.776 41.3787 50.472 43.896C48.2107 46.4133 44.6053 48.8667 39.656 51.256C35.944 53.048 33.1707 54.6907 31.336 56.184C29.5013 57.6347 28.4773 59.0213 28.264 60.344H48.616C50.5787 60.344 52.0507 60.92 53.032 62.072C54.056 63.1813 54.568 64.824 54.568 67H23.144ZM77.733 67.64C74.0637 67.64 70.8637 67.0853 68.133 65.976C65.445 64.8667 63.3543 63.288 61.861 61.24C60.4103 59.192 59.685 56.7813 59.685 54.008C59.685 51.6187 60.3463 49.528 61.669 47.736C63.0343 45.9013 65.0183 44.4507 67.621 43.384C65.5303 42.3173 63.9303 40.9947 62.821 39.416C61.7543 37.8373 61.221 36.0667 61.221 34.104C61.221 31.672 61.925 29.5173 63.333 27.64C64.741 25.72 66.6823 24.248 69.157 23.224C71.6743 22.1573 74.533 21.624 77.733 21.624C80.9757 21.624 83.8343 22.1573 86.309 23.224C88.8263 24.248 90.7677 25.6987 92.133 27.576C93.541 29.4533 94.245 31.6293 94.245 34.104C94.245 36.1093 93.7117 37.9013 92.645 39.48C91.5783 41.016 89.9997 42.3173 87.909 43.384C90.469 44.4507 92.4103 45.9013 93.733 47.736C95.0983 49.528 95.781 51.6187 95.781 54.008C95.781 56.7813 95.0557 59.192 93.605 61.24C92.1543 63.288 90.0637 64.8667 87.333 65.976C84.645 67.0853 81.445 67.64 77.733 67.64ZM77.733 40.696C80.5063 40.696 82.6823 40.1413 84.261 39.032C85.8823 37.88 86.693 36.344 86.693 34.424C86.693 32.3333 85.925 30.776 84.389 29.752C82.8957 28.6853 80.677 28.152 77.733 28.152C74.8317 28.152 72.613 28.6853 71.077 29.752C69.541 30.8187 68.773 32.376 68.773 34.424C68.773 36.3013 69.5837 37.816 71.205 38.968C72.869 40.12 75.045 40.696 77.733 40.696ZM77.733 61.048C81.189 61.048 83.7917 60.4507 85.541 59.256C87.333 58.0187 88.229 56.2053 88.229 53.816C88.229 51.4267 87.3117 49.592 85.477 48.312C83.685 46.9893 81.1037 46.328 77.733 46.328C74.4477 46.328 71.8663 46.9893 69.989 48.312C68.1543 49.6347 67.237 51.4693 67.237 53.816C67.237 56.1627 68.133 57.9547 69.925 59.192C71.7597 60.4293 74.3623 61.048 77.733 61.048Z" fill="white"/>
<path d="M101.301 25.8603V24.5052C101.301 23.2864 101.553 22.2083 102.055 21.2708C102.567 20.3248 103.287 19.5833 104.216 19.0464C105.145 18.5095 106.244 18.241 107.514 18.241C109.432 18.241 110.945 18.8291 112.053 20.0052C113.161 21.1728 113.714 22.6728 113.714 24.5052V25.8603C113.714 27.0705 113.467 28.1444 112.973 29.0819C112.479 30.0109 111.771 30.7438 110.851 31.2808C109.93 31.8092 108.835 32.0734 107.565 32.0734C105.631 32.0734 104.101 31.4938 102.976 30.3347C101.859 29.1671 101.301 27.6756 101.301 25.8603ZM104.433 24.5052V25.8603C104.433 26.9086 104.693 27.7779 105.213 28.4683C105.733 29.1501 106.517 29.491 107.565 29.491C108.58 29.491 109.334 29.1501 109.828 28.4683C110.331 27.7779 110.582 26.9086 110.582 25.8603V24.5052C110.582 23.4825 110.331 22.6174 109.828 21.91C109.325 21.2026 108.554 20.8489 107.514 20.8489C106.491 20.8489 105.72 21.2026 105.2 21.91C104.689 22.6174 104.433 23.4825 104.433 24.5052Z" fill="white"/>
<path d="M112.92 67.7622C110.6 67.7622 108.52 67.3222 106.68 66.4422C104.867 65.5356 103.453 64.2956 102.44 62.7222C101.427 61.1222 100.92 59.3089 100.92 57.2822V49.4022C100.92 47.3756 101.413 45.5889 102.4 44.0422C103.413 42.4689 104.813 41.2422 106.6 40.3622C108.413 39.4822 110.467 39.0422 112.76 39.0422C115.08 39.0422 117.133 39.4022 118.92 40.1222C120.707 40.8156 122.093 41.8022 123.08 43.0822C124.093 44.3356 124.6 45.7756 124.6 47.4022C124.6 48.3356 124.293 49.0689 123.68 49.6022C123.067 50.1089 122.24 50.3622 121.2 50.3622C120.693 50.3622 120.213 50.3089 119.76 50.2022C119.84 49.8022 119.88 49.2022 119.88 48.4022C119.88 46.8822 119.213 45.6422 117.88 44.6822C116.573 43.7222 114.867 43.2422 112.76 43.2422C110.68 43.2422 108.987 43.8156 107.68 44.9622C106.373 46.1089 105.72 47.5889 105.72 49.4022V57.2822C105.72 59.1222 106.387 60.6289 107.72 61.8022C109.053 62.9489 110.787 63.5222 112.92 63.5222C115.027 63.5222 116.747 63.0556 118.08 62.1222C119.413 61.1622 120.08 59.9222 120.08 58.4022C120.08 57.6556 120.04 57.0822 119.96 56.6822C120.387 56.5756 120.853 56.5222 121.36 56.5222C122.4 56.5222 123.227 56.8022 123.84 57.3622C124.48 57.9222 124.8 58.6822 124.8 59.6422C124.8 61.2156 124.293 62.6156 123.28 63.8422C122.293 65.0689 120.893 66.0289 119.08 66.7222C117.267 67.4156 115.213 67.7622 112.92 67.7622Z" fill="white"/>
<path d="M249.48 37.1148C248.715 37.1148 248.033 37.0028 247.436 36.7788C246.839 36.5454 246.372 36.2234 246.036 35.8128C245.7 35.3928 245.532 34.9168 245.532 34.3848C245.532 33.9461 245.672 33.6288 245.952 33.4328C246.241 33.2368 246.708 33.1388 247.352 33.1388C247.324 33.3161 247.31 33.5261 247.31 33.7688C247.31 34.3288 247.492 34.7581 247.856 35.0568C248.229 35.3461 248.771 35.4908 249.48 35.4908C250.18 35.4908 250.707 35.3788 251.062 35.1548C251.426 34.9308 251.608 34.5994 251.608 34.1608C251.608 33.2461 250.987 32.7888 249.746 32.7888H249.284C249.051 32.7888 248.859 32.7141 248.71 32.5648C248.561 32.4154 248.486 32.2241 248.486 31.9908C248.486 31.7481 248.556 31.5568 248.696 31.4168C248.845 31.2674 249.041 31.1928 249.284 31.1928H249.76C250.805 31.1928 251.328 30.7681 251.328 29.9188C251.328 29.5174 251.174 29.2141 250.866 29.0088C250.558 28.7941 250.115 28.6868 249.536 28.6868C248.901 28.6868 248.411 28.7988 248.066 29.0228C247.721 29.2374 247.548 29.5501 247.548 29.9608C247.548 30.1381 247.567 30.3388 247.604 30.5628C247.063 30.5814 246.619 30.4881 246.274 30.2828C245.938 30.0774 245.77 29.8021 245.77 29.4568C245.77 28.9901 245.929 28.5748 246.246 28.2108C246.563 27.8468 247.007 27.5668 247.576 27.3708C248.155 27.1654 248.808 27.0628 249.536 27.0628C250.273 27.0628 250.922 27.1794 251.482 27.4128C252.042 27.6461 252.471 27.9821 252.77 28.4208C253.078 28.8501 253.232 29.3494 253.232 29.9188C253.232 30.7961 252.779 31.4868 251.874 31.9908C252.462 32.2428 252.877 32.5368 253.12 32.8728C253.372 33.2088 253.498 33.6381 253.498 34.1608C253.498 34.7488 253.33 35.2668 252.994 35.7148C252.658 36.1628 252.187 36.5081 251.58 36.7508C250.973 36.9934 250.273 37.1148 249.48 37.1148ZM258.629 27.0628C259.451 27.0628 260.169 27.2214 260.785 27.5388C261.401 27.8468 261.877 28.2854 262.213 28.8548C262.549 29.4241 262.717 30.0914 262.717 30.8568C262.717 31.3421 262.61 31.8414 262.395 32.3548C262.19 32.8681 261.901 33.3301 261.527 33.7408L258.867 36.6948C258.718 36.8534 258.578 36.9608 258.447 37.0168C258.317 37.0821 258.153 37.1148 257.957 37.1148C257.472 37.1148 257.061 36.9141 256.725 36.5128L258.657 34.4688C258.965 34.3941 259.241 34.3008 259.483 34.1888L259.413 34.0208C259.021 34.2074 258.606 34.3008 258.167 34.3008C257.439 34.3008 256.8 34.1608 256.249 33.8808C255.708 33.5914 255.288 33.1901 254.989 32.6768C254.7 32.1541 254.555 31.5474 254.555 30.8568C254.555 30.0914 254.719 29.4241 255.045 28.8548C255.381 28.2854 255.857 27.8468 256.473 27.5388C257.089 27.2214 257.808 27.0628 258.629 27.0628ZM258.629 28.6588C257.948 28.6588 257.402 28.8594 256.991 29.2608C256.581 29.6621 256.375 30.1941 256.375 30.8568C256.375 31.5288 256.581 32.0701 256.991 32.4808C257.402 32.8821 257.948 33.0828 258.629 33.0828C259.301 33.0828 259.843 32.8774 260.253 32.4668C260.673 32.0561 260.883 31.5194 260.883 30.8568C260.883 30.2034 260.673 29.6761 260.253 29.2748C259.843 28.8641 259.301 28.6588 258.629 28.6588ZM266.374 32.8308C265.851 32.8308 265.394 32.7328 265.002 32.5368C264.61 32.3408 264.307 32.0794 264.092 31.7528C263.887 31.4261 263.784 31.0714 263.784 30.6888V29.2048C263.784 28.8221 263.887 28.4674 264.092 28.1408C264.307 27.8141 264.61 27.5528 265.002 27.3568C265.394 27.1608 265.851 27.0628 266.374 27.0628C266.906 27.0628 267.368 27.1608 267.76 27.3568C268.152 27.5528 268.451 27.8141 268.656 28.1408C268.871 28.4674 268.978 28.8221 268.978 29.2048V30.6888C268.978 31.0714 268.871 31.4261 268.656 31.7528C268.451 32.0794 268.152 32.3408 267.76 32.5368C267.368 32.7328 266.906 32.8308 266.374 32.8308ZM266.374 31.6128C266.729 31.6128 267.018 31.5288 267.242 31.3608C267.466 31.1834 267.578 30.9501 267.578 30.6608V29.2328C267.578 28.9341 267.466 28.7008 267.242 28.5328C267.018 28.3554 266.729 28.2668 266.374 28.2668C266.019 28.2668 265.73 28.3554 265.506 28.5328C265.282 28.7008 265.17 28.9341 265.17 29.2328V30.6608C265.17 30.9501 265.282 31.1834 265.506 31.3608C265.73 31.5288 266.019 31.6128 266.374 31.6128Z" fill="white"/>
<path d="M246.288 56.9888C246.073 56.9888 245.905 56.9328 245.784 56.8208C245.663 56.6994 245.602 56.5361 245.602 56.3308C245.602 55.6121 245.877 54.9448 246.428 54.3288C246.988 53.7034 247.865 53.0968 249.06 52.5088C249.704 52.1821 250.194 51.8974 250.53 51.6548C250.866 51.4121 251.099 51.1648 251.23 50.9128C251.37 50.6608 251.44 50.3621 251.44 50.0168C251.44 49.4941 251.267 49.0928 250.922 48.8128C250.577 48.5328 250.077 48.3928 249.424 48.3928C248.705 48.3928 248.15 48.5561 247.758 48.8828C247.375 49.2094 247.184 49.6761 247.184 50.2828C247.184 50.4694 247.198 50.6608 247.226 50.8568C247.17 50.8661 247.095 50.8708 247.002 50.8708C246.638 50.8708 246.325 50.7634 246.064 50.5488C245.803 50.3341 245.672 50.0728 245.672 49.7648C245.672 49.2608 245.835 48.8034 246.162 48.3928C246.498 47.9821 246.951 47.6601 247.52 47.4268C248.099 47.1841 248.733 47.0628 249.424 47.0628C250.133 47.0628 250.754 47.1841 251.286 47.4268C251.827 47.6694 252.243 48.0148 252.532 48.4628C252.821 48.9108 252.966 49.4288 252.966 50.0168C252.966 50.6888 252.719 51.2954 252.224 51.8368C251.729 52.3781 250.931 52.9288 249.83 53.4888C248.215 54.3008 247.366 55.0334 247.282 55.6868H251.902C252.285 55.6868 252.579 55.7988 252.784 56.0228C252.999 56.2468 253.106 56.5688 253.106 56.9888H246.288ZM259.169 54.5528H254.801C254.605 54.5528 254.447 54.5014 254.325 54.3988C254.213 54.2961 254.157 54.1561 254.157 53.9788C254.157 53.8014 254.213 53.6428 254.325 53.5028L259.379 47.3148C259.445 47.2401 259.533 47.1794 259.645 47.1328C259.767 47.0861 259.893 47.0628 260.023 47.0628C260.229 47.0628 260.392 47.1234 260.513 47.2448C260.635 47.3661 260.695 47.5248 260.695 47.7208V53.2648H262.319C262.319 53.7128 262.235 54.0394 262.067 54.2448C261.899 54.4501 261.638 54.5528 261.283 54.5528H260.695V56.0508C260.695 56.4148 260.569 56.6854 260.317 56.8628C260.075 57.0308 259.692 57.1148 259.169 57.1148V54.5528ZM259.253 53.2648V49.6108L259.715 49.0088L259.617 48.9388L256.159 53.2648H259.253ZM265.881 52.8168C265.396 52.8168 264.962 52.7281 264.579 52.5508C264.206 52.3641 263.912 52.1168 263.697 51.8088C263.492 51.4914 263.389 51.1461 263.389 50.7728V49.1068C263.389 48.7334 263.492 48.3928 263.697 48.0848C263.912 47.7674 264.206 47.5201 264.579 47.3428C264.962 47.1561 265.396 47.0628 265.881 47.0628C266.376 47.0628 266.81 47.1561 267.183 47.3428C267.566 47.5201 267.86 47.7674 268.065 48.0848C268.28 48.3928 268.387 48.7334 268.387 49.1068V50.7728C268.387 51.1461 268.28 51.4914 268.065 51.8088C267.86 52.1168 267.566 52.3641 267.183 52.5508C266.81 52.7281 266.376 52.8168 265.881 52.8168ZM265.881 51.8228C266.292 51.8228 266.623 51.7294 266.875 51.5428C267.136 51.3468 267.267 51.0761 267.267 50.7308V49.1488C267.267 48.8034 267.136 48.5374 266.875 48.3508C266.623 48.1548 266.292 48.0568 265.881 48.0568C265.48 48.0568 265.148 48.1548 264.887 48.3508C264.626 48.5468 264.495 48.8128 264.495 49.1488V50.7308C264.495 51.0668 264.626 51.3328 264.887 51.5288C265.148 51.7248 265.48 51.8228 265.881 51.8228Z" fill="white"/>
</svg>
