<svg width="286" height="285" viewBox="0 0 286 285" fill="none" xmlns="http://www.w3.org/2000/svg">
<rect width="285" height="285" rx="10" fill="#26609B"/>
<path d="M147.704 148.432C144.92 148.432 142.424 147.904 140.216 146.848C138.04 145.76 136.344 144.272 135.128 142.384C133.912 140.464 133.304 138.288 133.304 135.856V126.4C133.304 123.968 133.896 121.824 135.08 119.968C136.296 118.08 137.976 116.608 140.12 115.552C142.296 114.496 144.76 113.968 147.512 113.968C150.296 113.968 152.76 114.4 154.904 115.264C157.048 116.096 158.712 117.28 159.896 118.816C161.112 120.32 161.72 122.048 161.72 124C161.72 125.12 161.352 126 160.616 126.64C159.88 127.248 158.888 127.552 157.64 127.552C157.032 127.552 156.456 127.488 155.912 127.36C156.008 126.88 156.056 126.16 156.056 125.2C156.056 123.376 155.256 121.888 153.656 120.736C152.088 119.584 150.04 119.008 147.512 119.008C145.016 119.008 142.984 119.696 141.416 121.072C139.848 122.448 139.064 124.224 139.064 126.4V135.856C139.064 138.064 139.864 139.872 141.464 141.28C143.064 142.656 145.144 143.344 147.704 143.344C150.232 143.344 152.296 142.784 153.896 141.664C155.496 140.512 156.296 139.024 156.296 137.2C156.296 136.304 156.248 135.616 156.152 135.136C156.664 135.008 157.224 134.944 157.832 134.944C159.08 134.944 160.072 135.28 160.808 135.952C161.576 136.624 161.96 137.536 161.96 138.688C161.96 140.576 161.352 142.256 160.136 143.728C158.952 145.2 157.272 146.352 155.096 147.184C152.92 148.016 150.456 148.432 147.704 148.432Z" fill="white"/>
<path d="M18.216 148C16.616 148 15.304 147.552 14.28 146.656C13.32 145.696 12.84 144.48 12.84 143.008C12.84 138.016 14.76 133.44 18.6 129.28C22.504 125.056 28.648 120.96 37.032 116.992C41.256 114.944 44.456 113.152 46.632 111.616C48.872 110.016 50.44 108.384 51.336 106.72C52.232 105.056 52.68 103.04 52.68 100.672C52.68 97.28 51.528 94.688 49.224 92.896C46.984 91.04 43.752 90.112 39.528 90.112C34.792 90.112 31.176 91.136 28.68 93.184C26.184 95.232 24.936 98.24 24.936 102.208C24.936 103.808 25.064 105.216 25.32 106.432C24.424 106.56 23.72 106.624 23.208 106.624C20.52 106.624 18.216 105.824 16.296 104.224C14.376 102.624 13.416 100.672 13.416 98.368C13.416 94.912 14.568 91.776 16.872 88.96C19.176 86.144 22.312 83.936 26.28 82.336C30.248 80.736 34.664 79.936 39.528 79.936C44.52 79.936 48.872 80.8 52.584 82.528C56.36 84.192 59.272 86.592 61.32 89.728C63.368 92.864 64.392 96.512 64.392 100.672C64.392 105.344 62.664 109.568 59.208 113.344C55.816 117.12 50.408 120.8 42.984 124.384C37.416 127.072 33.256 129.536 30.504 131.776C27.752 133.952 26.216 136.032 25.896 138.016H56.424C59.368 138.016 61.576 138.88 63.048 140.608C64.584 142.272 65.352 144.736 65.352 148H18.216ZM100.1 148.96C94.5955 148.96 89.7955 148.128 85.6995 146.464C81.6675 144.8 78.5315 142.432 76.2915 139.36C74.1155 136.288 73.0275 132.672 73.0275 128.512C73.0275 124.928 74.0195 121.792 76.0035 119.104C78.0515 116.352 81.0275 114.176 84.9315 112.576C81.7955 110.976 79.3955 108.992 77.7315 106.624C76.1315 104.256 75.3315 101.6 75.3315 98.656C75.3315 95.008 76.3875 91.776 78.4995 88.96C80.6115 86.08 83.5235 83.872 87.2355 82.336C91.0115 80.736 95.2995 79.936 100.1 79.936C104.964 79.936 109.252 80.736 112.964 82.336C116.74 83.872 119.652 86.048 121.7 88.864C123.812 91.68 124.868 94.944 124.868 98.656C124.868 101.664 124.068 104.352 122.468 106.72C120.868 109.024 118.5 110.976 115.364 112.576C119.204 114.176 122.116 116.352 124.1 119.104C126.148 121.792 127.172 124.928 127.172 128.512C127.172 132.672 126.084 136.288 123.908 139.36C121.732 142.432 118.596 144.8 114.5 146.464C110.468 148.128 105.668 148.96 100.1 148.96ZM100.1 108.544C104.26 108.544 107.524 107.712 109.892 106.048C112.324 104.32 113.54 102.016 113.54 99.136C113.54 96 112.388 93.664 110.084 92.128C107.844 90.528 104.516 89.728 100.1 89.728C95.7475 89.728 92.4195 90.528 90.1155 92.128C87.8115 93.728 86.6595 96.064 86.6595 99.136C86.6595 101.952 87.8755 104.224 90.3075 105.952C92.8035 107.68 96.0675 108.544 100.1 108.544ZM100.1 139.072C105.284 139.072 109.188 138.176 111.812 136.384C114.5 134.528 115.844 131.808 115.844 128.224C115.844 124.64 114.468 121.888 111.716 119.968C109.028 117.984 105.156 116.992 100.1 116.992C95.1715 116.992 91.2995 117.984 88.4835 119.968C85.7315 121.952 84.3555 124.704 84.3555 128.224C84.3555 131.744 85.6995 134.432 88.3875 136.288C91.1395 138.144 95.0435 139.072 100.1 139.072Z" fill="white"/>
<path d="M146.656 99.696C144.928 99.696 143.392 99.376 142.048 98.736C140.736 98.096 139.712 97.232 138.976 96.144C138.272 95.056 137.92 93.856 137.92 92.544V87.12C137.92 85.808 138.272 84.608 138.976 83.52C139.712 82.432 140.736 81.568 142.048 80.928C143.392 80.288 144.928 79.968 146.656 79.968C148.416 79.968 149.952 80.288 151.264 80.928C152.608 81.568 153.632 82.432 154.336 83.52C155.072 84.608 155.44 85.808 155.44 87.12V92.544C155.44 93.856 155.072 95.056 154.336 96.144C153.632 97.232 152.608 98.096 151.264 98.736C149.952 99.376 148.416 99.696 146.656 99.696ZM146.656 95.952C147.968 95.952 149.04 95.632 149.872 94.992C150.704 94.352 151.12 93.488 151.12 92.4V87.264C151.12 86.176 150.704 85.312 149.872 84.672C149.04 84.032 147.968 83.712 146.656 83.712C145.344 83.712 144.272 84.032 143.44 84.672C142.64 85.312 142.24 86.176 142.24 87.264V92.4C142.24 93.488 142.64 94.352 143.44 94.992C144.272 95.632 145.344 95.952 146.656 95.952Z" fill="white"/>
<rect x="3" y="231" width="78" height="40" rx="20" fill="#003871"/>
<path d="M12 249.64C12 251.133 12.44 252.453 13.3067 253.627C14.1733 254.787 15.3067 255.587 16.7067 256.013C16.8267 256.04 16.9333 256 17.0267 255.907L18.5733 254C17.3867 254 16.3733 253.573 15.5333 252.72C14.6933 251.867 14.2667 250.84 14.2667 249.64C14.2667 248.52 14.64 247.533 15.3867 246.707C16.1333 245.88 17.0667 245.413 18.1867 245.32L18.8933 245.227C19.04 245.227 19.1067 245.173 19.1067 245.053L19.2133 244.32C19.3733 242.853 20 241.64 21.0667 240.68C22.1333 239.72 23.4 239.24 24.8667 239.24C26.3333 239.24 27.6133 239.72 28.6933 240.693C29.7867 241.667 30.3867 242.88 30.52 244.32L30.6133 245.093C30.64 245.24 30.7467 245.32 30.9067 245.32H33.0667C34.2667 245.32 35.2933 245.747 36.1333 246.587C36.9733 247.427 37.4 248.44 37.4 249.64C37.4 250.747 37.0267 251.72 36.28 252.547C35.5333 253.373 34.6133 253.853 33.52 253.987C33.36 253.987 33.1467 254.013 32.8667 254.067C32.6133 254.093 32.4267 254.187 32.32 254.373L29.1733 258.093C29.0795 258.21 29.0118 258.345 28.975 258.49C28.9382 258.635 28.9331 258.786 28.96 258.933C29 259.253 29.1467 259.507 29.3733 259.693C29.52 259.853 29.76 259.947 30.12 259.947C30.4667 259.947 30.7467 259.787 30.9333 259.48L33.76 256.227C35.4133 256.053 36.8133 255.347 37.96 254.08C39.1067 252.813 39.6667 251.333 39.6667 249.64C39.6667 248.747 39.4933 247.88 39.1467 247.067C38.8199 246.281 38.3445 245.566 37.7467 244.96C37.1411 244.362 36.4258 243.887 35.64 243.56C34.8267 243.213 33.9509 243.036 33.0667 243.04H32.64C32.2 241.28 31.2533 239.827 29.8133 238.693C28.3733 237.56 26.72 237 24.8533 237C23.6133 237 22.44 237.267 21.3467 237.8C20.2533 238.333 19.3333 239.067 18.5733 240.013C17.8133 240.96 17.32 242.04 17.0667 243.24C15.5733 243.573 14.3467 244.333 13.4 245.533C12.4667 246.72 12 248.093 12 249.64ZM16.5067 260.333C16.5067 260.413 16.5333 260.547 16.5867 260.733C16.7067 261.013 16.8933 261.213 17.1733 261.32C17.4667 261.453 17.76 261.467 18.0667 261.347C18.2066 261.298 18.334 261.218 18.44 261.115C18.5459 261.011 18.6279 260.885 18.68 260.747C18.8133 260.453 18.8267 260.173 18.7067 259.88C18.6539 259.745 18.5713 259.623 18.4652 259.524C18.359 259.424 18.232 259.35 18.0933 259.307C17.9613 259.235 17.8147 259.194 17.6646 259.187C17.5145 259.18 17.3647 259.207 17.2267 259.267C17.0879 259.325 16.9622 259.411 16.8569 259.518C16.7516 259.626 16.6688 259.753 16.6133 259.893C16.5437 260.03 16.5071 260.18 16.5067 260.333ZM18.9733 257.08V257.213C19 257.52 19.1333 257.76 19.3733 257.96C19.68 258.133 19.9467 258.213 20.2 258.213C20.4933 258.213 20.7733 258.067 21.0133 257.773L24.1067 254.08C24.2933 253.853 24.3867 253.56 24.3733 253.2C24.3459 252.925 24.2119 252.671 24 252.493C23.7867 252.307 23.56 252.2 23.3067 252.2C23.2267 252.2 23.1733 252.2 23.12 252.213C22.8133 252.267 22.56 252.413 22.3733 252.653L19.2267 256.347C19.0533 256.56 18.9733 256.8 18.9733 257.08ZM20 263.373C20 263.533 20.04 263.68 20.1067 263.8C20.2133 264.08 20.4133 264.293 20.6933 264.427C20.84 264.493 20.9867 264.52 21.1333 264.52C21.2933 264.52 21.44 264.493 21.5467 264.427C21.8533 264.307 22.0667 264.12 22.1733 263.88C22.3067 263.587 22.32 263.293 22.2 262.987C22.1552 262.845 22.0775 262.715 21.9732 262.608C21.869 262.502 21.7411 262.421 21.6 262.373C21.4613 262.306 21.3101 262.27 21.1562 262.265C21.0023 262.26 20.8491 262.288 20.7067 262.347C20.4 262.467 20.2 262.667 20.1067 262.947C20.0267 263.067 20 263.213 20 263.373ZM22.2267 260.24V260.387C22.2533 260.68 22.4 260.92 22.64 261.12C22.88 261.32 23.1333 261.413 23.3733 261.413C23.68 261.413 23.9467 261.267 24.2133 260.973L30.0133 253.987C30.16 253.827 30.24 253.587 30.24 253.293V253.133C30.2133 252.827 30.08 252.6 29.88 252.427C29.68 252.253 29.44 252.16 29.1867 252.16H29.0133C28.7067 252.173 28.4533 252.32 28.28 252.573L22.48 259.507C22.2933 259.747 22.2267 259.987 22.2267 260.24ZM26.9067 261.773C26.9067 261.893 26.9333 262.027 26.9867 262.173C27.1067 262.467 27.3067 262.68 27.6 262.8C27.7867 262.853 27.92 262.88 28.0133 262.88C28.2 262.88 28.36 262.84 28.4667 262.773C28.76 262.653 28.9733 262.467 29.08 262.213C29.2133 261.987 29.2267 261.693 29.1067 261.32C29.0556 261.186 28.9769 261.065 28.8759 260.964C28.7748 260.863 28.6535 260.784 28.52 260.733L28.04 260.613C27.92 260.64 27.7867 260.667 27.6133 260.707C27.32 260.813 27.12 261.013 27.0133 261.293C26.9467 261.467 26.9067 261.627 26.9067 261.773Z" fill="#F8F8F8"/>
<path d="M47.338 248.502H46.554C46.2087 248.502 45.938 248.385 45.742 248.152C45.5553 247.919 45.462 247.601 45.462 247.2H48.136C48.3413 247.2 48.5093 247.265 48.64 247.396C48.7707 247.517 48.836 247.671 48.836 247.858V255.936C48.836 256.319 48.7053 256.613 48.444 256.818C48.192 257.023 47.8233 257.126 47.338 257.126V248.502ZM51.0732 257C50.8585 257 50.6905 256.944 50.5692 256.832C50.4478 256.711 50.3872 256.547 50.3872 256.342C50.3872 255.623 50.6625 254.956 51.2132 254.34C51.7732 253.715 52.6505 253.108 53.8452 252.52C54.4892 252.193 54.9792 251.909 55.3152 251.666C55.6512 251.423 55.8845 251.176 56.0152 250.924C56.1552 250.672 56.2252 250.373 56.2252 250.028C56.2252 249.505 56.0525 249.104 55.7072 248.824C55.3618 248.544 54.8625 248.404 54.2092 248.404C53.4905 248.404 52.9352 248.567 52.5432 248.894C52.1605 249.221 51.9692 249.687 51.9692 250.294C51.9692 250.481 51.9832 250.672 52.0112 250.868C51.9552 250.877 51.8805 250.882 51.7872 250.882C51.4232 250.882 51.1105 250.775 50.8492 250.56C50.5878 250.345 50.4572 250.084 50.4572 249.776C50.4572 249.272 50.6205 248.815 50.9472 248.404C51.2832 247.993 51.7358 247.671 52.3052 247.438C52.8838 247.195 53.5185 247.074 54.2092 247.074C54.9185 247.074 55.5392 247.195 56.0712 247.438C56.6125 247.681 57.0278 248.026 57.3172 248.474C57.6065 248.922 57.7512 249.44 57.7512 250.028C57.7512 250.7 57.5038 251.307 57.0092 251.848C56.5145 252.389 55.7165 252.94 54.6152 253.5C53.0005 254.312 52.1512 255.045 52.0672 255.698H56.6872C57.0698 255.698 57.3638 255.81 57.5692 256.034C57.7838 256.258 57.8912 256.58 57.8912 257H51.0732ZM66.4185 247.228C66.5025 247.051 66.6238 246.915 66.7825 246.822C66.9505 246.729 67.1325 246.682 67.3285 246.682C67.5991 246.682 67.8651 246.771 68.1265 246.948L63.1425 256.958C63.0491 257.135 62.9231 257.271 62.7645 257.364C62.6058 257.457 62.4331 257.504 62.2465 257.504C61.9571 257.504 61.6865 257.411 61.4345 257.224L66.4185 247.228ZM61.4345 252.856C61.0051 252.856 60.6085 252.772 60.2445 252.604C59.8898 252.427 59.6051 252.193 59.3905 251.904C59.1851 251.615 59.0825 251.297 59.0825 250.952V248.978C59.0825 248.633 59.1851 248.315 59.3905 248.026C59.6051 247.727 59.8898 247.494 60.2445 247.326C60.6085 247.158 61.0051 247.074 61.4345 247.074C61.8638 247.074 62.2558 247.158 62.6105 247.326C62.9745 247.494 63.2591 247.723 63.4645 248.012C63.6698 248.301 63.7725 248.623 63.7725 248.978V250.952C63.7725 251.297 63.6651 251.615 63.4505 251.904C63.2451 252.193 62.9651 252.427 62.6105 252.604C62.2558 252.772 61.8638 252.856 61.4345 252.856ZM61.4345 251.68C61.7238 251.68 61.9525 251.61 62.1205 251.47C62.2978 251.321 62.3865 251.134 62.3865 250.91V249.006C62.3865 248.791 62.2978 248.609 62.1205 248.46C61.9431 248.311 61.7145 248.236 61.4345 248.236C61.1451 248.236 60.9071 248.311 60.7205 248.46C60.5431 248.609 60.4545 248.791 60.4545 249.006V250.91C60.4545 251.134 60.5431 251.321 60.7205 251.47C60.8978 251.61 61.1358 251.68 61.4345 251.68ZM68.1125 257.126C67.6831 257.126 67.2911 257.042 66.9365 256.874C66.5818 256.697 66.2971 256.463 66.0825 256.174C65.8771 255.885 65.7745 255.567 65.7745 255.222V253.248C65.7745 252.903 65.8771 252.585 66.0825 252.296C66.2971 252.007 66.5818 251.778 66.9365 251.61C67.2911 251.433 67.6831 251.344 68.1125 251.344C68.5511 251.344 68.9478 251.428 69.3025 251.596C69.6571 251.764 69.9371 251.993 70.1425 252.282C70.3478 252.571 70.4505 252.893 70.4505 253.248V255.222C70.4505 255.567 70.3478 255.885 70.1425 256.174C69.9371 256.463 69.6525 256.697 69.2885 256.874C68.9338 257.042 68.5418 257.126 68.1125 257.126ZM68.1685 255.922C68.4578 255.922 68.6958 255.852 68.8825 255.712C69.0691 255.563 69.1625 255.381 69.1625 255.166V253.304C69.1625 253.089 69.0645 252.912 68.8685 252.772C68.6818 252.623 68.4485 252.548 68.1685 252.548C67.8791 252.548 67.6365 252.623 67.4405 252.772C67.2538 252.912 67.1605 253.089 67.1605 253.304V255.166C67.1605 255.381 67.2538 255.563 67.4405 255.712C67.6271 255.852 67.8698 255.922 68.1685 255.922Z" fill="white"/>
<rect x="177" y="231" width="97" height="40" rx="20" fill="#003871"/>
<path d="M211.437 239.875C210.194 239.875 209.002 240.369 208.123 241.248C207.244 242.127 206.75 243.319 206.75 244.563C206.75 244.811 206.651 245.05 206.475 245.225C206.3 245.401 206.061 245.5 205.812 245.5C205.564 245.5 205.325 245.401 205.15 245.225C204.974 245.05 204.875 244.811 204.875 244.563C204.875 243.265 205.26 241.996 205.981 240.917C206.702 239.837 207.727 238.996 208.926 238.5C210.125 238.003 211.445 237.873 212.718 238.126C213.991 238.379 215.16 239.004 216.078 239.922C216.996 240.84 217.621 242.009 217.874 243.282C218.127 244.555 217.997 245.875 217.5 247.074C217.004 248.273 216.163 249.298 215.083 250.019C214.004 250.74 212.735 251.125 211.437 251.125H188.937C188.689 251.125 188.45 251.026 188.275 250.85C188.099 250.675 188 250.436 188 250.188C188 249.939 188.099 249.7 188.275 249.525C188.45 249.349 188.689 249.25 188.937 249.25H211.437C212.681 249.25 213.873 248.756 214.752 247.877C215.631 246.998 216.125 245.806 216.125 244.563C216.125 243.319 215.631 242.127 214.752 241.248C213.873 240.369 212.681 239.875 211.437 239.875ZM198.312 241.75C197.815 241.75 197.338 241.948 196.987 242.299C196.635 242.651 196.437 243.128 196.437 243.625C196.437 243.874 196.339 244.112 196.163 244.288C195.987 244.464 195.749 244.563 195.5 244.563C195.251 244.563 195.013 244.464 194.837 244.288C194.661 244.112 194.562 243.874 194.562 243.625C194.562 242.883 194.782 242.158 195.194 241.542C195.607 240.925 196.192 240.444 196.877 240.16C197.563 239.877 198.317 239.802 199.044 239.947C199.772 240.092 200.44 240.449 200.964 240.973C201.489 241.498 201.846 242.166 201.99 242.893C202.135 243.621 202.061 244.375 201.777 245.06C201.493 245.745 201.013 246.331 200.396 246.743C199.779 247.155 199.054 247.375 198.312 247.375H188.937C188.689 247.375 188.45 247.276 188.275 247.1C188.099 246.925 188 246.686 188 246.438C188 246.189 188.099 245.95 188.275 245.775C188.45 245.599 188.689 245.5 188.937 245.5H198.312C198.81 245.5 199.287 245.302 199.638 244.951C199.99 244.599 200.187 244.122 200.187 243.625C200.187 243.128 199.99 242.651 199.638 242.299C199.287 241.948 198.81 241.75 198.312 241.75ZM188 253.938C188 253.689 188.099 253.45 188.275 253.275C188.45 253.099 188.689 253 188.937 253H207.766C208.879 253 209.966 253.33 210.891 253.948C211.816 254.566 212.537 255.445 212.963 256.472C213.389 257.5 213.5 258.631 213.283 259.722C213.066 260.814 212.53 261.816 211.744 262.602C210.957 263.389 209.955 263.925 208.864 264.142C207.772 264.359 206.641 264.248 205.614 263.822C204.586 263.396 203.707 262.675 203.089 261.75C202.471 260.825 202.141 259.738 202.141 258.625C202.141 258.376 202.24 258.138 202.416 257.962C202.592 257.786 202.83 257.688 203.079 257.688C203.327 257.688 203.566 257.786 203.742 257.962C203.917 258.138 204.016 258.376 204.016 258.625C204.016 259.367 204.236 260.092 204.648 260.708C205.06 261.325 205.646 261.806 206.331 262.09C207.016 262.373 207.77 262.448 208.498 262.303C209.225 262.158 209.893 261.801 210.418 261.277C210.942 260.752 211.299 260.084 211.444 259.357C211.589 258.629 211.515 257.875 211.231 257.19C210.947 256.505 210.466 255.919 209.85 255.507C209.233 255.095 208.508 254.875 207.766 254.875H188.937C188.689 254.875 188.45 254.776 188.275 254.6C188.099 254.425 188 254.186 188 253.938Z" fill="#F8F8F8"/>
<path d="M226.466 257.126C225.682 257.126 224.996 257.009 224.408 256.776C223.829 256.533 223.381 256.193 223.064 255.754C222.756 255.315 222.602 254.797 222.602 254.2C222.602 253.649 222.751 253.178 223.05 252.786C223.349 252.385 223.797 252.067 224.394 251.834C223.918 251.61 223.554 251.325 223.302 250.98C223.059 250.625 222.938 250.219 222.938 249.762C222.938 249.239 223.087 248.773 223.386 248.362C223.685 247.951 224.1 247.634 224.632 247.41C225.164 247.186 225.775 247.074 226.466 247.074C227.166 247.074 227.782 247.186 228.314 247.41C228.855 247.634 229.271 247.951 229.56 248.362C229.859 248.763 230.008 249.23 230.008 249.762C230.008 250.219 229.882 250.625 229.63 250.98C229.378 251.325 229.014 251.61 228.538 251.834C229.135 252.067 229.583 252.385 229.882 252.786C230.19 253.178 230.344 253.649 230.344 254.2C230.344 255.105 229.999 255.819 229.308 256.342C228.617 256.865 227.67 257.126 226.466 257.126ZM226.466 251.288C227.101 251.288 227.6 251.157 227.964 250.896C228.337 250.635 228.524 250.275 228.524 249.818C228.524 249.333 228.351 248.969 228.006 248.726C227.661 248.474 227.147 248.348 226.466 248.348C225.794 248.348 225.281 248.474 224.926 248.726C224.581 248.978 224.408 249.342 224.408 249.818C224.408 250.266 224.595 250.625 224.968 250.896C225.341 251.157 225.841 251.288 226.466 251.288ZM226.466 255.852C227.25 255.852 227.843 255.707 228.244 255.418C228.655 255.129 228.86 254.709 228.86 254.158C228.86 253.607 228.65 253.183 228.23 252.884C227.819 252.576 227.231 252.422 226.466 252.422C225.71 252.422 225.122 252.576 224.702 252.884C224.282 253.183 224.072 253.607 224.072 254.158C224.072 254.709 224.277 255.129 224.688 255.418C225.099 255.707 225.691 255.852 226.466 255.852ZM237.844 256.748C237.666 257 237.419 257.126 237.102 257.126C236.943 257.126 236.803 257.093 236.682 257.028C236.56 256.963 236.448 256.851 236.346 256.692L234.246 253.458L233.238 254.368V256.188C233.238 256.813 232.776 257.126 231.852 257.126V248.194C231.852 247.447 232.318 247.074 233.252 247.074L233.238 252.898L236.57 249.888C236.906 250.177 237.074 250.42 237.074 250.616C237.074 250.747 237.041 250.859 236.976 250.952C236.91 251.036 236.794 251.157 236.626 251.316L235.1 252.702L237.844 256.748ZM239.399 251.008C239.399 250.252 239.842 249.874 240.729 249.874V250.756C240.635 250.849 240.533 250.98 240.421 251.148L240.491 251.204C240.789 250.775 241.102 250.448 241.429 250.224C241.755 249.991 242.143 249.874 242.591 249.874C243.431 249.874 244.005 250.275 244.313 251.078C244.835 250.275 245.545 249.874 246.441 249.874C247.094 249.874 247.603 250.098 247.967 250.546C248.34 250.994 248.527 251.577 248.527 252.296V256.174C248.527 256.501 248.41 256.743 248.177 256.902C247.953 257.051 247.607 257.126 247.141 257.126V252.394C247.141 251.507 246.781 251.064 246.063 251.064C245.671 251.064 245.335 251.199 245.055 251.47C244.784 251.731 244.649 252.1 244.649 252.576V256.174C244.649 256.51 244.537 256.753 244.313 256.902C244.089 257.051 243.748 257.126 243.291 257.126V252.394C243.291 251.983 243.202 251.661 243.025 251.428C242.847 251.185 242.572 251.064 242.199 251.064C241.788 251.064 241.447 251.213 241.177 251.512C240.915 251.801 240.785 252.17 240.785 252.618V256.174C240.785 256.501 240.668 256.743 240.435 256.902C240.211 257.051 239.865 257.126 239.399 257.126V251.008ZM254.916 247.228C255 247.051 255.121 246.915 255.28 246.822C255.448 246.729 255.63 246.682 255.826 246.682C256.106 246.682 256.377 246.771 256.638 246.948L251.626 256.958C251.533 257.135 251.407 257.271 251.248 257.364C251.099 257.457 250.926 257.504 250.73 257.504C250.45 257.504 250.184 257.411 249.932 257.224L254.916 247.228ZM258.156 248.208C258.156 247.844 258.273 247.564 258.506 247.368C258.749 247.172 259.099 247.074 259.556 247.074V250.742C259.454 250.845 259.346 250.98 259.234 251.148L259.304 251.204C259.594 250.803 259.953 250.481 260.382 250.238C260.812 249.995 261.283 249.874 261.796 249.874C262.543 249.874 263.136 250.103 263.574 250.56C264.013 251.008 264.232 251.587 264.232 252.296V256.174C264.232 256.501 264.116 256.743 263.882 256.902C263.658 257.051 263.313 257.126 262.846 257.126V252.464C262.846 252.053 262.725 251.722 262.482 251.47C262.24 251.218 261.885 251.092 261.418 251.092C261.092 251.092 260.784 251.167 260.494 251.316C260.205 251.456 259.976 251.647 259.808 251.89C259.64 252.133 259.556 252.399 259.556 252.688V256.174C259.556 256.501 259.44 256.743 259.206 256.902C258.973 257.051 258.623 257.126 258.156 257.126V248.208Z" fill="white"/>
<rect x="90" y="231" width="78" height="40" rx="20" fill="#003871"/>
<path d="M124.998 246.999C123.967 247.026 122.968 246.644 122.218 245.936C121.469 245.229 121.03 244.253 120.999 243.222C121.017 242.487 121.244 241.771 121.652 241.159L124.168 237.415C124.265 237.286 124.39 237.181 124.534 237.109C124.678 237.037 124.837 237 124.998 237C125.159 237 125.318 237.037 125.462 237.109C125.606 237.181 125.731 237.286 125.828 237.415L128.312 241.11C128.737 241.734 128.974 242.467 128.997 243.222C128.965 244.253 128.527 245.229 127.777 245.936C127.028 246.644 126.028 247.026 124.998 246.999ZM124.998 239.763L123.342 242.226C123.135 242.518 123.016 242.864 122.998 243.222C123.056 243.712 123.292 244.163 123.66 244.491C124.029 244.818 124.505 244.999 124.998 244.999C125.491 244.999 125.967 244.818 126.335 244.491C126.704 244.163 126.939 243.712 126.997 243.222C126.975 242.845 126.845 242.482 126.623 242.176L124.998 239.763ZM122.498 264.995H107.502C105.891 264.996 104.337 264.4 103.142 263.32C101.947 262.241 101.195 260.756 101.033 259.153C100.871 257.551 101.31 255.945 102.265 254.649C103.221 253.352 104.623 252.456 106.202 252.135C106.628 250.118 107.735 248.308 109.336 247.009C110.938 245.71 112.938 245.001 115 245.001C117.062 245.001 119.062 245.71 120.664 247.009C122.265 248.308 123.372 250.118 123.798 252.135C125.377 252.456 126.779 253.352 127.735 254.649C128.69 255.945 129.129 257.551 128.967 259.153C128.805 260.756 128.053 262.241 126.858 263.32C125.663 264.4 124.109 264.996 122.498 264.995ZM115 246.999C113.293 247 111.646 247.626 110.367 248.757C109.089 249.889 108.269 251.448 108.06 253.142L107.96 253.954L107.146 254.018C105.985 254.106 104.904 254.641 104.13 255.511C103.356 256.38 102.949 257.515 102.995 258.678C103.042 259.841 103.537 260.941 104.377 261.746C105.218 262.551 106.338 262.999 107.502 262.995H122.498C123.662 262.999 124.782 262.551 125.623 261.746C126.463 260.941 126.958 259.841 127.005 258.678C127.051 257.515 126.644 256.38 125.87 255.511C125.096 254.641 124.015 254.106 122.854 254.018L122.04 253.954L121.941 253.142C121.732 251.448 120.911 249.889 119.633 248.757C118.355 247.626 116.707 247 115 246.999Z" fill="#F8F8F8"/>
<path d="M136.338 248.502H135.554C135.209 248.502 134.938 248.385 134.742 248.152C134.555 247.919 134.462 247.601 134.462 247.2H137.136C137.341 247.2 137.509 247.265 137.64 247.396C137.771 247.517 137.836 247.671 137.836 247.858V255.936C137.836 256.319 137.705 256.613 137.444 256.818C137.192 257.023 136.823 257.126 136.338 257.126V248.502ZM140.073 257C139.858 257 139.69 256.944 139.569 256.832C139.448 256.711 139.387 256.547 139.387 256.342C139.387 255.623 139.662 254.956 140.213 254.34C140.773 253.715 141.65 253.108 142.845 252.52C143.489 252.193 143.979 251.909 144.315 251.666C144.651 251.423 144.884 251.176 145.015 250.924C145.155 250.672 145.225 250.373 145.225 250.028C145.225 249.505 145.052 249.104 144.707 248.824C144.362 248.544 143.862 248.404 143.209 248.404C142.49 248.404 141.935 248.567 141.543 248.894C141.16 249.221 140.969 249.687 140.969 250.294C140.969 250.481 140.983 250.672 141.011 250.868C140.955 250.877 140.88 250.882 140.787 250.882C140.423 250.882 140.11 250.775 139.849 250.56C139.588 250.345 139.457 250.084 139.457 249.776C139.457 249.272 139.62 248.815 139.947 248.404C140.283 247.993 140.736 247.671 141.305 247.438C141.884 247.195 142.518 247.074 143.209 247.074C143.918 247.074 144.539 247.195 145.071 247.438C145.612 247.681 146.028 248.026 146.317 248.474C146.606 248.922 146.751 249.44 146.751 250.028C146.751 250.7 146.504 251.307 146.009 251.848C145.514 252.389 144.716 252.94 143.615 253.5C142 254.312 141.151 255.045 141.067 255.698H145.687C146.07 255.698 146.364 255.81 146.569 256.034C146.784 256.258 146.891 256.58 146.891 257H140.073ZM155.418 247.228C155.502 247.051 155.624 246.915 155.782 246.822C155.95 246.729 156.132 246.682 156.328 246.682C156.599 246.682 156.865 246.771 157.126 246.948L152.142 256.958C152.049 257.135 151.923 257.271 151.764 257.364C151.606 257.457 151.433 257.504 151.246 257.504C150.957 257.504 150.686 257.411 150.434 257.224L155.418 247.228ZM150.434 252.856C150.005 252.856 149.608 252.772 149.244 252.604C148.89 252.427 148.605 252.193 148.39 251.904C148.185 251.615 148.082 251.297 148.082 250.952V248.978C148.082 248.633 148.185 248.315 148.39 248.026C148.605 247.727 148.89 247.494 149.244 247.326C149.608 247.158 150.005 247.074 150.434 247.074C150.864 247.074 151.256 247.158 151.61 247.326C151.974 247.494 152.259 247.723 152.464 248.012C152.67 248.301 152.772 248.623 152.772 248.978V250.952C152.772 251.297 152.665 251.615 152.45 251.904C152.245 252.193 151.965 252.427 151.61 252.604C151.256 252.772 150.864 252.856 150.434 252.856ZM150.434 251.68C150.724 251.68 150.952 251.61 151.12 251.47C151.298 251.321 151.386 251.134 151.386 250.91V249.006C151.386 248.791 151.298 248.609 151.12 248.46C150.943 248.311 150.714 248.236 150.434 248.236C150.145 248.236 149.907 248.311 149.72 248.46C149.543 248.609 149.454 248.791 149.454 249.006V250.91C149.454 251.134 149.543 251.321 149.72 251.47C149.898 251.61 150.136 251.68 150.434 251.68ZM157.112 257.126C156.683 257.126 156.291 257.042 155.936 256.874C155.582 256.697 155.297 256.463 155.082 256.174C154.877 255.885 154.774 255.567 154.774 255.222V253.248C154.774 252.903 154.877 252.585 155.082 252.296C155.297 252.007 155.582 251.778 155.936 251.61C156.291 251.433 156.683 251.344 157.112 251.344C157.551 251.344 157.948 251.428 158.302 251.596C158.657 251.764 158.937 251.993 159.142 252.282C159.348 252.571 159.45 252.893 159.45 253.248V255.222C159.45 255.567 159.348 255.885 159.142 256.174C158.937 256.463 158.652 256.697 158.288 256.874C157.934 257.042 157.542 257.126 157.112 257.126ZM157.168 255.922C157.458 255.922 157.696 255.852 157.882 255.712C158.069 255.563 158.162 255.381 158.162 255.166V253.304C158.162 253.089 158.064 252.912 157.868 252.772C157.682 252.623 157.448 252.548 157.168 252.548C156.879 252.548 156.636 252.623 156.44 252.772C156.254 252.912 156.16 253.089 156.16 253.304V255.166C156.16 255.381 156.254 255.563 156.44 255.712C156.627 255.852 156.87 255.922 157.168 255.922Z" fill="white"/>
<path d="M9.924 169.264C9.924 168.891 10.0593 168.601 10.33 168.396C10.6007 168.181 10.9693 168.074 11.436 168.074L14.67 175.956L14.39 176.684L14.502 176.74L17.932 168.074C18.3987 168.074 18.7673 168.181 19.038 168.396C19.3087 168.611 19.444 168.905 19.444 169.278V178.126C18.464 178.126 17.974 177.734 17.974 176.95V171.532L18.366 170.454L18.24 170.412L15.314 177.706C15.258 177.827 15.174 177.925 15.062 178C14.95 178.084 14.8287 178.126 14.698 178.126C14.558 178.126 14.432 178.089 14.32 178.014C14.208 177.939 14.124 177.837 14.068 177.706L11.128 170.398L11.002 170.454L11.408 171.518V176.95C11.408 177.333 11.282 177.627 11.03 177.832C10.778 178.028 10.4093 178.126 9.924 178.126V169.264ZM24.0707 178.126C23.4827 178.126 22.9553 178.019 22.4887 177.804C22.022 177.589 21.6533 177.295 21.3827 176.922C21.1213 176.539 20.9907 176.115 20.9907 175.648V173.45C20.9907 172.974 21.1213 172.54 21.3827 172.148C21.644 171.756 22.008 171.448 22.4747 171.224C22.9413 170.991 23.4733 170.874 24.0707 170.874C24.668 170.874 25.2 170.991 25.6667 171.224C26.1333 171.448 26.4973 171.756 26.7587 172.148C27.0293 172.54 27.1647 172.974 27.1647 173.45V175.648C27.1647 176.115 27.0293 176.539 26.7587 176.922C26.4973 177.295 26.1287 177.589 25.6527 177.804C25.186 178.019 24.6587 178.126 24.0707 178.126ZM24.0707 176.922C24.6027 176.922 25.0227 176.801 25.3307 176.558C25.6387 176.306 25.7927 175.975 25.7927 175.564V173.506C25.7927 173.077 25.634 172.731 25.3167 172.47C25.0087 172.209 24.5933 172.078 24.0707 172.078C23.548 172.078 23.128 172.209 22.8107 172.47C22.5027 172.731 22.3487 173.077 22.3487 173.506V175.564C22.3487 175.975 22.5027 176.306 22.8107 176.558C23.1187 176.801 23.5387 176.922 24.0707 176.922ZM30.9723 178.126C30.459 178.126 29.983 178.056 29.5443 177.916C29.115 177.767 28.7743 177.557 28.5223 177.286C28.2703 177.006 28.1443 176.689 28.1443 176.334C28.1443 175.858 28.457 175.606 29.0823 175.578C29.1663 176.063 29.3763 176.427 29.7123 176.67C30.0577 176.903 30.4823 177.02 30.9863 177.02C31.509 177.02 31.915 176.945 32.2043 176.796C32.4937 176.647 32.6383 176.423 32.6383 176.124C32.6383 175.825 32.5077 175.592 32.2463 175.424C31.9943 175.256 31.5183 175.097 30.8183 174.948C30.1743 174.799 29.6657 174.645 29.2923 174.486C28.919 174.327 28.639 174.117 28.4523 173.856C28.2657 173.585 28.1723 173.24 28.1723 172.82C28.1723 172.447 28.2843 172.115 28.5083 171.826C28.7323 171.527 29.045 171.294 29.4463 171.126C29.857 170.958 30.3283 170.874 30.8603 170.874C31.3643 170.874 31.8263 170.939 32.2463 171.07C32.6757 171.201 33.0163 171.392 33.2683 171.644C33.5297 171.887 33.6603 172.171 33.6603 172.498C33.6603 172.955 33.315 173.198 32.6243 173.226C32.5777 172.834 32.405 172.526 32.1063 172.302C31.817 172.078 31.4157 171.966 30.9023 171.966C30.4823 171.966 30.1417 172.045 29.8803 172.204C29.619 172.353 29.4883 172.554 29.4883 172.806C29.4883 173.067 29.605 173.268 29.8383 173.408C30.081 173.539 30.4917 173.669 31.0703 173.8C32.069 174.005 32.8017 174.285 33.2683 174.64C33.735 174.985 33.9683 175.475 33.9683 176.11C33.9683 176.745 33.7023 177.239 33.1703 177.594C32.6477 177.949 31.915 178.126 30.9723 178.126ZM37.7885 178.126C37.0885 178.126 36.5705 177.93 36.2345 177.538C35.8985 177.137 35.7305 176.614 35.7305 175.97V172.092H34.3865C34.3865 171.728 34.4612 171.457 34.6105 171.28C34.7598 171.093 34.9605 171 35.2125 171H35.7585V169.726C35.7585 169.39 35.8705 169.147 36.0945 168.998C36.3185 168.849 36.6592 168.774 37.1165 168.774V171H38.9785C38.9785 171.373 38.8992 171.649 38.7405 171.826C38.5912 172.003 38.3532 172.092 38.0265 172.092H37.1445V175.914C37.1445 176.269 37.2098 176.525 37.3405 176.684C37.4712 176.833 37.7045 176.908 38.0405 176.908C38.3672 176.908 38.6845 176.819 38.9925 176.642C39.1418 176.791 39.2165 176.978 39.2165 177.202C39.2165 177.445 39.0905 177.659 38.8385 177.846C38.5865 178.033 38.2365 178.126 37.7885 178.126ZM42.759 178.126C42.0404 178.126 41.5037 177.93 41.149 177.538C40.7944 177.137 40.617 176.614 40.617 175.97V169.026C40.617 168.69 40.729 168.447 40.953 168.298C41.1864 168.149 41.541 168.074 42.017 168.074V175.914C42.017 176.269 42.087 176.525 42.227 176.684C42.3764 176.833 42.619 176.908 42.955 176.908C43.3004 176.908 43.627 176.819 43.935 176.642C44.075 176.801 44.145 176.987 44.145 177.202C44.145 177.445 44.019 177.659 43.767 177.846C43.5244 178.033 43.1884 178.126 42.759 178.126ZM45.6683 180.912C45.3603 180.912 45.1176 180.814 44.9403 180.618C44.763 180.422 44.6696 180.133 44.6603 179.75C44.9123 179.797 45.127 179.82 45.3043 179.82C45.6963 179.82 46.009 179.708 46.2423 179.484C46.4756 179.26 46.723 178.854 46.9843 178.266L47.2363 177.678L44.5063 170.986C44.5716 170.958 44.665 170.935 44.7863 170.916C44.9076 170.888 45.015 170.874 45.1083 170.874C45.3323 170.883 45.533 170.939 45.7103 171.042C45.897 171.145 46.023 171.285 46.0883 171.462L47.8383 175.956L47.6283 176.558L47.7263 176.6L49.7423 171.462C49.8076 171.275 49.929 171.131 50.1063 171.028C50.2836 170.925 50.4843 170.874 50.7083 170.874C50.8016 170.874 50.909 170.888 51.0303 170.916C51.161 170.935 51.2543 170.958 51.3103 170.986L48.1743 178.672C47.8663 179.428 47.5163 179.988 47.1243 180.352C46.7416 180.725 46.2563 180.912 45.6683 180.912ZM60.0754 178.126C59.2727 178.126 58.5727 178.019 57.9754 177.804C57.3874 177.58 56.9394 177.281 56.6314 176.908C56.3234 176.535 56.1694 176.119 56.1694 175.662C56.1694 175.317 56.2721 175.046 56.4774 174.85C56.6827 174.645 57.0047 174.542 57.4434 174.542C57.4527 175.307 57.6907 175.891 58.1574 176.292C58.6241 176.693 59.2774 176.894 60.1174 176.894C60.8827 176.894 61.4707 176.763 61.8814 176.502C62.3014 176.241 62.5114 175.863 62.5114 175.368C62.5114 175.06 62.4321 174.808 62.2734 174.612C62.1241 174.416 61.8581 174.243 61.4754 174.094C61.1021 173.935 60.5701 173.781 59.8794 173.632C59.0021 173.436 58.3067 173.212 57.7934 172.96C57.2801 172.708 56.9067 172.405 56.6734 172.05C56.4401 171.686 56.3234 171.238 56.3234 170.706C56.3234 170.183 56.4727 169.726 56.7714 169.334C57.0794 168.933 57.5087 168.625 58.0594 168.41C58.6101 168.186 59.2494 168.074 59.9774 168.074C60.6681 168.074 61.2841 168.172 61.8254 168.368C62.3761 168.555 62.8054 168.821 63.1134 169.166C63.4307 169.511 63.5894 169.908 63.5894 170.356C63.5894 170.636 63.4914 170.86 63.2954 171.028C63.0994 171.196 62.7914 171.285 62.3714 171.294C62.2874 170.603 62.0541 170.099 61.6714 169.782C61.2887 169.465 60.7241 169.306 59.9774 169.306C59.2867 169.306 58.7547 169.427 58.3814 169.67C58.0081 169.903 57.8214 170.239 57.8214 170.678C57.8214 170.986 57.8914 171.238 58.0314 171.434C58.1714 171.63 58.4047 171.803 58.7314 171.952C59.0674 172.092 59.5434 172.227 60.1594 172.358C61.1114 172.563 61.8627 172.797 62.4134 173.058C62.9641 173.319 63.3607 173.632 63.6034 173.996C63.8554 174.36 63.9814 174.813 63.9814 175.354C63.9814 176.213 63.6267 176.889 62.9174 177.384C62.2174 177.879 61.2701 178.126 60.0754 178.126ZM71.4498 176.978C71.4498 177.743 71.0018 178.126 70.1058 178.126V177.244C70.1992 177.16 70.3018 177.025 70.4138 176.838L70.3578 176.782C70.0685 177.193 69.7185 177.519 69.3078 177.762C68.8972 178.005 68.4352 178.126 67.9218 178.126C67.4272 178.126 66.9885 178.019 66.6058 177.804C66.2232 177.589 65.9245 177.291 65.7098 176.908C65.4952 176.516 65.3878 176.077 65.3878 175.592V171.826C65.3878 171.49 65.4998 171.247 65.7238 171.098C65.9572 170.949 66.3118 170.874 66.7878 170.874V175.522C66.7878 175.942 66.9138 176.278 67.1658 176.53C67.4178 176.782 67.7865 176.908 68.2718 176.908C68.7758 176.908 69.2005 176.754 69.5458 176.446C69.8912 176.138 70.0638 175.76 70.0638 175.312V171.826C70.0638 171.49 70.1758 171.247 70.3998 171.098C70.6238 170.949 70.9738 170.874 71.4498 170.874V176.978ZM73.2931 172.008C73.2931 171.252 73.7411 170.874 74.6371 170.874V171.756C74.5438 171.849 74.4411 171.98 74.3291 172.148L74.3991 172.204C74.6791 171.803 75.0385 171.481 75.4771 171.238C75.9251 170.995 76.4105 170.874 76.9331 170.874C77.6798 170.874 78.2725 171.103 78.7111 171.56C79.1498 172.008 79.3691 172.587 79.3691 173.296V177.174C79.3691 177.501 79.2525 177.743 79.0191 177.902C78.7951 178.051 78.4498 178.126 77.9831 178.126V173.464C77.9831 173.053 77.8618 172.722 77.6191 172.47C77.3765 172.218 77.0218 172.092 76.5551 172.092C76.2285 172.092 75.9205 172.167 75.6311 172.316C75.3418 172.456 75.1131 172.647 74.9451 172.89C74.7771 173.133 74.6931 173.399 74.6931 173.688V177.174C74.6931 177.51 74.5765 177.753 74.3431 177.902C74.1191 178.051 73.7691 178.126 73.2931 178.126V172.008ZM81.0998 172.008C81.0998 171.252 81.5478 170.874 82.4438 170.874V171.756C82.3504 171.849 82.2478 171.98 82.1358 172.148L82.2058 172.204C82.4858 171.803 82.8451 171.481 83.2838 171.238C83.7318 170.995 84.2171 170.874 84.7398 170.874C85.4864 170.874 86.0791 171.103 86.5178 171.56C86.9564 172.008 87.1758 172.587 87.1758 173.296V177.174C87.1758 177.501 87.0591 177.743 86.8258 177.902C86.6018 178.051 86.2564 178.126 85.7898 178.126V173.464C85.7898 173.053 85.6684 172.722 85.4258 172.47C85.1831 172.218 84.8284 172.092 84.3618 172.092C84.0351 172.092 83.7271 172.167 83.4378 172.316C83.1484 172.456 82.9198 172.647 82.7518 172.89C82.5838 173.133 82.4998 173.399 82.4998 173.688V177.174C82.4998 177.51 82.3831 177.753 82.1498 177.902C81.9258 178.051 81.5758 178.126 81.0998 178.126V172.008ZM89.2542 180.912C88.9462 180.912 88.7036 180.814 88.5262 180.618C88.3489 180.422 88.2556 180.133 88.2462 179.75C88.4982 179.797 88.7129 179.82 88.8902 179.82C89.2822 179.82 89.5949 179.708 89.8282 179.484C90.0616 179.26 90.3089 178.854 90.5702 178.266L90.8222 177.678L88.0922 170.986C88.1576 170.958 88.2509 170.935 88.3722 170.916C88.4936 170.888 88.6009 170.874 88.6942 170.874C88.9182 170.883 89.1189 170.939 89.2962 171.042C89.4829 171.145 89.6089 171.285 89.6742 171.462L91.4242 175.956L91.2142 176.558L91.3122 176.6L93.3282 171.462C93.3936 171.275 93.5149 171.131 93.6922 171.028C93.8696 170.925 94.0702 170.874 94.2942 170.874C94.3876 170.874 94.4949 170.888 94.6162 170.916C94.7469 170.935 94.8402 170.958 94.8962 170.986L91.7602 178.672C91.4522 179.428 91.1022 179.988 90.7102 180.352C90.3276 180.725 89.8422 180.912 89.2542 180.912Z" fill="black"/>
<path d="M9.924 185.9C9.924 185.704 9.99867 185.541 10.148 185.41C10.2973 185.27 10.4793 185.2 10.694 185.2H16.966C16.966 185.648 16.882 185.979 16.714 186.194C16.546 186.399 16.28 186.502 15.916 186.502H11.436V189.33H15.286C15.286 189.778 15.202 190.109 15.034 190.324C14.866 190.529 14.6 190.632 14.236 190.632H11.436V193.978C11.436 194.37 11.31 194.659 11.058 194.846C10.8153 195.033 10.4373 195.126 9.924 195.126V185.9ZM19.2478 195.126C18.6784 195.126 18.1651 195.014 17.7078 194.79C17.2504 194.566 16.8911 194.258 16.6298 193.866C16.3684 193.474 16.2378 193.035 16.2378 192.55V190.548C16.2378 190.044 16.3731 189.591 16.6438 189.19C16.9238 188.779 17.2924 188.457 17.7498 188.224C18.2071 187.991 18.7064 187.874 19.2478 187.874C19.7891 187.874 20.2838 187.986 20.7318 188.21C21.1798 188.434 21.5344 188.747 21.7958 189.148C22.0571 189.54 22.1878 189.988 22.1878 190.492V191.36C22.1878 191.519 22.1224 191.659 21.9918 191.78C21.8704 191.892 21.7211 191.948 21.5438 191.948H17.5958V192.48C17.5958 192.928 17.7358 193.292 18.0158 193.572C18.2958 193.843 18.7064 193.978 19.2478 193.978C19.7891 193.978 20.1951 193.861 20.4658 193.628C20.7458 193.385 20.8858 193.068 20.8858 192.676C21.2218 192.648 21.4971 192.704 21.7118 192.844C21.9264 192.975 22.0338 193.175 22.0338 193.446C22.0338 193.735 21.9031 194.011 21.6418 194.272C21.3898 194.524 21.0491 194.729 20.6198 194.888C20.1998 195.047 19.7424 195.126 19.2478 195.126ZM20.9138 190.898V190.492C20.9138 190.053 20.7598 189.699 20.4518 189.428C20.1438 189.148 19.7424 189.008 19.2478 189.008C18.7531 189.008 18.3518 189.148 18.0438 189.428C17.7451 189.699 17.5958 190.053 17.5958 190.492V190.898H20.9138ZM26.6169 195.126C26.0476 195.126 25.5343 195.014 25.0769 194.79C24.6196 194.566 24.2603 194.258 23.9989 193.866C23.7376 193.474 23.6069 193.035 23.6069 192.55V190.548C23.6069 190.044 23.7423 189.591 24.0129 189.19C24.2929 188.779 24.6616 188.457 25.1189 188.224C25.5763 187.991 26.0756 187.874 26.6169 187.874C27.1583 187.874 27.6529 187.986 28.1009 188.21C28.5489 188.434 28.9036 188.747 29.1649 189.148C29.4263 189.54 29.5569 189.988 29.5569 190.492V191.36C29.5569 191.519 29.4916 191.659 29.3609 191.78C29.2396 191.892 29.0903 191.948 28.9129 191.948H24.9649V192.48C24.9649 192.928 25.1049 193.292 25.3849 193.572C25.6649 193.843 26.0756 193.978 26.6169 193.978C27.1583 193.978 27.5643 193.861 27.8349 193.628C28.1149 193.385 28.2549 193.068 28.2549 192.676C28.5909 192.648 28.8663 192.704 29.0809 192.844C29.2956 192.975 29.4029 193.175 29.4029 193.446C29.4029 193.735 29.2723 194.011 29.0109 194.272C28.7589 194.524 28.4183 194.729 27.9889 194.888C27.5689 195.047 27.1116 195.126 26.6169 195.126ZM28.2829 190.898V190.492C28.2829 190.053 28.1289 189.699 27.8209 189.428C27.5129 189.148 27.1116 189.008 26.6169 189.008C26.1223 189.008 25.7209 189.148 25.4129 189.428C25.1143 189.699 24.9649 190.053 24.9649 190.492V190.898H28.2829ZM33.2161 195.126C32.4974 195.126 31.9607 194.93 31.6061 194.538C31.2514 194.137 31.0741 193.614 31.0741 192.97V186.026C31.0741 185.69 31.1861 185.447 31.4101 185.298C31.6434 185.149 31.9981 185.074 32.4741 185.074V192.914C32.4741 193.269 32.5441 193.525 32.6841 193.684C32.8334 193.833 33.0761 193.908 33.4121 193.908C33.7574 193.908 34.0841 193.819 34.3921 193.642C34.5321 193.801 34.6021 193.987 34.6021 194.202C34.6021 194.445 34.4761 194.659 34.2241 194.846C33.9814 195.033 33.6454 195.126 33.2161 195.126ZM38.4235 195.126C37.9102 195.126 37.4342 195.056 36.9955 194.916C36.5662 194.767 36.2255 194.557 35.9735 194.286C35.7215 194.006 35.5955 193.689 35.5955 193.334C35.5955 192.858 35.9082 192.606 36.5335 192.578C36.6175 193.063 36.8275 193.427 37.1635 193.67C37.5088 193.903 37.9335 194.02 38.4375 194.02C38.9602 194.02 39.3662 193.945 39.6555 193.796C39.9448 193.647 40.0895 193.423 40.0895 193.124C40.0895 192.825 39.9588 192.592 39.6975 192.424C39.4455 192.256 38.9695 192.097 38.2695 191.948C37.6255 191.799 37.1168 191.645 36.7435 191.486C36.3702 191.327 36.0902 191.117 35.9035 190.856C35.7168 190.585 35.6235 190.24 35.6235 189.82C35.6235 189.447 35.7355 189.115 35.9595 188.826C36.1835 188.527 36.4962 188.294 36.8975 188.126C37.3082 187.958 37.7795 187.874 38.3115 187.874C38.8155 187.874 39.2775 187.939 39.6975 188.07C40.1268 188.201 40.4675 188.392 40.7195 188.644C40.9808 188.887 41.1115 189.171 41.1115 189.498C41.1115 189.955 40.7662 190.198 40.0755 190.226C40.0288 189.834 39.8562 189.526 39.5575 189.302C39.2682 189.078 38.8668 188.966 38.3535 188.966C37.9335 188.966 37.5928 189.045 37.3315 189.204C37.0702 189.353 36.9395 189.554 36.9395 189.806C36.9395 190.067 37.0562 190.268 37.2895 190.408C37.5322 190.539 37.9428 190.669 38.5215 190.8C39.5202 191.005 40.2528 191.285 40.7195 191.64C41.1862 191.985 41.4195 192.475 41.4195 193.11C41.4195 193.745 41.1535 194.239 40.6215 194.594C40.0988 194.949 39.3662 195.126 38.4235 195.126ZM48.6379 195.126C47.9193 195.126 47.3826 194.93 47.0279 194.538C46.6733 194.137 46.4959 193.614 46.4959 192.97V186.026C46.4959 185.69 46.6079 185.447 46.8319 185.298C47.0653 185.149 47.4199 185.074 47.8959 185.074V192.914C47.8959 193.269 47.9659 193.525 48.1059 193.684C48.2553 193.833 48.4979 193.908 48.8339 193.908C49.1793 193.908 49.5059 193.819 49.8139 193.642C49.9539 193.801 50.0239 193.987 50.0239 194.202C50.0239 194.445 49.8979 194.659 49.6459 194.846C49.4033 195.033 49.0673 195.126 48.6379 195.126ZM52.4125 186.95C52.1325 186.95 51.8945 186.861 51.6985 186.684C51.5025 186.507 51.4045 186.283 51.4045 186.012C51.4045 185.741 51.5025 185.517 51.6985 185.34C51.8945 185.163 52.1325 185.074 52.4125 185.074C52.6925 185.074 52.9258 185.163 53.1125 185.34C53.3085 185.517 53.4065 185.741 53.4065 186.012C53.4065 186.283 53.3085 186.507 53.1125 186.684C52.9258 186.861 52.6925 186.95 52.4125 186.95ZM51.7125 188.826C51.7125 188.49 51.8245 188.247 52.0485 188.098C52.2818 187.949 52.6318 187.874 53.0985 187.874V194.174C53.0985 194.501 52.9818 194.743 52.7485 194.902C52.5245 195.051 52.1791 195.126 51.7125 195.126V188.826ZM61.2519 194.748C61.0746 195 60.8273 195.126 60.5099 195.126C60.3513 195.126 60.2113 195.093 60.0899 195.028C59.9686 194.963 59.8566 194.851 59.7539 194.692L57.6539 191.458L56.6459 192.368V194.188C56.6459 194.813 56.1839 195.126 55.2599 195.126V186.194C55.2599 185.447 55.7266 185.074 56.6599 185.074L56.6459 190.898L59.9779 187.888C60.3139 188.177 60.4819 188.42 60.4819 188.616C60.4819 188.747 60.4493 188.859 60.3839 188.952C60.3186 189.036 60.2019 189.157 60.0339 189.316L58.5079 190.702L61.2519 194.748ZM65.0759 195.126C64.5066 195.126 63.9932 195.014 63.5359 194.79C63.0786 194.566 62.7192 194.258 62.4579 193.866C62.1966 193.474 62.0659 193.035 62.0659 192.55V190.548C62.0659 190.044 62.2012 189.591 62.4719 189.19C62.7519 188.779 63.1206 188.457 63.5779 188.224C64.0352 187.991 64.5346 187.874 65.0759 187.874C65.6172 187.874 66.1119 187.986 66.5599 188.21C67.0079 188.434 67.3626 188.747 67.6239 189.148C67.8852 189.54 68.0159 189.988 68.0159 190.492V191.36C68.0159 191.519 67.9506 191.659 67.8199 191.78C67.6986 191.892 67.5492 191.948 67.3719 191.948H63.4239V192.48C63.4239 192.928 63.5639 193.292 63.8439 193.572C64.1239 193.843 64.5346 193.978 65.0759 193.978C65.6172 193.978 66.0232 193.861 66.2939 193.628C66.5739 193.385 66.7139 193.068 66.7139 192.676C67.0499 192.648 67.3252 192.704 67.5399 192.844C67.7546 192.975 67.8619 193.175 67.8619 193.446C67.8619 193.735 67.7312 194.011 67.4699 194.272C67.2179 194.524 66.8772 194.729 66.4479 194.888C66.0279 195.047 65.5706 195.126 65.0759 195.126ZM66.7419 190.898V190.492C66.7419 190.053 66.5879 189.699 66.2799 189.428C65.9719 189.148 65.5706 189.008 65.0759 189.008C64.5812 189.008 64.1799 189.148 63.8719 189.428C63.5732 189.699 63.4239 190.053 63.4239 190.492V190.898H66.7419ZM76.7124 195.126C75.9471 195.126 75.2658 195.014 74.6684 194.79C74.0711 194.557 73.6044 194.235 73.2684 193.824C72.9324 193.404 72.7644 192.928 72.7644 192.396C72.7644 191.957 72.9044 191.64 73.1844 191.444C73.4738 191.248 73.9404 191.15 74.5844 191.15C74.5564 191.327 74.5424 191.537 74.5424 191.78C74.5424 192.34 74.7244 192.769 75.0884 193.068C75.4618 193.357 76.0031 193.502 76.7124 193.502C77.4124 193.502 77.9398 193.39 78.2944 193.166C78.6584 192.942 78.8404 192.611 78.8404 192.172C78.8404 191.257 78.2198 190.8 76.9784 190.8H76.5164C76.2831 190.8 76.0918 190.725 75.9424 190.576C75.7931 190.427 75.7184 190.235 75.7184 190.002C75.7184 189.759 75.7884 189.568 75.9284 189.428C76.0778 189.279 76.2738 189.204 76.5164 189.204H76.9924C78.0378 189.204 78.5604 188.779 78.5604 187.93C78.5604 187.529 78.4064 187.225 78.0984 187.02C77.7904 186.805 77.3471 186.698 76.7684 186.698C76.1338 186.698 75.6438 186.81 75.2984 187.034C74.9531 187.249 74.7804 187.561 74.7804 187.972C74.7804 188.149 74.7991 188.35 74.8364 188.574C74.2951 188.593 73.8518 188.499 73.5064 188.294C73.1704 188.089 73.0024 187.813 73.0024 187.468C73.0024 187.001 73.1611 186.586 73.4784 186.222C73.7958 185.858 74.2391 185.578 74.8084 185.382C75.3871 185.177 76.0404 185.074 76.7684 185.074C77.5058 185.074 78.1544 185.191 78.7144 185.424C79.2744 185.657 79.7038 185.993 80.0024 186.432C80.3104 186.861 80.4644 187.361 80.4644 187.93C80.4644 188.807 80.0118 189.498 79.1064 190.002C79.6944 190.254 80.1098 190.548 80.3524 190.884C80.6044 191.22 80.7304 191.649 80.7304 192.172C80.7304 192.76 80.5624 193.278 80.2264 193.726C79.8904 194.174 79.4191 194.519 78.8124 194.762C78.2058 195.005 77.5058 195.126 76.7124 195.126ZM85.8059 195.14C84.9939 195.14 84.2845 195.019 83.6779 194.776C83.0712 194.524 82.6045 194.174 82.2779 193.726C81.9512 193.269 81.7879 192.737 81.7879 192.13C81.7879 191.617 81.9279 191.164 82.2079 190.772C82.4879 190.38 82.8985 190.067 83.4399 189.834C82.5625 189.349 82.1239 188.681 82.1239 187.832C82.1239 187.3 82.2779 186.824 82.5859 186.404C82.9032 185.984 83.3419 185.657 83.9019 185.424C84.4619 185.191 85.0965 185.074 85.8059 185.074C86.5339 185.074 87.1779 185.191 87.7379 185.424C88.2979 185.657 88.7319 185.984 89.0399 186.404C89.3479 186.815 89.5019 187.291 89.5019 187.832C89.5019 188.681 89.0585 189.349 88.1719 189.834C88.7132 190.067 89.1239 190.38 89.4039 190.772C89.6932 191.164 89.8379 191.617 89.8379 192.13C89.8379 192.737 89.6745 193.269 89.3479 193.726C89.0212 194.183 88.5545 194.533 87.9479 194.776C87.3412 195.019 86.6272 195.14 85.8059 195.14ZM85.8059 189.19C86.3845 189.19 86.8372 189.078 87.1639 188.854C87.4999 188.63 87.6679 188.317 87.6679 187.916C87.6679 187.505 87.5092 187.193 87.1919 186.978C86.8839 186.754 86.4219 186.642 85.8059 186.642C85.2085 186.642 84.7465 186.754 84.4199 186.978C84.1025 187.193 83.9439 187.505 83.9439 187.916C83.9439 188.308 84.1119 188.621 84.4479 188.854C84.7932 189.078 85.2459 189.19 85.8059 189.19ZM85.8059 193.558C87.2712 193.558 88.0039 193.059 88.0039 192.06C88.0039 191.565 87.8125 191.187 87.4299 190.926C87.0472 190.655 86.5059 190.52 85.8059 190.52C85.1245 190.52 84.5879 190.66 84.1959 190.94C83.8039 191.211 83.6079 191.584 83.6079 192.06C83.6079 192.545 83.7945 192.919 84.1679 193.18C84.5505 193.432 85.0965 193.558 85.8059 193.558ZM93.4553 190.828C92.97 190.828 92.536 190.739 92.1533 190.562C91.78 190.375 91.486 190.128 91.2713 189.82C91.066 189.503 90.9633 189.157 90.9633 188.784V187.118C90.9633 186.745 91.066 186.404 91.2713 186.096C91.486 185.779 91.78 185.531 92.1533 185.354C92.536 185.167 92.97 185.074 93.4553 185.074C93.95 185.074 94.384 185.167 94.7573 185.354C95.14 185.531 95.434 185.779 95.6393 186.096C95.854 186.404 95.9613 186.745 95.9613 187.118V188.784C95.9613 189.157 95.854 189.503 95.6393 189.82C95.434 190.128 95.14 190.375 94.7573 190.562C94.384 190.739 93.95 190.828 93.4553 190.828ZM93.4553 189.834C93.866 189.834 94.1973 189.741 94.4493 189.554C94.7107 189.358 94.8413 189.087 94.8413 188.742V187.16C94.8413 186.815 94.7107 186.549 94.4493 186.362C94.1973 186.166 93.866 186.068 93.4553 186.068C93.054 186.068 92.7227 186.166 92.4613 186.362C92.2 186.558 92.0693 186.824 92.0693 187.16V188.742C92.0693 189.078 92.2 189.344 92.4613 189.54C92.7227 189.736 93.054 189.834 93.4553 189.834ZM101.44 195.126C100.638 195.126 99.9237 194.977 99.2984 194.678C98.673 194.37 98.1877 193.945 97.8424 193.404C97.497 192.863 97.3244 192.247 97.3244 191.556V188.616C97.3244 187.925 97.497 187.314 97.8424 186.782C98.1877 186.241 98.6684 185.821 99.2844 185.522C99.9004 185.223 100.605 185.074 101.398 185.074C102.192 185.074 102.896 185.2 103.512 185.452C104.138 185.695 104.623 186.035 104.968 186.474C105.314 186.913 105.486 187.417 105.486 187.986C105.486 188.285 105.388 188.523 105.192 188.7C104.996 188.868 104.735 188.952 104.408 188.952C104.287 188.952 104.147 188.938 103.988 188.91C104.007 188.761 104.016 188.569 104.016 188.336C104.016 187.953 103.904 187.617 103.68 187.328C103.456 187.029 103.144 186.801 102.742 186.642C102.35 186.474 101.902 186.39 101.398 186.39C100.904 186.39 100.46 186.483 100.068 186.67C99.6764 186.857 99.3684 187.123 99.1444 187.468C98.9297 187.804 98.8224 188.187 98.8224 188.616V191.556C98.8224 191.995 98.9344 192.387 99.1584 192.732C99.3824 193.068 99.6904 193.334 100.082 193.53C100.484 193.717 100.936 193.81 101.44 193.81C102.224 193.81 102.859 193.633 103.344 193.278C103.839 192.914 104.086 192.443 104.086 191.864C104.086 191.687 104.077 191.495 104.058 191.29C104.189 191.262 104.315 191.248 104.436 191.248C104.772 191.248 105.043 191.341 105.248 191.528C105.454 191.715 105.556 191.967 105.556 192.284C105.556 192.835 105.384 193.329 105.038 193.768C104.693 194.197 104.208 194.533 103.582 194.776C102.957 195.009 102.243 195.126 101.44 195.126Z" fill="black"/>
<g filter="url(#filter0_d_278_5)">
<path d="M273.597 57.6818C271.444 57.6818 269.638 56.988 268.179 55.6004C266.72 54.2127 265.993 52.4975 265.998 50.4546V43.2273C265.998 41.1796 266.727 39.4619 268.186 38.0743C269.645 36.6866 271.449 35.9952 273.597 36C275.751 36 277.557 36.6938 279.016 38.0815C280.475 39.4691 281.202 41.1844 281.197 43.2273V50.4546C281.197 52.5023 280.467 54.22 279.008 55.6076C277.549 56.9952 275.746 57.6867 273.597 57.6818ZM273.597 195C271.444 195 269.638 194.306 268.179 192.919C266.72 191.531 265.993 189.816 265.998 187.773V180.545C265.998 178.498 266.727 176.78 268.186 175.392C269.645 174.005 271.449 173.313 273.597 173.318C275.751 173.318 277.557 174.012 279.016 175.4C280.475 176.787 281.202 178.503 281.197 180.545V187.773C281.197 189.82 280.467 191.538 279.008 192.926C277.549 194.313 275.746 195.005 273.597 195ZM197.6 122.727C195.447 122.727 193.64 122.033 192.181 120.646C190.722 119.258 189.995 117.543 190 115.5C190 113.452 190.73 111.735 192.189 110.347C193.648 108.959 195.452 108.268 197.6 108.273H205.2C207.353 108.273 209.159 108.967 210.618 110.354C212.077 111.742 212.804 113.457 212.799 115.5C212.799 117.548 212.07 119.265 210.611 120.653C209.151 122.041 207.348 122.732 205.2 122.727H197.6ZM214.509 171.692C212.989 170.247 212.229 168.5 212.229 166.452C212.229 164.405 212.989 162.658 214.509 161.212L217.359 158.683C218.879 157.358 220.652 156.695 222.679 156.695C224.706 156.695 226.479 157.418 227.999 158.864C229.392 160.189 230.122 161.875 230.188 163.923C230.253 165.97 229.524 167.657 227.999 168.982L225.339 171.692C223.946 173.137 222.172 173.86 220.019 173.86C217.866 173.86 216.029 173.137 214.509 171.692ZM217.359 72.1364L214.509 69.6068C212.989 68.2818 212.229 66.5955 212.229 64.5477C212.229 62.5 212.989 60.7534 214.509 59.308C216.029 57.8625 217.866 57.1398 220.019 57.1398C222.172 57.1398 224.009 57.8625 225.529 59.308L228.189 62.0182C229.582 63.4637 230.279 65.15 230.279 67.0773C230.279 69.0046 229.519 70.6909 227.999 72.1364C226.606 73.4614 224.865 74.1239 222.778 74.1239C220.69 74.1239 218.884 73.4614 217.359 72.1364Z" fill="#FFC700"/>
</g>
<path d="M283 66C275.777 66 268.625 67.2803 261.952 69.768C255.28 72.2556 249.216 75.9017 244.109 80.4982C239.002 85.0947 234.951 90.5516 232.187 96.5572C229.423 102.563 228 109 228 115.5C228 122 229.423 128.437 232.187 134.443C234.951 140.448 239.002 145.905 244.109 150.502C249.216 155.098 255.28 158.744 261.952 161.232C268.625 163.72 275.777 165 283 165L283 115.5V66Z" fill="#FFC700"/>
<path d="M34.32 23C34.32 22.7067 34.42 22.4667 34.62 22.28C34.8333 22.0933 35.1 22 35.42 22H41.16C42.0667 22 42.8667 22.1867 43.56 22.56C44.2667 22.92 44.8133 23.44 45.2 24.12C45.5867 24.7867 45.78 25.56 45.78 26.44C45.78 27.3333 45.5867 28.12 45.2 28.8C44.8267 29.48 44.2867 30.0067 43.58 30.38C42.8867 30.74 42.08 30.92 41.16 30.92H36.48V34.48C36.48 35.0267 36.2933 35.4467 35.92 35.74C35.5467 36.0333 35.0133 36.18 34.32 36.18V23ZM41.16 29.04C41.9333 29.04 42.54 28.8133 42.98 28.36C43.42 27.8933 43.64 27.2533 43.64 26.44C43.64 25.6533 43.4133 25.0333 42.96 24.58C42.52 24.1133 41.92 23.88 41.16 23.88H36.48V29.04H41.16ZM49.9447 36.18C48.838 36.18 47.9314 35.88 47.2247 35.28C46.518 34.6667 46.1647 33.8533 46.1647 32.84C46.1647 31.8133 46.538 30.9933 47.2847 30.38C48.0314 29.7667 48.998 29.46 50.1847 29.46C51.438 29.46 52.4714 29.8867 53.2847 30.74L53.3647 30.66C53.1914 30.4733 53.0114 30.3 52.8247 30.14V29.46C52.8247 28.82 52.618 28.3267 52.2047 27.98C51.7914 27.62 51.2114 27.44 50.4647 27.44C49.118 27.44 48.1447 27.96 47.5447 29C47.2914 28.8933 47.0847 28.7467 46.9247 28.56C46.778 28.36 46.7047 28.16 46.7047 27.96C46.7047 27.5867 46.8847 27.24 47.2447 26.92C47.6047 26.5867 48.0847 26.32 48.6847 26.12C49.2847 25.92 49.9247 25.82 50.6047 25.82C51.9114 25.82 52.938 26.14 53.6847 26.78C54.4314 27.42 54.8047 28.2933 54.8047 29.4V34.72C54.8047 35.2267 54.6514 35.6 54.3447 35.84C54.038 36.0667 53.5647 36.18 52.9247 36.18V35.28C53.2047 34.9733 53.358 34.8 53.3847 34.76L53.3047 34.68C52.8647 35.1867 52.3714 35.5667 51.8247 35.82C51.2914 36.06 50.6647 36.18 49.9447 36.18ZM50.3647 34.66C51.1514 34.66 51.7647 34.5 52.2047 34.18C52.6447 33.86 52.8647 33.4133 52.8647 32.84C52.8647 32.2667 52.6447 31.8133 52.2047 31.48C51.7647 31.1467 51.1647 30.98 50.4047 30.98C49.698 30.98 49.138 31.1467 48.7247 31.48C48.3114 31.8133 48.1047 32.2667 48.1047 32.84C48.1047 33.4133 48.3047 33.86 48.7047 34.18C49.1047 34.5 49.658 34.66 50.3647 34.66ZM57.3473 27.44C57.3473 26.36 57.9873 25.82 59.2673 25.82V27.08C59.134 27.2133 58.9873 27.4 58.8273 27.64L58.9273 27.72C59.3273 27.1467 59.8407 26.6867 60.4673 26.34C61.1073 25.9933 61.8007 25.82 62.5473 25.82C63.614 25.82 64.4607 26.1467 65.0873 26.8C65.714 27.44 66.0273 28.2667 66.0273 29.28V34.82C66.0273 35.2867 65.8607 35.6333 65.5273 35.86C65.2073 36.0733 64.714 36.18 64.0473 36.18V29.52C64.0473 28.9333 63.874 28.46 63.5273 28.1C63.1807 27.74 62.674 27.56 62.0073 27.56C61.5407 27.56 61.1007 27.6667 60.6873 27.88C60.274 28.08 59.9473 28.3533 59.7073 28.7C59.4673 29.0467 59.3473 29.4267 59.3473 29.84V34.82C59.3473 35.3 59.1807 35.6467 58.8473 35.86C58.5273 36.0733 58.0273 36.18 57.3473 36.18V27.44ZM70.1489 24.5C69.7489 24.5 69.4089 24.3733 69.1289 24.12C68.8622 23.8667 68.7289 23.5467 68.7289 23.16C68.7289 22.7733 68.8622 22.4533 69.1289 22.2C69.4089 21.9467 69.7489 21.82 70.1489 21.82C70.5622 21.82 70.9022 21.9467 71.1689 22.2C71.4489 22.4533 71.5889 22.7733 71.5889 23.16C71.5889 23.5467 71.4489 23.8667 71.1689 24.12C70.9022 24.3733 70.5622 24.5 70.1489 24.5ZM67.9089 40.18C67.2822 40.18 66.7689 40.0267 66.3689 39.72C65.9822 39.4267 65.7889 39.0733 65.7889 38.66C65.7889 38.3133 65.9156 38.0533 66.1689 37.88C66.3422 38.0533 66.5622 38.1867 66.8289 38.28C67.0956 38.3867 67.3822 38.44 67.6889 38.44C68.6756 38.44 69.1689 37.92 69.1689 36.88V27.18C69.1689 26.7 69.3289 26.3533 69.6489 26.14C69.9822 25.9267 70.4822 25.82 71.1489 25.82V36.92C71.1489 37.8667 70.8556 38.6467 70.2689 39.26C69.6956 39.8733 68.9089 40.18 67.9089 40.18ZM75.6623 24.5C75.2623 24.5 74.9223 24.3733 74.6423 24.12C74.3623 23.8667 74.2223 23.5467 74.2223 23.16C74.2223 22.7733 74.3623 22.4533 74.6423 22.2C74.9223 21.9467 75.2623 21.82 75.6623 21.82C76.0623 21.82 76.3957 21.9467 76.6623 22.2C76.9423 22.4533 77.0823 22.7733 77.0823 23.16C77.0823 23.5467 76.9423 23.8667 76.6623 24.12C76.3957 24.3733 76.0623 24.5 75.6623 24.5ZM74.6623 27.18C74.6623 26.7 74.8223 26.3533 75.1423 26.14C75.4757 25.9267 75.9757 25.82 76.6423 25.82V34.82C76.6423 35.2867 76.4757 35.6333 76.1423 35.86C75.8223 36.0733 75.329 36.18 74.6623 36.18V27.18ZM79.7302 27.44C79.7302 26.36 80.3635 25.82 81.6302 25.82V27.08C81.4968 27.2133 81.3502 27.4 81.1902 27.64L81.2902 27.72C81.7168 27.1067 82.1635 26.64 82.6302 26.32C83.0968 25.9867 83.6502 25.82 84.2902 25.82C85.4902 25.82 86.3102 26.3933 86.7502 27.54C87.4968 26.3933 88.5102 25.82 89.7902 25.82C90.7235 25.82 91.4502 26.14 91.9702 26.78C92.5035 27.42 92.7702 28.2533 92.7702 29.28V34.82C92.7702 35.2867 92.6035 35.6333 92.2702 35.86C91.9502 36.0733 91.4568 36.18 90.7902 36.18V29.42C90.7902 28.1533 90.2768 27.52 89.2502 27.52C88.6902 27.52 88.2102 27.7133 87.8102 28.1C87.4235 28.4733 87.2302 29 87.2302 29.68V34.82C87.2302 35.3 87.0702 35.6467 86.7502 35.86C86.4302 36.0733 85.9435 36.18 85.2902 36.18V29.42C85.2902 28.8333 85.1635 28.3733 84.9102 28.04C84.6568 27.6933 84.2635 27.52 83.7302 27.52C83.1435 27.52 82.6568 27.7333 82.2702 28.16C81.8968 28.5733 81.7102 29.1 81.7102 29.74V34.82C81.7102 35.2867 81.5435 35.6333 81.2102 35.86C80.8902 36.0733 80.3968 36.18 79.7302 36.18V27.44ZM95.118 38.78C95.6113 38.34 95.978 37.88 96.218 37.4C96.4713 36.9333 96.598 36.4933 96.598 36.08C96.438 36.1467 96.278 36.18 96.118 36.18C95.718 36.18 95.3913 36.0467 95.138 35.78C94.898 35.5133 94.778 35.1667 94.778 34.74C94.778 34.2867 94.9246 33.92 95.218 33.64C95.5113 33.3467 95.8846 33.2 96.338 33.2C96.818 33.2 97.2046 33.36 97.498 33.68C97.7913 33.9867 97.938 34.36 97.938 34.8C97.938 35.7067 97.7913 36.4733 97.498 37.1C97.218 37.7267 96.8046 38.2733 96.258 38.74C96.1246 38.86 95.9113 38.92 95.618 38.92C95.378 38.92 95.2113 38.8733 95.118 38.78ZM110.938 36.18C109.791 36.18 108.764 35.9667 107.858 35.54C106.964 35.1 106.264 34.4933 105.758 33.72C105.264 32.9467 105.018 32.0667 105.018 31.08V26.88C105.018 25.8933 105.264 25.02 105.758 24.26C106.251 23.4867 106.938 22.8867 107.818 22.46C108.698 22.0333 109.704 21.82 110.838 21.82C111.971 21.82 112.978 22 113.858 22.36C114.751 22.7067 115.444 23.1933 115.938 23.82C116.431 24.4467 116.678 25.16 116.678 25.96C116.678 26.3867 116.531 26.7267 116.238 26.98C115.958 27.22 115.578 27.34 115.098 27.34C114.924 27.34 114.738 27.32 114.538 27.28C114.564 27.0667 114.578 26.7933 114.578 26.46C114.578 25.9133 114.418 25.4333 114.098 25.02C113.778 24.5933 113.331 24.2667 112.758 24.04C112.198 23.8 111.558 23.68 110.838 23.68C109.758 23.68 108.871 23.98 108.178 24.58C107.498 25.1667 107.158 25.9333 107.158 26.88V31.08C107.158 31.7067 107.318 32.2667 107.638 32.76C107.958 33.2533 108.404 33.64 108.978 33.92C109.551 34.1867 110.204 34.32 110.938 34.32C112.031 34.32 112.918 34.06 113.598 33.54C114.291 33.0067 114.638 32.3133 114.638 31.46V30.52H112.378C111.938 30.52 111.578 30.36 111.298 30.04C111.018 29.7067 110.878 29.28 110.878 28.76H115.758C116.051 28.76 116.291 28.8533 116.478 29.04C116.678 29.2267 116.778 29.4667 116.778 29.76V31.5C116.778 32.4067 116.531 33.22 116.038 33.94C115.544 34.6467 114.851 35.2 113.958 35.6C113.078 35.9867 112.071 36.18 110.938 36.18ZM122.537 36.18C121.697 36.18 120.944 36.0267 120.277 35.72C119.611 35.4133 119.084 34.9933 118.697 34.46C118.324 33.9133 118.137 33.3067 118.137 32.64V29.5C118.137 28.82 118.324 28.2 118.697 27.64C119.071 27.08 119.591 26.64 120.257 26.32C120.924 25.9867 121.684 25.82 122.537 25.82C123.391 25.82 124.151 25.9867 124.817 26.32C125.484 26.64 126.004 27.08 126.377 27.64C126.764 28.2 126.957 28.82 126.957 29.5V32.64C126.957 33.3067 126.764 33.9133 126.377 34.46C126.004 34.9933 125.477 35.4133 124.797 35.72C124.131 36.0267 123.377 36.18 122.537 36.18ZM122.537 34.46C123.297 34.46 123.897 34.2867 124.337 33.94C124.777 33.58 124.997 33.1067 124.997 32.52V29.58C124.997 28.9667 124.771 28.4733 124.317 28.1C123.877 27.7267 123.284 27.54 122.537 27.54C121.791 27.54 121.191 27.7267 120.737 28.1C120.297 28.4733 120.077 28.9667 120.077 29.58V32.52C120.077 33.1067 120.297 33.58 120.737 33.94C121.177 34.2867 121.777 34.46 122.537 34.46ZM131.917 36.18C130.811 36.18 129.904 35.88 129.197 35.28C128.491 34.6667 128.137 33.8533 128.137 32.84C128.137 31.8133 128.511 30.9933 129.257 30.38C130.004 29.7667 130.971 29.46 132.157 29.46C133.411 29.46 134.444 29.8867 135.257 30.74L135.337 30.66C135.164 30.4733 134.984 30.3 134.797 30.14V29.46C134.797 28.82 134.591 28.3267 134.177 27.98C133.764 27.62 133.184 27.44 132.437 27.44C131.091 27.44 130.117 27.96 129.517 29C129.264 28.8933 129.057 28.7467 128.897 28.56C128.751 28.36 128.677 28.16 128.677 27.96C128.677 27.5867 128.857 27.24 129.217 26.92C129.577 26.5867 130.057 26.32 130.657 26.12C131.257 25.92 131.897 25.82 132.577 25.82C133.884 25.82 134.911 26.14 135.657 26.78C136.404 27.42 136.777 28.2933 136.777 29.4V34.72C136.777 35.2267 136.624 35.6 136.317 35.84C136.011 36.0667 135.537 36.18 134.897 36.18V35.28C135.177 34.9733 135.331 34.8 135.357 34.76L135.277 34.68C134.837 35.1867 134.344 35.5667 133.797 35.82C133.264 36.06 132.637 36.18 131.917 36.18ZM132.337 34.66C133.124 34.66 133.737 34.5 134.177 34.18C134.617 33.86 134.837 33.4133 134.837 32.84C134.837 32.2667 134.617 31.8133 134.177 31.48C133.737 31.1467 133.137 30.98 132.377 30.98C131.671 30.98 131.111 31.1467 130.697 31.48C130.284 31.8133 130.077 32.2667 130.077 32.84C130.077 33.4133 130.277 33.86 130.677 34.18C131.077 34.5 131.631 34.66 132.337 34.66Z" fill="white"/>
<path d="M18 16C20.6522 16 23.1957 17.0536 25.0711 18.9289C26.9464 20.8043 28 23.3478 28 26C28 30.14 24.8444 34.4778 18.6667 39.1111C18.4743 39.2554 18.2404 39.3333 18 39.3333C17.7596 39.3333 17.5257 39.2554 17.3333 39.1111C11.1556 34.4778 8 30.14 8 26C8 23.3478 9.05357 20.8043 10.9289 18.9289C12.8043 17.0536 15.3478 16 18 16ZM18 18.2222C15.9372 18.2222 13.9589 19.0417 12.5003 20.5003C11.0417 21.9589 10.2222 23.9372 10.2222 26C10.2222 29.0111 12.5756 32.4844 17.3867 36.34L18 36.8244L18.6133 36.34C23.4244 32.4844 25.7778 29.0111 25.7778 26C25.7778 23.9372 24.9583 21.9589 23.4997 20.5003C22.0411 19.0417 20.0628 18.2222 18 18.2222ZM18 23.7778C18.5894 23.7778 19.1546 24.0119 19.5713 24.4287C19.9881 24.8454 20.2222 25.4106 20.2222 26C20.2222 26.5894 19.9881 27.1546 19.5713 27.5713C19.1546 27.9881 18.5894 28.2222 18 28.2222C17.4106 28.2222 16.8454 27.9881 16.4287 27.5713C16.0119 27.1546 15.7778 26.5894 15.7778 26C15.7778 25.4106 16.0119 24.8454 16.4287 24.4287C16.8454 24.0119 17.4106 23.7778 18 23.7778Z" fill="#F8F8F8"/>
<defs>
<filter id="filter0_d_278_5" x="186" y="36" width="99.1973" height="167" filterUnits="userSpaceOnUse" color-interpolation-filters="sRGB">
<feFlood flood-opacity="0" result="BackgroundImageFix"/>
<feColorMatrix in="SourceAlpha" type="matrix" values="0 0 0 0 0 0 0 0 0 0 0 0 0 0 0 0 0 0 127 0" result="hardAlpha"/>
<feOffset dy="4"/>
<feGaussianBlur stdDeviation="2"/>
<feComposite in2="hardAlpha" operator="out"/>
<feColorMatrix type="matrix" values="0 0 0 0 0 0 0 0 0 0 0 0 0 0 0 0 0 0 0.25 0"/>
<feBlend mode="normal" in2="BackgroundImageFix" result="effect1_dropShadow_278_5"/>
<feBlend mode="normal" in="SourceGraphic" in2="effect1_dropShadow_278_5" result="shape"/>
</filter>
</defs>
</svg>
